<svg id="svg" version="1.1" xmlns="http://www.w3.org/2000/svg" xmlns:xlink="http://www.w3.org/1999/xlink" width="400" height="400" viewBox="0, 0, 400,400"><g id="svgg"><path id="path0" d="M265.400 3.200 C 265.264 3.420,264.623 3.600,263.976 3.600 C 263.329 3.600,262.800 3.780,262.800 4.000 C 262.800 4.220,262.476 4.400,262.080 4.400 C 261.186 4.400,259.207 5.294,259.203 5.700 C 259.201 5.865,258.928 6.000,258.596 6.000 C 258.264 6.000,257.428 6.540,256.737 7.200 C 256.046 7.860,255.300 8.400,255.078 8.400 C 254.293 8.400,249.621 13.780,249.607 14.700 C 249.603 14.975,249.420 15.200,249.200 15.200 C 248.980 15.200,248.800 15.560,248.800 16.000 C 248.800 16.440,248.620 16.800,248.400 16.800 C 248.180 16.800,248.000 17.239,248.000 17.776 C 248.000 18.313,247.820 18.864,247.600 19.000 C 247.380 19.136,247.200 19.777,247.200 20.424 C 247.200 21.071,247.035 21.600,246.834 21.600 C 246.633 21.600,246.468 22.455,246.468 23.500 C 246.469 24.545,246.453 25.615,246.434 25.878 C 246.391 26.486,224.753 26.434,224.325 25.825 C 224.173 25.609,221.489 25.392,218.325 25.341 C 209.529 25.199,202.241 24.767,201.820 24.364 C 201.611 24.164,199.766 24.000,197.720 24.000 C 195.507 24.000,194.000 23.838,194.000 23.600 C 194.000 23.369,192.741 23.200,191.024 23.200 C 189.387 23.200,187.936 23.020,187.800 22.800 C 187.664 22.580,186.393 22.400,184.976 22.400 C 183.525 22.400,182.400 22.225,182.400 22.000 C 182.400 21.778,181.333 21.600,180.000 21.600 C 178.667 21.600,177.600 21.422,177.600 21.200 C 177.600 20.980,176.610 20.800,175.400 20.800 C 174.190 20.800,173.200 20.620,173.200 20.400 C 173.200 20.180,172.221 20.000,171.024 20.000 C 169.827 20.000,168.736 19.820,168.600 19.600 C 168.464 19.380,167.283 19.200,165.976 19.200 C 164.669 19.200,163.600 19.036,163.600 18.835 C 163.600 18.634,162.387 18.460,160.905 18.449 C 159.421 18.437,158.147 18.242,158.071 18.014 C 157.995 17.786,156.789 17.600,155.390 17.600 C 153.992 17.600,152.736 17.420,152.600 17.200 C 152.464 16.980,151.013 16.800,149.376 16.800 C 147.739 16.800,146.400 16.630,146.400 16.422 C 146.400 16.214,145.024 16.044,143.342 16.044 C 141.660 16.044,140.094 15.854,139.862 15.622 C 139.623 15.383,137.738 15.200,135.520 15.200 C 133.173 15.200,131.600 15.039,131.600 14.800 C 131.600 14.555,129.675 14.400,126.624 14.400 C 123.866 14.400,121.541 14.228,121.409 14.015 C 121.021 13.386,84.002 13.468,83.994 14.097 C 83.990 14.437,83.860 14.405,83.594 14.000 C 83.332 13.601,83.099 13.542,82.900 13.824 C 82.735 14.057,80.980 14.298,79.000 14.360 C 77.020 14.422,75.201 14.636,74.958 14.837 C 74.715 15.037,73.500 15.225,72.258 15.253 C 71.016 15.282,70.000 15.462,70.000 15.653 C 70.000 15.844,69.021 16.000,67.824 16.000 C 66.627 16.000,65.536 16.180,65.400 16.400 C 65.264 16.620,64.433 16.800,63.553 16.800 C 62.588 16.800,62.051 16.959,62.200 17.200 C 62.409 17.539,60.275 17.814,59.871 17.500 C 59.801 17.445,59.422 17.721,59.029 18.114 C 58.615 18.528,58.012 18.731,57.592 18.597 C 57.193 18.471,56.752 18.555,56.610 18.784 C 56.469 19.013,55.834 19.200,55.200 19.200 C 54.566 19.200,53.936 19.380,53.800 19.600 C 53.664 19.820,53.203 20.000,52.776 20.000 C 52.349 20.000,52.000 20.180,52.000 20.400 C 52.000 20.620,51.460 20.800,50.800 20.800 C 50.140 20.800,49.600 20.980,49.600 21.200 C 49.600 21.420,49.240 21.600,48.800 21.600 C 48.360 21.600,48.000 21.780,48.000 22.000 C 48.000 22.220,47.550 22.400,47.000 22.400 C 46.450 22.400,45.999 22.535,45.997 22.700 C 45.993 23.037,44.075 24.000,43.409 24.000 C 43.171 24.000,42.717 24.360,42.400 24.800 C 42.083 25.240,41.503 25.600,41.112 25.600 C 40.720 25.600,40.400 25.780,40.400 26.000 C 40.400 26.220,40.138 26.400,39.818 26.400 C 39.066 26.400,36.557 28.027,34.911 29.582 C 34.203 30.252,33.473 30.800,33.291 30.800 C 32.610 30.800,29.160 34.518,29.359 35.037 C 29.472 35.333,29.408 35.671,29.217 35.790 C 29.025 35.908,28.777 35.779,28.666 35.502 C 28.507 35.109,28.456 35.112,28.432 35.517 C 28.398 36.066,27.937 36.696,26.526 38.119 C 26.045 38.603,25.595 39.270,25.526 39.600 C 25.457 39.930,25.116 40.470,24.770 40.800 C 24.423 41.130,23.884 41.985,23.572 42.700 C 23.260 43.415,22.869 44.000,22.702 44.000 C 22.536 44.000,22.400 44.349,22.400 44.776 C 22.400 45.203,22.220 45.664,22.000 45.800 C 21.780 45.936,21.600 46.407,21.600 46.847 C 21.600 47.287,21.420 47.536,21.200 47.400 C 20.967 47.256,20.800 47.663,20.800 48.376 C 20.800 49.049,20.620 49.600,20.400 49.600 C 20.180 49.600,20.000 50.140,20.000 50.800 C 20.000 51.460,19.820 52.000,19.600 52.000 C 19.380 52.000,19.200 52.720,19.200 53.600 C 19.200 54.480,19.020 55.200,18.800 55.200 C 18.578 55.200,18.400 56.259,18.400 57.576 C 18.400 58.883,18.220 60.064,18.000 60.200 C 17.460 60.534,17.460 72.800,18.000 72.800 C 18.229 72.800,18.400 74.000,18.400 75.600 C 18.400 77.200,18.571 78.400,18.800 78.400 C 19.020 78.400,19.200 78.683,19.200 79.029 C 19.200 79.766,18.260 80.800,17.589 80.800 C 17.332 80.800,16.617 81.340,16.000 82.000 C 15.383 82.660,14.688 83.200,14.454 83.200 C 13.887 83.200,9.200 88.039,9.200 88.623 C 9.200 88.875,8.660 89.646,8.000 90.337 C 7.340 91.028,6.800 91.875,6.800 92.220 C 6.800 92.565,6.646 92.752,6.457 92.635 C 6.268 92.519,5.683 93.273,5.157 94.312 C 4.631 95.350,4.065 96.260,3.900 96.333 C 3.735 96.407,3.600 96.812,3.600 97.233 C 3.600 97.655,3.420 98.000,3.200 98.000 C 2.980 98.000,2.800 98.360,2.800 98.800 C 2.800 99.240,2.620 99.600,2.400 99.600 C 2.180 99.600,2.000 100.140,2.000 100.800 C 2.000 101.460,1.820 102.000,1.600 102.000 C 1.380 102.000,1.200 102.525,1.200 103.167 C 1.200 103.808,0.975 104.408,0.700 104.500 C 0.315 104.629,0.200 107.369,0.200 116.400 C 0.200 125.431,0.315 128.172,0.700 128.300 C 0.975 128.392,1.200 128.992,1.200 129.633 C 1.200 130.275,1.380 130.800,1.600 130.800 C 1.820 130.800,2.000 131.340,2.000 132.000 C 2.000 132.660,2.180 133.200,2.400 133.200 C 2.620 133.200,2.800 133.639,2.800 134.176 C 2.800 134.713,2.980 135.264,3.200 135.400 C 3.420 135.536,3.600 135.997,3.600 136.424 C 3.600 136.851,3.780 137.200,4.000 137.200 C 4.220 137.200,4.400 137.560,4.400 138.000 C 4.400 138.440,4.580 138.800,4.800 138.800 C 5.020 138.800,5.200 139.145,5.200 139.567 C 5.200 139.988,5.425 140.438,5.700 140.567 C 6.100 140.753,6.100 140.847,5.700 141.033 C 5.425 141.162,5.200 141.522,5.200 141.833 C 5.200 142.145,5.020 142.400,4.800 142.400 C 4.580 142.400,4.400 142.760,4.400 143.200 C 4.400 143.640,4.220 144.000,4.000 144.000 C 3.780 144.000,3.600 144.265,3.600 144.588 C 3.600 144.911,3.240 145.817,2.800 146.600 C 2.360 147.383,2.000 148.379,2.000 148.812 C 2.000 149.245,1.820 149.600,1.600 149.600 C 1.380 149.600,1.200 150.305,1.200 151.167 C 1.200 152.064,0.987 152.805,0.700 152.900 C 0.314 153.029,0.200 155.929,0.200 165.600 C 0.200 175.271,0.314 178.171,0.700 178.300 C 0.975 178.392,1.200 178.992,1.200 179.633 C 1.200 180.275,1.380 180.800,1.600 180.800 C 1.820 180.800,2.000 181.340,2.000 182.000 C 2.000 182.660,2.180 183.200,2.400 183.200 C 2.620 183.200,2.800 183.639,2.800 184.176 C 2.800 184.713,2.980 185.264,3.200 185.400 C 3.420 185.536,3.600 185.997,3.600 186.424 C 3.600 186.851,3.780 187.200,4.000 187.200 C 4.220 187.200,4.400 187.560,4.400 188.000 C 4.400 188.440,4.580 188.800,4.800 188.800 C 5.020 188.800,5.200 189.070,5.200 189.400 C 5.200 189.730,5.380 190.000,5.600 190.000 C 5.820 190.000,6.000 190.236,6.000 190.525 C 6.000 190.813,6.360 191.436,6.800 191.908 C 7.645 192.815,7.874 194.584,7.200 195.000 C 6.980 195.136,6.800 195.687,6.800 196.224 C 6.800 196.761,6.620 197.200,6.400 197.200 C 6.180 197.200,6.000 197.729,6.000 198.376 C 6.000 199.023,5.820 199.664,5.600 199.800 C 5.380 199.936,5.200 201.207,5.200 202.624 C 5.200 204.075,5.025 205.200,4.800 205.200 C 4.565 205.200,4.400 206.600,4.400 208.600 C 4.400 210.600,4.565 212.000,4.800 212.000 C 5.022 212.000,5.200 213.067,5.200 214.400 C 5.200 215.733,5.378 216.800,5.600 216.800 C 5.820 216.800,6.000 217.520,6.000 218.400 C 6.000 219.280,6.180 220.000,6.400 220.000 C 6.620 220.000,6.800 220.540,6.800 221.200 C 6.800 221.860,6.980 222.400,7.200 222.400 C 7.420 222.400,7.600 222.850,7.600 223.400 C 7.600 223.950,7.780 224.400,8.000 224.400 C 8.220 224.400,8.400 224.760,8.400 225.200 C 8.400 225.640,8.591 226.000,8.824 226.000 C 9.057 226.000,9.145 226.165,9.020 226.368 C 8.895 226.570,9.055 226.998,9.377 227.319 C 9.698 227.641,10.079 228.375,10.224 228.952 C 10.368 229.528,10.647 230.000,10.843 230.000 C 11.040 230.000,11.200 230.236,11.200 230.525 C 11.200 230.813,11.560 231.436,12.000 231.908 C 12.440 232.380,12.800 232.927,12.800 233.124 C 12.800 233.321,13.297 234.003,13.904 234.641 C 14.512 235.278,15.454 236.430,15.998 237.200 C 17.567 239.421,19.516 241.237,19.740 240.685 C 19.888 240.321,19.945 240.327,19.968 240.709 C 20.011 241.387,23.930 245.254,25.292 245.960 C 25.887 246.268,26.278 246.673,26.163 246.860 C 26.047 247.047,26.244 247.200,26.600 247.200 C 26.956 247.200,27.136 247.380,27.000 247.600 C 26.864 247.820,26.994 248.000,27.288 248.000 C 27.583 248.000,28.083 248.360,28.400 248.800 C 28.717 249.240,29.207 249.600,29.488 249.600 C 29.770 249.600,30.000 249.780,30.000 250.000 C 30.000 250.220,30.360 250.400,30.800 250.400 C 31.240 250.400,31.600 250.601,31.600 250.847 C 31.600 251.096,31.953 251.201,32.400 251.084 C 32.920 250.948,33.200 251.072,33.200 251.437 C 33.200 251.747,33.560 252.000,34.000 252.000 C 34.440 252.000,34.800 252.180,34.800 252.400 C 34.800 252.620,35.149 252.800,35.576 252.800 C 36.003 252.800,36.464 252.980,36.600 253.200 C 36.736 253.420,37.276 253.600,37.800 253.600 C 38.324 253.600,38.864 253.780,39.000 254.000 C 39.136 254.220,39.867 254.400,40.624 254.400 C 41.381 254.400,42.000 254.580,42.000 254.800 C 42.000 255.020,42.619 255.200,43.376 255.200 C 44.133 255.200,44.868 255.386,45.009 255.614 C 45.150 255.842,45.971 255.987,46.834 255.936 C 47.697 255.885,48.619 256.059,48.882 256.322 C 49.145 256.585,50.303 256.800,51.456 256.800 C 52.609 256.800,53.649 256.956,53.767 257.147 C 53.885 257.338,55.452 257.526,57.249 257.564 C 59.045 257.602,60.827 257.800,61.207 258.004 C 61.959 258.406,103.512 258.210,108.116 257.783 C 110.806 257.533,110.831 257.540,110.641 258.465 C 110.535 258.979,110.339 260.365,110.205 261.544 C 110.070 262.723,109.679 264.118,109.334 264.644 C 108.990 265.170,108.826 265.600,108.970 265.600 C 109.113 265.600,108.864 265.994,108.416 266.475 C 107.967 266.957,107.600 267.587,107.600 267.875 C 107.600 268.164,107.420 268.400,107.200 268.400 C 106.980 268.400,106.800 268.760,106.800 269.200 C 106.800 269.640,106.620 270.000,106.400 270.000 C 106.180 270.000,106.000 270.360,106.000 270.800 C 106.000 271.240,105.820 271.600,105.600 271.600 C 105.380 271.600,105.200 271.960,105.200 272.400 C 105.200 272.840,105.020 273.200,104.800 273.200 C 104.580 273.200,104.400 273.560,104.400 274.000 C 104.400 274.440,104.254 274.800,104.075 274.800 C 103.896 274.800,103.502 275.430,103.200 276.200 C 102.898 276.970,102.504 277.600,102.325 277.600 C 102.146 277.600,102.000 278.140,102.000 278.800 C 102.000 279.460,101.820 280.000,101.600 280.000 C 101.380 280.000,101.200 280.360,101.200 280.800 C 101.200 281.240,101.020 281.600,100.800 281.600 C 100.580 281.600,100.400 281.949,100.400 282.376 C 100.400 282.803,100.220 283.264,100.000 283.400 C 99.780 283.536,99.600 284.087,99.600 284.624 C 99.600 285.161,99.420 285.600,99.200 285.600 C 98.980 285.600,98.800 286.140,98.800 286.800 C 98.800 287.460,98.620 288.000,98.400 288.000 C 98.180 288.000,98.000 288.540,98.000 289.200 C 98.000 289.860,97.800 290.400,97.556 290.400 C 97.287 290.400,97.175 290.934,97.271 291.755 C 97.386 292.739,97.288 293.055,96.914 292.912 C 96.554 292.773,96.400 293.146,96.400 294.157 C 96.400 294.951,96.220 295.600,96.000 295.600 C 95.780 295.600,95.600 295.951,95.600 296.380 C 95.600 296.810,95.306 298.205,94.947 299.480 C 94.588 300.756,94.208 302.520,94.102 303.400 C 93.996 304.280,93.792 305.180,93.647 305.400 C 93.503 305.620,93.396 306.430,93.410 307.200 C 93.424 307.970,93.226 308.814,92.970 309.076 C 92.714 309.338,92.579 310.223,92.669 311.042 C 92.760 311.862,92.683 312.637,92.499 312.766 C 92.071 313.065,91.200 319.203,91.200 321.921 C 91.200 323.064,91.020 324.000,90.800 324.000 C 90.561 324.000,90.400 325.533,90.400 327.800 C 90.400 330.067,90.239 331.600,90.000 331.600 C 89.750 331.600,89.600 334.000,89.600 338.000 C 89.600 342.000,89.450 344.400,89.200 344.400 C 88.947 344.400,88.800 347.333,88.800 352.400 C 88.800 357.467,88.947 360.400,89.200 360.400 C 89.422 360.400,89.600 361.467,89.600 362.800 C 89.600 364.133,89.778 365.200,90.000 365.200 C 90.220 365.200,90.400 365.830,90.400 366.600 C 90.400 367.370,90.580 368.000,90.800 368.000 C 91.020 368.000,91.200 368.318,91.200 368.706 C 91.200 369.757,92.714 373.699,93.243 374.026 C 93.496 374.183,93.579 374.511,93.428 374.755 C 93.276 375.000,93.299 375.200,93.479 375.200 C 93.658 375.200,94.044 375.741,94.337 376.402 C 94.655 377.121,95.056 377.497,95.335 377.338 C 95.591 377.192,95.670 377.216,95.511 377.392 C 95.193 377.744,96.383 380.000,96.886 380.000 C 97.059 380.000,97.200 380.275,97.200 380.611 C 97.200 381.329,100.561 384.800,101.256 384.800 C 101.519 384.800,101.620 384.914,101.481 385.053 C 101.201 385.333,104.718 388.800,105.282 388.800 C 105.477 388.800,106.073 389.236,106.606 389.770 C 107.139 390.303,108.211 390.969,108.988 391.250 C 109.765 391.531,110.400 391.905,110.400 392.080 C 110.400 392.256,110.760 392.400,111.200 392.400 C 111.640 392.400,112.000 392.580,112.000 392.800 C 112.000 393.020,112.360 393.200,112.800 393.200 C 113.240 393.200,113.600 393.380,113.600 393.600 C 113.600 393.820,113.960 394.000,114.400 394.000 C 114.840 394.000,115.200 394.180,115.200 394.400 C 115.200 394.620,115.740 394.800,116.400 394.800 C 117.060 394.800,117.600 394.980,117.600 395.200 C 117.600 395.420,118.320 395.600,119.200 395.600 C 120.080 395.600,120.800 395.780,120.800 396.000 C 120.800 396.220,121.700 396.400,122.800 396.400 C 123.900 396.400,124.800 396.580,124.800 396.800 C 124.800 397.055,128.133 397.200,134.000 397.200 C 139.867 397.200,143.200 397.055,143.200 396.800 C 143.200 396.571,144.400 396.400,146.000 396.400 C 147.600 396.400,148.800 396.229,148.800 396.000 C 148.800 395.780,149.340 395.600,150.000 395.600 C 150.660 395.600,151.200 395.420,151.200 395.200 C 151.200 394.980,151.560 394.800,152.000 394.800 C 152.440 394.800,152.800 394.620,152.800 394.400 C 152.800 394.180,153.145 394.000,153.567 394.000 C 153.988 394.000,154.393 393.858,154.467 393.684 C 154.540 393.510,155.452 392.762,156.493 392.021 C 157.534 391.281,158.491 390.343,158.620 389.937 C 158.749 389.532,159.022 389.200,159.227 389.200 C 159.432 389.200,159.600 389.009,159.600 388.776 C 159.600 388.543,159.392 388.481,159.138 388.638 C 158.852 388.815,158.785 388.748,158.962 388.462 C 159.119 388.208,159.462 387.999,159.724 387.997 C 160.221 387.994,161.200 386.219,161.200 385.320 C 161.200 385.034,161.380 384.800,161.600 384.800 C 161.820 384.800,162.000 384.451,162.000 384.024 C 162.000 383.597,162.180 383.136,162.400 383.000 C 162.620 382.864,162.800 381.773,162.800 380.576 C 162.800 379.379,162.980 378.400,163.200 378.400 C 163.420 378.400,163.600 377.590,163.600 376.600 C 163.600 375.610,163.420 374.800,163.200 374.800 C 162.963 374.800,162.800 373.333,162.800 371.200 C 162.800 369.067,162.637 367.600,162.400 367.600 C 162.167 367.600,162.000 366.267,162.000 364.400 C 162.000 362.533,162.167 361.200,162.400 361.200 C 162.635 361.200,162.800 359.800,162.800 357.800 C 162.800 355.800,162.965 354.400,163.200 354.400 C 163.420 354.400,163.600 353.500,163.600 352.400 C 163.600 351.300,163.780 350.400,164.000 350.400 C 164.220 350.400,164.400 349.680,164.400 348.800 C 164.400 347.920,164.580 347.200,164.800 347.200 C 165.020 347.200,165.200 346.480,165.200 345.600 C 165.200 344.720,165.380 344.000,165.600 344.000 C 165.820 344.000,166.000 343.460,166.000 342.800 C 166.000 342.140,166.180 341.600,166.400 341.600 C 166.620 341.600,166.800 341.060,166.800 340.400 C 166.800 339.740,166.980 339.200,167.200 339.200 C 167.420 339.200,167.600 338.761,167.600 338.224 C 167.600 337.687,167.796 337.126,168.035 336.978 C 168.274 336.831,168.378 336.359,168.266 335.930 C 168.146 335.472,168.296 335.061,168.631 334.933 C 168.944 334.813,169.200 334.194,169.200 333.557 C 169.200 332.921,169.380 332.400,169.600 332.400 C 169.820 332.400,170.000 332.040,170.000 331.600 C 170.000 331.160,170.180 330.800,170.400 330.800 C 170.620 330.800,170.800 330.361,170.800 329.824 C 170.800 329.287,170.980 328.736,171.200 328.600 C 171.420 328.464,171.600 328.003,171.600 327.576 C 171.600 327.149,171.780 326.800,172.000 326.800 C 172.220 326.800,172.400 326.440,172.400 326.000 C 172.400 325.560,172.580 325.200,172.800 325.200 C 173.020 325.200,173.200 324.948,173.200 324.641 C 173.200 324.333,173.648 323.298,174.195 322.341 C 174.743 321.383,175.193 320.285,175.195 319.900 C 175.198 319.515,175.380 319.200,175.600 319.200 C 175.820 319.200,176.000 318.840,176.000 318.400 C 176.000 317.960,176.180 317.600,176.400 317.600 C 176.620 317.600,176.800 317.240,176.800 316.800 C 176.800 316.360,176.999 316.000,177.243 316.000 C 177.486 316.000,177.579 315.723,177.450 315.385 C 177.315 315.035,177.469 314.672,177.807 314.542 C 178.133 314.417,178.400 313.974,178.400 313.557 C 178.400 313.141,178.580 312.800,178.800 312.800 C 179.020 312.800,179.200 312.522,179.200 312.183 C 179.200 311.844,179.560 311.180,180.000 310.708 C 180.440 310.236,180.800 309.613,180.800 309.325 C 180.800 309.036,180.946 308.800,181.125 308.800 C 181.304 308.800,181.699 308.166,182.003 307.391 C 182.307 306.617,182.881 305.689,183.278 305.329 C 183.675 304.970,184.000 304.434,184.000 304.138 C 184.000 303.842,184.180 303.600,184.400 303.600 C 184.620 303.600,184.800 303.322,184.800 302.983 C 184.800 302.644,185.160 301.980,185.600 301.508 C 186.040 301.036,186.400 300.413,186.400 300.125 C 186.400 299.836,186.580 299.600,186.800 299.600 C 187.020 299.600,187.200 299.280,187.200 298.888 C 187.200 298.497,187.560 297.917,188.000 297.600 C 188.440 297.283,188.800 296.703,188.800 296.312 C 188.800 295.920,188.999 295.600,189.243 295.600 C 189.486 295.600,189.578 295.321,189.447 294.979 C 189.311 294.623,189.378 294.463,189.605 294.603 C 189.822 294.737,190.000 294.684,190.000 294.485 C 190.000 294.285,190.360 293.707,190.800 293.200 C 191.240 292.693,191.600 291.935,191.600 291.515 C 191.600 291.096,191.780 290.864,192.000 291.000 C 192.220 291.136,192.400 290.967,192.400 290.624 C 192.400 290.281,192.580 290.000,192.800 290.000 C 193.020 290.000,193.200 289.812,193.200 289.583 C 193.200 289.354,193.560 288.780,194.000 288.308 C 194.440 287.836,194.800 287.213,194.800 286.925 C 194.800 286.636,194.991 286.400,195.224 286.400 C 195.457 286.400,195.536 286.220,195.400 286.000 C 195.264 285.780,195.433 285.600,195.776 285.600 C 196.119 285.600,196.400 285.280,196.400 284.888 C 196.400 284.497,196.760 283.917,197.200 283.600 C 197.640 283.283,198.000 282.791,198.000 282.508 C 198.000 282.225,198.540 281.428,199.200 280.737 C 199.860 280.046,200.400 279.278,200.400 279.029 C 200.400 278.780,200.760 278.317,201.200 278.000 C 201.640 277.683,202.000 277.169,202.000 276.859 C 202.000 276.548,202.315 276.003,202.700 275.647 C 203.663 274.757,208.418 268.423,208.712 267.638 C 208.843 267.287,209.457 266.523,210.075 265.940 C 210.694 265.356,211.200 264.663,211.200 264.400 C 211.200 264.137,211.740 263.417,212.400 262.800 C 213.060 262.183,213.600 261.475,213.600 261.226 C 213.600 260.977,214.185 260.173,214.900 259.438 C 217.051 257.229,218.959 254.871,219.700 253.503 C 220.085 252.793,220.400 252.373,220.400 252.568 C 220.400 252.764,220.850 252.401,221.400 251.762 C 221.949 251.123,222.399 250.465,222.400 250.301 C 222.400 250.136,223.030 249.334,223.800 248.518 C 224.570 247.701,225.200 246.788,225.200 246.488 C 225.200 246.188,225.457 245.686,225.771 245.371 C 226.427 244.716,227.600 244.606,227.600 245.200 C 227.600 245.420,228.410 245.600,229.400 245.600 C 230.390 245.600,231.200 245.780,231.200 246.000 C 231.200 246.220,232.190 246.400,233.400 246.400 C 234.610 246.400,235.600 246.580,235.600 246.800 C 235.600 247.029,236.800 247.200,238.400 247.200 C 240.000 247.200,241.200 247.371,241.200 247.600 C 241.200 247.826,242.333 248.000,243.800 248.000 L 246.400 248.000 246.436 251.900 C 246.455 254.045,246.442 256.655,246.406 257.700 C 246.367 258.828,246.515 259.600,246.770 259.600 C 247.007 259.600,247.200 260.140,247.200 260.800 C 247.200 261.460,247.380 262.000,247.600 262.000 C 247.820 262.000,248.000 262.540,248.000 263.200 C 248.000 263.860,248.180 264.400,248.400 264.400 C 248.620 264.400,248.800 264.668,248.800 264.995 C 248.800 265.728,250.034 267.226,250.434 266.979 C 250.594 266.880,250.631 267.159,250.516 267.599 C 250.364 268.179,250.503 268.400,251.020 268.400 C 251.412 268.400,251.628 268.505,251.500 268.634 C 250.905 269.228,255.971 274.078,258.000 274.856 C 260.217 275.706,261.200 276.210,261.200 276.498 C 261.200 276.664,261.650 276.800,262.200 276.800 C 262.750 276.800,263.200 276.980,263.200 277.200 C 263.200 277.420,264.010 277.600,265.000 277.600 C 265.990 277.600,266.800 277.780,266.800 278.000 C 266.800 278.265,285.933 278.400,323.400 278.400 C 360.867 278.400,380.000 278.265,380.000 278.000 C 380.000 277.780,380.900 277.600,382.000 277.600 C 383.100 277.600,384.000 277.420,384.000 277.200 C 384.000 276.980,384.450 276.800,385.000 276.800 C 385.550 276.800,386.000 276.620,386.000 276.400 C 386.000 276.180,386.232 276.000,386.515 276.000 C 388.425 276.000,395.600 270.434,395.600 268.952 C 395.600 268.648,395.791 268.400,396.024 268.400 C 396.257 268.400,396.336 268.220,396.200 268.000 C 396.064 267.780,396.233 267.600,396.576 267.600 C 396.933 267.600,397.200 267.258,397.200 266.800 C 397.200 266.360,397.380 266.000,397.600 266.000 C 397.820 266.000,398.000 265.640,398.000 265.200 C 398.000 264.760,398.180 264.400,398.400 264.400 C 398.620 264.400,398.800 264.055,398.800 263.633 C 398.800 263.212,399.025 262.792,399.300 262.700 C 399.699 262.567,399.800 237.791,399.800 140.600 C 399.800 43.409,399.699 18.633,399.300 18.500 C 399.025 18.408,398.800 17.988,398.800 17.567 C 398.800 17.145,398.620 16.800,398.400 16.800 C 398.180 16.800,398.000 16.440,398.000 16.000 C 398.000 15.560,397.820 15.200,397.600 15.200 C 397.380 15.200,397.200 14.922,397.200 14.583 C 397.200 14.244,396.840 13.580,396.400 13.108 C 395.960 12.636,395.600 12.002,395.600 11.701 C 395.600 11.399,395.420 11.264,395.200 11.400 C 394.980 11.536,394.800 11.444,394.800 11.195 C 394.800 10.946,394.530 10.473,394.200 10.143 C 393.870 9.813,393.600 9.644,393.600 9.768 C 393.600 9.891,393.086 9.454,392.457 8.796 C 391.828 8.138,391.190 7.600,391.040 7.600 C 390.890 7.600,390.380 7.240,389.908 6.800 C 389.436 6.360,388.813 6.000,388.525 6.000 C 388.236 6.000,388.000 5.820,388.000 5.600 C 388.000 5.380,387.809 5.200,387.576 5.200 C 387.343 5.200,387.267 5.425,387.407 5.700 C 387.547 5.975,387.303 5.795,386.866 5.300 C 386.427 4.803,385.608 4.400,385.036 4.400 C 384.466 4.400,384.000 4.220,384.000 4.000 C 384.000 3.780,383.460 3.600,382.800 3.600 C 382.140 3.600,381.600 3.420,381.600 3.200 C 381.600 2.935,362.008 2.800,323.624 2.800 C 285.404 2.800,265.563 2.936,265.400 3.200 M120.400 40.400 C 119.572 40.935,119.584 40.936,130.200 41.391 C 133.940 41.552,137.060 41.844,137.133 42.041 C 137.336 42.585,138.396 42.470,138.432 41.900 C 138.457 41.500,138.504 41.500,138.665 41.900 C 138.794 42.221,139.714 42.400,141.233 42.400 C 142.544 42.400,143.600 42.578,143.600 42.800 C 143.600 43.031,144.867 43.200,146.600 43.200 C 148.250 43.200,149.600 43.364,149.600 43.565 C 149.600 43.766,150.813 43.940,152.295 43.951 C 153.779 43.963,155.053 44.158,155.129 44.386 C 155.205 44.614,156.411 44.800,157.810 44.800 C 159.208 44.800,160.453 44.963,160.576 45.162 C 160.699 45.360,161.741 45.531,162.892 45.539 C 164.043 45.548,165.049 45.746,165.126 45.978 C 165.204 46.211,166.328 46.400,167.633 46.400 C 168.944 46.400,170.000 46.578,170.000 46.800 C 170.000 47.022,171.067 47.200,172.400 47.200 C 173.733 47.200,174.800 47.378,174.800 47.600 C 174.800 47.820,175.790 48.000,177.000 48.000 C 178.210 48.000,179.200 48.160,179.200 48.356 C 179.200 48.552,180.415 48.731,181.899 48.753 C 183.383 48.775,184.658 48.975,184.732 49.197 C 184.809 49.428,186.392 49.600,188.433 49.600 C 190.395 49.600,192.000 49.765,192.000 49.967 C 192.000 50.169,193.745 50.348,195.878 50.365 C 198.011 50.382,199.937 50.577,200.158 50.798 C 200.382 51.022,202.644 51.200,205.256 51.200 C 207.956 51.200,210.058 51.370,210.200 51.600 C 210.349 51.841,213.137 52.000,217.224 52.000 C 221.602 52.000,224.000 52.146,224.000 52.412 C 224.000 52.685,227.735 52.811,235.100 52.787 L 246.200 52.751 246.301 137.175 L 246.402 221.600 245.201 221.600 C 244.540 221.600,244.000 221.439,244.000 221.243 C 244.000 221.047,242.876 220.870,241.503 220.851 C 240.129 220.832,238.944 220.632,238.869 220.408 C 238.795 220.184,237.848 220.000,236.767 220.000 C 235.685 220.000,234.800 219.820,234.800 219.600 C 234.800 219.380,234.181 219.200,233.424 219.200 C 232.667 219.200,231.958 219.056,231.849 218.879 C 231.740 218.703,230.739 218.310,229.625 218.007 C 228.511 217.704,227.600 217.308,227.600 217.128 C 227.600 216.947,227.060 216.800,226.400 216.800 C 225.740 216.800,225.200 216.620,225.200 216.400 C 225.200 216.165,223.800 216.000,221.800 216.000 C 219.800 216.000,218.400 216.165,218.400 216.400 C 218.400 216.620,217.849 216.800,217.176 216.800 C 216.463 216.800,216.056 216.967,216.200 217.200 C 216.336 217.420,216.064 217.600,215.595 217.600 C 214.810 217.600,209.115 222.791,209.884 222.806 C 210.058 222.809,210.018 222.944,209.796 223.106 C 209.574 223.268,208.950 224.061,208.409 224.870 C 207.868 225.678,207.312 226.269,207.173 226.183 C 207.034 226.098,206.683 226.471,206.393 227.014 C 206.102 227.556,205.715 228.000,205.532 228.000 C 205.350 228.000,205.200 228.270,205.200 228.600 C 205.200 228.930,205.020 229.200,204.800 229.200 C 204.580 229.200,204.400 229.500,204.400 229.867 C 204.400 230.233,204.289 230.422,204.152 230.286 C 203.865 229.999,202.800 230.965,202.800 231.512 C 202.800 231.715,202.295 232.410,201.678 233.056 C 201.060 233.702,199.998 235.034,199.316 236.015 C 198.634 236.997,197.700 238.065,197.238 238.388 C 196.777 238.712,196.400 239.173,196.400 239.413 C 196.400 239.653,196.031 240.245,195.580 240.730 C 195.128 241.214,194.868 241.786,195.000 242.001 C 195.133 242.215,194.985 242.293,194.672 242.172 C 194.157 241.975,193.742 242.458,193.677 243.330 C 193.664 243.512,193.281 243.983,192.826 244.377 C 192.372 244.771,192.000 245.308,192.000 245.571 C 192.000 245.833,191.820 245.936,191.600 245.800 C 191.380 245.664,191.200 245.807,191.200 246.117 C 191.200 246.427,190.660 247.246,190.000 247.937 C 189.340 248.628,188.800 249.337,188.800 249.512 C 188.800 249.688,188.080 250.628,187.200 251.600 C 186.320 252.572,185.600 253.560,185.600 253.796 C 185.600 254.031,185.240 254.483,184.800 254.800 C 184.360 255.117,184.000 255.580,184.000 255.829 C 184.000 256.078,183.460 256.846,182.800 257.537 C 182.140 258.228,181.600 258.974,181.600 259.196 C 181.600 259.418,181.401 259.600,181.157 259.600 C 180.914 259.600,180.822 259.879,180.953 260.221 C 181.084 260.562,181.025 260.739,180.822 260.614 C 180.619 260.488,180.133 260.929,179.741 261.593 C 179.348 262.257,178.914 262.800,178.775 262.800 C 178.635 262.800,178.197 263.520,177.800 264.400 C 177.403 265.280,176.937 266.000,176.765 266.000 C 176.592 266.000,176.047 266.720,175.552 267.600 C 175.057 268.480,174.506 269.200,174.326 269.200 C 174.147 269.200,174.000 269.520,174.000 269.912 C 174.000 270.303,173.640 270.883,173.200 271.200 C 172.760 271.517,172.400 272.031,172.400 272.341 C 172.400 272.652,172.084 273.197,171.697 273.553 C 171.311 273.909,170.740 274.695,170.430 275.300 C 170.119 275.905,169.715 276.400,169.532 276.400 C 169.350 276.400,169.200 276.670,169.200 277.000 C 169.200 277.330,169.050 277.600,168.868 277.600 C 168.685 277.600,168.280 278.095,167.968 278.700 C 167.655 279.305,167.085 280.149,166.700 280.575 C 166.315 281.002,166.000 281.587,166.000 281.875 C 166.000 282.164,165.820 282.400,165.600 282.400 C 165.380 282.400,165.200 282.636,165.200 282.925 C 165.200 283.213,164.840 283.836,164.400 284.308 C 163.960 284.780,163.600 285.444,163.600 285.783 C 163.600 286.122,163.432 286.400,163.226 286.400 C 163.020 286.400,162.627 287.020,162.353 287.779 C 162.079 288.537,161.707 289.066,161.527 288.955 C 161.347 288.844,161.200 289.123,161.200 289.576 C 161.200 290.029,160.999 290.400,160.753 290.400 C 160.506 290.400,160.399 290.751,160.512 291.186 C 160.625 291.619,160.574 291.934,160.399 291.886 C 160.224 291.839,160.049 291.980,160.012 292.200 C 159.974 292.420,159.682 292.746,159.363 292.925 C 159.044 293.103,158.888 293.418,159.015 293.625 C 159.143 293.831,159.057 294.000,158.824 294.000 C 158.591 294.000,158.400 294.278,158.400 294.617 C 158.400 294.956,158.040 295.620,157.600 296.092 C 157.160 296.564,156.800 297.187,156.800 297.475 C 156.800 297.764,156.620 298.000,156.400 298.000 C 156.180 298.000,156.000 298.360,156.000 298.800 C 156.000 299.240,155.820 299.600,155.600 299.600 C 155.380 299.600,155.200 299.960,155.200 300.400 C 155.200 300.840,155.020 301.200,154.800 301.200 C 154.580 301.200,154.400 301.661,154.400 302.224 C 154.400 302.804,154.227 303.140,154.000 303.000 C 153.780 302.864,153.600 303.123,153.600 303.576 C 153.600 304.029,153.420 304.400,153.200 304.400 C 152.980 304.400,152.800 304.760,152.800 305.200 C 152.800 305.640,152.620 306.000,152.400 306.000 C 152.180 306.000,152.000 306.360,152.000 306.800 C 152.000 307.240,151.854 307.600,151.675 307.600 C 151.496 307.600,151.102 308.230,150.800 309.000 C 150.498 309.770,150.104 310.400,149.925 310.400 C 149.746 310.400,149.600 310.760,149.600 311.200 C 149.600 311.640,149.420 312.000,149.200 312.000 C 148.980 312.000,148.800 312.360,148.800 312.800 C 148.800 313.240,148.620 313.600,148.400 313.600 C 148.180 313.600,148.000 313.960,148.000 314.400 C 148.000 314.840,147.820 315.200,147.600 315.200 C 147.380 315.200,147.200 315.740,147.200 316.400 C 147.200 317.060,147.020 317.600,146.800 317.600 C 146.580 317.600,146.400 317.865,146.400 318.188 C 146.400 318.511,146.040 319.417,145.600 320.200 C 145.160 320.983,144.800 321.979,144.800 322.412 C 144.800 322.845,144.636 323.200,144.435 323.200 C 144.088 323.200,143.356 326.235,143.535 326.930 C 143.582 327.111,143.435 327.145,143.210 327.006 C 142.808 326.757,142.688 327.104,142.693 328.500 C 142.695 328.885,142.562 329.200,142.398 329.200 C 142.107 329.200,141.653 330.795,141.373 332.794 C 141.297 333.341,141.047 333.851,140.817 333.928 C 140.588 334.004,140.400 334.772,140.400 335.633 C 140.400 336.495,140.220 337.200,140.000 337.200 C 139.780 337.200,139.600 337.740,139.600 338.400 C 139.600 339.060,139.420 339.600,139.200 339.600 C 138.980 339.600,138.800 340.410,138.800 341.400 C 138.800 342.390,138.620 343.200,138.400 343.200 C 138.180 343.200,138.000 343.999,138.000 344.976 C 138.000 345.953,137.820 346.864,137.600 347.000 C 137.380 347.136,137.200 348.317,137.200 349.624 C 137.200 350.941,137.022 352.000,136.800 352.000 C 136.560 352.000,136.400 353.600,136.400 356.000 C 136.400 358.400,136.240 360.000,136.000 360.000 C 135.757 360.000,135.600 361.800,135.600 364.600 C 135.600 367.400,135.757 369.200,136.000 369.200 C 136.220 369.200,136.400 369.560,136.400 370.000 C 136.400 370.752,136.133 370.800,132.000 370.800 C 129.580 370.800,127.600 370.643,127.600 370.450 C 127.600 370.257,127.130 370.100,126.555 370.100 C 125.979 370.100,125.394 369.942,125.255 369.749 C 125.115 369.557,124.460 369.129,123.800 368.799 C 122.219 368.010,117.600 363.403,117.600 362.616 C 117.600 362.277,117.420 362.000,117.200 362.000 C 116.980 362.000,116.800 361.640,116.800 361.200 C 116.800 360.760,116.620 360.400,116.400 360.400 C 116.180 360.400,116.000 359.770,116.000 359.000 C 116.000 358.230,115.820 357.600,115.600 357.600 C 115.351 357.600,115.200 355.333,115.200 351.600 C 115.200 347.867,115.351 345.600,115.600 345.600 C 115.848 345.600,116.000 343.400,116.000 339.800 C 116.000 336.200,116.152 334.000,116.400 334.000 C 116.637 334.000,116.800 332.533,116.800 330.400 C 116.800 328.238,116.962 326.800,117.205 326.800 C 117.443 326.800,117.586 325.716,117.553 324.172 C 117.520 322.674,117.690 321.350,117.948 321.092 C 118.197 320.843,118.400 319.787,118.400 318.744 C 118.400 317.701,118.580 316.736,118.800 316.600 C 119.386 316.238,119.290 315.502,118.700 315.835 C 118.300 316.061,118.300 316.010,118.700 315.579 C 118.975 315.282,119.200 314.547,119.200 313.944 C 119.200 313.341,119.380 312.736,119.600 312.600 C 119.820 312.464,120.000 311.553,120.000 310.576 C 120.000 309.599,120.180 308.800,120.400 308.800 C 120.620 308.800,120.800 308.181,120.800 307.424 C 120.800 306.667,120.980 305.936,121.200 305.800 C 121.420 305.664,121.600 304.933,121.600 304.176 C 121.600 303.419,121.780 302.800,122.000 302.800 C 122.220 302.800,122.400 302.271,122.400 301.624 C 122.400 300.977,122.556 300.351,122.746 300.233 C 122.936 300.116,123.191 299.430,123.311 298.710 C 123.431 297.989,123.761 296.860,124.043 296.200 C 124.325 295.540,124.588 294.820,124.626 294.600 C 124.934 292.839,125.357 291.600,125.650 291.600 C 125.843 291.600,126.000 291.150,126.000 290.600 C 126.000 290.050,126.180 289.600,126.400 289.600 C 126.620 289.600,126.800 289.240,126.800 288.800 C 126.800 288.360,126.980 288.000,127.200 288.000 C 127.420 288.000,127.600 287.640,127.600 287.200 C 127.600 286.760,127.780 286.400,128.000 286.400 C 128.220 286.400,128.400 286.040,128.400 285.600 C 128.400 285.160,128.580 284.800,128.800 284.800 C 129.020 284.800,129.200 284.440,129.200 284.000 C 129.200 283.560,129.380 283.200,129.600 283.200 C 129.820 283.200,130.000 282.880,130.000 282.488 C 130.000 282.097,130.360 281.517,130.800 281.200 C 131.240 280.883,131.600 280.303,131.600 279.912 C 131.600 279.520,131.780 279.200,132.000 279.200 C 132.220 279.200,132.400 278.840,132.400 278.400 C 132.400 277.960,132.580 277.600,132.800 277.600 C 133.020 277.600,133.200 277.139,133.200 276.576 C 133.200 275.996,133.373 275.660,133.600 275.800 C 133.820 275.936,134.000 275.677,134.000 275.224 C 134.000 274.771,134.180 274.400,134.400 274.400 C 134.620 274.400,134.800 273.871,134.800 273.224 C 134.800 272.577,134.980 271.936,135.200 271.800 C 135.420 271.664,135.600 271.034,135.600 270.400 C 135.600 269.766,135.761 269.148,135.958 269.026 C 136.348 268.785,136.722 266.731,137.054 263.000 C 137.171 261.680,137.432 260.429,137.634 260.220 C 138.235 259.596,138.077 252.640,137.433 251.398 C 137.106 250.768,136.955 249.754,137.077 249.003 C 137.198 248.255,137.099 247.585,136.844 247.427 C 136.600 247.276,136.400 246.801,136.400 246.371 C 136.400 245.553,136.172 244.989,135.036 243.000 C 134.659 242.340,134.251 241.485,134.129 241.100 C 134.007 240.715,133.748 240.400,133.553 240.400 C 133.359 240.400,133.200 240.127,133.200 239.793 C 133.200 239.083,128.188 233.946,127.837 234.296 C 127.707 234.427,127.600 234.233,127.600 233.867 C 127.600 233.500,127.306 233.200,126.947 233.200 C 126.588 233.200,125.963 232.819,125.559 232.353 C 125.135 231.863,124.565 231.604,124.212 231.740 C 123.834 231.885,123.600 231.750,123.600 231.387 C 123.600 230.970,123.143 230.800,122.024 230.800 C 121.157 230.800,120.336 230.620,120.200 230.400 C 120.064 230.180,119.164 230.000,118.200 230.000 C 117.236 230.000,116.336 230.180,116.200 230.400 C 116.055 230.635,113.689 230.800,110.456 230.800 C 107.138 230.800,104.793 230.967,104.538 231.222 C 104.267 231.493,100.828 231.639,94.858 231.631 C 89.100 231.624,85.600 231.767,85.600 232.010 C 85.600 232.528,77.723 232.522,77.402 232.004 C 77.254 231.764,74.200 231.613,69.684 231.620 C 64.853 231.628,62.162 231.485,62.072 231.216 C 61.993 230.978,60.673 230.800,58.990 230.800 C 57.372 230.800,55.936 230.620,55.800 230.400 C 55.664 230.180,54.764 230.000,53.800 230.000 C 52.836 230.000,51.925 229.803,51.776 229.562 C 51.627 229.321,50.897 229.195,50.153 229.281 C 49.229 229.389,48.800 229.275,48.800 228.920 C 48.800 228.609,48.318 228.400,47.600 228.400 C 46.940 228.400,46.400 228.220,46.400 228.000 C 46.400 227.780,46.040 227.600,45.600 227.600 C 45.160 227.600,44.800 227.390,44.800 227.133 C 44.800 226.877,44.689 226.778,44.552 226.914 C 44.416 227.050,44.042 226.899,43.720 226.577 C 43.399 226.256,42.970 226.095,42.768 226.220 C 42.565 226.345,42.400 226.156,42.400 225.800 C 42.400 225.444,42.220 225.264,42.000 225.400 C 41.780 225.536,41.600 225.469,41.600 225.252 C 41.600 225.034,40.250 223.475,38.600 221.787 C 36.950 220.099,35.600 218.506,35.600 218.247 C 35.600 217.988,35.240 217.517,34.800 217.200 C 34.360 216.883,34.000 216.415,34.000 216.161 C 34.000 215.906,33.736 215.479,33.413 215.211 C 33.090 214.943,32.839 214.606,32.856 214.462 C 32.925 213.870,32.281 212.400,31.953 212.400 C 31.759 212.400,31.600 211.759,31.600 210.976 C 31.600 210.129,31.438 209.653,31.200 209.800 C 30.962 209.947,30.800 209.471,30.800 208.624 C 30.800 207.841,30.980 207.200,31.200 207.200 C 31.420 207.200,31.600 206.761,31.600 206.224 C 31.600 205.687,31.796 205.126,32.035 204.978 C 32.274 204.831,32.384 204.383,32.280 203.985 C 32.150 203.487,32.264 203.327,32.645 203.473 C 32.962 203.594,33.200 203.435,33.200 203.102 C 33.200 202.781,33.740 201.954,34.400 201.263 C 35.060 200.572,35.600 199.736,35.600 199.404 C 35.600 199.072,35.780 198.800,36.000 198.800 C 36.220 198.800,36.400 198.440,36.400 198.000 C 36.400 197.560,36.580 197.200,36.800 197.200 C 37.045 197.200,37.200 195.267,37.200 192.200 C 37.200 189.133,37.045 187.200,36.800 187.200 C 36.580 187.200,36.400 186.840,36.400 186.400 C 36.400 185.960,36.220 185.600,36.000 185.600 C 35.780 185.600,35.600 185.324,35.600 184.987 C 35.600 184.263,33.042 181.600,32.347 181.600 C 32.083 181.600,31.973 181.494,32.103 181.364 C 32.232 181.234,31.812 180.578,31.169 179.905 C 30.526 179.232,30.000 178.515,30.000 178.312 C 30.000 177.765,28.935 176.799,28.648 177.086 C 28.511 177.222,28.400 176.954,28.400 176.490 C 28.400 176.027,28.220 175.536,28.000 175.400 C 27.780 175.264,27.600 174.713,27.600 174.176 C 27.600 173.639,27.420 173.200,27.200 173.200 C 26.980 173.200,26.800 172.660,26.800 172.000 C 26.800 171.340,26.620 170.800,26.400 170.800 C 26.152 170.800,26.000 168.667,26.000 165.200 C 26.000 161.525,26.146 159.600,26.424 159.600 C 26.657 159.600,26.756 159.452,26.644 159.271 C 26.532 159.091,26.702 158.440,27.020 157.826 C 27.339 157.211,27.600 156.459,27.600 156.154 C 27.600 155.849,27.780 155.600,28.000 155.600 C 28.220 155.600,28.400 155.330,28.400 155.000 C 28.400 154.670,28.580 154.400,28.800 154.400 C 29.020 154.400,29.200 154.130,29.200 153.800 C 29.200 153.471,29.920 152.459,30.800 151.552 C 31.680 150.645,32.400 149.695,32.400 149.440 C 32.400 149.185,32.760 148.717,33.200 148.400 C 33.640 148.083,34.000 147.503,34.000 147.112 C 34.000 146.720,34.180 146.400,34.400 146.400 C 34.620 146.400,34.800 145.691,34.800 144.824 C 34.800 143.957,34.980 143.136,35.200 143.000 C 35.420 142.864,35.600 141.863,35.600 140.776 C 35.600 139.689,35.420 138.800,35.200 138.800 C 34.980 138.800,34.800 138.181,34.800 137.424 C 34.800 136.667,34.620 135.936,34.400 135.800 C 34.180 135.664,34.000 135.243,34.000 134.865 C 34.000 134.486,33.640 133.917,33.200 133.600 C 32.760 133.283,32.400 132.769,32.400 132.459 C 32.400 132.148,32.084 131.603,31.697 131.247 C 31.311 130.891,30.740 130.105,30.430 129.500 C 30.119 128.895,29.715 128.400,29.532 128.400 C 29.350 128.400,29.200 128.029,29.200 127.576 C 29.200 127.123,29.020 126.864,28.800 127.000 C 28.580 127.136,28.400 126.887,28.400 126.447 C 28.400 126.007,28.220 125.536,28.000 125.400 C 27.780 125.264,27.600 124.713,27.600 124.176 C 27.600 123.639,27.420 123.200,27.200 123.200 C 26.980 123.200,26.800 122.660,26.800 122.000 C 26.800 121.340,26.620 120.800,26.400 120.800 C 25.866 120.800,25.866 111.730,26.400 111.400 C 26.620 111.264,26.800 110.703,26.800 110.153 C 26.800 109.588,26.974 109.260,27.200 109.400 C 27.420 109.536,27.600 109.266,27.600 108.800 C 27.600 108.334,27.780 108.064,28.000 108.200 C 28.220 108.336,28.400 108.167,28.400 107.824 C 28.400 107.481,28.580 107.200,28.800 107.200 C 29.020 107.200,29.200 107.014,29.200 106.787 C 29.200 106.292,31.829 103.600,32.311 103.600 C 32.497 103.600,32.998 103.285,33.425 102.900 C 33.851 102.515,34.695 101.945,35.300 101.632 C 35.905 101.320,36.400 100.915,36.400 100.732 C 36.400 100.550,36.760 100.400,37.200 100.400 C 37.640 100.400,38.000 100.220,38.000 100.000 C 38.000 99.780,38.450 99.600,39.000 99.600 C 39.550 99.600,40.000 99.420,40.000 99.200 C 40.000 98.980,40.320 98.800,40.712 98.800 C 41.103 98.800,41.683 98.440,42.000 98.000 C 42.317 97.560,42.786 97.200,43.042 97.200 C 43.298 97.200,43.829 96.705,44.221 96.100 C 44.613 95.495,45.264 94.709,45.667 94.353 C 46.070 93.997,46.400 93.412,46.400 93.053 C 46.400 92.694,46.580 92.400,46.800 92.400 C 47.020 92.400,47.200 91.669,47.200 90.776 C 47.200 89.796,47.358 89.251,47.600 89.400 C 47.852 89.556,48.000 88.604,48.000 86.824 C 48.000 85.208,47.829 84.000,47.600 84.000 C 47.380 84.000,47.200 83.280,47.200 82.400 C 47.200 81.520,47.020 80.800,46.800 80.800 C 46.580 80.800,46.400 80.361,46.400 79.824 C 46.400 79.287,46.220 78.736,46.000 78.600 C 45.780 78.464,45.600 77.733,45.600 76.976 C 45.600 76.219,45.420 75.600,45.200 75.600 C 44.978 75.600,44.800 74.533,44.800 73.200 C 44.800 71.867,44.622 70.800,44.400 70.800 C 44.160 70.800,44.000 69.200,44.000 66.800 C 44.000 64.400,44.160 62.800,44.400 62.800 C 44.620 62.800,44.800 62.080,44.800 61.200 C 44.800 60.320,44.980 59.600,45.200 59.600 C 45.420 59.600,45.600 59.150,45.600 58.600 C 45.600 58.050,45.780 57.600,46.000 57.600 C 46.220 57.600,46.400 57.280,46.400 56.888 C 46.400 56.497,46.760 55.917,47.200 55.600 C 47.640 55.283,48.000 54.828,48.000 54.590 C 48.000 54.032,50.586 51.200,51.095 51.200 C 51.307 51.200,52.046 50.660,52.737 50.000 C 53.428 49.340,54.264 48.800,54.596 48.800 C 54.928 48.800,55.201 48.665,55.201 48.500 C 55.202 48.335,56.192 47.750,57.400 47.200 C 58.608 46.650,59.598 46.065,59.599 45.900 C 59.599 45.735,60.140 45.600,60.800 45.600 C 61.460 45.600,62.000 45.420,62.000 45.200 C 62.000 44.980,62.349 44.800,62.776 44.800 C 63.203 44.800,63.664 44.620,63.800 44.400 C 63.936 44.180,64.667 44.000,65.424 44.000 C 66.181 44.000,66.800 43.820,66.800 43.600 C 66.800 43.380,67.520 43.200,68.400 43.200 C 69.280 43.200,70.000 43.020,70.000 42.800 C 70.000 42.580,70.810 42.400,71.800 42.400 C 72.790 42.400,73.600 42.242,73.600 42.048 C 73.600 41.854,75.710 41.564,78.290 41.403 C 80.869 41.242,83.434 41.009,83.990 40.887 C 84.545 40.764,92.920 40.555,102.600 40.423 C 112.280 40.291,120.380 40.145,120.600 40.098 C 120.820 40.051,120.730 40.187,120.400 40.400 M309.800 214.800 C 309.936 215.020,310.361 215.200,310.744 215.200 C 311.619 215.200,313.593 216.099,313.597 216.500 C 313.599 216.665,313.876 216.800,314.213 216.800 C 314.899 216.800,317.600 219.342,317.600 219.987 C 317.600 220.214,317.780 220.400,318.000 220.400 C 318.220 220.400,318.400 220.670,318.400 221.000 C 318.400 221.330,318.580 221.600,318.800 221.600 C 319.020 221.600,319.200 222.039,319.200 222.576 C 319.200 223.113,319.380 223.664,319.600 223.800 C 319.820 223.936,320.000 225.207,320.000 226.624 C 320.000 228.075,319.825 229.200,319.600 229.200 C 319.380 229.200,319.200 229.560,319.200 230.000 C 319.200 230.440,319.020 230.800,318.800 230.800 C 318.580 230.800,318.400 231.078,318.400 231.417 C 318.400 231.756,318.040 232.420,317.600 232.892 C 317.160 233.364,316.800 233.956,316.800 234.208 C 316.800 234.459,316.305 234.919,315.700 235.230 C 315.095 235.540,314.309 236.111,313.953 236.497 C 313.597 236.884,312.958 237.200,312.533 237.200 C 312.108 237.200,311.576 237.384,311.351 237.609 C 310.788 238.172,305.066 238.197,304.879 237.637 C 304.799 237.397,304.422 237.200,304.042 237.200 C 303.662 237.200,303.002 236.885,302.575 236.500 C 302.149 236.115,301.325 235.555,300.744 235.256 C 300.163 234.957,299.443 234.237,299.144 233.656 C 298.845 233.075,298.285 232.251,297.900 231.825 C 297.515 231.398,297.200 230.633,297.200 230.125 C 297.200 229.616,297.020 229.200,296.800 229.200 C 296.571 229.200,296.400 228.000,296.400 226.400 C 296.400 224.800,296.571 223.600,296.800 223.600 C 297.020 223.600,297.200 223.150,297.200 222.600 C 297.200 222.050,297.391 221.600,297.624 221.600 C 297.857 221.600,297.942 221.430,297.814 221.223 C 297.686 221.015,298.224 220.203,299.010 219.416 C 299.818 218.608,300.317 217.789,300.158 217.532 C 299.976 217.238,300.056 217.187,300.383 217.389 C 300.662 217.562,301.004 217.542,301.145 217.346 C 301.481 216.876,304.866 215.178,305.714 215.054 C 306.078 215.000,306.502 214.831,306.655 214.678 C 307.080 214.253,309.520 214.347,309.800 214.800 " stroke="none" fill="#6c24b4" fill-rule="evenodd"></path><path id="path1" d="M232.512 26.295 C 233.564 26.377,235.184 26.376,236.112 26.292 C 237.040 26.208,236.180 26.141,234.200 26.142 C 232.220 26.143,231.460 26.212,232.512 26.295 " stroke="none" fill="#6c2cb4" fill-rule="evenodd"></path><path id="path2" d="M214.100 25.491 C 214.925 25.578,216.275 25.578,217.100 25.491 C 217.925 25.405,217.250 25.334,215.600 25.334 C 213.950 25.334,213.275 25.405,214.100 25.491 M242.100 26.291 C 242.925 26.378,244.275 26.378,245.100 26.291 C 245.925 26.205,245.250 26.134,243.600 26.134 C 241.950 26.134,241.275 26.205,242.100 26.291 " stroke="none" fill="#7024b4" fill-rule="evenodd"></path><path id="path3" d="M214.100 25.491 C 214.925 25.578,216.275 25.578,217.100 25.491 C 217.925 25.405,217.250 25.334,215.600 25.334 C 213.950 25.334,213.275 25.405,214.100 25.491 M242.100 26.291 C 242.925 26.378,244.275 26.378,245.100 26.291 C 245.925 26.205,245.250 26.134,243.600 26.134 C 241.950 26.134,241.275 26.205,242.100 26.291 " stroke="none" fill="#7024b4" fill-rule="evenodd"></path><path id="path4" d="M214.100 25.491 C 214.925 25.578,216.275 25.578,217.100 25.491 C 217.925 25.405,217.250 25.334,215.600 25.334 C 213.950 25.334,213.275 25.405,214.100 25.491 M242.100 26.291 C 242.925 26.378,244.275 26.378,245.100 26.291 C 245.925 26.205,245.250 26.134,243.600 26.134 C 241.950 26.134,241.275 26.205,242.100 26.291 " stroke="none" fill="#7024b4" fill-rule="evenodd"></path></g></svg>