<svg id="svg" version="1.1" xmlns="http://www.w3.org/2000/svg" xmlns:xlink="http://www.w3.org/1999/xlink" width="400" height="400" viewBox="0, 0, 400,400"><g id="svgg"><path id="path0" d="M228.700 0.274 C 226.995 0.362,225.600 0.606,225.600 0.817 C 225.600 1.028,224.520 1.200,223.200 1.200 C 221.867 1.200,220.800 1.378,220.800 1.600 C 220.800 1.820,219.911 2.000,218.824 2.000 C 217.737 2.000,216.736 2.180,216.600 2.400 C 216.464 2.620,215.553 2.800,214.576 2.800 C 213.599 2.800,212.800 2.980,212.800 3.200 C 212.800 3.420,212.069 3.600,211.176 3.600 C 210.196 3.600,209.651 3.758,209.800 4.000 C 209.949 4.242,209.404 4.400,208.424 4.400 C 207.531 4.400,206.800 4.580,206.800 4.800 C 206.800 5.020,206.080 5.200,205.200 5.200 C 204.320 5.200,203.600 5.380,203.600 5.600 C 203.600 5.820,203.060 6.000,202.400 6.000 C 201.740 6.000,201.200 6.180,201.200 6.400 C 201.200 6.620,200.660 6.800,200.000 6.800 C 199.340 6.800,198.800 6.980,198.800 7.200 C 198.800 7.420,198.260 7.600,197.600 7.600 C 196.940 7.600,196.400 7.780,196.400 8.000 C 196.400 8.220,196.078 8.400,195.685 8.400 C 194.879 8.400,190.941 9.726,190.532 10.135 C 190.386 10.281,189.937 10.400,189.533 10.400 C 189.130 10.400,188.800 10.547,188.800 10.728 C 188.800 10.908,187.900 11.300,186.800 11.600 C 185.700 11.900,184.800 12.292,184.800 12.472 C 184.800 12.653,184.440 12.800,184.000 12.800 C 183.560 12.800,183.200 12.980,183.200 13.200 C 183.200 13.420,182.840 13.600,182.400 13.600 C 181.960 13.600,181.600 13.780,181.600 14.000 C 181.600 14.220,181.240 14.400,180.800 14.400 C 180.360 14.400,179.999 14.535,179.997 14.700 C 179.993 15.059,178.056 16.000,177.320 16.000 C 177.034 16.000,176.800 16.146,176.800 16.325 C 176.800 16.504,176.170 16.898,175.400 17.200 C 174.630 17.502,174.000 17.896,174.000 18.075 C 174.000 18.254,173.640 18.400,173.200 18.400 C 172.760 18.400,172.400 18.580,172.400 18.800 C 172.400 19.020,172.080 19.200,171.688 19.200 C 171.297 19.200,170.717 19.560,170.400 20.000 C 170.083 20.440,169.503 20.800,169.112 20.800 C 168.720 20.800,168.400 20.980,168.400 21.200 C 168.400 21.420,168.080 21.600,167.688 21.600 C 167.297 21.600,166.717 21.960,166.400 22.400 C 166.083 22.840,165.543 23.200,165.200 23.200 C 164.857 23.200,164.317 23.560,164.000 24.000 C 163.683 24.440,163.202 24.800,162.931 24.800 C 162.347 24.800,157.283 28.251,156.353 29.283 C 155.997 29.677,155.540 30.000,155.337 30.000 C 155.134 30.000,154.172 30.720,153.200 31.600 C 152.228 32.480,151.278 33.200,151.090 33.200 C 150.902 33.200,149.871 34.100,148.800 35.200 C 147.729 36.300,146.660 37.200,146.426 37.200 C 146.192 37.200,146.000 37.380,146.000 37.600 C 146.000 37.820,145.719 38.000,145.376 38.000 C 145.033 38.000,144.864 38.180,145.000 38.400 C 145.136 38.620,145.044 38.800,144.795 38.800 C 144.546 38.800,144.073 39.070,143.743 39.400 C 143.413 39.730,143.249 40.000,143.378 40.000 C 143.508 40.000,143.058 40.495,142.379 41.100 C 139.445 43.712,132.400 50.858,132.400 51.221 C 132.400 51.439,131.410 52.607,130.200 53.817 C 128.990 55.027,128.000 56.185,128.000 56.391 C 128.000 56.596,127.542 57.222,126.982 57.782 C 126.422 58.342,126.060 58.800,126.178 58.800 C 126.382 58.800,126.165 59.087,124.100 61.534 C 123.606 62.120,123.201 62.785,123.200 63.012 C 123.200 63.238,122.840 63.683,122.400 64.000 C 121.960 64.317,121.600 64.831,121.600 65.141 C 121.600 65.452,121.284 65.997,120.897 66.353 C 120.511 66.709,119.940 67.495,119.630 68.100 C 119.319 68.705,118.915 69.200,118.732 69.200 C 118.550 69.200,118.400 69.520,118.400 69.912 C 118.400 70.303,118.040 70.883,117.600 71.200 C 117.160 71.517,116.800 72.097,116.800 72.488 C 116.800 72.880,116.620 73.200,116.400 73.200 C 116.180 73.200,116.000 73.436,116.000 73.725 C 116.000 74.013,115.675 74.598,115.278 75.025 C 114.880 75.451,114.297 76.385,113.980 77.100 C 113.664 77.815,113.269 78.400,113.102 78.400 C 112.936 78.400,112.800 78.760,112.800 79.200 C 112.800 79.640,112.620 80.000,112.400 80.000 C 112.180 80.000,112.000 80.360,112.000 80.800 C 112.000 81.240,111.820 81.600,111.600 81.600 C 111.380 81.600,111.200 81.960,111.200 82.400 C 111.200 82.840,111.020 83.200,110.800 83.200 C 110.580 83.200,110.400 83.560,110.400 84.000 C 110.400 84.440,110.220 84.800,110.000 84.800 C 109.780 84.800,109.600 85.049,109.600 85.354 C 109.600 85.659,109.331 86.424,109.002 87.054 C 108.674 87.684,108.404 88.515,108.402 88.900 C 108.401 89.285,108.220 89.600,108.000 89.600 C 107.780 89.600,107.600 89.960,107.600 90.400 C 107.600 90.840,107.420 91.200,107.200 91.200 C 106.980 91.200,106.800 91.524,106.800 91.920 C 106.800 92.814,105.906 94.793,105.500 94.797 C 105.335 94.799,105.200 95.340,105.200 96.000 C 105.200 96.660,105.020 97.200,104.800 97.200 C 104.580 97.200,104.400 97.650,104.400 98.200 C 104.400 98.750,104.220 99.200,104.000 99.200 C 103.780 99.200,103.600 99.650,103.600 100.200 C 103.600 100.750,103.420 101.200,103.200 101.200 C 102.980 101.200,102.800 101.740,102.800 102.400 C 102.800 103.060,102.620 103.600,102.400 103.600 C 102.180 103.600,102.000 104.140,102.000 104.800 C 102.000 105.460,101.820 106.000,101.600 106.000 C 101.380 106.000,101.200 106.540,101.200 107.200 C 101.200 107.860,101.020 108.400,100.800 108.400 C 100.580 108.400,100.400 109.120,100.400 110.000 C 100.400 110.880,100.220 111.600,100.000 111.600 C 99.780 111.600,99.600 112.230,99.600 113.000 C 99.600 113.770,99.420 114.400,99.200 114.400 C 98.980 114.400,98.800 115.120,98.800 116.000 C 98.800 116.880,98.638 117.600,98.440 117.600 C 98.093 117.600,97.823 119.063,97.350 123.500 C 97.227 124.655,96.963 125.600,96.763 125.600 C 96.563 125.600,96.400 126.579,96.400 127.776 C 96.400 128.973,96.220 130.064,96.000 130.200 C 95.780 130.336,95.600 131.751,95.600 133.344 C 95.600 134.937,95.417 136.423,95.193 136.647 C 94.520 137.320,94.644 167.577,95.322 168.255 C 95.475 168.408,95.600 169.853,95.600 171.467 C 95.600 173.156,95.770 174.400,96.000 174.400 C 96.222 174.400,96.400 175.467,96.400 176.800 C 96.400 178.133,96.578 179.200,96.800 179.200 C 97.020 179.200,97.200 180.089,97.200 181.176 C 97.200 182.263,97.380 183.264,97.600 183.400 C 97.820 183.536,98.000 184.447,98.000 185.424 C 98.000 186.401,98.180 187.200,98.400 187.200 C 98.620 187.200,98.800 187.819,98.800 188.576 C 98.800 189.333,98.980 190.064,99.200 190.200 C 99.420 190.336,99.600 191.067,99.600 191.824 C 99.600 192.581,99.780 193.200,100.000 193.200 C 100.220 193.200,100.400 193.920,100.400 194.800 C 100.400 195.680,100.580 196.400,100.800 196.400 C 101.020 196.400,101.200 196.940,101.200 197.600 C 101.200 198.260,101.380 198.800,101.600 198.800 C 101.820 198.800,102.000 199.340,102.000 200.000 C 102.000 200.660,102.180 201.200,102.400 201.200 C 102.620 201.200,102.800 201.740,102.800 202.400 C 102.800 203.060,102.980 203.600,103.200 203.600 C 103.420 203.600,103.600 204.050,103.600 204.600 C 103.600 205.150,103.780 205.600,104.000 205.600 C 104.220 205.600,104.400 206.050,104.400 206.600 C 104.400 207.150,104.580 207.600,104.800 207.600 C 105.020 207.600,105.200 208.050,105.200 208.600 C 105.200 209.150,105.380 209.600,105.600 209.600 C 105.820 209.600,106.000 209.960,106.000 210.400 C 106.000 210.840,106.180 211.200,106.400 211.200 C 106.620 211.200,106.800 211.740,106.800 212.400 C 106.800 213.060,106.980 213.600,107.200 213.600 C 107.420 213.600,107.600 213.960,107.600 214.400 C 107.600 214.840,107.780 215.200,108.000 215.200 C 108.220 215.200,108.401 215.515,108.402 215.900 C 108.403 216.285,108.853 217.486,109.402 218.568 C 109.951 219.650,110.400 220.775,110.400 221.068 C 110.400 221.361,110.535 221.601,110.700 221.601 C 110.865 221.602,111.450 222.592,112.000 223.800 C 112.550 225.008,113.135 225.998,113.300 225.999 C 113.465 225.999,113.600 226.360,113.600 226.800 C 113.600 227.240,113.759 227.600,113.953 227.600 C 114.148 227.600,114.407 227.915,114.529 228.300 C 115.058 229.968,116.857 232.400,117.562 232.400 C 117.793 232.400,119.274 234.335,120.854 236.700 C 132.386 253.969,148.207 269.635,165.249 280.659 C 166.733 281.619,168.062 282.764,168.201 283.202 C 168.340 283.641,168.762 284.000,169.139 284.000 C 169.515 284.000,170.083 284.360,170.400 284.800 C 170.717 285.240,171.297 285.600,171.688 285.600 C 172.080 285.600,172.400 285.780,172.400 286.000 C 172.400 286.220,172.760 286.400,173.200 286.400 C 173.640 286.400,174.000 286.546,174.000 286.725 C 174.000 286.904,174.630 287.298,175.400 287.600 C 176.170 287.902,176.800 288.296,176.800 288.475 C 176.800 288.654,177.160 288.800,177.600 288.800 C 178.040 288.800,178.400 288.980,178.400 289.200 C 178.400 289.420,178.760 289.600,179.200 289.600 C 179.640 289.600,180.000 289.780,180.000 290.000 C 180.000 290.220,180.360 290.400,180.800 290.400 C 181.240 290.400,181.600 290.564,181.600 290.765 C 181.600 290.966,182.320 291.251,183.200 291.400 C 184.080 291.549,184.800 291.834,184.800 292.035 C 184.800 292.236,185.160 292.400,185.600 292.400 C 186.040 292.400,186.400 292.580,186.400 292.800 C 186.400 293.020,186.940 293.200,187.600 293.200 C 188.260 293.200,188.800 293.380,188.800 293.600 C 188.800 293.820,189.160 294.000,189.600 294.000 C 190.040 294.000,190.400 294.180,190.400 294.400 C 190.400 294.620,190.850 294.800,191.400 294.800 C 191.950 294.800,192.400 294.980,192.400 295.200 C 192.400 295.420,192.850 295.600,193.400 295.600 C 193.950 295.600,194.400 295.780,194.400 296.000 C 194.400 296.220,194.850 296.400,195.400 296.400 C 195.950 296.400,196.400 296.580,196.400 296.800 C 196.400 297.020,196.940 297.200,197.600 297.200 C 198.260 297.200,198.800 297.380,198.800 297.600 C 198.800 297.820,199.340 298.000,200.000 298.000 C 200.660 298.000,201.200 298.180,201.200 298.400 C 201.200 298.620,201.740 298.800,202.400 298.800 C 203.060 298.800,203.600 298.980,203.600 299.200 C 203.600 299.420,204.320 299.600,205.200 299.600 C 206.080 299.600,206.800 299.780,206.800 300.000 C 206.800 300.220,207.430 300.400,208.200 300.400 C 208.970 300.400,209.600 300.580,209.600 300.800 C 209.600 301.020,210.320 301.200,211.200 301.200 C 212.080 301.200,212.800 301.380,212.800 301.600 C 212.800 301.820,213.599 302.000,214.576 302.000 C 215.553 302.000,216.464 302.180,216.600 302.400 C 216.736 302.620,217.737 302.800,218.824 302.800 C 219.911 302.800,220.800 302.980,220.800 303.200 C 220.800 303.422,221.867 303.600,223.200 303.600 C 224.533 303.600,225.600 303.778,225.600 304.000 C 225.600 304.231,226.859 304.400,228.576 304.400 C 230.213 304.400,231.664 304.580,231.800 304.800 C 232.138 305.348,263.062 305.348,263.400 304.800 C 263.536 304.580,265.077 304.400,266.824 304.400 C 268.675 304.400,270.000 304.233,270.000 304.000 C 270.000 303.780,270.979 303.600,272.176 303.600 C 273.373 303.600,274.464 303.420,274.600 303.200 C 274.736 302.980,275.636 302.800,276.600 302.800 C 277.564 302.800,278.464 302.620,278.600 302.400 C 278.736 302.180,279.647 302.000,280.624 302.000 C 281.601 302.000,282.400 301.820,282.400 301.600 C 282.400 301.380,283.120 301.200,284.000 301.200 C 284.880 301.200,285.600 301.020,285.600 300.800 C 285.600 300.580,286.320 300.400,287.200 300.400 C 288.080 300.400,288.800 300.220,288.800 300.000 C 288.800 299.780,289.430 299.600,290.200 299.600 C 290.970 299.600,291.600 299.420,291.600 299.200 C 291.600 298.980,292.140 298.800,292.800 298.800 C 293.460 298.800,294.000 298.620,294.000 298.400 C 294.000 298.180,294.540 298.000,295.200 298.000 C 295.860 298.000,296.400 297.820,296.400 297.600 C 296.400 297.380,296.940 297.200,297.600 297.200 C 298.260 297.200,298.800 297.020,298.800 296.800 C 298.800 296.580,299.340 296.400,300.000 296.400 C 300.660 296.400,301.200 296.220,301.200 296.000 C 301.200 295.780,301.560 295.600,302.000 295.600 C 302.440 295.600,302.800 295.420,302.800 295.200 C 302.800 294.980,303.340 294.800,304.000 294.800 C 304.660 294.800,305.200 294.620,305.200 294.400 C 305.200 294.180,305.560 294.000,306.000 294.000 C 306.440 294.000,306.800 293.820,306.800 293.600 C 306.800 293.380,307.250 293.200,307.800 293.200 C 308.350 293.200,308.800 293.020,308.800 292.800 C 308.800 292.580,309.160 292.400,309.600 292.400 C 310.040 292.400,310.400 292.236,310.400 292.035 C 310.400 291.834,311.120 291.549,312.000 291.400 C 312.880 291.251,313.600 290.966,313.600 290.765 C 313.600 290.564,313.960 290.400,314.400 290.400 C 314.840 290.400,315.200 290.220,315.200 290.000 C 315.200 289.780,315.560 289.600,316.000 289.600 C 316.440 289.600,316.800 289.420,316.800 289.200 C 316.800 288.980,317.160 288.800,317.600 288.800 C 318.040 288.800,318.400 288.620,318.400 288.400 C 318.400 288.180,318.760 288.000,319.200 288.000 C 319.640 288.000,320.000 287.820,320.000 287.600 C 320.000 287.380,320.360 287.200,320.800 287.200 C 321.240 287.200,321.600 287.064,321.600 286.898 C 321.600 286.731,322.185 286.340,322.900 286.028 C 323.615 285.716,324.491 285.132,324.847 284.730 C 325.203 284.329,325.788 284.000,326.147 284.000 C 326.506 284.000,326.800 283.820,326.800 283.600 C 326.800 283.380,327.120 283.200,327.512 283.200 C 327.903 283.200,328.483 282.840,328.800 282.400 C 329.117 281.960,329.697 281.600,330.088 281.600 C 330.480 281.600,330.800 281.420,330.800 281.200 C 330.800 280.980,331.070 280.800,331.400 280.800 C 331.730 280.800,332.000 280.620,332.000 280.400 C 332.000 280.180,332.230 280.000,332.512 280.000 C 332.793 280.000,333.283 279.640,333.600 279.200 C 333.917 278.760,334.457 278.400,334.800 278.400 C 335.143 278.400,335.683 278.040,336.000 277.600 C 336.317 277.160,336.815 276.800,337.106 276.800 C 337.398 276.800,338.086 276.350,338.636 275.800 C 339.186 275.250,339.773 274.800,339.940 274.800 C 340.107 274.800,340.931 274.170,341.772 273.400 C 342.613 272.630,343.454 272.000,343.642 272.000 C 343.829 272.000,344.973 271.010,346.183 269.800 C 347.393 268.590,348.573 267.600,348.805 267.600 C 349.349 267.600,362.800 254.107,362.800 253.561 C 362.800 253.334,363.700 252.271,364.800 251.200 C 365.900 250.129,366.800 249.082,366.800 248.874 C 366.800 248.666,367.520 247.755,368.400 246.848 C 369.280 245.941,370.000 244.995,370.000 244.746 C 370.000 244.498,370.315 244.003,370.700 243.647 C 371.816 242.615,374.000 239.687,374.000 239.223 C 374.000 238.991,374.177 238.800,374.392 238.800 C 374.608 238.800,374.907 238.305,375.056 237.700 C 375.206 237.095,375.659 236.309,376.064 235.953 C 376.469 235.597,376.800 235.052,376.800 234.741 C 376.800 234.431,377.160 233.917,377.600 233.600 C 378.040 233.283,378.400 232.703,378.400 232.312 C 378.400 231.920,378.580 231.600,378.800 231.600 C 379.020 231.600,379.200 231.280,379.200 230.888 C 379.200 230.497,379.560 229.917,380.000 229.600 C 380.440 229.283,380.800 228.703,380.800 228.312 C 380.800 227.920,380.980 227.600,381.200 227.600 C 381.420 227.600,381.600 227.240,381.600 226.800 C 381.600 226.360,381.780 226.000,382.000 226.000 C 382.220 226.000,382.400 225.730,382.400 225.400 C 382.400 225.070,382.580 224.800,382.800 224.800 C 383.020 224.800,383.200 224.440,383.200 224.000 C 383.200 223.560,383.380 223.200,383.600 223.200 C 383.820 223.200,384.000 222.840,384.000 222.400 C 384.000 221.960,384.180 221.600,384.400 221.600 C 384.620 221.600,384.800 221.240,384.800 220.800 C 384.800 220.360,384.980 220.000,385.200 220.000 C 385.420 220.000,385.600 219.640,385.600 219.200 C 385.600 218.760,385.780 218.400,386.000 218.400 C 386.220 218.400,386.400 218.040,386.400 217.600 C 386.400 217.160,386.580 216.800,386.800 216.800 C 387.020 216.800,387.200 216.440,387.200 216.000 C 387.200 215.560,387.380 215.200,387.600 215.200 C 387.820 215.200,388.000 214.851,388.000 214.424 C 388.000 213.997,388.180 213.536,388.400 213.400 C 388.620 213.264,388.800 212.713,388.800 212.176 C 388.800 211.639,388.980 211.200,389.200 211.200 C 389.420 211.200,389.600 210.840,389.600 210.400 C 389.600 209.960,389.780 209.600,390.000 209.600 C 390.220 209.600,390.400 209.161,390.400 208.624 C 390.400 208.087,390.570 207.542,390.777 207.414 C 390.984 207.286,391.275 206.376,391.422 205.391 C 391.570 204.406,391.850 203.600,392.045 203.600 C 392.240 203.600,392.400 203.060,392.400 202.400 C 392.400 201.740,392.580 201.200,392.800 201.200 C 393.020 201.200,393.200 200.660,393.200 200.000 C 393.200 199.340,393.380 198.800,393.600 198.800 C 393.820 198.800,394.000 198.260,394.000 197.600 C 394.000 196.940,394.180 196.400,394.400 196.400 C 394.620 196.400,394.800 195.680,394.800 194.800 C 394.800 193.920,394.980 193.200,395.200 193.200 C 395.420 193.200,395.600 192.570,395.600 191.800 C 395.600 191.030,395.780 190.400,396.000 190.400 C 396.220 190.400,396.400 189.680,396.400 188.800 C 396.400 187.920,396.580 187.200,396.800 187.200 C 397.020 187.200,397.200 186.401,397.200 185.424 C 397.200 184.447,397.380 183.536,397.600 183.400 C 397.820 183.264,398.000 182.263,398.000 181.176 C 398.000 180.089,398.180 179.200,398.400 179.200 C 398.620 179.200,398.800 178.246,398.800 177.080 C 398.800 175.914,399.025 174.735,399.300 174.460 C 399.688 174.072,399.800 169.057,399.800 152.113 C 399.800 134.992,399.692 130.231,399.300 130.100 C 398.982 129.994,398.800 129.144,398.800 127.767 C 398.800 126.575,398.620 125.600,398.400 125.600 C 398.180 125.600,398.000 124.621,398.000 123.424 C 398.000 122.227,397.820 121.136,397.600 121.000 C 397.380 120.864,397.200 120.043,397.200 119.176 C 397.200 118.309,397.020 117.600,396.800 117.600 C 396.580 117.600,396.400 116.880,396.400 116.000 C 396.400 115.120,396.220 114.400,396.000 114.400 C 395.780 114.400,395.600 113.680,395.600 112.800 C 395.600 111.920,395.420 111.200,395.200 111.200 C 394.980 111.200,394.800 110.570,394.800 109.800 C 394.800 109.030,394.620 108.400,394.400 108.400 C 394.180 108.400,394.000 107.860,394.000 107.200 C 394.000 106.540,393.820 106.000,393.600 106.000 C 393.380 106.000,393.200 105.460,393.200 104.800 C 393.200 104.140,393.020 103.600,392.800 103.600 C 392.580 103.600,392.400 103.060,392.400 102.400 C 392.400 101.740,392.220 101.200,392.000 101.200 C 391.780 101.200,391.599 100.705,391.598 100.100 C 391.596 99.495,391.326 98.484,390.998 97.854 C 390.669 97.224,390.400 96.465,390.400 96.166 C 390.400 95.868,390.040 94.983,389.600 94.200 C 389.160 93.417,388.800 92.421,388.800 91.988 C 388.800 91.555,388.620 91.200,388.400 91.200 C 388.180 91.200,388.000 90.840,388.000 90.400 C 388.000 89.960,387.820 89.600,387.600 89.600 C 387.380 89.600,387.200 89.240,387.200 88.800 C 387.200 88.360,387.020 88.000,386.800 88.000 C 386.580 88.000,386.400 87.640,386.400 87.200 C 386.400 86.760,386.220 86.400,386.000 86.400 C 385.780 86.400,385.600 86.040,385.600 85.600 C 385.600 85.160,385.420 84.800,385.200 84.800 C 384.980 84.800,384.800 84.440,384.800 84.000 C 384.800 83.560,384.620 83.200,384.400 83.200 C 384.180 83.200,384.000 82.840,384.000 82.400 C 384.000 81.960,383.820 81.600,383.600 81.600 C 383.380 81.600,383.200 81.240,383.200 80.800 C 383.200 80.360,383.020 80.000,382.800 80.000 C 382.580 80.000,382.400 79.640,382.400 79.200 C 382.400 78.760,382.220 78.400,382.000 78.400 C 381.780 78.400,381.600 78.040,381.600 77.600 C 381.600 77.160,381.420 76.800,381.200 76.800 C 380.980 76.800,380.800 76.570,380.800 76.288 C 380.800 76.007,380.440 75.517,380.000 75.200 C 379.560 74.883,379.200 74.303,379.200 73.912 C 379.200 73.520,379.020 73.200,378.800 73.200 C 378.580 73.200,378.400 72.880,378.400 72.488 C 378.400 72.097,378.040 71.517,377.600 71.200 C 377.160 70.883,376.800 70.343,376.800 70.000 C 376.800 69.657,376.440 69.117,376.000 68.800 C 375.560 68.483,375.200 67.916,375.200 67.540 C 375.200 67.165,374.975 66.619,374.700 66.329 C 374.425 66.038,373.945 65.305,373.632 64.700 C 373.320 64.095,372.915 63.600,372.732 63.600 C 372.550 63.600,372.400 63.357,372.400 63.059 C 372.400 62.762,371.860 61.954,371.200 61.263 C 370.540 60.572,370.000 59.898,370.000 59.764 C 370.000 59.630,369.460 59.017,368.800 58.400 C 368.140 57.783,367.600 57.097,367.600 56.874 C 367.600 56.652,366.520 55.373,365.200 54.032 C 363.880 52.692,362.800 51.393,362.800 51.147 C 362.800 50.583,349.364 37.200,348.798 37.200 C 348.570 37.200,347.393 36.210,346.183 35.000 C 344.973 33.790,343.826 32.800,343.634 32.800 C 343.442 32.800,342.744 32.305,342.082 31.700 C 340.471 30.226,339.662 29.573,338.000 28.405 C 337.230 27.864,336.420 27.279,336.200 27.105 C 335.494 26.547,333.034 25.018,331.900 24.432 C 331.295 24.120,330.800 23.715,330.800 23.532 C 330.800 23.350,330.480 23.200,330.088 23.200 C 329.697 23.200,329.117 22.840,328.800 22.400 C 328.483 21.960,327.903 21.600,327.512 21.600 C 327.120 21.600,326.800 21.420,326.800 21.200 C 326.800 20.980,326.564 20.800,326.275 20.800 C 325.987 20.800,325.402 20.475,324.975 20.078 C 324.549 19.680,323.615 19.097,322.900 18.780 C 322.185 18.464,321.600 18.069,321.600 17.902 C 321.600 17.736,321.240 17.600,320.800 17.600 C 320.360 17.600,320.000 17.420,320.000 17.200 C 320.000 16.980,319.640 16.800,319.200 16.800 C 318.760 16.800,318.400 16.620,318.400 16.400 C 318.400 16.180,318.040 16.000,317.600 16.000 C 317.160 16.000,316.800 15.820,316.800 15.600 C 316.800 15.380,316.440 15.200,316.000 15.200 C 315.560 15.200,315.200 15.020,315.200 14.800 C 315.200 14.580,314.840 14.400,314.400 14.400 C 313.960 14.400,313.600 14.220,313.600 14.000 C 313.600 13.780,313.240 13.600,312.800 13.600 C 312.360 13.600,312.000 13.420,312.000 13.200 C 312.000 12.980,311.747 12.800,311.438 12.800 C 311.129 12.800,310.184 12.457,309.338 12.037 C 306.876 10.817,304.642 9.847,304.069 9.751 C 303.777 9.702,303.237 9.528,302.869 9.365 C 302.501 9.202,302.080 9.054,301.933 9.035 C 301.787 9.016,301.532 8.865,301.367 8.700 C 301.202 8.535,300.557 8.400,299.933 8.400 C 299.310 8.400,298.800 8.220,298.800 8.000 C 298.800 7.780,298.260 7.600,297.600 7.600 C 296.940 7.600,296.400 7.420,296.400 7.200 C 296.400 6.980,295.860 6.800,295.200 6.800 C 294.540 6.800,294.000 6.620,294.000 6.400 C 294.000 6.180,293.460 6.000,292.800 6.000 C 292.140 6.000,291.600 5.820,291.600 5.600 C 291.600 5.380,290.970 5.200,290.200 5.200 C 289.430 5.200,288.800 5.020,288.800 4.800 C 288.800 4.580,288.080 4.400,287.200 4.400 C 286.320 4.400,285.600 4.220,285.600 4.000 C 285.600 3.780,284.880 3.600,284.000 3.600 C 283.120 3.600,282.400 3.420,282.400 3.200 C 282.400 2.980,281.601 2.800,280.624 2.800 C 279.647 2.800,278.736 2.620,278.600 2.400 C 278.464 2.180,277.564 2.000,276.600 2.000 C 275.636 2.000,274.736 1.820,274.600 1.600 C 274.464 1.380,273.388 1.200,272.210 1.200 C 270.883 1.200,270.005 1.015,269.905 0.714 C 269.744 0.231,236.414 -0.125,228.700 0.274 M256.400 23.598 C 267.241 24.520,276.739 26.202,283.600 28.415 C 284.150 28.593,285.860 29.118,287.400 29.583 C 288.940 30.047,290.560 30.584,291.000 30.776 C 291.440 30.968,293.780 31.896,296.200 32.839 C 315.728 40.445,336.020 55.702,348.820 72.400 C 349.579 73.390,350.290 74.290,350.400 74.400 C 350.991 74.991,353.200 77.989,353.200 78.200 C 353.200 78.336,353.729 79.111,354.375 79.923 C 357.939 84.402,365.930 99.721,368.393 106.800 C 368.661 107.570,369.031 108.560,369.214 109.000 C 369.650 110.046,370.959 114.120,371.593 116.400 C 371.868 117.390,372.240 118.650,372.420 119.200 C 372.932 120.761,374.352 127.504,374.822 130.600 C 375.055 132.140,375.430 134.570,375.654 136.000 C 376.307 140.158,376.566 161.192,376.019 165.600 C 375.037 173.511,373.383 182.689,372.416 185.600 C 372.233 186.150,371.696 187.950,371.223 189.600 C 370.750 191.250,370.192 192.913,369.982 193.295 C 369.772 193.677,369.600 194.264,369.600 194.600 C 369.600 194.936,369.434 195.523,369.232 195.905 C 369.030 196.287,368.458 197.680,367.963 199.000 C 365.920 204.441,361.703 213.101,358.653 218.119 C 357.744 219.614,356.818 221.144,356.595 221.519 C 355.831 222.805,354.618 224.600,354.379 224.800 C 354.248 224.910,353.357 226.170,352.400 227.600 C 351.443 229.030,350.552 230.290,350.420 230.400 C 350.287 230.510,349.563 231.410,348.810 232.400 C 345.129 237.241,337.684 245.017,332.353 249.590 C 330.949 250.794,329.710 251.875,329.600 251.992 C 329.490 252.109,328.741 252.696,327.935 253.296 C 327.129 253.897,326.225 254.632,325.927 254.931 C 325.188 255.669,315.339 262.400,314.997 262.400 C 314.846 262.400,314.225 262.755,313.615 263.190 C 311.844 264.451,304.443 268.331,300.600 270.014 C 299.500 270.496,297.623 271.332,296.428 271.872 C 292.665 273.575,282.191 276.838,276.200 278.175 C 265.792 280.498,261.070 280.956,247.600 280.953 C 235.226 280.949,231.207 280.613,222.400 278.844 C 213.813 277.119,205.022 274.497,199.304 271.954 C 198.372 271.539,197.504 271.200,197.375 271.200 C 197.047 271.200,187.118 266.272,184.094 264.608 C 180.241 262.488,169.798 255.504,168.800 254.379 C 168.690 254.255,168.190 253.873,167.688 253.531 C 163.686 250.797,151.246 238.460,147.188 233.200 C 146.425 232.210,145.710 231.310,145.600 231.200 C 144.155 229.755,138.801 221.786,135.925 216.800 C 129.384 205.461,124.891 193.989,121.662 180.383 C 117.945 164.727,117.854 141.570,121.446 125.463 C 123.050 118.269,125.556 109.946,127.606 105.000 C 127.789 104.560,128.267 103.392,128.669 102.405 C 131.463 95.548,140.482 79.767,144.111 75.387 C 144.470 74.954,145.678 73.430,146.797 72.000 C 155.582 60.771,168.505 49.524,182.194 41.194 C 185.279 39.317,198.453 32.800,199.163 32.800 C 199.409 32.800,199.923 32.641,200.305 32.447 C 204.653 30.235,215.410 27.145,225.600 25.181 C 234.156 23.532,247.536 22.844,256.400 23.598 " stroke="none" fill="#50646c" fill-rule="evenodd"></path><path id="path1" d="M112.400 236.442 C 110.310 238.641,108.190 240.836,107.688 241.320 C 106.955 242.027,94.534 254.431,91.293 257.693 C 90.854 258.134,86.983 262.003,82.691 266.291 C 73.345 275.626,75.626 273.345,66.291 282.691 C 62.003 286.983,58.134 290.854,57.693 291.293 C 56.647 292.332,42.332 306.647,41.293 307.693 C 40.854 308.134,37.009 311.978,32.748 316.234 C 28.486 320.490,24.820 324.155,24.600 324.378 C 24.380 324.600,20.870 328.091,16.800 332.134 C 9.103 339.781,6.800 342.220,6.800 342.725 C 6.800 342.889,6.440 343.283,6.000 343.600 C 5.560 343.917,5.200 344.457,5.200 344.800 C 5.200 345.143,4.840 345.683,4.400 346.000 C 3.960 346.317,3.600 346.897,3.600 347.288 C 3.600 347.680,3.420 348.000,3.200 348.000 C 2.980 348.000,2.800 348.360,2.800 348.800 C 2.800 349.240,2.620 349.600,2.400 349.600 C 2.180 349.600,2.000 350.140,2.000 350.800 C 2.000 351.460,1.859 352.000,1.687 352.000 C 0.658 352.000,0.200 356.079,0.200 365.240 C 0.200 374.660,0.229 374.907,1.647 377.695 C 1.841 378.077,2.000 378.752,2.000 379.195 C 2.000 379.638,2.180 380.000,2.400 380.000 C 2.620 380.000,2.800 380.360,2.800 380.800 C 2.800 381.240,2.980 381.600,3.200 381.600 C 3.420 381.600,3.600 381.960,3.600 382.400 C 3.600 382.840,3.750 383.200,3.932 383.200 C 4.115 383.200,4.519 383.695,4.830 384.300 C 5.140 384.905,5.711 385.691,6.097 386.047 C 6.484 386.403,6.800 386.916,6.800 387.188 C 6.800 387.868,12.184 393.200,12.870 393.200 C 13.175 393.200,13.683 393.560,14.000 394.000 C 14.317 394.440,14.807 394.800,15.088 394.800 C 15.370 394.800,15.600 394.980,15.600 395.200 C 15.600 395.420,15.870 395.600,16.200 395.600 C 16.530 395.600,16.800 395.780,16.800 396.000 C 16.800 396.220,17.160 396.400,17.600 396.400 C 18.040 396.400,18.400 396.580,18.400 396.800 C 18.400 397.020,18.760 397.200,19.200 397.200 C 19.640 397.200,20.000 397.380,20.000 397.600 C 20.000 397.820,20.540 398.000,21.200 398.000 C 21.860 398.000,22.400 398.180,22.400 398.400 C 22.400 398.620,22.745 398.800,23.167 398.800 C 23.588 398.800,24.008 399.025,24.100 399.300 C 24.227 399.683,26.703 399.800,34.672 399.800 C 45.095 399.800,45.292 399.779,48.095 398.353 C 48.477 398.159,49.152 398.000,49.595 398.000 C 50.038 398.000,50.400 397.820,50.400 397.600 C 50.400 397.380,50.760 397.200,51.200 397.200 C 51.640 397.200,52.000 397.020,52.000 396.800 C 52.000 396.580,52.320 396.400,52.712 396.400 C 53.103 396.400,53.683 396.040,54.000 395.600 C 54.317 395.160,54.857 394.800,55.200 394.800 C 55.543 394.800,56.083 394.440,56.400 394.000 C 56.717 393.560,57.123 393.200,57.303 393.200 C 57.828 393.200,58.151 392.886,75.519 375.519 C 75.804 375.233,79.521 371.517,83.778 367.259 C 88.035 363.002,91.699 359.339,91.919 359.119 C 92.441 358.597,108.597 342.441,109.119 341.919 C 109.339 341.699,113.055 337.982,117.378 333.659 C 121.701 329.337,125.364 325.673,125.519 325.519 C 125.673 325.364,129.337 321.701,133.659 317.378 C 137.982 313.055,141.699 309.339,141.919 309.119 C 145.690 305.348,158.824 292.213,159.118 291.918 C 159.338 291.698,161.426 289.644,163.759 287.354 C 168.783 282.422,168.679 282.878,165.275 280.676 C 148.205 269.633,132.394 253.981,120.854 236.700 C 117.212 231.246,117.336 231.250,112.400 236.442 " stroke="none" fill="#fb6053" fill-rule="evenodd"></path><path id="path2" d="M244.500 23.497 C 246.205 23.572,248.995 23.572,250.700 23.497 C 252.405 23.422,251.010 23.361,247.600 23.361 C 244.190 23.361,242.795 23.422,244.500 23.497 M160.575 57.300 L 159.400 58.600 160.700 57.425 C 161.912 56.330,162.184 56.000,161.875 56.000 C 161.806 56.000,161.221 56.585,160.575 57.300 M336.000 58.510 C 336.000 58.571,337.395 59.966,339.100 61.610 L 342.200 64.600 339.210 61.500 C 336.433 58.621,336.000 58.217,336.000 58.510 M244.684 71.798 C 241.843 73.967,237.819 80.505,234.834 87.800 C 234.654 88.240,234.313 89.050,234.075 89.600 C 233.587 90.729,231.577 96.872,230.803 99.600 C 229.793 103.158,229.618 103.851,228.829 107.400 C 226.833 116.388,225.286 127.810,224.673 138.083 C 224.497 141.037,222.968 140.800,242.233 140.800 C 251.345 140.800,258.800 140.939,258.800 141.109 C 258.800 141.280,253.708 146.500,247.484 152.709 L 236.168 164.000 230.917 164.000 C 223.964 164.000,224.521 163.529,224.920 169.069 C 225.105 171.629,225.159 174.100,225.040 174.562 C 224.711 175.843,205.300 195.060,204.820 194.580 C 204.083 193.843,202.324 180.793,201.588 170.600 C 201.365 167.520,201.103 164.775,201.004 164.500 C 200.801 163.933,167.006 163.743,166.658 164.307 C 166.450 164.643,166.848 166.793,168.081 172.000 C 168.932 175.593,169.436 177.230,170.790 180.800 C 171.250 182.010,171.828 183.540,172.075 184.200 C 173.875 189.001,181.257 201.257,184.000 204.000 C 185.650 205.650,189.200 210.062,189.200 210.462 C 189.200 210.754,185.645 214.559,181.300 218.918 L 173.400 226.843 176.004 229.322 C 179.518 232.667,184.641 236.728,189.000 239.622 C 190.980 240.937,192.782 242.145,193.004 242.306 C 195.884 244.400,207.999 250.009,213.885 251.973 C 222.095 254.713,226.826 255.732,238.116 257.196 C 245.589 258.165,260.449 257.377,268.200 255.602 C 274.108 254.248,275.939 253.755,280.400 252.313 C 304.148 244.640,324.446 228.520,337.605 206.883 C 340.418 202.257,344.252 194.638,345.597 191.000 C 345.760 190.560,346.091 189.750,346.333 189.200 C 346.575 188.650,347.153 186.940,347.617 185.400 C 348.082 183.860,348.607 182.150,348.785 181.600 C 353.655 166.502,354.050 139.947,349.611 126.000 C 349.436 125.450,349.068 124.190,348.793 123.200 C 348.089 120.665,346.826 116.783,346.320 115.600 C 346.085 115.050,345.751 114.240,345.578 113.800 C 341.977 104.667,336.089 94.485,330.079 87.000 C 326.490 82.530,322.723 78.400,322.236 78.400 C 322.010 78.400,318.300 81.910,313.990 86.200 C 305.412 94.739,305.814 94.466,304.149 92.900 C 298.818 87.884,292.599 83.398,286.331 80.046 C 281.860 77.654,281.678 77.731,283.044 81.440 C 285.957 89.354,288.971 100.165,290.044 106.553 L 290.564 109.649 280.519 119.671 C 270.197 129.970,269.600 130.398,269.600 127.509 C 269.600 126.605,269.417 124.681,269.194 123.233 C 268.970 121.785,268.601 119.340,268.372 117.800 C 266.813 107.305,262.802 92.800,259.334 85.123 C 253.780 72.826,249.015 68.491,244.684 71.798 M210.800 79.178 C 208.089 80.519,205.737 81.854,204.338 82.847 C 203.754 83.261,203.159 83.600,203.015 83.600 C 202.871 83.600,202.089 84.108,201.277 84.730 C 200.464 85.351,198.737 86.655,197.437 87.627 C 183.633 97.953,172.141 115.638,168.080 132.800 C 166.846 138.015,166.450 140.158,166.658 140.493 C 166.902 140.889,200.047 140.885,200.669 140.490 C 200.947 140.313,201.236 138.563,201.379 136.196 C 201.707 130.769,202.336 123.987,202.825 120.600 C 203.843 113.557,204.645 108.734,205.255 106.000 C 205.475 105.010,205.811 103.480,206.000 102.600 C 207.327 96.428,209.728 88.008,211.684 82.669 C 213.543 77.593,213.595 77.796,210.800 79.178 M151.600 238.525 C 151.600 238.594,152.185 239.179,152.900 239.825 L 154.200 241.000 153.025 239.700 C 151.930 238.488,151.600 238.216,151.600 238.525 " stroke="none" fill="#54dbd4" fill-rule="evenodd"></path><path id="path3" d="M234.600 24.222 C 178.669 30.299,132.659 71.603,121.672 125.600 C 120.420 131.751,120.280 132.696,119.208 142.227 C 114.998 179.655,133.256 224.174,163.270 249.665 C 169.216 254.715,177.434 260.800,178.308 260.800 C 178.511 260.800,179.002 261.160,179.400 261.600 C 179.798 262.040,180.293 262.400,180.500 262.400 C 180.707 262.400,181.354 262.732,181.938 263.138 C 184.426 264.869,191.604 268.528,197.200 270.918 C 201.487 272.750,210.277 275.855,212.800 276.428 C 213.570 276.604,214.920 276.952,215.800 277.204 C 218.278 277.911,222.266 278.735,227.400 279.602 C 233.642 280.655,238.578 280.992,247.800 280.996 C 257.040 281.000,261.213 280.711,268.200 279.586 C 269.520 279.373,271.459 279.086,272.508 278.948 C 273.558 278.810,274.514 278.540,274.632 278.348 C 274.750 278.157,275.319 278.000,275.895 278.000 C 276.472 278.000,277.496 277.832,278.172 277.627 C 278.847 277.422,280.210 277.038,281.200 276.773 C 283.845 276.066,285.696 275.527,286.600 275.200 C 287.040 275.041,288.120 274.694,289.000 274.429 C 289.880 274.164,290.960 273.795,291.400 273.610 C 291.840 273.425,293.895 272.615,295.967 271.811 C 299.508 270.436,309.563 265.718,310.000 265.225 C 310.110 265.101,310.630 264.758,311.155 264.462 C 311.680 264.167,312.724 263.580,313.474 263.158 C 324.659 256.876,340.393 243.112,348.546 232.478 C 349.001 231.885,349.474 231.310,349.598 231.200 C 350.802 230.130,356.646 221.224,360.493 214.594 C 361.326 213.159,365.187 205.323,366.304 202.800 C 369.833 194.829,373.445 182.251,374.805 173.200 C 376.003 165.225,376.200 162.252,376.193 152.200 C 376.186 141.005,375.643 134.754,374.021 127.200 C 373.809 126.210,373.459 124.500,373.244 123.400 C 365.709 84.882,333.698 47.756,294.768 32.386 C 276.637 25.227,253.828 22.132,234.600 24.222 M256.800 47.401 C 262.717 48.013,266.149 48.506,269.000 49.154 C 269.880 49.354,271.230 49.641,272.000 49.793 C 272.770 49.944,273.850 50.211,274.400 50.387 C 274.950 50.563,276.210 50.934,277.200 51.211 C 280.930 52.256,284.205 53.392,287.000 54.611 C 287.660 54.899,289.010 55.453,290.000 55.843 C 295.561 58.031,310.255 66.796,312.400 69.204 C 312.510 69.328,313.984 70.550,315.675 71.920 C 335.738 88.172,348.336 110.990,352.489 138.600 C 353.123 142.820,353.123 161.980,352.489 166.200 C 350.136 181.843,344.573 197.688,338.353 206.462 C 337.939 207.046,337.600 207.651,337.600 207.806 C 337.600 209.096,328.995 220.128,323.644 225.699 C 317.993 231.581,304.616 242.400,302.994 242.400 C 302.857 242.400,301.992 242.912,301.072 243.537 C 298.746 245.120,291.271 248.794,287.200 250.357 C 285.330 251.075,283.487 251.828,283.105 252.031 C 282.723 252.234,282.059 252.400,281.629 252.400 C 281.199 252.400,280.736 252.580,280.600 252.800 C 280.464 253.020,279.924 253.200,279.400 253.200 C 278.876 253.200,278.348 253.360,278.227 253.556 C 278.106 253.751,277.421 254.005,276.704 254.119 C 275.987 254.232,274.680 254.536,273.800 254.793 C 270.826 255.662,267.351 256.329,260.800 257.291 C 256.999 257.849,239.213 257.985,235.400 257.485 C 228.410 256.569,221.845 255.066,214.600 252.722 C 212.620 252.081,210.595 251.387,210.100 251.179 C 209.605 250.970,208.795 250.635,208.300 250.433 C 199.659 246.913,188.370 240.450,182.952 235.921 C 175.893 230.019,175.178 229.338,170.200 223.788 C 143.881 194.440,135.562 155.355,147.812 118.600 C 148.619 116.180,149.441 114.029,149.639 113.820 C 149.838 113.611,150.000 113.213,150.000 112.935 C 150.000 110.242,160.402 92.449,165.615 86.224 C 170.121 80.844,174.431 76.407,178.400 73.065 C 180.270 71.490,181.890 70.111,182.000 70.001 C 188.634 63.340,211.281 52.213,223.000 49.857 C 223.660 49.724,225.374 49.360,226.809 49.048 C 229.194 48.529,231.996 48.136,239.800 47.227 C 244.351 46.697,250.609 46.761,256.800 47.401 " stroke="none" fill="#f3ebe7" fill-rule="evenodd"></path><path id="path4" d="M239.800 47.227 C 231.996 48.136,229.194 48.529,226.809 49.048 C 225.374 49.360,223.660 49.724,223.000 49.857 C 211.281 52.213,188.634 63.340,182.000 70.001 C 181.890 70.111,180.270 71.490,178.400 73.065 C 174.431 76.407,170.121 80.844,165.615 86.224 C 160.402 92.449,150.000 110.242,150.000 112.935 C 150.000 113.213,149.838 113.611,149.639 113.820 C 149.441 114.029,148.619 116.180,147.812 118.600 C 135.562 155.355,143.881 194.440,170.200 223.788 C 175.178 229.338,175.893 230.019,182.952 235.921 C 186.430 238.828,195.906 244.687,201.400 247.327 C 203.600 248.385,205.713 249.418,206.095 249.625 C 206.477 249.831,207.017 249.994,207.295 249.987 C 207.573 249.980,205.370 248.753,202.400 247.261 C 196.758 244.426,193.678 242.803,193.000 242.306 C 192.780 242.145,190.980 240.937,189.000 239.622 C 184.641 236.728,179.518 232.667,176.004 229.322 L 173.400 226.843 181.300 218.918 C 185.645 214.559,189.200 210.754,189.200 210.462 C 189.200 210.062,185.650 205.650,184.000 204.000 C 181.257 201.257,173.875 189.001,172.075 184.200 C 171.828 183.540,171.250 182.010,170.790 180.800 C 169.436 177.230,168.932 175.593,168.081 172.000 C 166.848 166.793,166.450 164.643,166.658 164.307 C 167.006 163.743,200.801 163.933,201.004 164.500 C 201.103 164.775,201.365 167.520,201.588 170.600 C 202.324 180.793,204.083 193.843,204.820 194.580 C 205.300 195.060,224.711 175.843,225.040 174.562 C 225.159 174.100,225.105 171.629,224.920 169.069 C 224.521 163.529,223.964 164.000,230.917 164.000 L 236.168 164.000 247.484 152.709 C 253.708 146.500,258.800 141.280,258.800 141.109 C 258.800 140.939,251.345 140.800,242.233 140.800 C 222.968 140.800,224.497 141.037,224.673 138.083 C 225.492 124.351,227.721 110.393,230.850 99.400 C 231.371 97.568,233.601 90.704,233.968 89.800 C 238.754 78.018,244.107 70.400,247.598 70.400 C 253.329 70.400,262.122 87.797,266.401 107.600 C 267.676 113.504,267.926 114.795,268.372 117.800 C 268.601 119.340,268.970 121.785,269.194 123.233 C 269.417 124.681,269.600 126.605,269.600 127.509 C 269.600 130.398,270.197 129.970,280.519 119.671 L 290.564 109.649 290.044 106.553 C 288.971 100.165,285.957 89.354,283.044 81.440 C 281.678 77.731,281.860 77.654,286.331 80.046 C 292.599 83.398,298.818 87.884,304.149 92.900 C 305.814 94.466,305.412 94.739,313.990 86.200 C 318.300 81.910,322.010 78.400,322.236 78.400 C 322.723 78.400,326.490 82.530,330.079 87.000 C 336.089 94.485,341.977 104.667,345.578 113.800 C 345.751 114.240,346.090 115.050,346.331 115.600 C 346.572 116.150,347.067 117.545,347.431 118.700 C 348.120 120.888,348.689 121.616,348.213 119.700 C 347.319 116.102,342.933 106.166,339.605 100.200 C 334.039 90.222,324.822 79.329,315.675 71.920 C 313.984 70.550,312.510 69.328,312.400 69.204 C 310.255 66.796,295.561 58.031,290.000 55.843 C 289.010 55.453,287.660 54.899,287.000 54.611 C 284.205 53.392,280.930 52.256,277.200 51.211 C 276.210 50.934,274.950 50.563,274.400 50.387 C 273.850 50.211,272.770 49.944,272.000 49.793 C 271.230 49.641,269.880 49.354,269.000 49.154 C 260.747 47.278,247.098 46.377,239.800 47.227 M153.375 64.500 L 152.200 65.800 153.500 64.625 C 154.712 63.530,154.984 63.200,154.675 63.200 C 154.606 63.200,154.021 63.785,153.375 64.500 M211.684 82.669 C 209.728 88.008,207.327 96.428,206.000 102.600 C 205.811 103.480,205.475 105.010,205.255 106.000 C 204.645 108.734,203.843 113.557,202.825 120.600 C 202.336 123.987,201.707 130.769,201.379 136.196 C 201.236 138.563,200.947 140.313,200.669 140.490 C 200.047 140.885,166.902 140.889,166.658 140.493 C 166.450 140.158,166.846 138.015,168.080 132.800 C 172.141 115.638,183.633 97.953,197.437 87.627 C 198.737 86.655,200.464 85.351,201.277 84.730 C 202.089 84.108,202.871 83.600,203.015 83.600 C 203.159 83.600,203.754 83.261,204.338 82.847 C 206.491 81.320,212.862 77.964,213.135 78.214 C 213.210 78.282,212.557 80.286,211.684 82.669 M348.412 121.800 C 348.412 122.240,348.587 122.870,348.800 123.200 C 349.121 123.697,349.188 123.662,349.188 123.000 C 349.188 122.560,349.013 121.930,348.800 121.600 C 348.479 121.103,348.412 121.138,348.412 121.800 M349.212 124.600 C 349.212 125.040,349.387 125.670,349.600 126.000 C 349.921 126.497,349.988 126.462,349.988 125.800 C 349.988 125.360,349.813 124.730,349.600 124.400 C 349.279 123.903,349.212 123.938,349.212 124.600 M350.050 127.600 C 350.042 128.775,351.531 134.580,351.565 133.506 C 351.584 132.904,351.397 131.554,351.150 130.506 C 350.606 128.205,350.056 126.751,350.050 127.600 M351.608 135.233 C 351.613 135.545,351.877 137.960,352.196 140.600 C 352.514 143.240,352.775 148.550,352.775 152.400 C 352.775 156.250,352.514 161.560,352.196 164.200 C 351.537 169.657,351.502 170.231,351.848 169.885 C 352.916 168.817,353.429 145.293,352.533 138.482 C 352.153 135.590,351.584 133.592,351.608 135.233 M350.681 173.762 C 350.285 175.705,350.051 177.384,350.161 177.494 C 350.271 177.604,350.470 177.178,350.603 176.547 C 350.736 175.916,351.031 174.661,351.258 173.759 C 351.485 172.856,351.610 171.693,351.536 171.173 C 351.461 170.654,351.076 171.819,350.681 173.762 M349.488 178.933 C 349.010 180.149,349.124 181.173,349.639 180.287 C 349.867 179.896,349.991 179.266,349.915 178.887 C 349.788 178.260,349.751 178.264,349.488 178.933 M348.386 182.860 C 347.837 184.907,346.895 187.869,346.433 189.000 C 346.254 189.440,345.926 190.250,345.704 190.800 C 333.853 220.218,309.898 242.782,280.400 252.313 C 275.939 253.755,274.108 254.248,268.200 255.602 C 260.449 257.377,245.589 258.165,238.116 257.196 C 226.857 255.737,222.090 254.711,214.000 252.010 C 210.810 250.945,208.129 250.143,208.043 250.227 C 207.956 250.312,208.226 250.492,208.643 250.627 C 209.059 250.762,209.760 251.027,210.200 251.215 C 213.100 252.455,222.187 255.087,226.600 255.964 C 230.446 256.729,233.019 257.173,235.400 257.485 C 239.213 257.985,256.999 257.849,260.800 257.291 C 267.351 256.329,270.826 255.662,273.800 254.793 C 274.680 254.536,275.987 254.232,276.704 254.119 C 277.421 254.005,278.106 253.751,278.227 253.556 C 278.348 253.360,278.876 253.200,279.400 253.200 C 279.924 253.200,280.464 253.020,280.600 252.800 C 280.736 252.580,281.199 252.400,281.629 252.400 C 282.059 252.400,282.723 252.234,283.105 252.031 C 283.487 251.828,285.330 251.075,287.200 250.357 C 291.271 248.794,298.746 245.120,301.072 243.537 C 301.992 242.912,302.857 242.400,302.994 242.400 C 304.616 242.400,317.993 231.581,323.644 225.699 C 328.995 220.128,337.600 209.096,337.600 207.806 C 337.600 207.651,337.939 207.046,338.353 206.462 C 342.096 201.181,350.126 182.393,349.085 181.351 C 348.957 181.224,348.642 181.902,348.386 182.860 " stroke="none" fill="#8cf2f2" fill-rule="evenodd"></path></g></svg>