<svg id="svg" version="1.1" xmlns="http://www.w3.org/2000/svg" xmlns:xlink="http://www.w3.org/1999/xlink" width="400" height="400" viewBox="0, 0, 400,400"><g id="svgg"><path id="path0" d="M228.700 0.274 C 226.995 0.362,225.600 0.606,225.600 0.817 C 225.600 1.028,224.520 1.200,223.200 1.200 C 221.867 1.200,220.800 1.378,220.800 1.600 C 220.800 1.820,219.821 2.000,218.624 2.000 C 217.427 2.000,216.336 2.180,216.200 2.400 C 216.064 2.620,215.243 2.800,214.376 2.800 C 213.509 2.800,212.800 2.980,212.800 3.200 C 212.800 3.420,212.181 3.600,211.424 3.600 C 210.667 3.600,209.936 3.780,209.800 4.000 C 209.664 4.220,208.933 4.400,208.176 4.400 C 207.419 4.400,206.800 4.580,206.800 4.800 C 206.800 5.020,206.260 5.200,205.600 5.200 C 204.940 5.200,204.400 5.380,204.400 5.600 C 204.400 5.820,203.680 6.000,202.800 6.000 C 201.920 6.000,201.200 6.180,201.200 6.400 C 201.200 6.620,200.660 6.800,200.000 6.800 C 199.340 6.800,198.800 6.980,198.800 7.200 C 198.800 7.420,198.260 7.600,197.600 7.600 C 196.940 7.600,196.400 7.739,196.400 7.909 C 196.400 8.079,195.635 8.413,194.700 8.650 C 192.386 9.239,189.030 10.533,188.867 10.900 C 188.793 11.065,188.470 11.200,188.147 11.200 C 187.825 11.200,186.816 11.560,185.906 12.000 C 184.995 12.440,184.014 12.800,183.725 12.800 C 183.436 12.800,183.200 12.980,183.200 13.200 C 183.200 13.420,182.840 13.600,182.400 13.600 C 181.960 13.600,181.600 13.780,181.600 14.000 C 181.600 14.220,181.240 14.400,180.800 14.400 C 180.360 14.400,180.000 14.580,180.000 14.800 C 180.000 15.020,179.640 15.200,179.200 15.200 C 178.760 15.200,178.400 15.380,178.400 15.600 C 178.400 15.820,178.040 16.000,177.600 16.000 C 177.160 16.000,176.800 16.180,176.800 16.400 C 176.800 16.620,176.530 16.800,176.200 16.800 C 175.870 16.800,175.600 16.980,175.600 17.200 C 175.600 17.420,175.240 17.600,174.800 17.600 C 174.360 17.600,174.000 17.780,174.000 18.000 C 174.000 18.220,173.680 18.400,173.288 18.400 C 172.897 18.400,172.317 18.760,172.000 19.200 C 171.683 19.640,171.103 20.000,170.712 20.000 C 170.320 20.000,170.000 20.180,170.000 20.400 C 170.000 20.620,169.640 20.800,169.200 20.800 C 168.760 20.800,168.400 20.980,168.400 21.200 C 168.400 21.420,168.164 21.600,167.875 21.600 C 167.587 21.600,167.002 21.915,166.575 22.300 C 166.149 22.685,165.305 23.255,164.700 23.568 C 164.095 23.880,163.600 24.285,163.600 24.468 C 163.600 24.650,163.240 24.800,162.800 24.800 C 162.360 24.800,162.000 24.968,162.000 25.173 C 162.000 25.378,161.685 25.647,161.300 25.771 C 160.915 25.895,159.970 26.537,159.200 27.197 C 158.430 27.858,157.663 28.399,157.496 28.399 C 157.329 28.400,156.628 28.940,155.937 29.600 C 155.246 30.260,154.510 30.800,154.301 30.800 C 154.092 30.800,153.417 31.340,152.800 32.000 C 152.183 32.660,151.511 33.200,151.306 33.200 C 150.426 33.200,135.005 47.844,133.198 50.395 C 132.655 51.162,131.353 52.665,130.305 53.735 C 129.257 54.805,128.400 55.844,128.400 56.044 C 128.400 56.244,127.845 56.988,127.167 57.697 C 126.490 58.406,125.641 59.485,125.281 60.093 C 124.922 60.702,124.486 61.200,124.314 61.200 C 124.141 61.200,124.000 61.443,124.000 61.741 C 124.000 62.038,123.460 62.846,122.800 63.537 C 122.140 64.228,121.600 65.025,121.600 65.308 C 121.600 65.591,121.240 66.083,120.800 66.400 C 120.360 66.717,120.000 67.257,120.000 67.600 C 120.000 67.943,119.640 68.483,119.200 68.800 C 118.760 69.117,118.400 69.697,118.400 70.088 C 118.400 70.480,118.242 70.800,118.049 70.800 C 117.855 70.800,117.473 71.340,117.200 72.000 C 116.927 72.660,116.545 73.200,116.351 73.200 C 116.158 73.200,116.000 73.560,116.000 74.000 C 116.000 74.440,115.820 74.800,115.600 74.800 C 115.380 74.800,115.200 75.070,115.200 75.400 C 115.200 75.730,115.020 76.000,114.800 76.000 C 114.580 76.000,114.400 76.270,114.400 76.600 C 114.400 76.930,114.254 77.200,114.075 77.200 C 113.896 77.200,113.502 77.830,113.200 78.600 C 112.898 79.370,112.504 80.000,112.325 80.000 C 112.146 80.000,112.000 80.360,112.000 80.800 C 112.000 81.240,111.820 81.600,111.600 81.600 C 111.380 81.600,111.200 81.960,111.200 82.400 C 111.200 82.840,111.020 83.200,110.800 83.200 C 110.580 83.200,110.400 83.560,110.400 84.000 C 110.400 84.440,110.220 84.800,110.000 84.800 C 109.780 84.800,109.600 85.049,109.600 85.354 C 109.600 85.659,109.331 86.424,109.002 87.054 C 108.674 87.684,108.404 88.515,108.402 88.900 C 108.401 89.285,108.220 89.600,108.000 89.600 C 107.780 89.600,107.600 89.960,107.600 90.400 C 107.600 90.840,107.420 91.200,107.200 91.200 C 106.980 91.200,106.800 91.650,106.800 92.200 C 106.800 92.750,106.620 93.200,106.400 93.200 C 106.180 93.200,106.000 93.549,106.000 93.976 C 106.000 94.403,105.820 94.864,105.600 95.000 C 105.380 95.136,105.200 95.687,105.200 96.224 C 105.200 96.761,105.020 97.200,104.800 97.200 C 104.580 97.200,104.400 97.560,104.400 98.000 C 104.400 98.440,104.220 98.800,104.000 98.800 C 103.780 98.800,103.600 99.340,103.600 100.000 C 103.600 100.660,103.420 101.200,103.200 101.200 C 102.980 101.200,102.800 101.740,102.800 102.400 C 102.800 103.060,102.620 103.600,102.400 103.600 C 102.180 103.600,102.000 104.140,102.000 104.800 C 102.000 105.460,101.820 106.000,101.600 106.000 C 101.380 106.000,101.200 106.529,101.200 107.176 C 101.200 107.823,101.020 108.464,100.800 108.600 C 100.580 108.736,100.400 109.366,100.400 110.000 C 100.400 110.634,100.220 111.264,100.000 111.400 C 99.780 111.536,99.600 112.267,99.600 113.024 C 99.600 113.781,99.420 114.400,99.200 114.400 C 98.980 114.400,98.800 115.120,98.800 116.000 C 98.800 116.880,98.620 117.600,98.400 117.600 C 98.180 117.600,98.000 118.309,98.000 119.176 C 98.000 120.043,97.820 120.864,97.600 121.000 C 97.380 121.136,97.200 122.227,97.200 123.424 C 97.200 124.621,97.020 125.600,96.800 125.600 C 96.580 125.600,96.400 126.579,96.400 127.776 C 96.400 128.973,96.220 130.064,96.000 130.200 C 95.780 130.336,95.600 131.776,95.600 133.400 C 95.600 135.024,95.420 136.464,95.200 136.600 C 94.652 136.938,94.652 167.862,95.200 168.200 C 95.420 168.336,95.600 169.787,95.600 171.424 C 95.600 173.141,95.769 174.400,96.000 174.400 C 96.222 174.400,96.400 175.467,96.400 176.800 C 96.400 178.133,96.578 179.200,96.800 179.200 C 97.020 179.200,97.200 180.179,97.200 181.376 C 97.200 182.573,97.380 183.664,97.600 183.800 C 97.820 183.936,98.000 184.656,98.000 185.400 C 98.000 186.144,98.180 186.864,98.400 187.000 C 98.620 187.136,98.800 187.856,98.800 188.600 C 98.800 189.344,98.980 190.064,99.200 190.200 C 99.420 190.336,99.600 191.067,99.600 191.824 C 99.600 192.581,99.780 193.200,100.000 193.200 C 100.220 193.200,100.400 193.729,100.400 194.376 C 100.400 195.023,100.580 195.664,100.800 195.800 C 101.020 195.936,101.200 196.667,101.200 197.424 C 101.200 198.181,101.380 198.800,101.600 198.800 C 101.820 198.800,102.000 199.340,102.000 200.000 C 102.000 200.660,102.180 201.200,102.400 201.200 C 102.620 201.200,102.800 201.740,102.800 202.400 C 102.800 203.060,102.980 203.600,103.200 203.600 C 103.420 203.600,103.600 204.050,103.600 204.600 C 103.600 205.150,103.780 205.600,104.000 205.600 C 104.220 205.600,104.400 205.949,104.400 206.376 C 104.400 206.803,104.580 207.264,104.800 207.400 C 105.020 207.536,105.200 208.087,105.200 208.624 C 105.200 209.161,105.380 209.600,105.600 209.600 C 105.820 209.600,106.000 209.960,106.000 210.400 C 106.000 210.840,106.180 211.200,106.400 211.200 C 106.620 211.200,106.800 211.740,106.800 212.400 C 106.800 213.060,106.980 213.600,107.200 213.600 C 107.420 213.600,107.600 213.960,107.600 214.400 C 107.600 214.840,107.780 215.200,108.000 215.200 C 108.220 215.200,108.400 215.506,108.400 215.880 C 108.400 216.657,112.811 225.730,113.287 225.933 C 113.459 226.007,113.600 226.372,113.600 226.745 C 113.600 227.118,113.960 227.683,114.400 228.000 C 114.840 228.317,115.200 228.897,115.200 229.288 C 115.200 229.680,115.380 230.000,115.600 230.000 C 115.820 230.000,116.000 230.278,116.000 230.617 C 116.000 230.956,116.360 231.620,116.800 232.092 C 117.240 232.564,117.600 233.187,117.600 233.475 C 117.600 233.764,117.780 234.000,118.000 234.000 C 118.220 234.000,118.400 234.236,118.400 234.525 C 118.400 234.813,118.760 235.436,119.200 235.908 C 119.640 236.380,120.000 237.004,120.000 237.295 C 120.000 237.586,120.360 238.083,120.800 238.400 C 121.240 238.717,121.600 239.142,121.600 239.345 C 121.600 239.548,122.140 240.229,122.800 240.860 C 123.460 241.491,124.000 242.260,124.000 242.570 C 124.000 242.880,124.135 243.193,124.300 243.267 C 124.465 243.340,125.140 244.209,125.800 245.198 C 126.460 246.186,127.405 247.409,127.900 247.916 C 128.395 248.422,128.800 249.004,128.800 249.209 C 128.800 249.415,129.790 250.573,131.000 251.783 C 132.210 252.993,133.200 254.101,133.200 254.246 C 133.200 254.581,145.433 266.800,145.768 266.800 C 145.905 266.800,147.007 267.790,148.217 269.000 C 149.427 270.210,150.574 271.200,150.766 271.200 C 150.958 271.200,151.693 271.740,152.400 272.400 C 153.107 273.060,153.818 273.600,153.981 273.600 C 154.242 273.600,154.869 274.063,156.683 275.593 C 156.949 275.817,157.352 276.000,157.580 276.000 C 157.807 276.000,158.509 276.540,159.140 277.200 C 159.771 277.860,160.492 278.400,160.743 278.400 C 160.994 278.400,161.200 278.550,161.200 278.732 C 161.200 278.915,161.695 279.320,162.300 279.632 C 162.905 279.945,163.749 280.515,164.175 280.900 C 164.602 281.285,165.187 281.600,165.475 281.600 C 165.764 281.600,166.000 281.780,166.000 282.000 C 166.000 282.220,166.236 282.400,166.525 282.400 C 166.813 282.400,167.436 282.760,167.908 283.200 C 168.380 283.640,169.044 284.000,169.383 284.000 C 169.722 284.000,170.000 284.180,170.000 284.400 C 170.000 284.620,170.278 284.800,170.617 284.800 C 170.956 284.800,171.620 285.160,172.092 285.600 C 172.564 286.040,173.187 286.400,173.475 286.400 C 173.764 286.400,174.000 286.580,174.000 286.800 C 174.000 287.020,174.345 287.200,174.767 287.200 C 175.188 287.200,175.593 287.341,175.667 287.513 C 175.868 287.986,183.347 291.600,184.124 291.600 C 184.496 291.600,184.800 291.780,184.800 292.000 C 184.800 292.220,185.160 292.400,185.600 292.400 C 186.040 292.400,186.400 292.580,186.400 292.800 C 186.400 293.020,186.940 293.200,187.600 293.200 C 188.260 293.200,188.800 293.380,188.800 293.600 C 188.800 293.820,189.160 294.000,189.600 294.000 C 190.040 294.000,190.400 294.180,190.400 294.400 C 190.400 294.620,190.839 294.800,191.376 294.800 C 191.913 294.800,192.464 294.980,192.600 295.200 C 192.736 295.420,193.197 295.600,193.624 295.600 C 194.051 295.600,194.400 295.780,194.400 296.000 C 194.400 296.220,194.839 296.400,195.376 296.400 C 195.913 296.400,196.464 296.580,196.600 296.800 C 196.736 297.020,197.287 297.200,197.824 297.200 C 198.361 297.200,198.800 297.380,198.800 297.600 C 198.800 297.820,199.340 298.000,200.000 298.000 C 200.660 298.000,201.200 298.180,201.200 298.400 C 201.200 298.620,201.920 298.800,202.800 298.800 C 203.680 298.800,204.400 298.980,204.400 299.200 C 204.400 299.420,204.940 299.600,205.600 299.600 C 206.260 299.600,206.800 299.780,206.800 300.000 C 206.800 300.220,207.419 300.400,208.176 300.400 C 208.933 300.400,209.664 300.580,209.800 300.800 C 209.936 301.020,210.656 301.200,211.400 301.200 C 212.144 301.200,212.864 301.380,213.000 301.600 C 213.136 301.820,213.946 302.000,214.800 302.000 C 215.654 302.000,216.464 302.180,216.600 302.400 C 216.736 302.620,217.737 302.800,218.824 302.800 C 219.911 302.800,220.800 302.980,220.800 303.200 C 220.800 303.421,221.840 303.600,223.120 303.600 C 224.396 303.600,225.611 303.766,225.820 303.969 C 227.149 305.259,268.455 305.260,269.780 303.970 C 269.989 303.766,271.114 303.600,272.280 303.600 C 273.446 303.600,274.400 303.420,274.400 303.200 C 274.400 302.980,275.379 302.800,276.576 302.800 C 277.773 302.800,278.864 302.620,279.000 302.400 C 279.136 302.180,279.957 302.000,280.824 302.000 C 281.691 302.000,282.400 301.820,282.400 301.600 C 282.400 301.380,283.120 301.200,284.000 301.200 C 284.880 301.200,285.600 301.020,285.600 300.800 C 285.600 300.580,286.219 300.400,286.976 300.400 C 287.733 300.400,288.464 300.220,288.600 300.000 C 288.736 299.780,289.377 299.600,290.024 299.600 C 290.671 299.600,291.200 299.420,291.200 299.200 C 291.200 298.980,291.830 298.800,292.600 298.800 C 293.370 298.800,294.000 298.620,294.000 298.400 C 294.000 298.180,294.540 298.000,295.200 298.000 C 295.860 298.000,296.400 297.820,296.400 297.600 C 296.400 297.380,296.940 297.200,297.600 297.200 C 298.260 297.200,298.800 297.020,298.800 296.800 C 298.800 296.580,299.239 296.400,299.776 296.400 C 300.313 296.400,300.864 296.220,301.000 296.000 C 301.136 295.780,301.597 295.600,302.024 295.600 C 302.451 295.600,302.800 295.420,302.800 295.200 C 302.800 294.980,303.239 294.800,303.776 294.800 C 304.313 294.800,304.864 294.620,305.000 294.400 C 305.136 294.180,305.597 294.000,306.024 294.000 C 306.451 294.000,306.800 293.820,306.800 293.600 C 306.800 293.380,307.250 293.200,307.800 293.200 C 308.350 293.200,308.800 293.020,308.800 292.800 C 308.800 292.580,309.160 292.400,309.600 292.400 C 310.040 292.400,310.400 292.236,310.400 292.035 C 310.400 291.834,311.120 291.549,312.000 291.400 C 312.880 291.251,313.600 290.966,313.600 290.765 C 313.600 290.564,313.960 290.400,314.400 290.400 C 314.840 290.400,315.200 290.220,315.200 290.000 C 315.200 289.780,315.560 289.600,316.000 289.600 C 316.440 289.600,316.800 289.420,316.800 289.200 C 316.800 288.980,317.160 288.800,317.600 288.800 C 318.040 288.800,318.400 288.620,318.400 288.400 C 318.400 288.180,318.760 288.000,319.200 288.000 C 319.640 288.000,320.000 287.854,320.000 287.675 C 320.000 287.496,320.630 287.102,321.400 286.800 C 322.170 286.498,322.800 286.104,322.800 285.925 C 322.800 285.746,323.070 285.600,323.400 285.600 C 323.730 285.600,324.000 285.420,324.000 285.200 C 324.000 284.980,324.270 284.800,324.600 284.800 C 324.930 284.800,325.200 284.620,325.200 284.400 C 325.200 284.180,325.560 284.000,326.000 284.000 C 326.440 284.000,326.800 283.842,326.800 283.649 C 326.800 283.455,327.340 283.073,328.000 282.800 C 328.660 282.527,329.200 282.145,329.200 281.951 C 329.200 281.758,329.520 281.600,329.912 281.600 C 330.303 281.600,330.883 281.240,331.200 280.800 C 331.517 280.360,332.057 280.000,332.400 280.000 C 332.743 280.000,333.283 279.640,333.600 279.200 C 333.917 278.760,334.380 278.400,334.629 278.400 C 334.878 278.400,335.646 277.860,336.337 277.200 C 337.028 276.540,337.864 276.000,338.196 276.000 C 338.528 276.000,338.800 275.859,338.800 275.686 C 338.800 275.514,339.298 275.078,339.907 274.719 C 340.515 274.359,341.594 273.510,342.303 272.833 C 343.012 272.155,343.759 271.600,343.961 271.600 C 344.164 271.600,345.427 270.520,346.768 269.200 C 348.108 267.880,349.375 266.800,349.582 266.800 C 350.169 266.800,362.000 254.821,362.000 254.226 C 362.000 254.105,363.080 252.908,364.400 251.568 C 365.720 250.227,366.800 248.948,366.800 248.726 C 366.800 248.503,367.340 247.817,368.000 247.200 C 368.660 246.583,369.200 245.908,369.200 245.699 C 369.200 245.490,369.740 244.754,370.400 244.063 C 371.060 243.372,371.600 242.536,371.600 242.204 C 371.600 241.872,371.763 241.600,371.962 241.600 C 372.437 241.600,375.200 237.749,375.200 237.087 C 375.200 236.806,375.560 236.317,376.000 236.000 C 376.440 235.683,376.800 235.103,376.800 234.712 C 376.800 234.320,376.980 234.000,377.200 234.000 C 377.420 234.000,377.600 233.730,377.600 233.400 C 377.600 233.070,377.780 232.800,378.000 232.800 C 378.220 232.800,378.400 232.530,378.400 232.200 C 378.400 231.870,378.580 231.600,378.800 231.600 C 379.020 231.600,379.200 231.240,379.200 230.800 C 379.200 230.360,379.380 230.000,379.600 230.000 C 379.820 230.000,380.000 229.680,380.000 229.288 C 380.000 228.897,380.360 228.317,380.800 228.000 C 381.240 227.683,381.600 227.103,381.600 226.712 C 381.600 226.320,381.746 226.000,381.925 226.000 C 382.104 226.000,382.498 225.370,382.800 224.600 C 383.102 223.830,383.496 223.200,383.675 223.200 C 383.854 223.200,384.000 222.840,384.000 222.400 C 384.000 221.960,384.180 221.600,384.400 221.600 C 384.620 221.600,384.800 221.240,384.800 220.800 C 384.800 220.360,384.980 220.000,385.200 220.000 C 385.420 220.000,385.600 219.640,385.600 219.200 C 385.600 218.760,385.780 218.400,386.000 218.400 C 386.220 218.400,386.400 218.040,386.400 217.600 C 386.400 217.160,386.580 216.800,386.800 216.800 C 387.020 216.800,387.200 216.564,387.200 216.275 C 387.200 215.986,387.560 215.005,388.000 214.094 C 388.440 213.184,388.800 212.160,388.800 211.819 C 388.800 211.479,388.980 211.200,389.200 211.200 C 389.420 211.200,389.600 210.921,389.600 210.581 C 389.600 210.240,389.965 209.206,390.411 208.283 C 390.857 207.360,391.330 205.929,391.462 205.102 C 391.594 204.276,391.859 203.600,392.051 203.600 C 392.243 203.600,392.400 203.060,392.400 202.400 C 392.400 201.740,392.580 201.200,392.800 201.200 C 393.020 201.200,393.200 200.660,393.200 200.000 C 393.200 199.340,393.380 198.800,393.600 198.800 C 393.820 198.800,394.000 198.181,394.000 197.424 C 394.000 196.667,394.180 195.936,394.400 195.800 C 394.620 195.664,394.800 195.023,394.800 194.376 C 394.800 193.729,394.980 193.200,395.200 193.200 C 395.420 193.200,395.600 192.581,395.600 191.824 C 395.600 191.067,395.780 190.336,396.000 190.200 C 396.220 190.064,396.400 189.333,396.400 188.576 C 396.400 187.819,396.580 187.200,396.800 187.200 C 397.020 187.200,397.200 186.491,397.200 185.624 C 397.200 184.757,397.380 183.936,397.600 183.800 C 397.820 183.664,398.000 182.573,398.000 181.376 C 398.000 180.179,398.180 179.200,398.400 179.200 C 398.622 179.200,398.800 178.144,398.800 176.833 C 398.800 175.296,398.975 174.408,399.300 174.300 C 399.692 174.169,399.800 169.448,399.800 152.487 C 399.800 135.703,399.688 130.728,399.300 130.340 C 399.025 130.065,398.800 128.886,398.800 127.720 C 398.800 126.554,398.620 125.600,398.400 125.600 C 398.180 125.600,398.000 124.621,398.000 123.424 C 398.000 122.227,397.820 121.136,397.600 121.000 C 397.380 120.864,397.200 120.043,397.200 119.176 C 397.200 118.309,397.020 117.600,396.800 117.600 C 396.580 117.600,396.400 116.880,396.400 116.000 C 396.400 115.120,396.220 114.400,396.000 114.400 C 395.780 114.400,395.600 113.680,395.600 112.800 C 395.600 111.920,395.420 111.200,395.200 111.200 C 394.980 111.200,394.800 110.660,394.800 110.000 C 394.800 109.340,394.620 108.800,394.400 108.800 C 394.180 108.800,394.000 108.170,394.000 107.400 C 394.000 106.630,393.820 106.000,393.600 106.000 C 393.380 106.000,393.200 105.460,393.200 104.800 C 393.200 104.140,393.020 103.600,392.800 103.600 C 392.580 103.600,392.400 103.060,392.400 102.400 C 392.400 101.740,392.220 101.200,392.000 101.200 C 391.780 101.200,391.599 100.705,391.598 100.100 C 391.596 99.495,391.326 98.484,390.998 97.854 C 390.669 97.224,390.400 96.554,390.400 96.364 C 390.400 96.175,389.860 94.841,389.200 93.400 C 388.540 91.959,388.000 90.514,388.000 90.190 C 388.000 89.865,387.820 89.600,387.600 89.600 C 387.380 89.600,387.200 89.240,387.200 88.800 C 387.200 88.360,387.020 88.000,386.800 88.000 C 386.580 88.000,386.400 87.640,386.400 87.200 C 386.400 86.760,386.220 86.400,386.000 86.400 C 385.780 86.400,385.600 86.040,385.600 85.600 C 385.600 85.160,385.420 84.800,385.200 84.800 C 384.980 84.800,384.800 84.440,384.800 84.000 C 384.800 83.560,384.620 83.200,384.400 83.200 C 384.180 83.200,384.000 82.840,384.000 82.400 C 384.000 81.960,383.820 81.600,383.600 81.600 C 383.380 81.600,383.200 81.240,383.200 80.800 C 383.200 80.360,383.020 80.000,382.800 80.000 C 382.580 80.000,382.400 79.640,382.400 79.200 C 382.400 78.760,382.220 78.400,382.000 78.400 C 381.780 78.400,381.600 78.130,381.600 77.800 C 381.600 77.470,381.420 77.200,381.200 77.200 C 380.980 77.200,380.800 76.930,380.800 76.600 C 380.800 76.270,380.620 76.000,380.400 76.000 C 380.180 76.000,380.000 75.730,380.000 75.400 C 380.000 75.070,379.820 74.800,379.600 74.800 C 379.380 74.800,379.200 74.440,379.200 74.000 C 379.200 73.560,379.020 73.200,378.800 73.200 C 378.580 73.200,378.400 72.964,378.400 72.675 C 378.400 72.387,378.040 71.764,377.600 71.292 C 377.160 70.820,376.800 70.196,376.800 69.905 C 376.800 69.614,376.440 69.117,376.000 68.800 C 375.560 68.483,375.200 67.991,375.200 67.708 C 375.200 67.133,372.465 63.076,371.936 62.867 C 371.751 62.793,371.597 62.523,371.593 62.267 C 371.584 61.737,370.021 59.717,368.100 57.755 C 367.385 57.024,366.800 56.231,366.800 55.991 C 366.800 55.752,365.720 54.496,364.400 53.200 C 363.080 51.904,362.000 50.639,362.000 50.389 C 362.000 49.804,350.183 38.000,349.597 38.000 C 349.354 38.000,348.096 36.920,346.800 35.600 C 345.504 34.280,344.248 33.200,344.009 33.200 C 343.769 33.200,342.976 32.615,342.245 31.900 C 340.283 29.979,338.263 28.416,337.733 28.407 C 337.477 28.403,337.207 28.249,337.133 28.064 C 336.924 27.535,332.867 24.800,332.292 24.800 C 332.009 24.800,331.517 24.440,331.200 24.000 C 330.883 23.560,330.386 23.200,330.095 23.200 C 329.804 23.200,329.180 22.840,328.708 22.400 C 328.236 21.960,327.613 21.600,327.325 21.600 C 327.036 21.600,326.800 21.420,326.800 21.200 C 326.800 20.980,326.440 20.800,326.000 20.800 C 325.560 20.800,325.200 20.620,325.200 20.400 C 325.200 20.180,325.012 20.000,324.783 20.000 C 324.554 20.000,323.980 19.640,323.508 19.200 C 323.036 18.760,322.413 18.400,322.125 18.400 C 321.836 18.400,321.600 18.220,321.600 18.000 C 321.600 17.780,321.240 17.600,320.800 17.600 C 320.360 17.600,320.000 17.420,320.000 17.200 C 320.000 16.980,319.640 16.800,319.200 16.800 C 318.760 16.800,318.400 16.620,318.400 16.400 C 318.400 16.180,318.040 16.000,317.600 16.000 C 317.160 16.000,316.800 15.820,316.800 15.600 C 316.800 15.380,316.440 15.200,316.000 15.200 C 315.560 15.200,315.200 15.020,315.200 14.800 C 315.200 14.580,314.840 14.400,314.400 14.400 C 313.960 14.400,313.600 14.220,313.600 14.000 C 313.600 13.780,313.240 13.600,312.800 13.600 C 312.360 13.600,312.000 13.420,312.000 13.200 C 312.000 12.980,311.640 12.800,311.200 12.800 C 310.760 12.800,310.400 12.620,310.400 12.400 C 310.400 12.180,310.135 12.000,309.810 12.000 C 309.486 12.000,308.041 11.460,306.600 10.800 C 305.159 10.140,303.825 9.600,303.636 9.600 C 303.446 9.600,302.776 9.331,302.146 9.002 C 301.516 8.674,300.505 8.404,299.900 8.402 C 299.295 8.401,298.800 8.220,298.800 8.000 C 298.800 7.780,298.260 7.600,297.600 7.600 C 296.940 7.600,296.400 7.420,296.400 7.200 C 296.400 6.980,295.860 6.800,295.200 6.800 C 294.540 6.800,294.000 6.620,294.000 6.400 C 294.000 6.180,293.471 6.000,292.824 6.000 C 292.177 6.000,291.536 5.820,291.400 5.600 C 291.264 5.380,290.623 5.200,289.976 5.200 C 289.329 5.200,288.800 5.020,288.800 4.800 C 288.800 4.580,288.080 4.400,287.200 4.400 C 286.320 4.400,285.600 4.220,285.600 4.000 C 285.600 3.780,284.880 3.600,284.000 3.600 C 283.120 3.600,282.400 3.420,282.400 3.200 C 282.400 2.980,281.691 2.800,280.824 2.800 C 279.957 2.800,279.136 2.620,279.000 2.400 C 278.864 2.180,277.773 2.000,276.576 2.000 C 275.379 2.000,274.400 1.820,274.400 1.600 C 274.400 1.380,273.425 1.200,272.233 1.200 C 270.888 1.200,270.005 1.016,269.905 0.714 C 269.744 0.231,236.414 -0.125,228.700 0.274 M248.000 47.600 C 248.000 47.849,250.267 48.000,254.000 48.000 C 257.733 48.000,260.000 48.151,260.000 48.400 C 260.000 48.626,261.133 48.800,262.600 48.800 C 264.067 48.800,265.200 48.974,265.200 49.200 C 265.200 49.420,266.100 49.600,267.200 49.600 C 268.300 49.600,269.200 49.780,269.200 50.000 C 269.200 50.220,269.909 50.400,270.776 50.400 C 271.643 50.400,272.464 50.580,272.600 50.800 C 272.736 51.020,273.467 51.200,274.224 51.200 C 274.981 51.200,275.600 51.380,275.600 51.600 C 275.600 51.820,276.230 52.000,277.000 52.000 C 277.770 52.000,278.400 52.180,278.400 52.400 C 278.400 52.620,278.940 52.800,279.600 52.800 C 280.260 52.800,280.800 52.980,280.800 53.200 C 280.800 53.420,281.162 53.600,281.605 53.600 C 282.048 53.600,282.768 53.780,283.205 54.000 C 283.642 54.220,284.358 54.580,284.795 54.800 C 285.232 55.020,285.952 55.200,286.395 55.200 C 286.838 55.200,287.200 55.380,287.200 55.600 C 287.200 55.820,287.440 56.000,287.734 56.000 C 288.028 56.000,289.562 56.630,291.144 57.400 C 292.727 58.170,294.286 58.800,294.611 58.800 C 294.935 58.800,295.200 58.946,295.200 59.125 C 295.200 59.304,295.830 59.698,296.600 60.000 C 297.370 60.302,298.000 60.696,298.000 60.875 C 298.000 61.054,298.360 61.200,298.800 61.200 C 299.240 61.200,299.600 61.380,299.600 61.600 C 299.600 61.820,299.920 62.000,300.312 62.000 C 300.703 62.000,301.283 62.360,301.600 62.800 C 301.917 63.240,302.497 63.600,302.888 63.600 C 303.280 63.600,303.600 63.750,303.600 63.932 C 303.600 64.115,304.095 64.519,304.700 64.830 C 305.305 65.140,306.091 65.711,306.447 66.097 C 306.803 66.484,307.348 66.800,307.659 66.800 C 307.969 66.800,308.483 67.160,308.800 67.600 C 309.117 68.040,309.517 68.400,309.687 68.400 C 309.858 68.400,310.763 69.120,311.697 70.000 C 312.631 70.880,313.527 71.600,313.687 71.600 C 314.567 71.600,328.400 85.436,328.400 86.316 C 328.400 86.474,329.120 87.369,330.000 88.303 C 330.880 89.237,331.600 90.142,331.600 90.313 C 331.600 90.483,331.960 90.883,332.400 91.200 C 332.840 91.517,333.200 92.057,333.200 92.400 C 333.200 92.743,333.560 93.283,334.000 93.600 C 334.440 93.917,334.800 94.457,334.800 94.800 C 334.800 95.143,335.160 95.683,335.600 96.000 C 336.040 96.317,336.400 96.857,336.400 97.200 C 336.400 97.543,336.760 98.083,337.200 98.400 C 337.640 98.717,338.000 99.297,338.000 99.688 C 338.000 100.080,338.180 100.400,338.400 100.400 C 338.620 100.400,338.800 100.760,338.800 101.200 C 338.800 101.640,338.946 102.000,339.125 102.000 C 339.304 102.000,339.698 102.630,340.000 103.400 C 340.302 104.170,340.696 104.800,340.875 104.800 C 341.054 104.800,341.200 105.036,341.200 105.325 C 341.200 105.614,341.650 106.783,342.200 107.923 C 342.750 109.063,343.200 110.267,343.200 110.598 C 343.200 110.929,343.380 111.200,343.600 111.200 C 343.820 111.200,344.000 111.560,344.000 112.000 C 344.000 112.440,344.180 112.800,344.400 112.800 C 344.620 112.800,344.800 113.340,344.800 114.000 C 344.800 114.660,344.980 115.200,345.200 115.200 C 345.420 115.200,345.600 115.549,345.600 115.976 C 345.600 116.403,345.780 116.864,346.000 117.000 C 346.220 117.136,346.400 117.687,346.400 118.224 C 346.400 118.761,346.580 119.200,346.800 119.200 C 347.020 119.200,347.200 119.740,347.200 120.400 C 347.200 121.060,347.380 121.600,347.600 121.600 C 347.820 121.600,348.000 122.230,348.000 123.000 C 348.000 123.770,348.180 124.400,348.400 124.400 C 348.620 124.400,348.800 125.019,348.800 125.776 C 348.800 126.533,348.980 127.264,349.200 127.400 C 349.420 127.536,349.600 128.357,349.600 129.224 C 349.600 130.091,349.780 130.800,350.000 130.800 C 350.220 130.800,350.400 131.700,350.400 132.800 C 350.400 133.900,350.580 134.800,350.800 134.800 C 351.026 134.800,351.200 135.933,351.200 137.400 C 351.200 138.867,351.374 140.000,351.600 140.000 C 351.858 140.000,352.000 144.333,352.000 152.200 C 352.000 160.067,351.858 164.400,351.600 164.400 C 351.371 164.400,351.200 165.600,351.200 167.200 C 351.200 168.800,351.029 170.000,350.800 170.000 C 350.580 170.000,350.400 170.900,350.400 172.000 C 350.400 173.100,350.220 174.000,350.000 174.000 C 349.780 174.000,349.600 174.720,349.600 175.600 C 349.600 176.480,349.420 177.200,349.200 177.200 C 348.980 177.200,348.800 177.830,348.800 178.600 C 348.800 179.370,348.620 180.000,348.400 180.000 C 348.180 180.000,348.000 180.619,348.000 181.376 C 348.000 182.133,347.820 182.864,347.600 183.000 C 347.380 183.136,347.200 183.676,347.200 184.200 C 347.200 184.724,347.020 185.264,346.800 185.400 C 346.580 185.536,346.400 186.076,346.400 186.600 C 346.400 187.124,346.220 187.664,346.000 187.800 C 345.780 187.936,345.600 188.397,345.600 188.824 C 345.600 189.251,345.420 189.600,345.200 189.600 C 344.980 189.600,344.800 190.140,344.800 190.800 C 344.800 191.460,344.664 192.000,344.498 192.000 C 344.196 192.000,343.809 192.771,342.587 195.800 C 341.296 199.002,340.999 199.600,340.702 199.600 C 340.536 199.600,340.400 199.960,340.400 200.400 C 340.400 200.840,340.220 201.200,340.000 201.200 C 339.780 201.200,339.600 201.560,339.600 202.000 C 339.600 202.440,339.420 202.800,339.200 202.800 C 338.980 202.800,338.800 203.160,338.800 203.600 C 338.800 204.040,338.620 204.400,338.400 204.400 C 338.180 204.400,338.000 204.720,338.000 205.112 C 338.000 205.503,337.640 206.083,337.200 206.400 C 336.760 206.717,336.400 207.257,336.400 207.600 C 336.400 207.943,336.040 208.483,335.600 208.800 C 335.160 209.117,334.800 209.607,334.800 209.888 C 334.800 210.170,334.650 210.400,334.468 210.400 C 334.285 210.400,333.881 210.895,333.570 211.500 C 333.260 212.105,332.689 212.891,332.303 213.247 C 331.916 213.603,331.600 214.098,331.600 214.346 C 331.600 214.595,330.880 215.541,330.000 216.448 C 329.120 217.355,328.400 218.260,328.400 218.460 C 328.400 219.258,314.435 233.200,313.635 233.200 C 313.449 233.200,312.555 233.920,311.648 234.800 C 310.741 235.680,309.859 236.400,309.688 236.400 C 309.517 236.400,309.117 236.760,308.800 237.200 C 308.483 237.640,307.943 238.000,307.600 238.000 C 307.257 238.000,306.717 238.360,306.400 238.800 C 306.083 239.240,305.543 239.600,305.200 239.600 C 304.857 239.600,304.317 239.960,304.000 240.400 C 303.683 240.840,303.118 241.200,302.745 241.200 C 302.372 241.200,302.007 241.341,301.933 241.514 C 301.860 241.686,300.720 242.379,299.400 243.054 C 298.080 243.729,295.770 244.938,294.267 245.741 C 292.764 246.543,291.279 247.200,290.967 247.200 C 290.655 247.200,290.400 247.380,290.400 247.600 C 290.400 247.820,290.040 248.000,289.600 248.000 C 289.160 248.000,288.800 248.180,288.800 248.400 C 288.800 248.620,288.440 248.800,288.000 248.800 C 287.560 248.800,287.200 248.980,287.200 249.200 C 287.200 249.420,286.660 249.600,286.000 249.600 C 285.340 249.600,284.800 249.780,284.800 250.000 C 284.800 250.220,284.438 250.400,283.995 250.400 C 283.552 250.400,282.832 250.580,282.395 250.800 C 281.958 251.020,281.242 251.380,280.805 251.600 C 280.368 251.820,279.648 252.000,279.205 252.000 C 278.762 252.000,278.400 252.180,278.400 252.400 C 278.400 252.620,277.770 252.800,277.000 252.800 C 276.230 252.800,275.600 252.980,275.600 253.200 C 275.600 253.420,274.880 253.600,274.000 253.600 C 273.120 253.600,272.400 253.780,272.400 254.000 C 272.400 254.220,271.680 254.400,270.800 254.400 C 269.920 254.400,269.200 254.580,269.200 254.800 C 269.200 255.020,268.300 255.200,267.200 255.200 C 266.100 255.200,265.200 255.380,265.200 255.600 C 265.200 255.825,264.075 256.000,262.624 256.000 C 261.207 256.000,259.936 256.180,259.800 256.400 C 259.654 256.637,257.207 256.800,253.810 256.800 C 249.606 256.800,248.004 256.934,247.833 257.300 C 247.647 257.700,247.553 257.700,247.367 257.300 C 247.196 256.934,245.589 256.800,241.367 256.800 C 237.789 256.800,235.600 256.648,235.600 256.400 C 235.600 256.171,234.400 256.000,232.800 256.000 C 231.200 256.000,230.000 255.829,230.000 255.600 C 230.000 255.380,229.100 255.200,228.000 255.200 C 226.900 255.200,226.000 255.020,226.000 254.800 C 226.000 254.580,225.280 254.400,224.400 254.400 C 223.520 254.400,222.800 254.220,222.800 254.000 C 222.800 253.780,222.170 253.600,221.400 253.600 C 220.630 253.600,220.000 253.420,220.000 253.200 C 220.000 252.980,219.381 252.800,218.624 252.800 C 217.867 252.800,217.136 252.620,217.000 252.400 C 216.864 252.180,216.324 252.000,215.800 252.000 C 215.276 252.000,214.758 251.856,214.649 251.679 C 214.540 251.503,213.539 251.110,212.425 250.807 C 211.311 250.504,210.400 250.108,210.400 249.928 C 210.400 249.747,210.065 249.600,209.656 249.600 C 208.989 249.600,207.098 248.762,202.200 246.296 C 195.178 242.760,193.383 241.800,193.267 241.521 C 193.193 241.344,192.828 241.200,192.455 241.200 C 192.082 241.200,191.517 240.840,191.200 240.400 C 190.883 239.960,190.393 239.600,190.112 239.600 C 189.830 239.600,189.600 239.450,189.600 239.268 C 189.600 239.085,189.105 238.681,188.500 238.370 C 187.895 238.060,187.109 237.489,186.753 237.103 C 186.397 236.716,185.924 236.400,185.701 236.400 C 185.479 236.400,184.555 235.680,183.648 234.800 C 182.741 233.920,181.804 233.200,181.567 233.200 C 181.002 233.200,166.800 218.998,166.800 218.433 C 166.800 218.196,166.080 217.259,165.200 216.352 C 164.320 215.445,163.600 214.521,163.600 214.299 C 163.600 214.076,163.284 213.603,162.897 213.247 C 162.511 212.891,161.940 212.105,161.630 211.500 C 161.319 210.895,160.915 210.400,160.732 210.400 C 160.550 210.400,160.400 210.196,160.400 209.947 C 160.400 209.698,160.069 209.203,159.664 208.847 C 159.259 208.491,158.806 207.705,158.656 207.100 C 158.507 206.495,158.208 206.000,157.992 206.000 C 157.777 206.000,157.600 205.640,157.600 205.200 C 157.600 204.760,157.465 204.399,157.300 204.397 C 157.135 204.395,156.810 203.990,156.579 203.497 C 156.347 203.004,155.424 201.160,154.528 199.400 C 153.633 197.640,152.472 195.300,151.950 194.200 C 151.427 193.100,150.865 192.140,150.700 192.067 C 150.535 191.993,150.400 191.408,150.400 190.767 C 150.400 190.125,150.253 189.600,150.072 189.600 C 149.892 189.600,149.496 188.689,149.193 187.575 C 148.890 186.461,148.497 185.460,148.321 185.351 C 148.144 185.242,148.000 184.724,148.000 184.200 C 148.000 183.676,147.820 183.136,147.600 183.000 C 147.380 182.864,147.200 182.133,147.200 181.376 C 147.200 180.619,147.020 180.000,146.800 180.000 C 146.580 180.000,146.400 179.370,146.400 178.600 C 146.400 177.830,146.220 177.200,146.000 177.200 C 145.780 177.200,145.600 176.480,145.600 175.600 C 145.600 174.720,145.420 174.000,145.200 174.000 C 144.980 174.000,144.800 173.100,144.800 172.000 C 144.800 170.900,144.620 170.000,144.400 170.000 C 144.171 170.000,144.000 168.800,144.000 167.200 C 144.000 165.600,143.829 164.400,143.600 164.400 C 143.342 164.400,143.200 160.067,143.200 152.200 C 143.200 144.333,143.342 140.000,143.600 140.000 C 143.826 140.000,144.000 138.867,144.000 137.400 C 144.000 135.933,144.174 134.800,144.400 134.800 C 144.620 134.800,144.800 133.900,144.800 132.800 C 144.800 131.700,144.980 130.800,145.200 130.800 C 145.420 130.800,145.600 130.080,145.600 129.200 C 145.600 128.320,145.780 127.600,146.000 127.600 C 146.220 127.600,146.400 126.880,146.400 126.000 C 146.400 125.120,146.580 124.400,146.800 124.400 C 147.020 124.400,147.200 123.770,147.200 123.000 C 147.200 122.230,147.380 121.600,147.600 121.600 C 147.820 121.600,148.000 121.161,148.000 120.624 C 148.000 120.087,148.180 119.536,148.400 119.400 C 148.620 119.264,148.800 118.724,148.800 118.200 C 148.800 117.676,148.980 117.136,149.200 117.000 C 149.420 116.864,149.600 116.403,149.600 115.976 C 149.600 115.549,149.780 115.200,150.000 115.200 C 150.220 115.200,150.400 114.660,150.400 114.000 C 150.400 113.340,150.580 112.800,150.800 112.800 C 151.020 112.800,151.200 112.440,151.200 112.000 C 151.200 111.560,151.380 111.200,151.600 111.200 C 151.820 111.200,152.000 110.840,152.000 110.400 C 152.000 109.960,152.180 109.600,152.400 109.600 C 152.620 109.600,152.800 109.345,152.800 109.033 C 152.800 108.721,153.405 107.326,154.144 105.933 C 154.883 104.540,156.008 102.410,156.644 101.200 C 157.280 99.990,158.025 98.762,158.300 98.471 C 158.575 98.181,158.800 97.635,158.800 97.260 C 158.800 96.884,159.160 96.317,159.600 96.000 C 160.040 95.683,160.400 95.143,160.400 94.800 C 160.400 94.457,160.760 93.917,161.200 93.600 C 161.640 93.283,162.000 92.746,162.000 92.408 C 162.000 92.069,162.360 91.568,162.800 91.293 C 163.240 91.018,163.600 90.615,163.600 90.397 C 163.600 90.179,164.320 89.259,165.200 88.352 C 166.080 87.445,166.800 86.555,166.800 86.374 C 166.800 85.565,180.735 71.600,181.542 71.600 C 181.741 71.600,182.645 70.880,183.552 70.000 C 184.459 69.120,185.405 68.400,185.654 68.400 C 185.902 68.400,186.397 68.084,186.753 67.697 C 187.109 67.311,187.895 66.740,188.500 66.430 C 189.105 66.119,189.600 65.715,189.600 65.532 C 189.600 65.350,189.830 65.200,190.112 65.200 C 190.393 65.200,190.883 64.840,191.200 64.400 C 191.517 63.960,192.057 63.600,192.400 63.600 C 192.743 63.600,193.283 63.240,193.600 62.800 C 193.917 62.360,194.497 62.000,194.888 62.000 C 195.280 62.000,195.600 61.820,195.600 61.600 C 195.600 61.380,195.960 61.200,196.400 61.200 C 196.840 61.200,197.200 61.020,197.200 60.800 C 197.200 60.580,197.560 60.400,198.000 60.400 C 198.440 60.400,198.800 60.264,198.800 60.098 C 198.800 59.931,199.385 59.546,200.100 59.242 C 203.877 57.633,205.953 56.700,207.338 55.989 C 208.184 55.555,209.219 55.200,209.638 55.200 C 210.057 55.200,210.400 55.020,210.400 54.800 C 210.400 54.580,210.749 54.400,211.176 54.400 C 211.603 54.400,212.064 54.220,212.200 54.000 C 212.336 53.780,212.876 53.600,213.400 53.600 C 213.924 53.600,214.464 53.420,214.600 53.200 C 214.736 52.980,215.287 52.800,215.824 52.800 C 216.361 52.800,216.800 52.620,216.800 52.400 C 216.800 52.180,217.419 52.000,218.176 52.000 C 218.933 52.000,219.664 51.820,219.800 51.600 C 219.936 51.380,220.566 51.200,221.200 51.200 C 221.834 51.200,222.464 51.020,222.600 50.800 C 222.736 50.580,223.557 50.400,224.424 50.400 C 225.291 50.400,226.000 50.220,226.000 50.000 C 226.000 49.780,226.900 49.600,228.000 49.600 C 229.100 49.600,230.000 49.420,230.000 49.200 C 230.000 48.975,231.125 48.800,232.576 48.800 C 233.993 48.800,235.264 48.620,235.400 48.400 C 235.546 48.163,238.004 48.000,241.424 48.000 C 245.008 48.000,247.200 47.848,247.200 47.600 C 247.200 47.380,247.380 47.200,247.600 47.200 C 247.820 47.200,248.000 47.380,248.000 47.600 M243.600 71.633 C 242.830 72.510,241.795 73.664,241.300 74.196 C 240.805 74.728,240.400 75.312,240.400 75.494 C 240.400 75.675,240.040 76.083,239.600 76.400 C 239.160 76.717,238.800 77.297,238.800 77.688 C 238.800 78.080,238.620 78.400,238.400 78.400 C 238.180 78.400,238.000 78.760,238.000 79.200 C 238.000 79.640,237.820 80.000,237.600 80.000 C 237.380 80.000,237.200 80.360,237.200 80.800 C 237.200 81.240,237.020 81.600,236.800 81.600 C 236.580 81.600,236.400 81.960,236.400 82.400 C 236.400 82.840,236.220 83.200,236.000 83.200 C 235.780 83.200,235.600 83.560,235.600 84.000 C 235.600 84.440,235.420 84.800,235.200 84.800 C 234.980 84.800,234.800 85.160,234.800 85.600 C 234.800 86.040,234.620 86.400,234.400 86.400 C 234.180 86.400,234.000 86.940,234.000 87.600 C 234.000 88.260,233.853 88.800,233.672 88.800 C 233.492 88.800,233.100 89.700,232.800 90.800 C 232.500 91.900,232.108 92.800,231.928 92.800 C 231.747 92.800,231.600 93.329,231.600 93.976 C 231.600 94.623,231.420 95.264,231.200 95.400 C 230.980 95.536,230.800 96.177,230.800 96.824 C 230.800 97.471,230.640 98.000,230.444 98.000 C 230.248 98.000,229.978 98.630,229.844 99.400 C 229.710 100.170,229.490 101.432,229.356 102.204 C 229.221 102.976,228.951 103.706,228.756 103.827 C 228.560 103.948,228.400 104.847,228.400 105.824 C 228.400 106.801,228.238 107.600,228.040 107.600 C 227.842 107.600,227.581 108.365,227.459 109.300 C 227.337 110.235,227.042 112.080,226.803 113.400 C 225.534 120.405,224.856 126.534,224.825 131.276 C 224.811 133.408,224.620 135.264,224.400 135.400 C 224.180 135.536,224.000 136.898,224.000 138.427 L 224.000 141.206 247.700 141.103 L 271.400 141.000 271.524 138.818 C 271.592 137.618,271.461 136.268,271.234 135.818 C 271.006 135.368,270.731 133.200,270.622 131.000 C 270.291 124.317,269.956 121.019,269.569 120.620 C 269.366 120.411,269.200 119.106,269.200 117.720 C 269.200 116.307,269.024 115.200,268.800 115.200 C 268.580 115.200,268.400 114.311,268.400 113.224 C 268.400 112.137,268.220 111.136,268.000 111.000 C 267.780 110.864,267.600 110.043,267.600 109.176 C 267.600 108.309,267.420 107.600,267.200 107.600 C 266.980 107.600,266.800 106.700,266.800 105.600 C 266.800 104.500,266.620 103.600,266.400 103.600 C 266.180 103.600,266.000 103.071,266.000 102.424 C 266.000 101.777,265.820 101.136,265.600 101.000 C 265.380 100.864,265.200 100.133,265.200 99.376 C 265.200 98.619,265.020 98.000,264.800 98.000 C 264.580 98.000,264.400 97.471,264.400 96.824 C 264.400 96.177,264.220 95.536,264.000 95.400 C 263.780 95.264,263.600 94.623,263.600 93.976 C 263.600 93.329,263.420 92.800,263.200 92.800 C 262.980 92.800,262.800 92.451,262.800 92.024 C 262.800 91.597,262.620 91.136,262.400 91.000 C 262.180 90.864,262.000 90.313,262.000 89.776 C 262.000 89.239,261.820 88.800,261.600 88.800 C 261.380 88.800,261.200 88.260,261.200 87.600 C 261.200 86.940,261.020 86.400,260.800 86.400 C 260.580 86.400,260.400 86.040,260.400 85.600 C 260.400 85.160,260.220 84.800,260.000 84.800 C 259.780 84.800,259.600 84.440,259.600 84.000 C 259.600 83.560,259.420 83.200,259.200 83.200 C 258.980 83.200,258.800 82.911,258.800 82.557 C 258.800 81.659,256.538 77.013,255.805 76.404 C 255.472 76.128,255.200 75.738,255.200 75.538 C 255.200 75.337,254.570 74.543,253.800 73.773 C 253.030 73.003,252.400 72.199,252.400 71.987 C 252.400 71.774,252.170 71.600,251.888 71.600 C 251.607 71.600,251.117 71.240,250.800 70.800 C 249.637 69.187,245.306 69.688,243.600 71.633 M213.013 77.179 C 212.870 77.410,212.403 77.600,211.976 77.600 C 211.549 77.600,211.200 77.746,211.200 77.925 C 211.200 78.104,210.570 78.498,209.800 78.800 C 209.030 79.102,208.400 79.496,208.400 79.675 C 208.400 79.854,208.040 80.000,207.600 80.000 C 207.160 80.000,206.800 80.180,206.800 80.400 C 206.800 80.620,206.440 80.800,206.000 80.800 C 205.560 80.800,205.200 80.980,205.200 81.200 C 205.200 81.420,204.975 81.600,204.700 81.601 C 204.425 81.601,203.570 82.141,202.800 82.800 C 202.030 83.459,201.175 83.999,200.900 83.999 C 200.625 84.000,200.400 84.150,200.400 84.332 C 200.400 84.515,199.905 84.920,199.300 85.232 C 198.695 85.545,197.723 86.295,197.140 86.900 C 196.556 87.505,195.895 88.000,195.671 88.000 C 195.122 88.000,183.200 99.900,183.200 100.448 C 183.200 100.685,182.660 101.383,182.000 102.000 C 181.340 102.617,180.800 103.369,180.800 103.672 C 180.800 103.975,180.440 104.483,180.000 104.800 C 179.560 105.117,179.200 105.573,179.200 105.813 C 179.200 106.053,178.885 106.607,178.500 107.045 C 178.115 107.483,177.604 108.192,177.364 108.620 C 175.214 112.464,174.800 113.304,174.800 113.814 C 174.800 114.136,174.620 114.400,174.400 114.400 C 174.180 114.400,174.000 114.760,174.000 115.200 C 174.000 115.640,173.820 116.000,173.600 116.000 C 173.380 116.000,173.200 116.360,173.200 116.800 C 173.200 117.240,173.020 117.600,172.800 117.600 C 172.580 117.600,172.400 117.960,172.400 118.400 C 172.400 118.840,172.220 119.200,172.000 119.200 C 171.780 119.200,171.600 119.740,171.600 120.400 C 171.600 121.060,171.420 121.600,171.200 121.600 C 170.980 121.600,170.800 121.960,170.800 122.400 C 170.800 122.840,170.620 123.200,170.400 123.200 C 170.180 123.200,170.000 123.740,170.000 124.400 C 170.000 125.060,169.820 125.600,169.600 125.600 C 169.380 125.600,169.200 126.140,169.200 126.800 C 169.200 127.460,169.020 128.000,168.800 128.000 C 168.580 128.000,168.400 128.630,168.400 129.400 C 168.400 130.170,168.220 130.800,168.000 130.800 C 167.780 130.800,167.600 131.520,167.600 132.400 C 167.600 133.280,167.420 134.000,167.200 134.000 C 166.980 134.000,166.800 134.900,166.800 136.000 C 166.800 137.100,166.620 138.000,166.400 138.000 C 166.180 138.000,166.000 138.720,166.000 139.600 L 166.000 141.200 184.000 141.200 L 202.000 141.200 202.000 138.480 C 202.000 136.984,202.169 135.589,202.375 135.380 C 202.581 135.171,202.846 133.110,202.964 130.800 C 203.342 123.392,203.651 120.209,204.030 119.820 C 204.234 119.611,204.400 118.306,204.400 116.920 C 204.400 115.507,204.576 114.400,204.800 114.400 C 205.020 114.400,205.200 113.421,205.200 112.224 C 205.200 111.027,205.380 109.936,205.600 109.800 C 205.820 109.664,206.000 108.789,206.000 107.856 C 206.000 106.923,206.162 105.989,206.359 105.780 C 206.556 105.571,206.820 104.680,206.944 103.800 C 207.437 100.300,207.709 98.982,208.017 98.596 C 208.194 98.374,208.466 97.069,208.621 95.696 C 208.776 94.323,209.060 93.200,209.252 93.200 C 209.443 93.200,209.600 92.671,209.600 92.024 C 209.600 91.377,209.780 90.736,210.000 90.600 C 210.220 90.464,210.400 89.823,210.400 89.176 C 210.400 88.529,210.580 88.000,210.800 88.000 C 211.020 88.000,211.200 87.460,211.200 86.800 C 211.200 86.140,211.380 85.600,211.600 85.600 C 211.820 85.600,212.000 85.251,212.000 84.824 C 212.000 84.397,212.180 83.936,212.400 83.800 C 212.620 83.664,212.800 83.113,212.800 82.576 C 212.800 82.039,212.980 81.600,213.200 81.600 C 213.420 81.600,213.600 81.060,213.600 80.400 C 213.600 79.740,213.792 79.200,214.027 79.200 C 214.594 79.200,214.329 77.104,213.737 76.910 C 213.482 76.826,213.156 76.947,213.013 77.179 M281.067 77.067 C 280.648 77.485,280.755 79.200,281.200 79.200 C 281.420 79.200,281.600 79.740,281.600 80.400 C 281.600 81.060,281.780 81.600,282.000 81.600 C 282.220 81.600,282.400 81.949,282.400 82.376 C 282.400 82.803,282.580 83.264,282.800 83.400 C 283.020 83.536,283.200 84.087,283.200 84.624 C 283.200 85.161,283.380 85.600,283.600 85.600 C 283.820 85.600,284.000 86.140,284.000 86.800 C 284.000 87.460,284.180 88.000,284.400 88.000 C 284.620 88.000,284.800 88.540,284.800 89.200 C 284.800 89.860,284.980 90.400,285.200 90.400 C 285.420 90.400,285.600 91.030,285.600 91.800 C 285.600 92.570,285.780 93.200,286.000 93.200 C 286.220 93.200,286.400 93.819,286.400 94.576 C 286.400 95.333,286.580 96.064,286.800 96.200 C 287.020 96.336,287.200 96.977,287.200 97.624 C 287.200 98.271,287.380 98.800,287.600 98.800 C 287.820 98.800,288.000 99.599,288.000 100.576 C 288.000 101.553,288.180 102.464,288.400 102.600 C 288.620 102.736,288.800 103.557,288.800 104.424 C 288.800 105.291,288.980 106.000,289.200 106.000 C 289.420 106.000,289.600 106.889,289.600 107.976 C 289.600 109.063,289.780 110.064,290.000 110.200 C 290.220 110.336,290.400 111.337,290.400 112.424 C 290.400 113.511,290.580 114.400,290.800 114.400 C 291.021 114.400,291.200 115.442,291.200 116.727 C 291.200 118.006,291.379 120.031,291.597 121.227 C 291.816 122.422,292.186 126.100,292.419 129.400 C 292.652 132.700,292.969 136.660,293.122 138.200 L 293.400 141.000 311.300 141.104 L 329.200 141.208 329.200 139.604 C 329.200 138.722,329.020 138.000,328.800 138.000 C 328.580 138.000,328.400 137.100,328.400 136.000 C 328.400 134.900,328.220 134.000,328.000 134.000 C 327.780 134.000,327.600 133.280,327.600 132.400 C 327.600 131.520,327.420 130.800,327.200 130.800 C 326.980 130.800,326.800 130.181,326.800 129.424 C 326.800 128.667,326.620 127.936,326.400 127.800 C 326.180 127.664,326.000 127.113,326.000 126.576 C 326.000 126.039,325.843 125.600,325.652 125.600 C 325.460 125.600,325.184 124.700,325.038 123.600 C 324.892 122.500,324.599 121.600,324.386 121.600 C 324.174 121.600,324.000 121.321,324.000 120.981 C 324.000 120.640,323.640 119.616,323.200 118.706 C 322.760 117.795,322.400 116.814,322.400 116.525 C 322.400 116.236,322.220 116.000,322.000 116.000 C 321.780 116.000,321.600 115.640,321.600 115.200 C 321.600 114.760,321.420 114.400,321.200 114.400 C 320.980 114.400,320.800 114.040,320.800 113.600 C 320.800 113.160,320.664 112.800,320.498 112.800 C 320.331 112.800,319.936 112.215,319.620 111.500 C 319.303 110.785,318.720 109.851,318.322 109.425 C 317.925 108.998,317.600 108.413,317.600 108.125 C 317.600 107.836,317.450 107.600,317.268 107.600 C 317.085 107.600,316.681 107.105,316.370 106.500 C 316.060 105.895,315.489 105.109,315.103 104.753 C 314.716 104.397,314.400 103.884,314.400 103.614 C 314.400 103.343,313.860 102.617,313.200 102.000 C 312.540 101.383,312.000 100.672,312.000 100.418 C 312.000 99.801,300.221 88.000,299.605 88.000 C 299.339 88.000,298.617 87.460,298.000 86.800 C 297.383 86.140,296.726 85.600,296.540 85.599 C 296.353 85.599,295.570 85.059,294.800 84.400 C 294.030 83.741,293.257 83.201,293.083 83.201 C 292.909 83.200,292.380 82.840,291.908 82.400 C 291.436 81.960,290.544 81.376,289.925 81.103 C 289.306 80.829,288.800 80.469,288.800 80.302 C 288.800 80.136,288.440 80.000,288.000 80.000 C 287.560 80.000,287.200 79.820,287.200 79.600 C 287.200 79.380,286.840 79.200,286.400 79.200 C 285.960 79.200,285.600 79.020,285.600 78.800 C 285.600 78.580,285.240 78.400,284.800 78.400 C 284.360 78.400,284.000 78.220,284.000 78.000 C 284.000 77.780,283.651 77.600,283.224 77.600 C 282.797 77.600,282.336 77.420,282.200 77.200 C 281.915 76.738,281.450 76.683,281.067 77.067 M166.000 165.200 C 166.000 166.080,166.180 166.800,166.400 166.800 C 166.620 166.800,166.800 167.700,166.800 168.800 C 166.800 169.900,166.980 170.800,167.200 170.800 C 167.420 170.800,167.600 171.419,167.600 172.176 C 167.600 172.933,167.780 173.664,168.000 173.800 C 168.220 173.936,168.400 174.667,168.400 175.424 C 168.400 176.181,168.580 176.800,168.800 176.800 C 169.020 176.800,169.200 177.340,169.200 178.000 C 169.200 178.660,169.380 179.200,169.600 179.200 C 169.820 179.200,170.000 179.740,170.000 180.400 C 170.000 181.060,170.180 181.600,170.400 181.600 C 170.620 181.600,170.800 181.960,170.800 182.400 C 170.800 182.840,170.980 183.200,171.200 183.200 C 171.420 183.200,171.600 183.740,171.600 184.400 C 171.600 185.060,171.780 185.600,172.000 185.600 C 172.220 185.600,172.400 185.960,172.400 186.400 C 172.400 186.840,172.580 187.200,172.800 187.200 C 173.020 187.200,173.200 187.560,173.200 188.000 C 173.200 188.440,173.380 188.800,173.600 188.800 C 173.820 188.800,174.000 189.145,174.000 189.567 C 174.000 189.988,174.135 190.393,174.300 190.467 C 174.465 190.540,175.128 191.725,175.774 193.100 C 176.419 194.475,177.094 195.600,177.274 195.600 C 177.453 195.600,177.600 195.920,177.600 196.312 C 177.600 196.703,177.960 197.283,178.400 197.600 C 178.840 197.917,179.200 198.457,179.200 198.800 C 179.200 199.143,179.560 199.683,180.000 200.000 C 180.440 200.317,180.800 200.780,180.800 201.029 C 180.800 201.278,181.297 202.003,181.904 202.641 C 182.512 203.278,183.449 204.430,183.987 205.200 C 184.525 205.970,185.479 207.050,186.107 207.600 C 186.735 208.150,188.409 209.770,189.826 211.200 C 194.971 216.390,195.401 216.800,195.702 216.800 C 195.870 216.800,196.572 217.340,197.263 218.000 C 197.954 218.660,198.722 219.200,198.971 219.200 C 199.220 219.200,199.683 219.560,200.000 220.000 C 200.317 220.440,200.831 220.800,201.141 220.800 C 201.452 220.800,201.997 221.120,202.353 221.511 C 202.709 221.902,203.855 222.666,204.900 223.210 C 205.945 223.754,206.800 224.314,206.800 224.455 C 206.800 224.596,207.430 224.829,208.200 224.974 C 208.970 225.118,209.600 225.408,209.600 225.618 C 209.600 225.828,209.960 226.000,210.400 226.000 C 210.840 226.000,211.200 226.180,211.200 226.400 C 211.200 226.620,211.560 226.800,212.000 226.800 C 212.440 226.800,212.800 226.980,212.800 227.200 C 212.800 227.420,213.160 227.600,213.600 227.600 C 214.461 227.600,214.774 225.878,214.000 225.400 C 213.780 225.264,213.600 224.713,213.600 224.176 C 213.600 223.639,213.420 223.200,213.200 223.200 C 212.980 223.200,212.800 222.761,212.800 222.224 C 212.800 221.687,212.620 221.136,212.400 221.000 C 212.180 220.864,212.000 220.403,212.000 219.976 C 212.000 219.549,211.820 219.200,211.600 219.200 C 211.380 219.200,211.200 218.660,211.200 218.000 C 211.200 217.340,211.020 216.800,210.800 216.800 C 210.580 216.800,210.400 216.271,210.400 215.624 C 210.400 214.977,210.220 214.336,210.000 214.200 C 209.780 214.064,209.600 213.434,209.600 212.800 C 209.600 212.166,209.441 211.549,209.247 211.429 C 209.052 211.309,208.765 210.173,208.608 208.905 C 208.451 207.637,208.180 206.420,208.006 206.200 C 207.832 205.980,207.575 204.990,207.435 204.000 C 206.862 199.942,206.699 199.185,206.358 198.974 C 206.161 198.852,206.000 197.964,206.000 197.000 C 206.000 196.036,205.820 195.136,205.600 195.000 C 205.380 194.864,205.200 193.773,205.200 192.576 C 205.200 191.379,205.020 190.400,204.800 190.400 C 204.571 190.400,204.400 189.200,204.400 187.600 C 204.400 186.000,204.229 184.800,204.000 184.800 C 203.767 184.800,203.600 183.475,203.600 181.624 C 203.600 179.877,203.420 178.336,203.200 178.200 C 202.973 178.060,202.800 176.063,202.800 173.576 C 202.800 170.925,202.642 169.200,202.400 169.200 C 202.171 169.200,202.000 168.000,202.000 166.400 L 202.000 163.600 184.000 163.600 L 166.000 163.600 166.000 165.200 M224.000 166.376 C 224.000 167.903,224.180 169.264,224.400 169.400 C 224.620 169.536,224.811 171.302,224.825 173.324 C 224.850 176.943,225.170 180.492,226.006 186.400 C 226.239 188.050,226.531 190.210,226.654 191.200 C 226.777 192.190,227.040 193.171,227.239 193.380 C 227.437 193.589,227.600 194.534,227.600 195.480 C 227.600 196.426,227.780 197.200,228.000 197.200 C 228.220 197.200,228.400 197.999,228.400 198.976 C 228.400 199.953,228.580 200.864,228.800 201.000 C 229.020 201.136,229.200 201.766,229.200 202.400 C 229.200 203.034,229.380 203.664,229.600 203.800 C 229.820 203.936,230.000 204.489,230.000 205.029 C 230.000 205.569,230.162 206.323,230.361 206.705 C 230.560 207.087,230.940 208.210,231.207 209.200 C 231.703 211.044,232.222 212.467,232.847 213.695 C 233.041 214.077,233.200 214.752,233.200 215.195 C 233.200 215.638,233.380 216.000,233.600 216.000 C 233.820 216.000,234.000 216.540,234.000 217.200 C 234.000 217.860,234.180 218.400,234.400 218.400 C 234.620 218.400,234.800 218.760,234.800 219.200 C 234.800 219.640,234.980 220.000,235.200 220.000 C 235.420 220.000,235.600 220.360,235.600 220.800 C 235.600 221.240,235.780 221.600,236.000 221.600 C 236.220 221.600,236.400 221.960,236.400 222.400 C 236.400 222.840,236.580 223.200,236.800 223.200 C 237.020 223.200,237.200 223.560,237.200 224.000 C 237.200 224.440,237.380 224.800,237.600 224.800 C 237.820 224.800,238.000 225.070,238.000 225.400 C 238.000 225.730,238.180 226.000,238.400 226.000 C 238.620 226.000,238.800 226.320,238.800 226.712 C 238.800 227.103,239.160 227.683,239.600 228.000 C 240.040 228.317,240.400 228.813,240.400 229.103 C 240.400 229.392,240.762 230.027,241.204 230.514 C 245.355 235.088,244.926 234.800,247.597 234.800 L 250.057 234.800 252.629 232.216 C 254.043 230.795,255.200 229.355,255.200 229.016 C 255.200 228.677,255.350 228.400,255.532 228.400 C 255.715 228.400,256.120 227.905,256.432 227.300 C 256.744 226.695,257.098 226.110,257.220 226.000 C 257.648 225.613,258.800 222.872,258.800 222.240 C 258.800 221.888,258.980 221.600,259.200 221.600 C 259.420 221.600,259.600 221.240,259.600 220.800 C 259.600 220.360,259.780 220.000,260.000 220.000 C 260.220 220.000,260.400 219.640,260.400 219.200 C 260.400 218.760,260.580 218.400,260.800 218.400 C 261.020 218.400,261.200 217.860,261.200 217.200 C 261.200 216.540,261.380 216.000,261.600 216.000 C 261.820 216.000,262.000 215.561,262.000 215.024 C 262.000 214.487,262.180 213.936,262.400 213.800 C 262.620 213.664,262.800 213.203,262.800 212.776 C 262.800 212.349,262.980 212.000,263.200 212.000 C 263.420 212.000,263.600 211.381,263.600 210.624 C 263.600 209.867,263.780 209.136,264.000 209.000 C 264.220 208.864,264.400 208.313,264.400 207.776 C 264.400 207.239,264.580 206.800,264.800 206.800 C 265.020 206.800,265.200 206.181,265.200 205.424 C 265.200 204.667,265.380 203.936,265.600 203.800 C 265.820 203.664,266.000 203.034,266.000 202.400 C 266.000 201.766,266.180 201.136,266.400 201.000 C 266.620 200.864,266.800 199.953,266.800 198.976 C 266.800 197.999,266.980 197.200,267.200 197.200 C 267.420 197.200,267.600 196.401,267.600 195.424 C 267.600 194.447,267.780 193.536,268.000 193.400 C 268.220 193.264,268.400 192.364,268.400 191.400 C 268.400 190.436,268.580 189.536,268.800 189.400 C 269.020 189.264,269.200 187.993,269.200 186.576 C 269.200 185.125,269.375 184.000,269.600 184.000 C 269.831 184.000,270.000 182.741,270.000 181.024 C 270.000 179.387,270.180 177.936,270.400 177.800 C 270.625 177.661,270.800 175.737,270.800 173.400 C 270.800 171.063,270.975 169.139,271.200 169.000 C 271.420 168.864,271.600 167.593,271.600 166.176 L 271.600 163.600 247.800 163.600 L 224.000 163.600 224.000 166.376 M293.049 166.500 C 292.931 168.095,292.658 171.922,292.442 175.004 C 292.225 178.086,291.859 181.776,291.627 183.204 C 291.396 184.632,291.205 186.835,291.203 188.100 C 291.201 189.365,291.020 190.400,290.800 190.400 C 290.580 190.400,290.400 191.300,290.400 192.400 C 290.400 193.500,290.220 194.400,290.000 194.400 C 289.780 194.400,289.600 195.390,289.600 196.600 C 289.600 197.810,289.420 198.800,289.200 198.800 C 288.980 198.800,288.800 199.520,288.800 200.400 C 288.800 201.280,288.620 202.000,288.400 202.000 C 288.180 202.000,288.000 202.900,288.000 204.000 C 288.000 205.100,287.820 206.000,287.600 206.000 C 287.380 206.000,287.200 206.540,287.200 207.200 C 287.200 207.860,287.020 208.400,286.800 208.400 C 286.580 208.400,286.400 209.019,286.400 209.776 C 286.400 210.533,286.220 211.264,286.000 211.400 C 285.780 211.536,285.600 212.166,285.600 212.800 C 285.600 213.434,285.420 214.064,285.200 214.200 C 284.980 214.336,284.800 214.977,284.800 215.624 C 284.800 216.271,284.620 216.800,284.400 216.800 C 284.180 216.800,284.000 217.340,284.000 218.000 C 284.000 218.660,283.853 219.200,283.672 219.200 C 283.492 219.200,283.100 220.100,282.800 221.200 C 282.500 222.300,282.108 223.200,281.928 223.200 C 281.747 223.200,281.600 223.740,281.600 224.400 C 281.600 225.060,281.420 225.600,281.200 225.600 C 280.980 225.600,280.800 226.050,280.800 226.600 C 280.800 227.333,281.013 227.600,281.600 227.600 C 282.040 227.600,282.400 227.420,282.400 227.200 C 282.400 226.980,282.639 226.800,282.932 226.800 C 283.225 226.800,284.350 226.351,285.432 225.802 C 286.514 225.253,287.523 224.803,287.673 224.802 C 288.039 224.799,292.060 222.332,292.729 221.700 C 293.019 221.425,293.396 221.200,293.566 221.200 C 293.736 221.200,294.399 220.750,295.038 220.200 C 295.677 219.651,296.353 219.201,296.540 219.200 C 296.726 219.200,297.383 218.660,298.000 218.000 C 298.617 217.340,299.308 216.800,299.536 216.800 C 300.086 216.800,311.200 205.771,311.200 205.225 C 311.200 204.991,311.380 204.800,311.600 204.800 C 311.820 204.800,312.000 204.602,312.000 204.360 C 312.000 204.119,312.540 203.417,313.200 202.800 C 313.860 202.183,314.400 201.431,314.400 201.128 C 314.400 200.825,314.760 200.317,315.200 200.000 C 315.640 199.683,316.000 199.143,316.000 198.800 C 316.000 198.457,316.360 197.917,316.800 197.600 C 317.240 197.283,317.600 196.786,317.600 196.495 C 317.600 196.204,317.960 195.580,318.400 195.108 C 318.840 194.636,319.200 194.013,319.200 193.725 C 319.200 193.436,319.380 193.200,319.600 193.200 C 319.820 193.200,320.000 192.855,320.000 192.433 C 320.000 192.012,320.144 191.607,320.319 191.533 C 320.687 191.380,324.000 184.676,324.000 184.085 C 324.000 183.868,324.269 183.176,324.598 182.546 C 324.926 181.916,325.196 180.905,325.198 180.300 C 325.199 179.695,325.380 179.200,325.600 179.200 C 325.820 179.200,326.000 178.660,326.000 178.000 C 326.000 177.340,326.180 176.800,326.400 176.800 C 326.620 176.800,326.800 176.181,326.800 175.424 C 326.800 174.667,326.980 173.936,327.200 173.800 C 327.420 173.664,327.600 172.933,327.600 172.176 C 327.600 171.419,327.780 170.800,328.000 170.800 C 328.220 170.800,328.400 169.900,328.400 168.800 C 328.400 167.700,328.580 166.800,328.800 166.800 C 329.020 166.800,329.200 166.080,329.200 165.200 L 329.200 163.600 311.232 163.600 L 293.263 163.600 293.049 166.500 M96.000 252.842 C 93.910 255.034,91.589 257.407,90.843 258.114 C 90.097 258.821,86.178 262.730,82.134 266.800 C 78.091 270.870,74.651 274.329,74.491 274.486 C 74.331 274.644,70.666 278.310,66.348 282.634 C 62.029 286.958,58.134 290.854,57.693 291.293 C 56.647 292.332,42.332 306.647,41.293 307.693 C 40.854 308.134,36.958 312.029,32.634 316.348 C 28.310 320.666,24.644 324.331,24.486 324.491 C 24.329 324.651,20.870 328.091,16.800 332.134 C 9.103 339.781,6.800 342.220,6.800 342.725 C 6.800 342.889,6.440 343.283,6.000 343.600 C 5.560 343.917,5.200 344.457,5.200 344.800 C 5.200 345.143,4.840 345.683,4.400 346.000 C 3.960 346.317,3.600 346.897,3.600 347.288 C 3.600 347.680,3.420 348.000,3.200 348.000 C 2.980 348.000,2.800 348.360,2.800 348.800 C 2.800 349.240,2.620 349.600,2.400 349.600 C 2.180 349.600,2.000 350.140,2.000 350.800 C 2.000 351.460,1.859 352.000,1.687 352.000 C 0.658 352.000,0.200 356.079,0.200 365.240 C 0.200 374.660,0.229 374.907,1.647 377.695 C 1.841 378.077,2.000 378.752,2.000 379.195 C 2.000 379.638,2.180 380.000,2.400 380.000 C 2.620 380.000,2.800 380.360,2.800 380.800 C 2.800 381.240,2.980 381.600,3.200 381.600 C 3.420 381.600,3.600 381.960,3.600 382.400 C 3.600 382.840,3.750 383.200,3.932 383.200 C 4.115 383.200,4.519 383.695,4.830 384.300 C 5.140 384.905,5.711 385.691,6.097 386.047 C 6.484 386.403,6.800 386.926,6.800 387.210 C 6.800 387.833,12.231 393.200,12.862 393.200 C 13.106 393.200,13.597 393.516,13.953 393.903 C 14.309 394.289,15.095 394.860,15.700 395.170 C 16.305 395.481,16.800 395.885,16.800 396.068 C 16.800 396.250,17.160 396.400,17.600 396.400 C 18.040 396.400,18.400 396.580,18.400 396.800 C 18.400 397.020,18.760 397.200,19.200 397.200 C 19.640 397.200,20.000 397.380,20.000 397.600 C 20.000 397.820,20.540 398.000,21.200 398.000 C 21.860 398.000,22.400 398.180,22.400 398.400 C 22.400 398.620,22.724 398.800,23.120 398.800 C 23.516 398.800,24.065 399.025,24.340 399.300 C 25.680 400.641,46.497 399.794,48.180 398.330 C 48.389 398.149,48.974 398.000,49.480 398.000 C 49.986 398.000,50.400 397.820,50.400 397.600 C 50.400 397.380,50.760 397.200,51.200 397.200 C 51.640 397.200,52.000 397.020,52.000 396.800 C 52.000 396.580,52.236 396.400,52.525 396.400 C 52.813 396.400,53.436 396.040,53.908 395.600 C 54.380 395.160,55.004 394.800,55.295 394.800 C 55.586 394.800,56.083 394.440,56.400 394.000 C 56.717 393.560,57.123 393.200,57.303 393.200 C 57.828 393.200,58.162 392.875,75.519 375.519 C 75.739 375.299,79.402 371.635,83.659 367.378 C 87.917 363.121,91.607 359.431,91.859 359.178 C 92.459 358.578,108.615 342.423,109.059 341.978 C 109.247 341.791,112.937 338.101,117.259 333.778 C 121.582 329.455,125.325 325.712,125.578 325.459 C 125.831 325.207,129.521 321.517,133.778 317.259 C 138.035 313.002,141.672 309.363,141.859 309.173 C 142.047 308.983,144.225 306.847,146.700 304.426 C 151.403 299.827,152.367 298.021,150.500 297.308 C 150.115 297.161,149.451 296.716,149.025 296.320 C 148.598 295.924,148.053 295.600,147.813 295.600 C 147.573 295.600,147.117 295.240,146.800 294.800 C 146.483 294.360,145.985 294.000,145.694 294.000 C 145.402 294.000,144.714 293.550,144.164 293.000 C 143.614 292.450,143.001 292.000,142.802 292.000 C 142.604 292.000,141.996 291.595,141.453 291.100 C 139.859 289.649,138.805 288.800,138.597 288.800 C 138.491 288.800,137.485 287.900,136.361 286.800 C 135.238 285.700,134.155 284.800,133.954 284.800 C 133.753 284.800,132.074 283.315,130.223 281.500 C 128.372 279.685,125.899 277.274,124.729 276.142 C 120.942 272.480,115.200 266.387,115.200 266.029 C 115.200 265.838,114.300 264.762,113.200 263.639 C 112.100 262.515,111.200 261.509,111.200 261.403 C 111.200 261.194,110.182 259.906,109.184 258.851 C 108.846 258.493,108.126 257.526,107.584 256.703 C 107.043 255.879,106.465 255.204,106.300 255.203 C 106.135 255.201,106.000 254.880,106.000 254.488 C 106.000 254.097,105.640 253.517,105.200 253.200 C 104.760 252.883,104.400 252.427,104.400 252.187 C 104.400 251.947,104.076 251.402,103.680 250.975 C 103.284 250.549,102.839 249.885,102.692 249.500 C 101.987 247.653,100.001 248.645,96.000 252.842 " stroke="none" fill="#040404" fill-rule="evenodd"></path><path id="path1" d="" stroke="none" fill="#080404" fill-rule="evenodd"></path><path id="path2" d="" stroke="none" fill="#080404" fill-rule="evenodd"></path><path id="path3" d="" stroke="none" fill="#080404" fill-rule="evenodd"></path><path id="path4" d="" stroke="none" fill="#080404" fill-rule="evenodd"></path></g></svg>