<svg id="svg" version="1.1" xmlns="http://www.w3.org/2000/svg" xmlns:xlink="http://www.w3.org/1999/xlink" width="400" height="400" viewBox="0, 0, 400,400"><g id="svgg"><path id="path0" d="M183.200 25.187 C 183.200 25.401,182.959 25.482,182.664 25.369 C 182.369 25.256,181.897 25.442,181.615 25.782 C 181.333 26.122,180.899 26.401,180.651 26.402 C 180.009 26.404,176.752 28.619,177.011 28.877 C 177.129 28.996,176.680 29.318,176.013 29.595 C 175.346 29.871,174.800 30.255,174.800 30.449 C 174.800 30.642,174.557 30.800,174.259 30.800 C 173.962 30.800,173.154 31.340,172.463 32.000 C 171.772 32.660,171.071 33.200,170.904 33.200 C 170.737 33.201,170.082 33.647,169.448 34.192 C 168.814 34.737,168.111 35.069,167.886 34.930 C 167.651 34.784,167.598 34.873,167.762 35.138 C 167.931 35.412,167.793 35.600,167.424 35.600 C 167.081 35.600,166.800 35.741,166.800 35.914 C 166.800 36.086,166.305 36.524,165.700 36.887 C 164.481 37.617,163.367 38.451,161.404 40.100 C 160.684 40.705,159.959 41.200,159.794 41.200 C 159.629 41.200,159.203 41.527,158.847 41.928 C 158.244 42.606,157.439 43.053,156.678 43.132 C 156.501 43.150,156.051 43.525,155.678 43.965 C 155.305 44.406,154.730 44.819,154.400 44.883 C 154.070 44.947,153.565 45.315,153.277 45.700 C 152.990 46.085,152.587 46.400,152.382 46.400 C 151.982 46.400,150.870 47.249,149.368 48.700 C 148.856 49.195,148.158 49.600,147.818 49.600 C 147.478 49.600,147.200 49.750,147.200 49.932 C 147.200 50.115,146.705 50.519,146.100 50.830 C 145.495 51.140,144.709 51.711,144.353 52.097 C 143.997 52.484,143.492 52.800,143.229 52.800 C 142.967 52.800,142.864 52.980,143.000 53.200 C 143.136 53.420,142.967 53.600,142.624 53.600 C 142.281 53.600,142.000 53.750,142.000 53.932 C 142.000 54.115,141.505 54.519,140.900 54.830 C 140.295 55.140,139.509 55.711,139.153 56.097 C 138.797 56.484,138.336 56.800,138.129 56.800 C 137.921 56.800,137.369 57.156,136.901 57.591 C 136.434 58.027,135.820 58.432,135.536 58.491 C 135.042 58.595,134.778 58.772,133.431 59.900 C 133.102 60.175,132.668 60.400,132.465 60.400 C 132.262 60.400,131.385 61.075,130.516 61.900 C 129.647 62.725,128.692 63.456,128.393 63.525 C 128.095 63.594,127.548 63.999,127.178 64.425 C 126.809 64.851,126.317 65.200,126.086 65.200 C 125.856 65.200,125.607 65.366,125.533 65.570 C 125.460 65.773,125.132 65.998,124.804 66.070 C 124.476 66.141,123.729 66.695,123.143 67.300 C 122.558 67.905,121.873 68.400,121.621 68.400 C 121.370 68.400,120.710 68.853,120.156 69.408 C 119.602 69.962,118.952 70.294,118.712 70.146 C 118.451 69.985,118.391 70.062,118.562 70.338 C 118.719 70.592,118.648 70.800,118.405 70.800 C 118.162 70.800,117.528 71.236,116.995 71.769 C 116.462 72.302,115.660 72.854,115.213 72.996 C 114.766 73.138,114.400 73.422,114.400 73.627 C 114.400 73.832,114.175 74.001,113.900 74.002 C 113.625 74.003,112.815 74.552,112.100 75.222 C 111.385 75.892,110.800 76.326,110.800 76.187 C 110.800 75.890,107.464 78.449,107.267 78.897 C 107.193 79.064,106.944 79.200,106.714 79.200 C 106.483 79.200,105.958 79.588,105.547 80.061 C 105.136 80.535,104.800 80.713,104.800 80.458 C 104.800 80.202,104.233 80.535,103.541 81.197 C 102.848 81.858,102.027 82.400,101.717 82.400 C 101.407 82.400,101.264 82.580,101.400 82.800 C 101.536 83.020,101.367 83.200,101.024 83.200 C 100.681 83.200,100.400 83.380,100.400 83.600 C 100.400 83.820,100.029 84.000,99.576 84.000 C 99.123 84.000,98.864 84.180,99.000 84.400 C 99.136 84.620,98.967 84.800,98.624 84.800 C 98.281 84.800,98.000 84.968,98.000 85.173 C 98.000 85.378,97.685 85.649,97.300 85.774 C 96.915 85.899,95.931 86.637,95.113 87.414 C 94.294 88.191,93.529 88.821,93.413 88.813 C 92.572 88.761,92.384 88.850,92.600 89.200 C 92.736 89.420,92.593 89.600,92.283 89.600 C 91.973 89.600,91.154 90.140,90.463 90.800 C 89.772 91.460,89.002 92.000,88.751 92.000 C 88.499 92.000,87.971 92.372,87.577 92.826 C 87.183 93.281,86.802 93.629,86.730 93.600 C 86.349 93.448,84.903 94.277,83.933 95.204 C 83.325 95.785,82.016 96.678,81.022 97.188 C 80.029 97.699,79.111 98.451,78.981 98.859 C 78.852 99.266,78.497 99.600,78.194 99.600 C 77.890 99.600,77.156 100.050,76.562 100.600 C 75.969 101.150,75.338 101.600,75.160 101.600 C 74.982 101.600,74.423 102.005,73.918 102.500 C 73.413 102.995,72.505 103.655,71.900 103.968 C 71.295 104.280,70.800 104.685,70.800 104.868 C 70.800 105.050,70.532 105.200,70.203 105.200 C 69.875 105.200,69.091 105.740,68.460 106.400 C 67.829 107.060,67.106 107.600,66.853 107.600 C 66.600 107.600,65.831 108.136,65.145 108.792 C 64.459 109.448,63.741 109.887,63.549 109.768 C 63.357 109.650,63.200 109.743,63.200 109.976 C 63.200 110.209,62.930 110.400,62.600 110.400 C 62.270 110.400,62.000 110.580,62.000 110.800 C 62.000 111.020,61.762 111.200,61.472 111.200 C 61.182 111.200,60.572 111.628,60.118 112.150 C 59.664 112.673,58.731 113.432,58.046 113.837 C 57.361 114.241,56.800 114.714,56.800 114.886 C 56.800 115.059,56.575 115.200,56.300 115.201 C 56.025 115.201,55.170 115.741,54.400 116.400 C 53.630 117.059,52.815 117.599,52.588 117.599 C 52.362 117.600,51.917 117.960,51.600 118.400 C 51.283 118.840,50.864 119.200,50.669 119.200 C 50.364 119.200,49.476 119.838,47.300 121.622 C 47.025 121.847,46.800 121.894,46.800 121.727 C 46.800 121.559,46.520 121.822,46.177 122.311 C 45.835 122.800,45.335 123.200,45.066 123.200 C 44.797 123.200,44.317 123.560,44.000 124.000 C 43.683 124.440,43.255 124.800,43.049 124.800 C 42.844 124.800,42.086 125.250,41.364 125.800 C 40.643 126.350,39.851 126.800,39.603 126.800 C 39.355 126.800,39.264 126.980,39.400 127.200 C 39.536 127.420,39.277 127.600,38.824 127.600 C 38.371 127.600,38.000 127.780,38.000 128.000 C 38.000 128.220,37.820 128.400,37.600 128.400 C 37.380 128.400,36.853 128.715,36.429 129.100 C 34.884 130.502,34.422 130.800,33.793 130.800 C 33.441 130.800,33.252 130.960,33.373 131.156 C 33.494 131.352,33.010 131.793,32.296 132.137 C 31.583 132.481,30.513 133.221,29.917 133.781 C 29.322 134.342,28.692 134.800,28.517 134.800 C 28.203 134.801,26.821 135.885,24.693 137.803 C 24.084 138.351,23.385 138.800,23.140 138.800 C 22.895 138.800,22.391 139.149,22.022 139.575 C 21.652 140.001,21.092 140.406,20.778 140.475 C 20.465 140.544,19.752 141.070,19.196 141.644 C 18.639 142.218,17.738 142.829,17.192 143.001 C 16.646 143.173,15.885 143.676,15.500 144.118 C 15.115 144.561,14.800 144.786,14.800 144.620 C 14.800 144.453,14.182 144.860,13.426 145.523 C 12.671 146.187,11.678 146.848,11.220 146.994 C 10.763 147.139,10.492 147.425,10.618 147.629 C 10.829 147.971,10.259 148.174,9.470 148.037 C 9.289 148.006,9.238 148.138,9.357 148.330 C 9.475 148.522,9.129 148.917,8.586 149.207 C 8.044 149.498,7.600 149.885,7.600 150.068 C 7.600 150.250,7.312 150.400,6.960 150.400 C 6.609 150.400,5.817 150.940,5.200 151.600 C 4.583 152.260,3.791 152.800,3.440 152.800 C 3.088 152.800,2.800 153.070,2.800 153.400 C 2.800 153.730,2.620 154.000,2.400 154.000 C 2.180 154.000,2.000 154.270,2.000 154.600 C 2.000 154.930,1.841 155.200,1.646 155.200 C 0.980 155.200,0.000 157.917,0.000 159.760 L 0.000 161.600 165.000 161.600 C 273.793 161.600,330.000 161.465,330.000 161.203 C 330.000 160.985,329.640 160.582,329.200 160.307 C 328.760 160.032,328.400 159.551,328.400 159.237 C 328.400 158.923,328.295 158.772,328.167 158.900 C 328.039 159.028,326.309 157.528,324.323 155.567 C 322.337 153.605,320.641 152.000,320.554 152.000 C 320.468 152.000,319.543 151.191,318.499 150.202 C 317.454 149.213,316.484 148.403,316.342 148.402 C 316.201 148.401,315.535 147.905,314.864 147.300 C 313.079 145.691,311.881 144.702,310.625 143.800 C 310.013 143.360,309.268 142.769,308.970 142.486 C 308.672 142.203,308.332 141.978,308.214 141.986 C 307.396 142.040,307.180 141.957,307.365 141.657 C 307.481 141.468,306.772 140.900,305.788 140.394 C 304.805 139.888,304.000 139.323,304.000 139.137 C 304.000 138.952,303.732 138.800,303.403 138.800 C 303.075 138.800,302.582 138.440,302.307 138.000 C 302.032 137.560,301.581 137.200,301.304 137.200 C 301.027 137.200,300.800 137.020,300.800 136.800 C 300.800 136.580,300.530 136.400,300.200 136.400 C 299.870 136.400,299.600 136.220,299.600 136.000 C 299.600 135.780,299.364 135.600,299.075 135.600 C 298.787 135.600,298.193 135.285,297.755 134.900 C 297.317 134.515,296.608 134.003,296.180 133.762 C 293.928 132.499,293.382 132.155,292.853 131.667 C 292.206 131.068,290.360 130.236,289.900 130.335 C 289.735 130.371,289.597 130.175,289.594 129.900 C 289.591 129.625,288.376 128.813,286.894 128.095 C 283.143 126.277,280.225 124.655,280.067 124.300 C 279.993 124.135,279.723 124.001,279.467 124.002 C 279.210 124.004,276.840 122.940,274.200 121.640 C 271.560 120.339,268.815 119.034,268.100 118.739 C 267.385 118.445,266.800 118.069,266.800 117.902 C 266.800 117.736,266.260 117.600,265.600 117.600 C 264.940 117.600,264.400 117.420,264.400 117.200 C 264.400 116.980,264.040 116.800,263.600 116.800 C 263.160 116.800,262.800 116.653,262.800 116.472 C 262.800 116.292,261.900 115.900,260.800 115.600 C 259.700 115.300,258.800 114.908,258.800 114.728 C 258.800 114.547,258.440 114.400,258.000 114.400 C 257.560 114.400,257.200 114.220,257.200 114.000 C 257.200 113.780,256.927 113.600,256.594 113.600 C 255.761 113.600,252.800 112.655,252.800 112.390 C 252.800 112.271,252.323 112.135,251.740 112.087 C 251.158 112.039,250.469 111.823,250.209 111.608 C 249.950 111.392,249.391 111.149,248.969 111.068 C 247.998 110.881,246.806 110.452,245.884 109.957 C 245.490 109.746,244.987 109.684,244.766 109.821 C 244.546 109.957,244.121 109.867,243.823 109.619 C 243.253 109.146,242.370 108.900,239.900 108.523 C 239.075 108.398,238.400 108.138,238.400 107.947 C 238.400 107.756,237.770 107.600,237.000 107.600 C 236.230 107.600,235.600 107.420,235.600 107.200 C 235.600 106.980,234.880 106.800,234.000 106.800 C 233.120 106.800,232.400 106.620,232.400 106.400 C 232.400 106.180,231.680 106.000,230.800 106.000 C 229.920 106.000,229.200 105.820,229.200 105.600 C 229.200 105.380,228.491 105.200,227.624 105.200 C 226.757 105.200,225.936 105.020,225.800 104.800 C 225.664 104.580,224.854 104.400,224.000 104.400 C 223.146 104.400,222.336 104.220,222.200 104.000 C 222.064 103.780,221.254 103.600,220.400 103.600 C 219.546 103.600,218.736 103.420,218.600 103.200 C 218.464 102.980,217.463 102.800,216.376 102.800 C 215.289 102.800,214.400 102.620,214.400 102.400 C 214.400 102.176,213.293 102.000,211.880 102.000 C 210.494 102.000,209.189 101.834,208.980 101.631 C 208.771 101.428,207.340 101.169,205.800 101.055 C 204.260 100.941,202.235 100.728,201.300 100.582 L 199.600 100.316 199.600 66.838 C 199.600 33.502,199.517 31.216,198.300 31.203 C 198.135 31.201,198.000 30.854,198.000 30.432 C 198.000 29.566,194.515 25.882,193.998 26.201 C 193.815 26.315,193.380 26.123,193.032 25.775 C 192.685 25.427,192.400 25.282,192.400 25.451 C 192.400 25.621,192.184 25.544,191.920 25.280 C 191.331 24.691,183.200 24.604,183.200 25.187 " stroke="none" fill="#24b3fc" fill-rule="evenodd"></path><path id="path1" d="M165.100 162.700 C -14.011 162.809,-0.855 162.641,0.496 164.805 C 0.891 165.438,0.891 165.762,0.496 166.395 C -0.153 167.434,-0.135 167.810,0.537 167.252 C 1.159 166.736,1.600 167.046,1.600 167.998 C 1.600 168.690,5.707 172.800,6.399 172.800 C 6.616 172.800,7.018 173.160,7.293 173.600 C 7.568 174.040,8.064 174.401,8.396 174.402 C 8.728 174.403,9.548 174.898,10.219 175.502 C 10.889 176.106,11.725 176.780,12.076 177.000 C 13.245 177.733,18.176 181.233,20.000 182.624 C 20.990 183.379,22.167 184.159,22.616 184.357 C 23.065 184.555,23.673 185.005,23.965 185.358 C 24.258 185.711,24.666 186.000,24.871 186.000 C 25.076 186.000,25.819 186.539,26.522 187.198 C 27.225 187.857,28.025 188.397,28.300 188.398 C 28.575 188.399,28.800 188.550,28.800 188.732 C 28.800 188.915,29.292 189.320,29.893 189.632 C 30.494 189.945,31.511 190.695,32.152 191.300 C 32.794 191.905,33.562 192.400,33.859 192.400 C 34.157 192.400,34.400 192.547,34.400 192.726 C 34.400 192.906,35.106 193.450,35.969 193.935 C 36.833 194.420,37.598 194.959,37.669 195.132 C 37.741 195.305,38.880 196.153,40.200 197.017 C 41.520 197.880,42.949 198.904,43.375 199.293 C 43.802 199.682,44.305 200.000,44.494 200.000 C 44.682 200.000,45.286 200.450,45.836 201.000 C 46.386 201.550,46.980 202.000,47.156 202.000 C 47.332 202.000,47.999 202.450,48.638 203.000 C 49.277 203.549,49.985 203.999,50.212 204.000 C 50.438 204.000,50.883 204.360,51.200 204.800 C 51.517 205.240,52.007 205.600,52.288 205.600 C 52.570 205.600,52.800 205.780,52.800 206.000 C 52.800 206.220,53.004 206.400,53.253 206.400 C 53.502 206.400,53.997 206.716,54.353 207.103 C 54.709 207.489,55.495 208.060,56.100 208.370 C 56.705 208.681,57.200 209.085,57.200 209.268 C 57.200 209.450,57.385 209.600,57.611 209.600 C 57.838 209.600,59.143 210.466,60.511 211.524 C 61.880 212.582,63.270 213.572,63.600 213.724 C 63.930 213.876,65.010 214.627,66.000 215.394 C 67.572 216.611,72.123 219.833,73.921 221.000 C 74.757 221.543,75.978 222.494,76.616 223.100 C 76.906 223.375,77.334 223.600,77.568 223.600 C 77.802 223.600,78.218 223.960,78.493 224.400 C 78.768 224.840,79.227 225.200,79.514 225.200 C 79.801 225.200,80.499 225.662,81.063 226.227 C 81.628 226.792,82.475 227.423,82.945 227.629 C 83.415 227.835,84.610 228.632,85.600 229.402 C 86.590 230.171,87.670 230.922,88.000 231.071 C 88.330 231.220,88.690 231.466,88.800 231.618 C 88.995 231.887,90.027 232.632,95.000 236.091 C 96.320 237.010,97.749 238.085,98.175 238.481 C 98.602 238.876,99.187 239.200,99.475 239.200 C 99.764 239.200,100.000 239.338,100.000 239.506 C 100.000 239.674,100.720 240.256,101.600 240.800 C 102.480 241.344,103.200 241.884,103.200 242.000 C 103.200 242.116,103.920 242.656,104.800 243.200 C 105.680 243.744,106.400 244.326,106.400 244.494 C 106.400 244.662,106.578 244.800,106.797 244.800 C 107.123 244.800,109.581 246.473,111.425 247.951 C 111.659 248.138,112.289 248.525,112.825 248.809 C 113.361 249.094,114.035 249.658,114.323 250.063 C 114.610 250.469,115.077 250.800,115.361 250.800 C 115.644 250.800,116.202 251.160,116.600 251.600 C 116.998 252.040,117.475 252.400,117.659 252.400 C 117.955 252.400,120.554 254.238,122.505 255.826 C 122.892 256.142,123.295 256.400,123.400 256.400 C 123.505 256.400,123.908 256.658,124.295 256.974 C 126.215 258.537,128.843 260.400,129.129 260.400 C 129.306 260.400,129.968 260.940,130.600 261.600 C 131.232 262.260,131.958 262.800,132.213 262.800 C 132.468 262.800,133.002 263.160,133.400 263.600 C 133.798 264.040,134.335 264.400,134.592 264.400 C 134.850 264.400,135.483 264.850,136.000 265.400 C 136.517 265.950,137.178 266.400,137.470 266.400 C 137.761 266.400,138.000 266.538,138.000 266.706 C 138.000 266.963,140.182 268.575,142.729 270.200 C 143.074 270.420,143.715 270.915,144.154 271.300 C 144.592 271.685,145.099 272.000,145.279 272.000 C 145.460 272.000,146.172 272.540,146.863 273.200 C 147.554 273.860,148.322 274.400,148.571 274.400 C 148.820 274.400,149.283 274.760,149.600 275.200 C 149.917 275.640,150.373 276.000,150.613 276.000 C 150.853 276.000,151.398 276.325,151.825 276.722 C 152.461 277.314,156.369 280.031,159.129 281.800 C 159.472 282.020,160.163 282.591,160.664 283.069 C 161.164 283.547,161.940 284.054,162.387 284.196 C 162.834 284.338,163.200 284.579,163.200 284.733 C 163.200 284.886,163.920 285.456,164.800 286.000 C 165.680 286.544,166.400 287.126,166.400 287.294 C 166.400 287.462,166.625 287.600,166.900 287.600 C 167.175 287.601,167.940 288.066,168.600 288.635 C 169.260 289.204,170.295 289.963,170.900 290.321 C 171.505 290.679,172.000 291.114,172.000 291.286 C 172.000 291.459,172.236 291.600,172.525 291.600 C 172.813 291.600,173.404 291.915,173.838 292.300 C 175.335 293.627,177.954 295.600,178.219 295.600 C 178.533 295.600,181.685 298.017,182.055 298.541 C 182.196 298.740,182.538 298.762,182.816 298.590 C 183.108 298.410,183.507 298.515,183.761 298.839 C 184.349 299.591,190.362 299.626,191.146 298.882 C 191.447 298.597,191.886 298.429,192.121 298.507 C 192.357 298.586,192.876 298.324,193.275 297.925 C 193.674 297.526,194.225 297.192,194.500 297.183 C 195.062 297.164,198.000 293.515,198.000 292.837 C 198.000 292.597,198.183 292.400,198.408 292.400 C 198.644 292.400,198.708 291.974,198.560 291.384 C 198.391 290.711,198.526 290.123,198.960 289.645 C 199.556 288.986,199.605 286.061,199.507 256.661 L 199.400 224.400 202.076 224.400 C 203.548 224.400,204.864 224.580,205.000 224.800 C 205.141 225.027,207.143 225.200,209.640 225.200 C 213.512 225.200,214.138 225.297,214.911 226.017 C 215.394 226.467,215.851 226.647,215.928 226.417 C 216.211 225.567,221.118 225.910,221.400 226.800 C 221.540 227.240,221.832 227.600,222.051 227.600 C 222.269 227.600,222.336 227.420,222.200 227.200 C 222.047 226.952,222.785 226.800,224.143 226.800 C 225.482 226.800,226.395 226.985,226.492 227.276 C 226.596 227.588,227.439 227.716,228.925 227.647 C 230.343 227.582,231.200 227.704,231.200 227.971 C 231.200 228.225,232.108 228.400,233.424 228.400 C 234.804 228.400,235.553 228.552,235.400 228.800 C 235.248 229.047,235.929 229.200,237.176 229.200 C 238.289 229.200,239.200 229.379,239.200 229.597 C 239.200 229.816,239.936 229.965,240.835 229.930 C 241.791 229.893,242.601 230.078,242.785 230.376 C 242.968 230.672,243.433 230.780,243.894 230.634 C 244.952 230.298,246.097 230.771,245.840 231.439 C 245.727 231.733,245.835 232.098,246.079 232.249 C 246.348 232.415,246.411 232.341,246.238 232.062 C 246.081 231.808,246.098 231.587,246.276 231.570 C 246.454 231.554,247.011 231.464,247.513 231.371 C 248.087 231.264,248.514 231.431,248.663 231.821 C 248.837 232.272,249.214 232.373,250.051 232.189 C 250.885 232.006,251.266 232.105,251.437 232.551 C 251.605 232.990,252.002 233.100,252.830 232.934 C 253.676 232.765,254.054 232.876,254.236 233.348 C 254.413 233.810,254.769 233.923,255.485 233.743 C 256.124 233.583,256.606 233.686,256.818 234.029 C 257.000 234.324,257.656 234.574,258.275 234.583 C 259.122 234.596,259.384 234.784,259.337 235.343 C 259.292 235.885,259.394 235.966,259.717 235.643 C 260.269 235.091,261.600 235.061,261.600 235.600 C 261.600 235.820,262.039 236.000,262.576 236.000 C 263.113 236.000,263.664 236.180,263.800 236.400 C 263.936 236.620,264.476 236.800,265.000 236.800 C 265.524 236.800,266.064 236.980,266.200 237.200 C 266.336 237.420,266.797 237.600,267.224 237.600 C 267.651 237.600,268.000 237.839,268.000 238.131 C 268.000 238.493,268.381 238.606,269.200 238.485 C 269.920 238.380,270.400 238.487,270.400 238.755 C 270.400 239.000,270.781 239.200,271.247 239.200 C 271.896 239.200,272.045 239.386,271.884 240.000 C 271.769 240.440,271.838 240.800,272.037 240.800 C 272.237 240.800,272.400 240.620,272.400 240.400 C 272.400 240.180,272.779 240.000,273.243 240.000 C 273.784 240.000,274.012 240.192,273.879 240.538 C 273.734 240.918,273.942 241.024,274.590 240.900 C 275.094 240.804,275.628 240.922,275.777 241.162 C 275.925 241.403,276.397 241.600,276.824 241.600 C 277.251 241.600,277.600 241.780,277.600 242.000 C 277.600 242.220,277.960 242.400,278.400 242.400 C 278.840 242.400,279.200 242.580,279.200 242.800 C 279.200 243.020,279.650 243.200,280.200 243.200 C 280.750 243.200,281.200 243.380,281.200 243.600 C 281.200 243.820,281.434 244.000,281.720 244.000 C 282.456 244.000,284.393 244.941,284.397 245.300 C 284.399 245.465,284.760 245.600,285.200 245.600 C 285.640 245.600,286.000 245.780,286.000 246.000 C 286.000 246.220,286.345 246.400,286.767 246.400 C 287.188 246.400,287.593 246.535,287.667 246.700 C 287.740 246.865,289.240 247.718,291.000 248.595 C 292.760 249.472,294.290 250.282,294.400 250.395 C 294.510 250.509,295.095 250.856,295.700 251.168 C 296.305 251.480,296.800 251.885,296.800 252.068 C 296.800 252.250,297.078 252.400,297.417 252.400 C 297.756 252.400,298.420 252.760,298.892 253.200 C 299.364 253.640,299.987 254.000,300.275 254.000 C 300.564 254.000,300.800 254.180,300.800 254.400 C 300.800 254.620,301.036 254.800,301.325 254.800 C 301.613 254.800,302.198 255.115,302.625 255.500 C 303.051 255.885,303.895 256.455,304.500 256.768 C 305.105 257.080,305.600 257.485,305.600 257.668 C 305.600 257.850,305.870 258.000,306.200 258.000 C 306.530 258.000,306.800 258.180,306.800 258.400 C 306.800 258.620,307.070 258.800,307.400 258.800 C 307.730 258.800,308.000 258.938,308.000 259.106 C 308.000 259.274,308.720 259.856,309.600 260.400 C 310.480 260.944,311.200 261.526,311.200 261.694 C 311.200 261.862,311.388 262.000,311.618 262.000 C 311.999 262.000,313.013 262.791,318.986 267.751 C 324.009 271.921,338.756 286.553,338.791 287.400 C 338.800 287.620,339.698 288.700,340.787 289.800 C 341.875 290.900,342.774 291.937,342.783 292.103 C 342.798 292.376,344.177 294.063,345.500 295.427 C 345.775 295.711,346.000 296.056,346.000 296.195 C 346.000 296.449,348.002 299.098,349.300 300.562 C 349.685 300.996,350.000 301.587,350.000 301.875 C 350.000 302.164,350.177 302.400,350.392 302.400 C 350.608 302.400,350.898 302.850,351.036 303.400 C 351.174 303.950,351.415 304.400,351.572 304.400 C 351.896 304.400,354.000 307.505,354.000 307.982 C 354.000 308.153,354.373 308.766,354.829 309.346 C 355.285 309.926,355.555 310.400,355.429 310.400 C 355.303 310.400,355.560 310.760,356.000 311.200 C 356.440 311.640,356.800 312.270,356.800 312.600 C 356.800 312.930,356.980 313.200,357.200 313.200 C 357.420 313.200,357.600 313.560,357.600 314.000 C 357.600 314.440,357.780 314.800,358.000 314.800 C 358.220 314.800,358.400 315.070,358.400 315.400 C 358.400 315.730,358.546 316.000,358.725 316.000 C 358.904 316.000,359.298 316.630,359.600 317.400 C 359.902 318.170,360.296 318.800,360.475 318.800 C 360.654 318.800,360.800 319.160,360.800 319.600 C 360.800 320.040,360.980 320.400,361.200 320.400 C 361.420 320.400,361.600 320.760,361.600 321.200 C 361.600 321.640,361.780 322.000,362.000 322.000 C 362.220 322.000,362.400 322.360,362.400 322.800 C 362.400 323.240,362.580 323.600,362.800 323.600 C 363.020 323.600,363.200 323.960,363.200 324.400 C 363.200 324.840,363.380 325.200,363.600 325.200 C 363.820 325.200,364.000 325.560,364.000 326.000 C 364.000 326.440,364.180 326.800,364.400 326.800 C 364.620 326.800,364.800 327.160,364.800 327.600 C 364.800 328.040,364.980 328.400,365.200 328.400 C 365.420 328.400,365.600 328.749,365.600 329.176 C 365.600 329.603,365.780 330.064,366.000 330.200 C 366.220 330.336,366.400 330.797,366.400 331.224 C 366.400 331.651,366.601 332.000,366.847 332.000 C 367.092 332.000,367.202 332.348,367.091 332.774 C 366.974 333.222,367.123 333.638,367.444 333.762 C 367.750 333.879,368.000 334.330,368.000 334.764 C 368.000 335.198,368.196 335.674,368.435 335.822 C 368.674 335.969,368.784 336.418,368.679 336.819 C 368.569 337.239,368.744 337.646,369.090 337.779 C 369.450 337.917,369.610 338.318,369.490 338.779 C 369.378 339.207,369.521 339.638,369.813 339.750 C 370.133 339.872,370.248 340.293,370.109 340.826 C 369.960 341.396,370.104 341.827,370.524 342.061 C 370.877 342.259,371.067 342.682,370.945 343.000 C 370.822 343.319,371.002 343.859,371.344 344.201 C 371.686 344.543,371.866 345.083,371.744 345.401 C 371.622 345.719,371.794 346.251,372.126 346.583 C 372.457 346.914,372.639 347.529,372.530 347.948 C 372.420 348.367,372.526 348.831,372.765 348.978 C 373.004 349.126,373.200 349.777,373.200 350.424 C 373.200 351.071,373.380 351.600,373.600 351.600 C 373.820 351.600,374.000 352.230,374.000 353.000 C 374.000 353.770,374.180 354.400,374.400 354.400 C 374.620 354.400,374.800 355.120,374.800 356.000 C 374.800 356.898,374.993 357.600,375.240 357.600 C 375.517 357.600,375.627 358.270,375.537 359.400 C 375.438 360.655,375.547 361.200,375.897 361.200 C 376.217 361.200,376.400 361.782,376.400 362.800 C 376.400 363.680,376.220 364.400,376.000 364.400 C 375.780 364.400,375.600 364.580,375.600 364.800 C 375.600 365.020,375.960 365.200,376.400 365.200 C 376.984 365.200,377.200 365.467,377.200 366.188 C 377.200 367.972,380.695 372.800,381.987 372.800 C 382.214 372.800,382.400 372.980,382.400 373.200 C 382.400 373.420,382.760 373.600,383.200 373.600 C 384.081 373.600,384.292 374.234,383.500 374.504 C 383.225 374.598,384.035 374.591,385.300 374.488 C 386.847 374.362,387.600 374.448,387.600 374.750 C 387.600 375.307,389.062 375.347,389.400 374.800 C 389.536 374.580,390.267 374.400,391.024 374.400 C 391.781 374.400,392.400 374.220,392.400 374.000 C 392.400 373.434,393.742 373.503,394.344 374.100 C 394.747 374.501,394.797 374.468,394.594 373.935 C 394.418 373.473,394.896 372.759,396.164 371.591 C 398.110 369.797,399.200 368.011,399.200 366.619 C 399.200 366.146,399.402 365.558,399.648 365.312 C 399.970 364.990,400.008 362.633,399.783 356.932 C 399.610 352.569,399.476 345.760,399.483 341.800 C 399.493 336.900,399.354 334.508,399.049 334.314 C 398.759 334.128,398.600 332.361,398.600 329.314 C 398.600 326.721,398.437 324.346,398.237 324.036 C 398.037 323.725,397.896 321.932,397.923 320.051 C 397.957 317.762,397.813 316.532,397.490 316.332 C 396.823 315.920,396.907 311.228,397.590 310.806 C 397.971 310.571,397.894 310.420,397.293 310.229 C 396.267 309.904,395.887 308.427,396.234 306.114 C 396.430 304.806,396.358 304.221,395.971 303.982 C 395.606 303.757,395.460 302.883,395.511 301.226 C 395.552 299.857,395.414 298.800,395.192 298.800 C 394.977 298.800,394.800 297.810,394.800 296.600 C 394.800 295.390,394.620 294.400,394.400 294.400 C 394.180 294.400,394.000 293.410,394.000 292.200 C 394.000 290.990,393.820 290.000,393.600 290.000 C 393.380 290.000,393.200 289.100,393.200 288.000 C 393.200 286.900,393.020 286.000,392.800 286.000 C 392.580 286.000,392.400 285.089,392.400 283.976 C 392.400 282.595,392.259 282.040,391.956 282.227 C 391.647 282.418,391.556 281.937,391.659 280.651 C 391.762 279.353,391.655 278.800,391.303 278.800 C 390.974 278.800,390.800 278.179,390.800 277.000 C 390.800 275.953,390.615 275.200,390.358 275.200 C 390.084 275.200,389.974 274.593,390.069 273.600 C 390.180 272.432,390.072 272.000,389.669 272.000 C 389.265 272.000,389.157 271.568,389.269 270.400 C 389.380 269.230,389.272 268.800,388.867 268.800 C 388.469 268.800,388.359 268.405,388.476 267.400 C 388.589 266.435,388.478 266.000,388.120 266.000 C 387.466 266.000,387.438 264.322,388.080 263.680 C 388.453 263.307,388.353 263.200,387.628 263.200 C 386.790 263.200,386.718 263.062,386.917 261.831 C 387.075 260.859,386.975 260.399,386.570 260.244 C 386.256 260.123,386.000 259.580,386.000 259.036 C 386.000 258.492,385.802 257.925,385.560 257.775 C 385.314 257.623,385.218 257.010,385.342 256.388 C 385.499 255.605,385.383 255.202,384.955 255.038 C 384.553 254.884,384.432 254.529,384.600 254.000 C 384.770 253.465,384.645 253.116,384.228 252.955 C 383.862 252.815,383.600 252.242,383.600 251.581 C 383.600 250.957,383.408 250.328,383.173 250.183 C 382.938 250.038,382.847 249.654,382.972 249.330 C 383.096 249.006,382.936 248.479,382.616 248.159 C 382.021 247.564,382.197 246.442,382.971 245.899 C 383.207 245.733,382.950 245.643,382.400 245.699 C 381.592 245.781,381.406 245.627,381.432 244.900 C 381.449 244.405,381.314 244.000,381.132 244.000 C 380.949 244.000,380.800 243.572,380.800 243.049 C 380.800 242.526,380.549 241.889,380.241 241.634 C 379.934 241.379,379.775 240.817,379.888 240.385 C 380.001 239.951,379.894 239.600,379.647 239.600 C 379.401 239.600,379.200 239.139,379.200 238.576 C 379.200 237.996,379.373 237.660,379.600 237.800 C 379.820 237.936,380.000 237.844,380.000 237.597 C 380.000 237.328,379.677 237.249,379.200 237.400 C 378.581 237.596,378.400 237.472,378.400 236.851 C 378.400 236.409,378.220 235.936,378.000 235.800 C 377.780 235.664,377.600 235.103,377.600 234.553 C 377.600 233.988,377.774 233.660,378.000 233.800 C 378.220 233.936,378.400 233.844,378.400 233.597 C 378.400 233.328,378.077 233.249,377.600 233.400 C 376.976 233.598,376.800 233.472,376.800 232.827 C 376.800 232.372,376.620 232.000,376.400 232.000 C 376.180 232.000,376.000 231.728,376.000 231.395 C 376.000 231.062,375.840 230.477,375.644 230.095 C 374.136 227.155,373.531 225.558,373.728 225.043 C 373.886 224.633,373.774 224.512,373.380 224.663 C 372.986 224.814,372.800 224.614,372.800 224.043 C 372.800 223.579,372.620 223.200,372.400 223.200 C 372.180 223.200,372.000 222.840,372.000 222.400 C 372.000 221.960,371.820 221.600,371.600 221.600 C 371.380 221.600,371.200 221.347,371.200 221.038 C 371.200 220.729,370.801 219.728,370.314 218.815 C 369.550 217.385,369.508 217.097,370.014 216.739 C 370.501 216.395,370.485 216.361,369.919 216.542 C 369.458 216.690,369.057 216.413,368.674 215.680 C 368.363 215.086,367.816 214.060,367.457 213.400 C 367.098 212.740,366.804 211.969,366.802 211.687 C 366.801 211.406,366.541 211.076,366.225 210.954 C 365.909 210.833,365.748 210.480,365.867 210.170 C 365.986 209.860,365.795 209.496,365.444 209.361 C 365.092 209.227,364.892 208.975,364.998 208.803 C 365.104 208.631,364.934 208.277,364.619 208.016 C 364.019 207.518,364.223 206.243,364.842 206.626 C 365.039 206.748,365.200 206.657,365.200 206.424 C 365.200 205.860,364.673 205.887,364.080 206.480 C 363.756 206.804,363.600 206.817,363.600 206.521 C 363.600 206.279,362.880 204.897,362.000 203.448 C 361.120 202.000,360.400 200.714,360.400 200.591 C 360.400 200.467,360.040 199.980,359.600 199.508 C 359.160 199.036,358.800 198.413,358.800 198.125 C 358.800 197.836,358.620 197.600,358.400 197.600 C 358.180 197.600,358.000 197.330,358.000 197.000 C 358.000 196.670,357.820 196.400,357.600 196.400 C 357.380 196.400,357.200 196.130,357.200 195.800 C 357.200 195.470,357.020 195.200,356.800 195.200 C 356.580 195.200,356.400 194.964,356.400 194.675 C 356.400 194.387,356.040 193.764,355.600 193.292 C 355.160 192.820,354.800 192.261,354.800 192.050 C 354.800 191.839,354.657 191.607,354.483 191.533 C 354.309 191.460,353.364 190.231,352.383 188.802 C 351.402 187.373,350.195 185.755,349.700 185.206 C 349.205 184.657,348.800 184.015,348.800 183.779 C 348.800 183.543,348.260 182.832,347.600 182.200 C 346.940 181.568,346.400 180.891,346.400 180.697 C 346.400 180.502,346.166 180.108,345.879 179.822 C 345.593 179.535,344.738 178.541,343.979 177.611 C 343.221 176.682,342.098 175.354,341.485 174.661 C 340.872 173.967,339.792 172.701,339.085 171.846 C 338.378 170.991,336.090 168.561,334.000 166.446 L 330.200 162.600 165.100 162.700 " stroke="none" fill="#448cfc" fill-rule="evenodd"></path><path id="path2" d="M0.000 162.000 C 0.000 162.543,329.559 162.543,330.400 162.000 C 330.788 161.749,272.496 161.610,165.500 161.606 C 55.429 161.602,0.000 161.734,0.000 162.000 " stroke="none" fill="#2cacfc" fill-rule="evenodd"></path><path id="path3" d="M330.634 162.344 C 330.517 162.534,332.082 164.410,334.111 166.514 C 336.140 168.618,338.667 171.298,339.727 172.470 L 341.655 174.600 340.456 172.800 C 339.797 171.810,337.714 169.417,335.829 167.482 C 333.943 165.548,332.400 163.703,332.400 163.382 C 332.400 163.062,332.265 162.821,332.100 162.847 C 331.303 162.973,330.778 162.760,331.000 162.400 C 331.136 162.180,331.157 162.000,331.047 162.000 C 330.937 162.000,330.751 162.155,330.634 162.344 M82.533 162.700 C 128.036 162.756,202.376 162.756,247.733 162.700 C 293.090 162.644,255.860 162.598,165.000 162.598 C 74.140 162.598,37.030 162.644,82.533 162.700 M0.006 164.876 C 0.018 165.881,0.787 166.708,0.794 165.724 C 0.797 165.242,0.620 164.736,0.400 164.600 C 0.180 164.464,0.003 164.588,0.006 164.876 M0.604 167.193 C 0.466 167.417,0.543 167.600,0.776 167.600 C 1.009 167.600,1.200 167.960,1.200 168.400 C 1.200 168.840,1.380 169.200,1.600 169.200 C 1.820 169.200,2.000 169.590,2.000 170.067 C 2.000 170.543,2.111 170.822,2.248 170.686 C 2.384 170.550,2.765 170.708,3.095 171.038 C 3.425 171.368,3.797 171.537,3.920 171.413 C 4.044 171.289,3.573 170.597,2.873 169.875 C 2.173 169.153,1.600 168.266,1.600 167.905 C 1.600 167.101,0.949 166.636,0.604 167.193 M4.400 171.729 C 4.400 172.051,4.670 172.418,5.000 172.545 C 5.330 172.671,5.600 172.678,5.600 172.559 C 5.600 172.440,5.330 172.073,5.000 171.743 C 4.480 171.222,4.400 171.221,4.400 171.729 M6.000 173.029 C 6.000 173.154,6.249 173.506,6.552 173.810 C 7.236 174.493,7.761 174.076,7.148 173.337 C 6.697 172.794,6.000 172.607,6.000 173.029 M8.400 174.753 C 8.400 174.948,8.778 175.206,9.240 175.326 C 9.775 175.466,9.971 175.724,9.778 176.035 C 9.580 176.357,9.643 176.421,9.964 176.222 C 10.331 175.996,10.281 175.732,9.764 175.160 C 9.035 174.355,8.400 174.165,8.400 174.753 M342.851 176.298 C 343.153 176.683,343.580 177.197,343.800 177.443 C 345.717 179.579,346.400 180.441,346.400 180.722 C 346.400 180.902,346.940 181.568,347.600 182.200 C 348.260 182.832,348.800 183.543,348.800 183.779 C 348.800 184.015,349.205 184.657,349.700 185.206 C 350.195 185.755,351.402 187.373,352.383 188.802 C 353.364 190.231,354.309 191.460,354.483 191.533 C 354.657 191.607,354.800 191.922,354.800 192.233 C 354.800 192.545,355.072 192.800,355.403 192.800 C 355.907 192.800,355.924 192.667,355.507 192.000 C 355.232 191.560,354.871 191.200,354.704 191.200 C 354.537 191.200,354.400 190.964,354.400 190.675 C 354.400 190.387,354.040 189.764,353.600 189.292 C 353.160 188.820,352.800 188.235,352.800 187.993 C 352.800 187.751,352.620 187.664,352.400 187.800 C 352.180 187.936,352.000 187.749,352.000 187.384 C 352.000 187.019,351.460 186.217,350.800 185.600 C 350.140 184.983,349.600 184.309,349.600 184.102 C 349.600 183.894,349.240 183.398,348.800 183.000 C 348.360 182.602,348.000 182.034,348.000 181.738 C 348.000 181.442,347.820 181.200,347.600 181.200 C 347.380 181.200,347.200 180.973,347.200 180.696 C 347.200 180.419,346.840 179.968,346.400 179.693 C 345.960 179.418,345.600 178.914,345.600 178.573 C 345.600 178.232,345.420 178.064,345.200 178.200 C 344.980 178.336,344.800 178.248,344.800 178.005 C 344.800 177.530,343.010 175.600,342.569 175.600 C 342.422 175.600,342.549 175.914,342.851 176.298 M11.600 177.200 C 11.600 177.420,11.881 177.600,12.224 177.600 C 12.567 177.600,12.760 177.742,12.652 177.915 C 12.545 178.088,13.017 178.478,13.701 178.781 C 14.385 179.083,15.479 179.841,16.131 180.465 C 16.784 181.089,17.496 181.600,17.712 181.600 C 17.929 181.600,18.397 181.916,18.753 182.303 C 19.109 182.689,19.895 183.260,20.500 183.570 C 21.105 183.881,21.600 184.285,21.600 184.468 C 21.600 184.650,21.870 184.800,22.200 184.800 C 22.530 184.800,22.800 184.980,22.800 185.200 C 22.800 185.420,23.030 185.600,23.312 185.600 C 23.593 185.600,24.083 185.960,24.400 186.400 C 24.717 186.840,25.180 187.200,25.429 187.200 C 25.678 187.200,26.446 187.740,27.137 188.400 C 28.561 189.761,28.800 189.847,28.800 189.000 C 28.800 188.670,28.575 188.399,28.300 188.398 C 28.025 188.397,27.225 187.857,26.522 187.198 C 25.819 186.539,25.076 186.000,24.871 186.000 C 24.666 186.000,24.258 185.711,23.965 185.358 C 23.673 185.005,23.065 184.555,22.616 184.357 C 22.167 184.159,20.990 183.379,20.000 182.624 C 19.010 181.869,16.991 180.422,15.514 179.409 C 14.036 178.396,12.720 177.395,12.590 177.184 C 12.278 176.679,11.600 176.690,11.600 177.200 M30.375 190.375 C 31.131 191.040,31.828 191.506,31.923 191.411 C 32.156 191.177,31.188 190.315,29.985 189.684 C 29.264 189.306,29.369 189.492,30.375 190.375 M32.400 191.866 C 32.400 192.229,33.544 193.200,33.971 193.200 C 34.737 193.200,34.419 192.612,33.397 192.138 C 32.849 191.883,32.400 191.761,32.400 191.866 M34.800 193.442 C 34.800 193.889,35.967 194.800,36.538 194.800 C 36.865 194.800,37.224 195.025,37.335 195.300 C 37.469 195.632,37.547 195.645,37.568 195.340 C 37.586 195.086,36.970 194.507,36.200 194.053 C 35.430 193.599,34.800 193.324,34.800 193.442 M356.153 194.230 C 356.399 194.760,356.827 195.195,357.103 195.197 C 357.505 195.199,357.507 195.040,357.112 194.408 C 356.347 193.182,355.604 193.044,356.153 194.230 M38.000 195.923 C 38.000 196.111,38.495 196.519,39.100 196.830 C 39.705 197.140,40.491 197.711,40.847 198.097 C 41.203 198.484,41.813 198.800,42.203 198.800 C 42.891 198.800,42.399 198.401,39.100 196.287 C 38.495 195.899,38.000 195.735,38.000 195.923 M357.200 196.000 C 357.200 196.220,357.380 196.400,357.600 196.400 C 357.820 196.400,358.000 196.670,358.000 197.000 C 358.000 197.330,358.180 197.600,358.400 197.600 C 358.939 197.600,358.884 197.144,358.243 196.300 C 357.652 195.521,357.200 195.391,357.200 196.000 M42.800 199.494 C 43.130 199.621,43.673 200.012,44.006 200.363 C 44.339 200.713,44.896 201.180,45.245 201.400 C 48.761 203.619,51.109 205.431,50.917 205.778 C 50.788 206.010,50.913 205.987,51.196 205.726 C 51.716 205.245,50.947 204.001,50.129 204.000 C 49.948 203.999,49.277 203.549,48.638 203.000 C 47.999 202.450,47.332 202.000,47.156 202.000 C 46.980 202.000,46.413 201.595,45.896 201.100 C 44.732 199.985,43.373 199.190,42.705 199.232 C 42.386 199.252,42.421 199.348,42.800 199.494 M361.759 203.100 C 362.800 205.075,363.572 205.920,363.587 205.100 C 363.594 204.715,363.420 204.400,363.200 204.400 C 362.980 204.400,362.800 204.130,362.800 203.800 C 362.800 203.470,362.620 203.200,362.400 203.200 C 362.180 203.200,362.000 202.930,362.000 202.600 C 362.000 202.270,361.815 202.000,361.590 202.000 C 361.350 202.000,361.421 202.458,361.759 203.100 M52.000 205.856 C 52.000 206.166,53.281 207.170,53.700 207.187 C 53.865 207.194,54.000 207.020,54.000 206.800 C 54.000 206.580,53.730 206.400,53.400 206.400 C 53.070 206.400,52.800 206.220,52.800 206.000 C 52.800 205.780,52.620 205.600,52.400 205.600 C 52.180 205.600,52.000 205.715,52.000 205.856 M364.539 207.932 C 364.903 208.335,365.104 208.763,364.984 208.883 C 364.864 209.003,365.043 209.208,365.383 209.338 C 366.288 209.686,366.135 208.811,365.139 207.947 C 364.036 206.990,363.678 206.982,364.539 207.932 M57.600 210.000 C 57.600 210.220,57.870 210.400,58.200 210.400 C 58.530 210.400,58.800 210.580,58.800 210.800 C 58.800 211.020,59.008 211.200,59.262 211.200 C 59.524 211.200,59.411 210.854,59.000 210.400 C 58.218 209.536,57.600 209.359,57.600 210.000 M365.826 210.358 C 365.704 210.555,365.874 210.819,366.202 210.946 C 366.565 211.085,366.800 210.944,366.800 210.587 C 366.800 209.940,366.175 209.793,365.826 210.358 M60.064 211.600 C 60.171 211.930,60.752 212.440,61.355 212.734 C 61.958 213.028,62.549 213.523,62.668 213.834 C 62.788 214.145,63.146 214.400,63.464 214.400 C 63.783 214.400,64.619 214.939,65.322 215.598 C 66.025 216.257,66.785 216.797,67.012 216.798 C 67.238 216.799,67.683 217.160,68.000 217.600 C 68.317 218.040,68.809 218.400,69.092 218.400 C 69.375 218.400,70.172 218.940,70.863 219.600 C 71.554 220.260,72.280 220.800,72.476 220.800 C 72.673 220.800,73.051 220.983,73.317 221.207 C 73.583 221.431,74.378 222.016,75.084 222.507 C 75.790 222.998,76.940 223.835,77.639 224.367 C 78.339 224.899,78.830 225.091,78.732 224.795 C 78.633 224.499,78.217 224.064,77.808 223.829 C 77.089 223.415,76.023 222.634,75.038 221.800 C 74.779 221.580,74.282 221.220,73.936 221.000 C 72.400 220.026,67.642 216.665,66.000 215.396 C 65.010 214.630,63.840 213.826,63.400 213.609 C 62.960 213.392,61.985 212.717,61.234 212.108 C 60.427 211.452,59.948 211.245,60.064 211.600 M367.026 212.500 C 367.179 212.995,367.609 213.850,367.980 214.400 C 368.351 214.950,369.149 216.432,369.753 217.692 C 370.357 218.953,371.020 220.089,371.226 220.216 C 371.783 220.560,371.680 220.094,370.954 218.986 C 370.599 218.444,370.432 218.000,370.583 218.000 C 370.734 218.000,370.573 217.715,370.225 217.368 C 369.877 217.020,369.695 216.570,369.820 216.368 C 369.945 216.165,369.857 216.000,369.624 216.000 C 369.391 216.000,369.200 215.730,369.200 215.400 C 369.200 215.070,369.020 214.800,368.800 214.800 C 368.580 214.800,368.400 214.440,368.400 214.000 C 368.400 213.560,368.220 213.200,368.000 213.200 C 367.780 213.200,367.600 212.840,367.600 212.400 C 367.600 211.960,367.408 211.600,367.173 211.600 C 366.914 211.600,366.856 211.954,367.026 212.500 M371.200 221.200 C 371.200 221.420,371.380 221.600,371.600 221.600 C 371.820 221.600,372.000 221.960,372.000 222.400 C 372.000 222.840,372.180 223.200,372.400 223.200 C 372.620 223.200,372.800 223.541,372.800 223.957 C 372.800 224.374,373.031 224.803,373.314 224.912 C 373.617 225.028,373.829 224.810,373.829 224.384 C 373.829 223.985,373.706 223.734,373.557 223.827 C 373.407 223.919,372.997 223.276,372.646 222.397 C 372.063 220.940,371.200 220.226,371.200 221.200 M199.200 224.715 C 199.200 224.889,200.569 225.082,202.241 225.144 C 204.327 225.222,205.199 225.123,205.018 224.829 C 204.715 224.339,199.200 224.232,199.200 224.715 M79.994 225.982 C 80.541 226.402,81.057 226.676,81.142 226.592 C 81.404 226.329,80.086 225.200,79.529 225.209 C 79.238 225.214,79.447 225.561,79.994 225.982 M211.800 225.600 C 211.653 225.838,212.129 226.000,212.976 226.000 C 213.759 226.000,214.400 225.820,214.400 225.600 C 214.400 225.380,213.871 225.200,213.224 225.200 C 212.577 225.200,211.936 225.380,211.800 225.600 M219.000 226.400 C 219.136 226.620,219.687 226.800,220.224 226.800 C 220.761 226.800,221.200 226.620,221.200 226.400 C 221.200 226.180,220.649 226.000,219.976 226.000 C 219.263 226.000,218.856 226.167,219.000 226.400 M81.600 227.037 C 81.600 227.499,82.770 228.400,83.371 228.400 C 83.717 228.400,84.000 228.541,84.000 228.714 C 84.000 228.886,84.545 229.349,85.211 229.743 C 85.877 230.136,86.859 230.895,87.393 231.429 C 87.927 231.963,88.602 232.400,88.894 232.400 C 89.185 232.400,89.683 232.760,90.000 233.200 C 90.317 233.640,90.825 234.000,91.128 234.000 C 91.431 234.000,92.183 234.540,92.800 235.200 C 93.417 235.860,94.132 236.400,94.389 236.400 C 94.647 236.400,95.085 236.625,95.363 236.900 C 95.641 237.175,96.375 237.760,96.995 238.200 C 97.615 238.640,98.454 239.315,98.861 239.700 C 99.267 240.085,99.735 240.418,99.900 240.440 C 100.065 240.462,100.155 240.642,100.100 240.840 C 100.045 241.038,100.135 241.171,100.300 241.136 C 100.465 241.102,100.923 241.214,101.317 241.386 C 102.572 241.933,102.504 241.307,101.228 240.553 C 100.552 240.154,100.000 239.686,100.000 239.514 C 100.000 239.341,99.764 239.200,99.475 239.200 C 99.187 239.200,98.602 238.876,98.175 238.481 C 97.749 238.085,96.320 237.010,95.000 236.091 C 90.182 232.740,88.996 231.890,88.800 231.647 C 88.690 231.511,88.312 231.220,87.960 231.000 C 87.608 230.780,86.544 230.060,85.595 229.400 C 83.143 227.694,81.600 226.781,81.600 227.037 M224.800 227.200 C 224.800 227.420,225.160 227.600,225.600 227.600 C 226.040 227.600,226.400 227.420,226.400 227.200 C 226.400 226.980,226.040 226.800,225.600 226.800 C 225.160 226.800,224.800 226.980,224.800 227.200 M229.400 228.000 C 229.260 228.227,229.596 228.400,230.176 228.400 C 230.739 228.400,231.200 228.220,231.200 228.000 C 231.200 227.780,230.851 227.600,230.424 227.600 C 229.997 227.600,229.536 227.780,229.400 228.000 M233.800 228.800 C 233.936 229.020,234.296 229.200,234.600 229.200 C 234.904 229.200,235.264 229.020,235.400 228.800 C 235.541 228.572,235.196 228.400,234.600 228.400 C 234.004 228.400,233.659 228.572,233.800 228.800 M375.200 229.376 C 375.200 229.693,375.380 230.064,375.600 230.200 C 375.820 230.336,376.000 230.077,376.000 229.624 C 376.000 229.171,375.820 228.800,375.600 228.800 C 375.380 228.800,375.200 229.059,375.200 229.376 M237.800 229.600 C 237.664 229.820,237.923 230.000,238.376 230.000 C 238.829 230.000,239.200 229.820,239.200 229.600 C 239.200 229.380,238.941 229.200,238.624 229.200 C 238.307 229.200,237.936 229.380,237.800 229.600 M241.200 230.237 C 241.200 230.547,241.560 230.800,242.000 230.800 C 242.440 230.800,242.800 230.641,242.800 230.447 C 242.800 230.252,242.440 229.999,242.000 229.884 C 241.480 229.748,241.200 229.872,241.200 230.237 M244.255 231.000 C 244.382 231.330,244.826 231.600,245.243 231.600 C 246.162 231.600,246.243 230.979,245.367 230.643 C 244.347 230.251,244.010 230.359,244.255 231.000 M247.747 231.514 C 247.889 231.744,247.779 232.023,247.502 232.134 C 247.226 232.246,247.420 232.351,247.933 232.368 C 248.910 232.401,248.974 231.591,248.019 231.273 C 247.724 231.175,247.603 231.282,247.747 231.514 M250.302 232.241 C 250.579 232.366,250.703 232.633,250.579 232.834 C 250.455 233.035,250.648 233.200,251.010 233.200 C 251.913 233.200,251.517 232.222,250.567 232.107 C 250.145 232.056,250.026 232.116,250.302 232.241 M252.907 233.364 C 253.664 234.121,254.535 234.206,254.302 233.500 C 254.211 233.225,253.717 232.939,253.204 232.864 C 252.350 232.739,252.325 232.782,252.907 233.364 M255.502 233.866 C 255.779 233.977,255.903 234.233,255.779 234.434 C 255.655 234.635,255.918 234.800,256.364 234.800 C 256.920 234.800,257.103 234.612,256.945 234.200 C 256.818 233.870,256.329 233.614,255.857 233.632 C 255.386 233.649,255.226 233.754,255.502 233.866 M258.337 235.041 C 259.279 235.701,259.883 235.581,259.416 234.827 C 259.271 234.592,258.763 234.400,258.287 234.400 L 257.422 234.400 258.337 235.041 M260.624 235.787 C 261.051 236.110,261.715 236.380,262.100 236.387 C 262.485 236.394,262.800 236.580,262.800 236.800 C 262.800 237.020,263.252 237.200,263.805 237.200 C 264.358 237.200,265.213 237.408,265.705 237.662 C 267.899 238.797,268.000 238.820,268.000 238.203 C 268.000 237.872,267.651 237.600,267.224 237.600 C 266.797 237.600,266.336 237.420,266.200 237.200 C 266.064 236.980,265.524 236.800,265.000 236.800 C 264.476 236.800,263.936 236.620,263.800 236.400 C 263.664 236.180,263.113 236.000,262.576 236.000 C 262.039 236.000,261.600 235.820,261.600 235.600 C 261.600 235.380,261.206 235.200,260.724 235.200 C 259.867 235.200,259.865 235.213,260.624 235.787 M268.800 238.697 C 269.130 238.825,269.985 239.258,270.700 239.658 C 271.788 240.268,272.000 240.290,272.000 239.793 C 272.000 239.467,271.640 239.200,271.200 239.200 C 270.760 239.200,270.400 239.020,270.400 238.800 C 270.400 238.580,269.905 238.414,269.300 238.432 C 268.647 238.450,268.444 238.558,268.800 238.697 M272.800 240.400 C 273.576 240.901,274.000 240.901,274.000 240.400 C 274.000 240.180,273.595 240.003,273.100 240.006 C 272.372 240.011,272.315 240.086,272.800 240.400 M103.600 242.619 C 103.600 243.105,104.823 244.059,105.258 243.914 C 105.506 243.831,105.235 243.453,104.655 243.073 C 104.075 242.693,103.600 242.489,103.600 242.619 M381.200 244.948 C 381.200 245.606,381.918 246.215,382.274 245.859 C 382.396 245.738,382.204 245.347,381.848 244.990 C 381.288 244.431,381.200 244.425,381.200 244.948 M109.200 246.619 C 109.200 246.986,110.299 248.000,110.696 248.000 C 110.890 248.000,111.404 248.315,111.838 248.700 C 113.221 249.926,115.945 252.000,116.173 252.000 C 116.359 252.000,119.218 254.023,120.625 255.151 C 121.475 255.832,122.800 256.420,122.793 256.114 C 122.786 255.833,119.880 253.705,117.944 252.564 C 117.538 252.325,116.875 251.830,116.471 251.464 C 116.067 251.099,115.536 250.800,115.291 250.800 C 115.046 250.800,114.610 250.469,114.323 250.063 C 114.035 249.658,113.350 249.091,112.800 248.804 C 112.250 248.516,111.710 248.168,111.600 248.031 C 111.233 247.574,109.200 246.378,109.200 246.619 M288.000 247.600 C 288.000 247.820,288.360 248.000,288.800 248.000 C 289.240 248.000,289.600 248.180,289.600 248.400 C 289.600 248.620,289.971 248.800,290.424 248.800 C 290.877 248.800,291.136 248.980,291.000 249.200 C 290.862 249.423,291.166 249.600,291.688 249.600 C 292.203 249.600,292.883 249.960,293.200 250.400 C 293.517 250.840,294.082 251.200,294.455 251.200 C 294.828 251.200,295.193 251.335,295.267 251.500 C 295.511 252.050,297.959 253.600,298.584 253.600 C 298.923 253.600,299.200 253.780,299.200 254.000 C 299.200 254.220,299.430 254.400,299.712 254.400 C 299.993 254.400,300.476 254.750,300.785 255.179 C 301.093 255.607,301.493 255.866,301.673 255.755 C 301.853 255.644,302.000 255.713,302.000 255.910 C 302.000 256.106,302.270 256.267,302.600 256.267 C 303.582 256.267,303.284 255.704,302.000 255.136 C 301.340 254.844,300.800 254.469,300.800 254.302 C 300.800 254.136,300.564 254.000,300.275 254.000 C 299.987 254.000,299.364 253.640,298.892 253.200 C 298.420 252.760,297.756 252.400,297.417 252.400 C 297.078 252.400,296.800 252.250,296.800 252.068 C 296.800 251.885,296.305 251.480,295.700 251.168 C 295.095 250.856,294.510 250.511,294.400 250.401 C 293.372 249.369,288.000 247.019,288.000 247.600 M382.255 247.800 C 382.382 248.130,382.646 248.400,382.843 248.400 C 383.039 248.400,383.200 248.130,383.200 247.800 C 383.200 247.470,382.936 247.200,382.613 247.200 C 382.255 247.200,382.115 247.435,382.255 247.800 M382.806 249.476 C 382.803 249.738,382.980 250.064,383.200 250.200 C 383.420 250.336,383.600 250.957,383.600 251.581 C 383.600 252.219,383.862 252.815,384.200 252.945 C 384.866 253.200,385.030 252.590,384.400 252.200 C 384.180 252.064,383.986 251.288,383.968 250.476 C 383.951 249.664,383.839 249.245,383.720 249.545 C 383.537 250.006,383.449 250.006,383.158 249.545 C 382.928 249.182,382.810 249.159,382.806 249.476 M384.492 254.475 C 384.691 255.073,385.600 255.402,385.600 254.876 C 385.600 254.661,385.315 254.376,384.967 254.243 C 384.577 254.093,384.394 254.182,384.492 254.475 M385.226 256.676 C 385.212 257.158,385.380 257.664,385.600 257.800 C 385.820 257.936,386.000 258.476,386.000 259.000 C 386.000 259.524,386.192 260.071,386.427 260.216 C 387.073 260.616,387.302 260.168,386.876 259.339 C 386.667 258.933,386.216 257.970,385.874 257.200 C 385.378 256.086,385.246 255.979,385.226 256.676 M123.200 256.656 C 123.200 256.996,124.500 257.971,124.975 257.987 C 125.182 257.994,124.964 257.640,124.492 257.200 C 123.611 256.379,123.200 256.206,123.200 256.656 M303.600 256.813 C 303.600 257.238,305.266 258.030,305.571 257.749 C 305.768 257.567,304.348 256.432,303.900 256.413 C 303.735 256.406,303.600 256.586,303.600 256.813 M125.600 258.219 C 125.600 258.705,126.823 259.659,127.258 259.514 C 127.506 259.431,127.235 259.053,126.655 258.673 C 126.075 258.293,125.600 258.089,125.600 258.219 M308.400 259.819 C 308.400 260.305,309.623 261.259,310.058 261.114 C 310.306 261.031,310.035 260.653,309.455 260.273 C 308.875 259.893,308.400 259.689,308.400 259.819 M128.800 260.800 C 128.800 261.020,128.990 261.200,129.222 261.200 C 129.454 261.200,130.219 261.739,130.922 262.398 C 131.625 263.057,132.385 263.597,132.612 263.598 C 132.838 263.599,133.283 263.960,133.600 264.400 C 133.917 264.840,134.409 265.200,134.692 265.200 C 134.975 265.200,135.772 265.740,136.463 266.400 C 137.154 267.060,137.962 267.600,138.259 267.600 C 138.557 267.600,138.800 267.741,138.800 267.914 C 138.800 268.086,139.333 268.543,139.985 268.928 C 140.637 269.313,141.406 269.864,141.694 270.151 C 141.982 270.439,143.024 271.181,144.009 271.799 C 144.994 272.417,146.426 273.435,147.191 274.061 C 148.657 275.261,149.200 275.461,149.200 274.800 C 149.200 274.580,148.957 274.400,148.659 274.400 C 148.362 274.400,147.554 273.860,146.863 273.200 C 146.172 272.540,145.460 272.000,145.279 272.000 C 145.099 272.000,144.592 271.685,144.154 271.300 C 143.715 270.915,143.074 270.420,142.729 270.200 C 140.182 268.575,138.000 266.963,138.000 266.706 C 138.000 266.538,137.761 266.400,137.470 266.400 C 137.178 266.400,136.517 265.950,136.000 265.400 C 135.483 264.850,134.850 264.400,134.592 264.400 C 134.335 264.400,133.798 264.040,133.400 263.600 C 133.002 263.160,132.468 262.800,132.213 262.800 C 131.958 262.800,131.232 262.260,130.600 261.600 C 129.421 260.369,128.800 260.093,128.800 260.800 M386.846 262.100 C 386.816 262.832,387.001 263.200,387.400 263.200 C 387.730 263.200,388.000 263.020,388.000 262.800 C 388.000 262.580,387.833 262.400,387.629 262.400 C 387.425 262.400,387.176 262.085,387.076 261.700 C 386.963 261.269,386.875 261.423,386.846 262.100 M311.696 262.500 C 311.786 262.775,312.332 263.231,312.910 263.513 C 313.489 263.795,314.311 264.470,314.739 265.013 C 315.166 265.556,315.637 266.000,315.786 266.000 C 316.259 266.000,317.172 267.094,316.914 267.352 C 316.778 267.489,316.966 267.600,317.333 267.600 C 317.699 267.600,318.741 268.320,319.648 269.200 C 320.555 270.080,321.530 270.800,321.815 270.800 C 322.100 270.800,322.395 270.935,322.471 271.100 C 322.546 271.265,323.156 271.850,323.826 272.400 C 324.496 272.950,324.125 272.500,323.001 271.400 C 318.222 266.720,311.294 261.266,311.696 262.500 M387.632 264.900 C 387.610 265.661,387.800 266.000,388.249 266.000 C 388.712 266.000,388.785 265.857,388.503 265.500 C 388.285 265.225,388.007 264.730,387.885 264.400 C 387.759 264.058,387.650 264.273,387.632 264.900 M388.454 267.500 C 388.402 268.756,388.892 269.223,389.400 268.400 C 389.536 268.180,389.469 268.000,389.251 268.000 C 389.034 268.000,388.778 267.595,388.682 267.100 C 388.557 266.449,388.494 266.560,388.454 267.500 M389.240 270.500 C 389.218 271.325,389.380 272.000,389.600 272.000 C 390.058 272.000,390.058 271.430,389.600 270.000 C 389.314 269.108,389.275 269.161,389.240 270.500 M390.046 273.700 C 389.995 275.377,390.603 275.744,390.896 274.212 C 390.999 273.669,390.944 273.311,390.772 273.417 C 390.601 273.523,390.378 273.293,390.277 272.905 C 390.176 272.517,390.072 272.875,390.046 273.700 M327.080 275.735 C 326.930 276.127,327.022 276.290,327.327 276.173 C 327.594 276.070,328.080 276.366,328.407 276.830 C 328.733 277.294,330.665 279.366,332.700 281.436 C 334.735 283.505,336.400 285.290,336.400 285.403 C 336.400 285.650,338.122 287.641,339.900 289.450 C 340.615 290.178,341.200 290.882,341.200 291.015 C 341.200 291.449,342.432 292.502,342.666 292.268 C 342.791 292.143,342.017 291.116,340.946 289.987 C 339.876 288.858,338.871 287.633,338.713 287.267 C 338.063 285.755,327.322 275.106,327.080 275.735 M390.800 277.976 C 390.800 278.429,390.980 278.800,391.200 278.800 C 391.420 278.800,391.600 278.541,391.600 278.224 C 391.600 277.907,391.420 277.536,391.200 277.400 C 390.980 277.264,390.800 277.523,390.800 277.976 M152.800 277.780 C 152.800 278.257,153.917 279.200,154.483 279.200 C 154.780 279.200,155.283 279.560,155.600 280.000 C 155.917 280.440,156.507 280.800,156.912 280.800 C 157.316 280.800,157.536 280.980,157.400 281.200 C 157.264 281.420,157.367 281.600,157.629 281.600 C 157.892 281.600,158.397 281.916,158.753 282.303 C 159.109 282.689,159.866 283.244,160.436 283.536 C 161.006 283.828,162.086 284.591,162.836 285.232 C 163.586 285.874,164.346 286.399,164.524 286.399 C 164.702 286.400,164.736 286.580,164.600 286.800 C 164.464 287.020,164.650 287.200,165.013 287.200 C 165.377 287.200,166.086 287.515,166.591 287.900 C 167.095 288.285,167.913 288.870,168.409 289.200 C 168.905 289.530,169.736 290.213,170.255 290.718 C 170.913 291.358,171.200 291.463,171.200 291.064 C 171.200 290.749,170.710 290.171,170.110 289.778 C 169.511 289.385,168.667 288.735,168.235 288.332 C 167.803 287.929,167.213 287.600,166.925 287.600 C 166.636 287.600,166.400 287.462,166.400 287.294 C 166.400 287.126,165.680 286.544,164.800 286.000 C 163.920 285.456,163.200 284.886,163.200 284.733 C 163.200 284.579,162.834 284.338,162.387 284.196 C 161.940 284.054,161.164 283.547,160.664 283.069 C 160.163 282.591,159.469 282.020,159.123 281.800 C 158.040 281.113,153.825 278.274,153.300 277.879 C 153.025 277.671,152.800 277.627,152.800 277.780 M392.406 284.900 C 392.403 285.505,392.580 286.000,392.800 286.000 C 393.306 286.000,393.306 285.183,392.800 284.400 C 392.498 283.932,392.411 284.043,392.406 284.900 M393.200 289.200 C 393.200 289.640,393.380 290.000,393.600 290.000 C 393.820 290.000,394.000 289.640,394.000 289.200 C 394.000 288.760,393.820 288.400,393.600 288.400 C 393.380 288.400,393.200 288.760,393.200 289.200 M198.895 289.665 C 198.623 289.937,198.400 290.524,198.400 290.969 C 198.400 291.743,198.427 291.739,199.030 290.879 C 199.758 289.839,199.654 288.906,198.895 289.665 M172.400 292.000 C 172.400 292.220,172.655 292.400,172.967 292.400 C 173.278 292.400,173.614 292.625,173.712 292.900 C 173.810 293.175,174.037 293.263,174.216 293.096 C 174.395 292.929,174.195 292.529,173.771 292.209 C 172.859 291.519,172.400 291.449,172.400 292.000 M394.000 293.376 C 394.000 293.939,394.180 294.400,394.400 294.400 C 394.620 294.400,394.800 294.051,394.800 293.624 C 394.800 293.197,394.620 292.736,394.400 292.600 C 394.173 292.460,394.000 292.796,394.000 293.376 M174.800 293.495 C 174.800 293.884,176.414 294.919,176.651 294.682 C 176.747 294.586,176.369 294.210,175.812 293.845 C 175.256 293.480,174.800 293.322,174.800 293.495 M196.467 295.177 C 194.768 297.291,194.854 297.678,196.600 295.772 C 197.820 294.441,198.310 293.600,197.867 293.600 C 197.794 293.600,197.164 294.309,196.467 295.177 M344.224 294.800 C 344.606 295.570,345.252 296.491,345.659 296.847 C 346.067 297.203,346.400 297.745,346.400 298.052 C 346.400 298.359,346.847 298.946,347.392 299.355 C 347.938 299.765,348.271 300.286,348.131 300.512 C 347.984 300.749,348.072 300.803,348.338 300.638 C 348.769 300.372,349.018 301.189,348.814 302.200 C 348.770 302.420,348.860 302.474,349.014 302.319 C 349.358 301.975,350.014 302.640,350.764 304.093 C 351.074 304.695,351.659 305.542,352.064 305.977 C 352.469 306.411,352.800 306.954,352.800 307.183 C 352.800 307.412,352.980 307.600,353.200 307.600 C 353.420 307.600,353.600 307.870,353.600 308.200 C 353.600 308.530,353.774 308.800,353.987 308.800 C 354.202 308.800,354.242 308.489,354.077 308.100 C 353.525 306.796,351.923 304.400,351.604 304.400 C 351.429 304.400,351.174 303.950,351.036 303.400 C 350.898 302.850,350.608 302.400,350.392 302.400 C 350.177 302.400,350.000 302.164,350.000 301.875 C 350.000 301.587,349.685 300.996,349.300 300.562 C 348.017 299.114,346.000 296.450,346.000 296.202 C 346.000 296.067,345.444 295.381,344.765 294.678 L 343.530 293.400 344.224 294.800 M177.594 295.792 C 177.871 296.127,178.346 296.400,178.649 296.400 C 178.952 296.400,179.200 296.550,179.200 296.732 C 179.200 296.915,179.644 297.302,180.186 297.593 C 180.729 297.883,181.078 298.273,180.963 298.460 C 180.847 298.647,181.033 298.800,181.376 298.800 C 182.396 298.800,182.083 298.272,180.309 297.000 C 178.216 295.500,176.844 294.889,177.594 295.792 M394.800 297.776 C 394.800 298.339,394.980 298.800,395.200 298.800 C 395.420 298.800,395.600 298.451,395.600 298.024 C 395.600 297.597,395.420 297.136,395.200 297.000 C 394.973 296.860,394.800 297.196,394.800 297.776 M193.275 297.925 C 192.876 298.324,192.381 298.597,192.175 298.532 C 191.600 298.350,190.582 299.116,190.933 299.467 C 191.104 299.637,191.394 299.534,191.577 299.237 C 191.760 298.940,192.090 298.809,192.310 298.944 C 192.530 299.080,192.932 298.923,193.204 298.596 C 193.476 298.268,193.946 298.000,194.249 298.000 C 194.552 298.000,194.800 297.820,194.800 297.600 C 194.800 296.974,194.071 297.129,193.275 297.925 M182.626 298.758 C 182.504 298.955,182.699 299.229,183.060 299.368 C 183.838 299.666,184.183 299.420,183.816 298.827 C 183.495 298.306,182.925 298.274,182.626 298.758 M185.800 299.578 C 186.240 299.755,186.735 299.822,186.900 299.726 C 187.065 299.631,187.200 299.743,187.200 299.976 C 187.200 300.209,187.391 300.400,187.624 300.400 C 187.857 300.400,187.943 300.232,187.816 300.026 C 187.689 299.820,188.173 299.579,188.892 299.490 C 189.612 299.401,189.030 299.312,187.600 299.292 C 185.923 299.269,185.284 299.370,185.800 299.578 M395.510 302.223 C 395.188 302.545,395.628 304.000,396.047 304.000 C 396.241 304.000,396.400 303.550,396.400 303.000 C 396.400 302.059,396.013 301.721,395.510 302.223 M396.020 307.200 C 396.008 308.589,396.424 310.000,396.847 310.000 C 397.388 310.000,397.240 308.320,396.600 307.200 L 396.028 306.200 396.020 307.200 M354.400 309.800 C 354.400 310.130,354.692 310.400,355.049 310.400 C 355.580 310.400,355.608 310.291,355.200 309.800 C 354.926 309.470,354.634 309.200,354.551 309.200 C 354.468 309.200,354.400 309.470,354.400 309.800 M355.500 311.065 C 355.775 311.176,356.000 311.612,356.000 312.033 C 356.000 312.455,356.180 312.800,356.400 312.800 C 356.907 312.800,356.904 312.541,356.386 311.574 C 356.158 311.148,355.753 310.814,355.486 310.832 C 355.120 310.855,355.123 310.913,355.500 311.065 M396.846 313.250 C 396.768 314.354,397.282 316.400,397.638 316.400 C 397.824 316.400,397.952 315.777,397.924 315.016 C 397.895 314.255,397.734 313.717,397.566 313.821 C 397.398 313.925,397.178 313.693,397.077 313.305 C 396.923 312.717,396.885 312.708,396.846 313.250 M356.800 313.800 C 356.800 314.130,356.980 314.400,357.200 314.400 C 357.420 314.400,357.600 314.130,357.600 313.800 C 357.600 313.470,357.420 313.200,357.200 313.200 C 356.980 313.200,356.800 313.470,356.800 313.800 M357.700 315.290 C 357.856 316.056,358.807 316.929,359.119 316.593 C 359.274 316.427,359.175 316.210,358.900 316.112 C 358.625 316.014,358.400 315.678,358.400 315.367 C 358.400 315.055,358.220 314.800,358.000 314.800 C 357.780 314.800,357.645 315.021,357.700 315.290 M360.000 319.400 C 360.000 319.730,360.180 320.000,360.400 320.000 C 360.620 320.000,360.800 319.730,360.800 319.400 C 360.800 319.070,360.620 318.800,360.400 318.800 C 360.180 318.800,360.000 319.070,360.000 319.400 M360.800 320.646 C 360.800 320.781,361.225 321.726,361.745 322.746 C 364.124 327.417,365.200 329.755,365.200 330.256 C 365.200 330.555,365.368 330.800,365.573 330.800 C 365.779 330.800,366.004 331.281,366.073 331.869 C 366.209 333.016,367.200 333.688,367.200 332.633 C 367.200 332.285,367.020 332.000,366.800 332.000 C 366.580 332.000,366.400 331.651,366.400 331.224 C 366.400 330.797,366.220 330.336,366.000 330.200 C 365.780 330.064,365.600 329.603,365.600 329.176 C 365.600 328.749,365.420 328.400,365.200 328.400 C 364.980 328.400,364.800 328.040,364.800 327.600 C 364.800 327.160,364.620 326.800,364.400 326.800 C 364.180 326.800,364.000 326.440,364.000 326.000 C 364.000 325.560,363.820 325.200,363.600 325.200 C 363.380 325.200,363.200 324.840,363.200 324.400 C 363.200 323.960,363.020 323.600,362.800 323.600 C 362.580 323.600,362.400 323.240,362.400 322.800 C 362.400 322.360,362.220 322.000,362.000 322.000 C 361.780 322.000,361.600 321.640,361.600 321.200 C 361.600 320.760,361.420 320.400,361.200 320.400 C 360.980 320.400,360.800 320.511,360.800 320.646 M397.846 322.100 C 398.125 323.949,398.800 325.103,398.800 323.730 C 398.800 322.292,398.314 320.400,397.945 320.400 C 397.750 320.400,397.706 321.165,397.846 322.100 M398.490 329.800 C 398.485 332.969,398.720 334.400,399.248 334.400 C 399.447 334.400,399.584 333.230,399.553 331.800 C 399.522 330.370,399.352 329.200,399.175 329.200 C 398.998 329.200,398.773 328.705,398.674 328.100 C 398.576 327.495,398.493 328.260,398.490 329.800 M366.800 334.167 C 366.800 334.478,366.988 334.796,367.218 334.873 C 367.448 334.949,367.665 335.402,367.701 335.878 C 367.737 336.355,367.909 336.656,368.083 336.549 C 368.257 336.441,368.400 336.573,368.400 336.843 C 368.400 337.113,368.520 337.213,368.667 337.066 C 368.814 336.919,368.741 336.394,368.504 335.899 C 368.266 335.405,367.972 334.685,367.849 334.300 C 367.581 333.462,366.800 333.363,366.800 334.167 M368.400 337.795 C 368.400 337.939,368.689 338.347,369.043 338.700 C 369.634 339.291,369.675 339.283,369.543 338.605 C 369.411 337.922,368.400 337.206,368.400 337.795 M399.291 343.200 C 399.273 345.950,399.403 349.010,399.580 350.000 C 400.006 352.397,400.036 344.549,399.614 340.800 C 399.362 338.557,399.318 338.887,399.291 343.200 M369.200 340.200 C 369.200 340.567,369.394 340.802,369.630 340.723 C 369.867 340.645,370.060 340.409,370.060 340.200 C 370.060 339.991,369.867 339.755,369.630 339.677 C 369.394 339.598,369.200 339.833,369.200 340.200 M370.957 344.633 C 371.091 344.981,371.200 345.351,371.200 345.456 C 371.200 345.561,371.372 345.541,371.583 345.411 C 372.047 345.124,371.674 344.000,371.114 344.000 C 370.894 344.000,370.824 344.285,370.957 344.633 M371.692 346.875 C 371.779 347.136,372.064 347.421,372.325 347.508 C 372.618 347.606,372.707 347.423,372.557 347.033 C 372.278 346.306,371.452 346.155,371.692 346.875 M373.200 352.200 C 373.200 352.530,373.380 352.800,373.600 352.800 C 373.820 352.800,374.000 352.530,374.000 352.200 C 374.000 351.870,373.820 351.600,373.600 351.600 C 373.380 351.600,373.200 351.870,373.200 352.200 M374.000 355.000 C 374.000 355.330,374.180 355.600,374.400 355.600 C 374.620 355.600,374.800 355.330,374.800 355.000 C 374.800 354.670,374.620 354.400,374.400 354.400 C 374.180 354.400,374.000 354.670,374.000 355.000 M374.800 358.200 C 374.800 358.530,374.980 358.800,375.200 358.800 C 375.420 358.800,375.600 358.530,375.600 358.200 C 375.600 357.870,375.420 357.600,375.200 357.600 C 374.980 357.600,374.800 357.870,374.800 358.200 M375.600 362.000 C 375.835 362.440,376.112 362.800,376.214 362.800 C 376.316 362.800,376.400 362.440,376.400 362.000 C 376.400 361.547,376.133 361.200,375.786 361.200 C 375.296 361.200,375.258 361.361,375.600 362.000 M376.255 365.800 C 376.382 366.130,376.646 366.400,376.843 366.400 C 377.039 366.400,377.200 366.130,377.200 365.800 C 377.200 365.470,376.936 365.200,376.613 365.200 C 376.255 365.200,376.115 365.435,376.255 365.800 M399.467 365.467 C 399.320 365.613,399.200 366.156,399.200 366.672 C 399.200 367.900,398.545 369.031,396.664 371.053 C 395.559 372.240,395.266 372.794,395.624 373.015 C 395.935 373.207,396.023 373.160,395.856 372.891 C 395.709 372.652,395.951 372.343,396.394 372.202 C 396.837 372.061,397.200 371.728,397.200 371.461 C 397.200 371.195,397.560 370.717,398.000 370.400 C 398.440 370.083,398.800 369.503,398.800 369.112 C 398.800 368.720,398.956 368.400,399.148 368.400 C 399.339 368.400,399.603 367.734,399.735 366.921 C 399.985 365.381,399.918 365.016,399.467 365.467 M378.063 369.813 C 378.198 370.586,380.759 372.974,381.094 372.639 C 381.188 372.545,380.514 371.694,379.595 370.747 C 378.388 369.503,377.963 369.244,378.063 369.813 M381.823 373.316 C 381.932 373.600,382.543 374.030,383.180 374.270 C 384.127 374.628,384.301 374.606,384.127 374.154 C 384.010 373.849,383.574 373.600,383.157 373.600 C 382.741 373.600,382.400 373.420,382.400 373.200 C 382.400 372.980,382.226 372.800,382.013 372.800 C 381.799 372.800,381.714 373.032,381.823 373.316 M385.600 374.800 C 385.600 375.020,386.050 375.200,386.600 375.200 C 387.150 375.200,387.600 375.020,387.600 374.800 C 387.600 374.580,387.150 374.400,386.600 374.400 C 386.050 374.400,385.600 374.580,385.600 374.800 M389.400 374.800 C 389.260 375.027,389.596 375.200,390.176 375.200 C 390.739 375.200,391.200 375.020,391.200 374.800 C 391.200 374.580,390.851 374.400,390.424 374.400 C 389.997 374.400,389.536 374.580,389.400 374.800 " stroke="none" fill="#3c94fc" fill-rule="evenodd"></path><path id="path4" d="M330.055 162.167 C 330.800 162.805,331.959 163.159,331.781 162.694 C 331.670 162.405,331.203 162.140,330.744 162.106 C 330.285 162.071,329.975 162.099,330.055 162.167 M332.400 163.733 C 332.400 163.861,333.943 165.548,335.829 167.482 C 337.714 169.417,339.823 171.810,340.514 172.800 C 342.029 174.969,343.569 176.564,343.864 176.269 C 343.983 176.150,343.477 175.437,342.740 174.685 C 342.003 173.932,341.130 172.902,340.800 172.395 C 339.166 169.887,332.400 162.910,332.400 163.733 M2.855 171.335 C 2.935 171.385,3.315 171.667,3.700 171.962 C 4.289 172.413,4.400 172.409,4.400 171.934 C 4.400 171.624,4.020 171.342,3.555 171.307 C 3.090 171.272,2.775 171.284,2.855 171.335 M4.559 172.900 C 4.401 173.175,4.412 173.274,4.583 173.119 C 4.755 172.965,5.157 173.100,5.476 173.419 C 5.796 173.739,6.252 174.000,6.490 174.000 C 6.728 174.000,6.507 173.640,6.000 173.200 C 4.912 172.256,4.928 172.259,4.559 172.900 M7.292 174.475 C 7.491 175.073,8.400 175.402,8.400 174.876 C 8.400 174.661,8.115 174.376,7.767 174.243 C 7.377 174.093,7.194 174.182,7.292 174.475 M9.200 175.551 C 9.200 175.798,9.391 176.000,9.624 176.000 C 9.857 176.000,9.936 176.180,9.800 176.400 C 9.664 176.620,9.818 176.800,10.143 176.800 C 10.468 176.800,10.814 177.025,10.912 177.300 C 11.010 177.575,11.227 177.674,11.393 177.519 C 11.689 177.243,11.291 176.746,9.898 175.651 C 9.441 175.292,9.200 175.257,9.200 175.551 M345.600 178.689 C 345.600 179.192,346.743 180.190,347.012 179.921 C 347.118 179.815,346.844 179.402,346.402 179.002 C 345.961 178.603,345.600 178.462,345.600 178.689 M14.400 179.453 C 14.400 179.779,16.508 181.599,16.887 181.600 C 17.044 181.600,16.645 181.060,16.000 180.400 C 14.845 179.218,14.400 178.955,14.400 179.453 M17.600 181.829 C 17.600 182.253,18.836 183.297,19.067 183.067 C 19.192 182.941,19.017 182.560,18.676 182.219 C 18.041 181.584,17.600 181.424,17.600 181.829 M348.000 181.938 C 348.000 182.124,348.373 182.614,348.830 183.027 C 349.433 183.573,349.624 183.619,349.530 183.198 C 349.298 182.165,348.000 181.095,348.000 181.938 M20.000 183.425 C 20.000 183.787,20.928 184.626,21.908 185.151 C 22.482 185.458,22.800 185.481,22.800 185.214 C 22.800 184.986,22.530 184.800,22.200 184.800 C 21.870 184.800,21.600 184.663,21.600 184.496 C 21.600 184.329,21.240 183.968,20.800 183.693 C 20.360 183.418,20.000 183.298,20.000 183.425 M349.600 184.218 C 349.600 184.632,351.649 186.484,351.867 186.267 C 351.987 186.147,351.624 185.588,351.061 185.024 C 350.065 184.028,349.600 183.772,349.600 184.218 M23.802 186.402 C 24.202 186.844,24.611 187.122,24.712 187.021 C 24.928 186.805,23.788 185.600,23.367 185.600 C 23.207 185.600,23.403 185.961,23.802 186.402 M25.600 187.548 C 25.600 188.097,26.703 188.881,26.939 188.499 C 27.054 188.313,26.800 187.943,26.374 187.677 C 25.948 187.411,25.600 187.353,25.600 187.548 M28.598 189.604 C 28.460 189.826,28.913 190.321,29.604 190.704 C 30.294 191.087,31.333 191.798,31.912 192.284 C 33.006 193.202,33.718 193.232,32.738 192.319 C 30.933 190.639,28.816 189.250,28.598 189.604 M355.705 192.258 C 355.772 192.692,356.219 193.468,356.699 193.984 C 357.179 194.499,357.512 195.029,357.437 195.161 C 357.363 195.292,357.639 195.746,358.051 196.170 C 359.303 197.457,358.890 196.335,357.192 193.835 C 356.308 192.534,355.639 191.825,355.705 192.258 M34.000 193.429 C 34.000 193.853,35.236 194.897,35.467 194.667 C 35.592 194.541,35.417 194.160,35.076 193.819 C 34.441 193.184,34.000 193.024,34.000 193.429 M36.400 195.018 C 36.400 195.440,38.369 197.200,38.841 197.200 C 39.104 197.200,38.754 196.660,38.063 196.000 C 36.841 194.832,36.400 194.572,36.400 195.018 M39.600 197.429 C 39.600 197.853,40.836 198.897,41.067 198.667 C 41.192 198.541,41.017 198.160,40.676 197.819 C 40.041 197.184,39.600 197.024,39.600 197.429 M42.000 199.128 C 42.000 199.594,44.031 201.302,44.285 201.049 C 44.567 200.766,43.376 199.600,42.805 199.600 C 42.556 199.600,42.464 199.420,42.600 199.200 C 42.736 198.980,42.657 198.800,42.424 198.800 C 42.191 198.800,42.000 198.948,42.000 199.128 M359.600 199.029 C 359.600 199.453,360.836 200.497,361.067 200.267 C 361.192 200.141,361.017 199.760,360.676 199.419 C 360.041 198.784,359.600 198.624,359.600 199.029 M44.800 201.456 C 44.800 201.791,46.097 202.771,46.562 202.787 C 46.761 202.794,46.598 202.440,46.200 202.000 C 45.491 201.216,44.800 200.948,44.800 201.456 M47.200 203.059 C 47.200 203.455,48.826 204.754,49.648 205.015 C 50.061 205.146,50.400 205.452,50.400 205.694 C 50.400 205.935,50.517 206.016,50.660 205.873 C 50.804 205.730,51.158 205.925,51.448 206.306 C 51.876 206.870,51.976 206.888,51.985 206.400 C 51.990 206.070,51.501 205.502,50.897 205.137 C 50.294 204.772,49.215 204.100,48.500 203.643 C 47.785 203.186,47.200 202.923,47.200 203.059 M52.632 206.906 C 52.905 207.574,54.800 208.933,55.075 208.658 C 55.334 208.400,54.527 207.603,53.299 206.906 C 52.609 206.514,52.471 206.514,52.632 206.906 M364.400 206.887 C 364.400 207.232,364.696 207.628,365.057 207.767 C 365.986 208.123,366.011 207.918,365.148 207.030 C 364.529 206.393,364.400 206.369,364.400 206.887 M56.000 209.104 C 56.000 209.271,56.360 209.632,56.800 209.907 C 57.730 210.488,57.854 210.197,57.029 209.371 C 56.398 208.741,56.000 208.637,56.000 209.104 M59.200 211.429 C 59.200 211.727,60.275 212.800,60.575 212.800 C 60.702 212.800,60.582 212.440,60.307 212.000 C 59.838 211.249,59.200 210.920,59.200 211.429 M61.200 213.200 C 61.200 213.420,61.481 213.600,61.824 213.600 C 62.167 213.600,62.336 213.780,62.200 214.000 C 62.064 214.220,62.143 214.400,62.376 214.400 C 62.940 214.400,62.913 213.873,62.320 213.280 C 61.736 212.696,61.200 212.658,61.200 213.200 M368.400 214.200 C 368.400 214.530,368.580 214.800,368.800 214.800 C 369.020 214.800,369.200 214.530,369.200 214.200 C 369.200 213.870,369.020 213.600,368.800 213.600 C 368.580 213.600,368.400 213.870,368.400 214.200 M63.600 214.653 C 63.600 215.061,65.308 216.425,65.535 216.198 C 65.649 216.085,65.357 215.633,64.888 215.196 C 64.012 214.380,63.600 214.206,63.600 214.653 M370.805 218.809 C 371.301 219.736,371.600 219.824,371.600 219.043 C 371.600 218.736,371.326 218.380,370.991 218.252 C 370.494 218.061,370.459 218.164,370.805 218.809 M69.200 218.619 C 69.200 218.916,71.328 220.772,71.687 220.787 C 71.844 220.794,71.445 220.260,70.800 219.600 C 69.670 218.444,69.200 218.156,69.200 218.619 M371.426 220.358 C 371.304 220.555,371.474 220.819,371.802 220.946 C 372.165 221.085,372.400 220.944,372.400 220.587 C 372.400 219.940,371.775 219.793,371.426 220.358 M72.400 221.029 C 72.400 221.396,73.370 222.189,73.984 222.325 C 74.295 222.394,74.831 222.756,75.175 223.130 C 75.966 223.992,79.221 226.112,79.431 225.903 C 79.595 225.738,76.764 223.559,74.640 222.216 C 73.958 221.785,73.340 221.290,73.267 221.116 C 73.114 220.755,72.400 220.683,72.400 221.029 M372.400 221.820 C 372.400 222.117,373.589 224.400,373.744 224.400 C 373.811 224.400,373.867 224.130,373.867 223.800 C 373.867 223.470,373.717 223.200,373.533 223.200 C 373.350 223.200,373.200 222.840,373.200 222.400 C 373.200 221.960,373.020 221.600,372.800 221.600 C 372.580 221.600,372.400 221.699,372.400 221.820 M207.600 225.600 C 207.600 225.820,208.489 226.000,209.576 226.000 C 210.663 226.000,211.664 225.820,211.800 225.600 C 211.953 225.352,211.204 225.200,209.824 225.200 C 208.601 225.200,207.600 225.380,207.600 225.600 M80.000 226.204 C 80.000 226.601,82.117 228.417,82.330 228.203 C 82.500 228.033,81.922 227.413,80.698 226.451 C 80.314 226.149,80.000 226.038,80.000 226.204 M216.200 226.400 C 216.336 226.620,217.077 226.800,217.847 226.800 C 218.679 226.800,219.147 226.638,219.000 226.400 C 218.864 226.180,218.123 226.000,217.353 226.000 C 216.521 226.000,216.053 226.162,216.200 226.400 M222.200 227.200 C 222.336 227.420,222.977 227.600,223.624 227.600 C 224.271 227.600,224.800 227.420,224.800 227.200 C 224.800 226.980,224.159 226.800,223.376 226.800 C 222.529 226.800,222.053 226.962,222.200 227.200 M227.451 228.083 C 227.733 228.538,229.107 228.474,229.405 227.991 C 229.560 227.742,229.191 227.618,228.457 227.674 C 227.796 227.725,227.344 227.909,227.451 228.083 M83.200 228.656 C 83.200 228.996,84.500 229.971,84.975 229.987 C 85.182 229.994,84.964 229.640,84.492 229.200 C 83.611 228.379,83.200 228.206,83.200 228.656 M231.600 228.739 C 231.600 228.926,232.143 229.094,232.807 229.113 C 233.471 229.131,233.911 228.979,233.784 228.773 C 233.495 228.307,231.600 228.277,231.600 228.739 M235.800 229.600 C 235.936 229.820,236.386 230.000,236.800 230.000 C 237.214 230.000,237.664 229.820,237.800 229.600 C 237.945 229.366,237.530 229.200,236.800 229.200 C 236.070 229.200,235.655 229.366,235.800 229.600 M85.600 230.187 C 85.600 230.544,87.285 231.969,87.729 231.987 C 88.068 232.000,87.516 231.408,86.298 230.451 C 85.914 230.149,85.600 230.030,85.600 230.187 M239.600 230.400 C 239.600 230.620,239.960 230.800,240.400 230.800 C 240.840 230.800,241.200 230.620,241.200 230.400 C 241.200 230.180,240.840 230.000,240.400 230.000 C 239.960 230.000,239.600 230.180,239.600 230.400 M376.000 230.600 C 376.000 230.930,376.180 231.200,376.400 231.200 C 376.620 231.200,376.800 230.930,376.800 230.600 C 376.800 230.270,376.620 230.000,376.400 230.000 C 376.180 230.000,376.000 230.270,376.000 230.600 M242.800 231.200 C 242.800 231.420,243.160 231.600,243.600 231.600 C 244.040 231.600,244.400 231.420,244.400 231.200 C 244.400 230.980,244.040 230.800,243.600 230.800 C 243.160 230.800,242.800 230.980,242.800 231.200 M246.400 232.000 C 246.400 232.501,246.824 232.501,247.600 232.000 C 248.085 231.686,248.028 231.611,247.300 231.606 C 246.805 231.603,246.400 231.780,246.400 232.000 M376.800 232.376 C 376.800 232.829,376.980 233.200,377.200 233.200 C 377.420 233.200,377.600 232.941,377.600 232.624 C 377.600 232.307,377.420 231.936,377.200 231.800 C 376.980 231.664,376.800 231.923,376.800 232.376 M88.800 232.757 C 88.800 232.954,89.085 233.224,89.433 233.357 C 90.411 233.733,90.508 233.651,89.857 233.000 C 89.177 232.320,88.800 232.233,88.800 232.757 M249.339 232.854 C 249.868 233.161,250.202 233.158,250.519 232.841 C 250.840 232.520,250.641 232.403,249.780 232.412 C 248.746 232.423,248.691 232.477,249.339 232.854 M252.000 233.600 C 252.000 233.820,252.270 234.000,252.600 234.000 C 252.930 234.000,253.200 233.820,253.200 233.600 C 253.200 233.380,252.930 233.200,252.600 233.200 C 252.270 233.200,252.000 233.380,252.000 233.600 M91.200 234.253 C 91.200 234.610,93.331 236.402,93.525 236.208 C 93.702 236.031,91.764 234.000,91.418 234.000 C 91.298 234.000,91.200 234.114,91.200 234.253 M254.720 234.480 C 255.093 234.853,255.307 234.853,255.680 234.480 C 256.053 234.107,255.947 234.000,255.200 234.000 C 254.453 234.000,254.347 234.107,254.720 234.480 M256.800 235.200 C 256.800 235.420,257.261 235.600,257.824 235.600 C 258.404 235.600,258.740 235.427,258.600 235.200 C 258.464 234.980,258.003 234.800,257.576 234.800 C 257.149 234.800,256.800 234.980,256.800 235.200 M259.800 236.000 C 259.936 236.220,260.317 236.400,260.647 236.400 C 260.977 236.400,261.136 236.220,261.000 236.000 C 260.864 235.780,260.483 235.600,260.153 235.600 C 259.823 235.600,259.664 235.780,259.800 236.000 M94.708 237.200 C 95.180 237.640,95.677 238.000,95.812 238.000 C 95.947 238.000,96.308 238.225,96.615 238.500 C 97.981 239.725,98.399 239.999,98.883 239.987 C 99.184 239.980,99.066 239.730,98.600 239.388 C 98.160 239.066,97.365 238.487,96.834 238.101 C 96.303 237.716,95.641 237.175,95.363 236.900 C 95.085 236.625,94.630 236.400,94.353 236.400 C 94.066 236.400,94.219 236.744,94.708 237.200 M264.200 237.600 C 265.301 238.073,265.692 238.073,265.400 237.600 C 265.264 237.380,264.758 237.213,264.276 237.228 C 263.431 237.255,263.429 237.269,264.200 237.600 M379.200 238.376 C 379.200 238.829,379.380 239.200,379.600 239.200 C 379.820 239.200,380.000 238.941,380.000 238.624 C 380.000 238.307,379.820 237.936,379.600 237.800 C 379.380 237.664,379.200 237.923,379.200 238.376 M268.400 238.995 C 268.400 239.272,271.289 240.444,271.486 240.247 C 271.576 240.157,271.071 239.795,270.363 239.442 C 269.060 238.791,268.400 238.641,268.400 238.995 M380.000 240.153 C 380.000 240.483,380.180 240.864,380.400 241.000 C 380.620 241.136,380.800 240.977,380.800 240.647 C 380.800 240.317,380.620 239.936,380.400 239.800 C 380.180 239.664,380.000 239.823,380.000 240.153 M99.600 240.167 C 99.600 240.588,100.805 241.728,101.021 241.512 C 101.122 241.411,100.844 241.002,100.402 240.602 C 99.961 240.203,99.600 240.007,99.600 240.167 M275.600 242.085 C 275.600 242.258,275.960 242.400,276.400 242.400 C 276.840 242.400,277.200 242.231,277.200 242.025 C 277.200 241.819,276.840 241.677,276.400 241.710 C 275.960 241.743,275.600 241.912,275.600 242.085 M102.800 242.629 C 102.800 243.053,104.036 244.097,104.267 243.867 C 104.392 243.741,104.217 243.360,103.876 243.019 C 103.241 242.384,102.800 242.224,102.800 242.629 M279.200 243.600 C 279.200 243.820,279.470 244.000,279.800 244.000 C 280.130 244.000,280.400 243.820,280.400 243.600 C 280.400 243.380,280.130 243.200,279.800 243.200 C 279.470 243.200,279.200 243.380,279.200 243.600 M105.200 244.229 C 105.200 244.653,106.436 245.697,106.667 245.467 C 106.792 245.341,106.617 244.960,106.276 244.619 C 105.641 243.984,105.200 243.824,105.200 244.229 M280.800 244.400 C 280.800 244.620,281.070 244.800,281.400 244.800 C 281.730 244.800,282.000 244.620,282.000 244.400 C 282.000 244.180,281.730 244.000,281.400 244.000 C 281.070 244.000,280.800 244.180,280.800 244.400 M282.400 245.200 C 282.400 245.420,282.670 245.600,283.000 245.600 C 283.330 245.600,283.600 245.420,283.600 245.200 C 283.600 244.980,283.330 244.800,283.000 244.800 C 282.670 244.800,282.400 244.980,282.400 245.200 M382.400 246.600 C 382.400 246.930,382.580 247.200,382.800 247.200 C 383.020 247.200,383.200 246.930,383.200 246.600 C 383.200 246.270,383.020 246.000,382.800 246.000 C 382.580 246.000,382.400 246.270,382.400 246.600 M108.400 246.704 C 108.400 246.871,108.760 247.232,109.200 247.507 C 110.130 248.088,110.254 247.797,109.429 246.971 C 108.798 246.341,108.400 246.237,108.400 246.704 M110.400 248.304 C 110.400 248.741,112.034 249.699,112.310 249.424 C 112.437 249.296,112.195 248.929,111.771 248.609 C 110.912 247.959,110.400 247.845,110.400 248.304 M383.212 249.020 C 383.223 250.054,383.277 250.109,383.654 249.461 C 383.961 248.932,383.958 248.598,383.641 248.281 C 383.320 247.960,383.203 248.159,383.212 249.020 M112.800 249.804 C 112.800 250.180,114.884 251.999,115.316 252.000 C 115.489 252.000,115.309 251.680,114.916 251.288 C 113.790 250.168,112.800 249.474,112.800 249.804 M292.351 250.440 C 292.847 250.902,293.352 251.181,293.474 251.059 C 293.778 250.755,292.574 249.600,291.953 249.600 C 291.674 249.600,291.852 249.975,292.351 250.440 M384.000 251.176 C 384.000 251.603,384.180 252.064,384.400 252.200 C 384.627 252.340,384.800 252.004,384.800 251.424 C 384.800 250.861,384.620 250.400,384.400 250.400 C 384.180 250.400,384.000 250.749,384.000 251.176 M116.000 252.229 C 116.000 252.647,117.136 253.600,117.633 253.600 C 117.943 253.600,117.857 253.305,117.400 252.800 C 116.707 252.034,116.000 251.746,116.000 252.229 M295.600 252.242 C 295.600 252.573,296.877 253.570,297.324 253.587 C 297.502 253.594,297.537 253.421,297.401 253.202 C 297.080 252.682,295.600 251.893,295.600 252.242 M384.800 253.600 C 384.800 254.040,384.969 254.400,385.175 254.400 C 385.381 254.400,385.523 254.040,385.490 253.600 C 385.457 253.160,385.288 252.800,385.115 252.800 C 384.942 252.800,384.800 253.160,384.800 253.600 M118.400 253.844 C 118.400 254.189,120.034 255.600,120.433 255.600 C 120.603 255.600,120.981 255.825,121.273 256.100 C 122.753 257.496,123.200 257.722,123.200 257.076 C 123.200 256.734,122.841 256.340,122.402 256.201 C 121.964 256.062,121.379 255.732,121.102 255.469 C 120.292 254.696,118.400 253.558,118.400 253.844 M298.000 254.000 C 298.000 254.220,298.270 254.400,298.600 254.400 C 298.930 254.400,299.200 254.220,299.200 254.000 C 299.200 253.780,298.930 253.600,298.600 253.600 C 298.270 253.600,298.000 253.780,298.000 254.000 M299.600 254.704 C 299.600 254.871,299.960 255.232,300.400 255.507 C 301.330 256.088,301.454 255.797,300.629 254.971 C 299.998 254.341,299.600 254.237,299.600 254.704 M385.606 255.876 C 385.609 256.274,385.787 256.870,386.000 257.200 C 386.303 257.669,386.389 257.566,386.394 256.724 C 386.397 256.132,386.220 255.536,386.000 255.400 C 385.780 255.264,385.603 255.478,385.606 255.876 M302.245 256.288 C 302.009 256.525,303.162 257.564,303.687 257.587 C 303.846 257.594,303.877 257.344,303.757 257.031 C 303.509 256.386,302.596 255.937,302.245 256.288 M304.400 257.957 C 304.400 258.401,305.631 258.903,305.946 258.588 C 306.073 258.461,305.912 258.189,305.588 257.984 C 304.840 257.511,304.400 257.501,304.400 257.957 M124.800 258.229 C 124.800 258.527,125.875 259.600,126.175 259.600 C 126.302 259.600,126.182 259.240,125.907 258.800 C 125.438 258.049,124.800 257.720,124.800 258.229 M306.800 259.018 C 306.800 259.432,308.849 261.284,309.067 261.067 C 309.187 260.947,308.824 260.388,308.261 259.824 C 307.265 258.828,306.800 258.572,306.800 259.018 M127.400 260.400 C 128.182 261.264,128.800 261.441,128.800 260.800 C 128.800 260.580,128.519 260.400,128.176 260.400 C 127.833 260.400,127.664 260.220,127.800 260.000 C 127.936 259.780,127.739 259.600,127.362 259.600 C 126.727 259.600,126.730 259.659,127.400 260.400 M387.200 261.376 C 387.200 261.939,387.380 262.400,387.600 262.400 C 387.820 262.400,388.000 262.051,388.000 261.624 C 388.000 261.197,387.820 260.736,387.600 260.600 C 387.373 260.460,387.200 260.796,387.200 261.376 M129.200 261.419 C 129.200 261.772,131.362 263.574,131.800 263.586 C 132.020 263.591,131.625 263.057,130.922 262.398 C 129.684 261.238,129.200 260.963,129.200 261.419 M309.600 261.600 C 309.600 261.820,309.860 262.000,310.177 262.000 C 310.495 262.000,311.031 262.394,311.368 262.876 C 311.706 263.358,312.068 263.665,312.175 263.559 C 312.281 263.452,311.949 262.878,311.437 262.283 C 310.501 261.193,309.600 260.858,309.600 261.600 M132.400 263.904 C 132.400 264.071,132.760 264.432,133.200 264.707 C 134.130 265.288,134.254 264.997,133.429 264.171 C 132.798 263.541,132.400 263.437,132.400 263.904 M312.800 264.000 C 312.800 264.220,313.100 264.400,313.467 264.400 C 313.833 264.400,314.022 264.511,313.886 264.648 C 313.750 264.784,313.908 265.165,314.238 265.495 C 315.249 266.506,315.399 265.664,314.399 264.598 C 313.417 263.553,312.800 263.323,312.800 264.000 M388.000 264.376 C 388.000 264.803,388.180 265.264,388.400 265.400 C 388.627 265.540,388.800 265.204,388.800 264.624 C 388.800 264.061,388.620 263.600,388.400 263.600 C 388.180 263.600,388.000 263.949,388.000 264.376 M134.800 265.453 C 134.800 265.814,136.928 267.599,137.359 267.600 C 137.557 267.600,137.154 267.060,136.463 266.400 C 135.213 265.206,134.800 264.970,134.800 265.453 M388.800 266.976 C 388.800 267.539,388.980 268.000,389.200 268.000 C 389.420 268.000,389.600 267.651,389.600 267.224 C 389.600 266.797,389.420 266.336,389.200 266.200 C 388.973 266.060,388.800 266.396,388.800 266.976 M317.600 267.829 C 317.600 268.253,318.836 269.297,319.067 269.067 C 319.192 268.941,319.017 268.560,318.676 268.219 C 318.041 267.584,317.600 267.424,317.600 267.829 M140.400 269.404 C 140.400 269.809,142.500 271.599,142.975 271.600 C 143.182 271.600,143.000 271.285,142.570 270.900 C 141.110 269.591,140.400 269.101,140.400 269.404 M389.628 269.876 C 389.687 271.393,390.341 272.314,390.372 270.924 C 390.387 270.222,390.220 269.536,390.000 269.400 C 389.780 269.264,389.613 269.478,389.628 269.876 M322.051 271.498 C 322.596 272.192,323.844 273.417,327.367 276.718 C 328.375 277.663,329.200 278.618,329.200 278.841 C 329.200 279.065,329.380 279.136,329.600 279.000 C 329.820 278.864,330.000 279.044,330.000 279.400 C 330.000 279.769,330.189 279.930,330.440 279.775 C 330.731 279.595,330.601 279.215,330.054 278.652 C 324.715 273.144,322.240 270.800,321.762 270.800 C 321.619 270.800,321.749 271.114,322.051 271.498 M143.839 272.159 C 143.975 272.511,144.222 272.800,144.388 272.800 C 144.554 272.800,145.369 273.340,146.200 274.000 C 147.031 274.660,147.910 275.198,148.155 275.196 C 148.620 275.191,146.688 273.534,144.731 272.259 C 143.764 271.628,143.630 271.613,143.839 272.159 M390.607 273.600 C 390.773 274.370,390.948 275.499,390.996 276.108 C 391.044 276.718,391.222 277.348,391.393 277.508 C 391.652 277.752,391.555 276.620,391.033 273.312 C 390.991 273.043,390.810 272.683,390.632 272.512 C 390.453 272.340,390.442 272.830,390.607 273.600 M148.800 275.504 C 148.800 275.671,149.160 276.032,149.600 276.307 C 150.530 276.888,150.654 276.597,149.829 275.771 C 149.198 275.141,148.800 275.037,148.800 275.504 M151.200 277.018 C 151.200 277.432,153.249 279.284,153.467 279.067 C 153.587 278.947,153.224 278.388,152.661 277.824 C 151.665 276.828,151.200 276.572,151.200 277.018 M391.867 279.067 C 391.448 279.485,391.555 281.200,392.000 281.200 C 392.220 281.200,392.400 280.660,392.400 280.000 C 392.400 278.757,392.319 278.615,391.867 279.067 M154.400 279.429 C 154.400 279.853,155.636 280.897,155.867 280.667 C 155.992 280.541,155.817 280.160,155.476 279.819 C 154.841 279.184,154.400 279.024,154.400 279.429 M331.251 280.664 C 332.691 282.407,336.071 285.662,336.252 285.481 C 336.486 285.247,331.463 280.000,331.005 280.000 C 330.838 280.000,330.949 280.299,331.251 280.664 M392.554 282.976 C 392.432 283.292,392.523 283.877,392.754 284.276 C 393.112 284.891,393.178 284.805,393.188 283.700 C 393.201 282.329,392.924 282.012,392.554 282.976 M160.000 283.542 C 160.000 284.095,161.115 284.895,161.641 284.720 C 161.899 284.634,161.635 284.253,161.055 283.873 C 160.475 283.493,160.000 283.344,160.000 283.542 M162.562 285.333 C 162.693 285.736,162.800 286.141,162.800 286.233 C 162.800 286.325,163.070 286.400,163.400 286.400 C 163.730 286.400,164.000 286.591,164.000 286.824 C 164.000 287.057,164.193 287.128,164.429 286.982 C 164.693 286.819,164.500 286.471,163.929 286.081 C 163.418 285.732,162.848 285.256,162.662 285.023 C 162.463 284.774,162.422 284.901,162.562 285.333 M393.200 287.400 C 393.200 287.950,393.380 288.400,393.600 288.400 C 393.820 288.400,394.000 287.950,394.000 287.400 C 394.000 286.850,393.820 286.400,393.600 286.400 C 393.380 286.400,393.200 286.850,393.200 287.400 M337.200 286.908 C 337.200 287.522,340.746 291.387,341.040 291.094 C 341.159 290.975,340.343 289.921,339.228 288.751 C 338.113 287.582,337.200 286.752,337.200 286.908 M165.200 287.532 C 165.200 287.715,165.695 288.120,166.300 288.432 C 166.905 288.745,167.848 289.405,168.396 289.900 C 169.470 290.870,170.000 291.036,170.000 290.400 C 170.000 290.180,169.833 290.000,169.629 290.000 C 169.424 290.000,169.014 289.775,168.718 289.500 C 167.046 287.951,165.200 286.918,165.200 287.532 M199.067 290.667 C 198.652 291.082,198.753 292.400,199.200 292.400 C 199.420 292.400,199.600 291.950,199.600 291.400 C 199.600 290.353,199.508 290.226,199.067 290.667 M171.206 291.071 C 171.218 291.684,171.955 292.578,172.226 292.307 C 172.374 292.159,172.204 291.747,171.848 291.390 C 171.491 291.034,171.203 290.891,171.206 291.071 M394.134 291.427 C 394.002 291.772,394.098 292.258,394.347 292.507 C 394.684 292.844,394.800 292.684,394.800 291.880 C 394.800 290.677,394.501 290.473,394.134 291.427 M342.242 292.900 C 342.401 293.175,342.780 293.670,343.084 294.000 C 343.388 294.330,343.907 294.960,344.238 295.400 C 344.683 295.992,344.664 295.842,344.167 294.820 C 343.485 293.416,342.661 292.400,342.205 292.400 C 342.066 292.400,342.083 292.625,342.242 292.900 M176.200 295.200 C 176.064 295.420,176.233 295.600,176.576 295.600 C 176.919 295.600,177.200 295.780,177.200 296.000 C 177.200 296.220,177.382 296.400,177.603 296.400 C 177.843 296.400,177.803 296.074,177.507 295.600 C 176.954 294.714,176.573 294.597,176.200 295.200 M394.800 295.753 C 394.800 296.303,394.980 296.864,395.200 297.000 C 395.426 297.140,395.600 296.812,395.600 296.247 C 395.600 295.697,395.420 295.136,395.200 295.000 C 394.974 294.860,394.800 295.188,394.800 295.753 M195.660 296.651 C 195.143 297.202,194.817 297.750,194.936 297.869 C 195.152 298.085,197.200 296.230,197.200 295.818 C 197.200 295.347,196.556 295.695,195.660 296.651 M178.893 297.200 C 179.168 297.640,179.619 298.000,179.896 298.000 C 180.173 298.000,180.400 298.191,180.400 298.424 C 180.400 298.657,180.603 298.722,180.851 298.569 C 181.138 298.391,180.920 298.058,180.251 297.652 C 179.673 297.302,179.200 296.876,179.200 296.707 C 179.200 296.538,179.018 296.400,178.797 296.400 C 178.557 296.400,178.597 296.726,178.893 297.200 M345.293 297.200 C 345.762 297.951,346.400 298.280,346.400 297.771 C 346.400 297.473,345.325 296.400,345.025 296.400 C 344.898 296.400,345.018 296.760,345.293 297.200 M346.893 299.600 C 347.168 300.040,347.630 300.400,347.920 300.400 C 348.210 300.400,348.336 300.580,348.200 300.800 C 348.064 301.020,348.143 301.200,348.376 301.200 C 349.085 301.200,348.854 300.591,347.797 299.672 C 346.548 298.586,346.245 298.562,346.893 299.600 M184.000 299.984 C 184.000 300.213,184.720 300.400,185.600 300.400 C 186.480 300.400,187.200 300.255,187.200 300.078 C 187.200 299.901,186.480 299.714,185.600 299.662 C 184.698 299.609,184.000 299.749,184.000 299.984 M187.800 300.000 C 187.936 300.220,188.667 300.400,189.424 300.400 C 190.181 300.400,190.800 300.220,190.800 300.000 C 190.800 299.780,190.069 299.600,189.176 299.600 C 188.196 299.600,187.651 299.758,187.800 300.000 M395.600 300.800 C 395.600 301.460,395.780 302.000,396.000 302.000 C 396.220 302.000,396.400 301.460,396.400 300.800 C 396.400 300.140,396.220 299.600,396.000 299.600 C 395.780 299.600,395.600 300.140,395.600 300.800 M348.871 301.990 C 349.039 302.759,349.975 303.759,350.259 303.474 C 350.381 303.352,350.089 302.836,349.611 302.326 C 349.085 301.767,348.792 301.634,348.871 301.990 M396.406 306.100 C 396.409 306.595,396.587 307.270,396.800 307.600 C 397.088 308.046,397.189 307.816,397.194 306.700 C 397.197 305.875,397.020 305.200,396.800 305.200 C 396.580 305.200,396.403 305.605,396.406 306.100 M352.013 306.700 C 352.040 307.333,353.206 308.526,353.496 308.216 C 353.663 308.037,353.575 307.810,353.300 307.712 C 353.025 307.614,352.800 307.278,352.800 306.967 C 352.800 306.655,352.620 306.400,352.400 306.400 C 352.180 306.400,352.006 306.535,352.013 306.700 M354.400 310.629 C 354.400 311.053,355.636 312.097,355.867 311.867 C 355.992 311.741,355.817 311.360,355.476 311.019 C 354.841 310.384,354.400 310.224,354.400 310.629 M397.200 312.400 C 397.200 313.396,397.358 313.950,397.600 313.800 C 397.820 313.664,398.000 313.034,398.000 312.400 C 398.000 311.766,397.820 311.136,397.600 311.000 C 397.358 310.850,397.200 311.404,397.200 312.400 M398.040 319.100 C 398.126 321.485,398.718 322.307,398.760 320.100 C 398.782 318.940,398.621 318.000,398.400 318.000 C 398.180 318.000,398.018 318.495,398.040 319.100 M360.200 320.800 C 360.598 321.240,360.794 321.600,360.635 321.600 C 360.476 321.600,360.718 322.123,361.173 322.762 C 361.628 323.401,362.000 324.211,362.000 324.562 C 362.000 324.913,362.180 325.200,362.400 325.200 C 363.259 325.200,360.912 320.051,360.038 320.020 C 359.613 320.005,359.653 320.195,360.200 320.800 M398.800 327.400 C 398.800 328.390,398.980 329.200,399.200 329.200 C 399.420 329.200,399.600 328.390,399.600 327.400 C 399.600 326.410,399.420 325.600,399.200 325.600 C 398.980 325.600,398.800 326.410,398.800 327.400 M365.206 331.100 C 365.224 331.977,365.988 332.559,365.994 331.700 C 365.997 331.205,365.820 330.800,365.600 330.800 C 365.380 330.800,365.203 330.935,365.206 331.100 M367.708 336.820 C 367.677 337.240,367.819 337.688,368.025 337.816 C 368.231 337.943,368.400 337.687,368.400 337.247 C 368.400 336.204,367.784 335.823,367.708 336.820 M399.737 339.800 C 399.739 341.560,399.809 342.230,399.893 341.289 C 399.978 340.349,399.977 338.909,399.891 338.089 C 399.805 337.270,399.736 338.040,399.737 339.800 M370.806 345.500 C 370.803 345.995,370.980 346.400,371.200 346.400 C 371.701 346.400,371.701 345.976,371.200 345.200 C 370.886 344.715,370.811 344.772,370.806 345.500 M371.600 347.976 C 371.600 348.429,371.780 348.800,372.000 348.800 C 372.220 348.800,372.400 348.541,372.400 348.224 C 372.400 347.907,372.220 347.536,372.000 347.400 C 371.780 347.264,371.600 347.523,371.600 347.976 M372.400 350.600 C 372.400 350.930,372.580 351.200,372.800 351.200 C 373.020 351.200,373.200 350.930,373.200 350.600 C 373.200 350.270,373.020 350.000,372.800 350.000 C 372.580 350.000,372.400 350.270,372.400 350.600 M373.200 353.600 C 373.200 354.040,373.380 354.400,373.600 354.400 C 373.820 354.400,374.000 354.040,374.000 353.600 C 374.000 353.160,373.820 352.800,373.600 352.800 C 373.380 352.800,373.200 353.160,373.200 353.600 M374.126 356.390 C 374.317 357.642,374.800 357.841,374.800 356.667 C 374.800 356.080,374.621 355.600,374.403 355.600 C 374.184 355.600,374.059 355.955,374.126 356.390 M374.800 359.376 C 374.800 359.693,374.980 360.064,375.200 360.200 C 375.420 360.336,375.600 360.077,375.600 359.624 C 375.600 359.171,375.420 358.800,375.200 358.800 C 374.980 358.800,374.800 359.059,374.800 359.376 M375.336 362.978 C 375.481 363.356,375.600 363.831,375.600 364.033 C 375.600 364.235,375.793 364.400,376.028 364.400 C 376.650 364.400,376.303 362.697,375.636 362.477 C 375.241 362.346,375.151 362.496,375.336 362.978 M376.400 366.751 C 376.400 367.360,377.571 369.935,377.957 370.173 C 378.159 370.299,378.230 370.038,378.114 369.594 C 377.998 369.151,377.745 368.690,377.552 368.570 C 377.358 368.451,377.200 367.913,377.200 367.376 C 377.200 366.839,377.020 366.400,376.800 366.400 C 376.580 366.400,376.400 366.558,376.400 366.751 M397.700 370.598 C 397.131 371.245,397.061 371.600,397.504 371.600 C 397.671 371.600,398.032 371.240,398.307 370.800 C 398.878 369.887,398.451 369.745,397.700 370.598 M379.886 372.413 C 380.814 373.374,381.714 374.013,381.886 373.833 C 382.059 373.653,381.861 373.302,381.446 373.053 C 381.032 372.804,380.132 372.165,379.446 371.633 C 378.526 370.918,378.641 371.122,379.886 372.413 M395.700 372.488 C 394.732 372.955,394.561 373.405,395.200 373.800 C 395.420 373.936,395.600 373.756,395.600 373.400 C 395.600 373.044,395.735 372.835,395.900 372.934 C 396.065 373.034,396.432 372.865,396.716 372.558 C 397.319 371.905,396.961 371.880,395.700 372.488 M384.200 374.800 C 384.064 375.020,384.323 375.200,384.776 375.200 C 385.229 375.200,385.600 375.020,385.600 374.800 C 385.600 374.580,385.341 374.400,385.024 374.400 C 384.707 374.400,384.336 374.580,384.200 374.800 M391.200 374.800 C 391.200 375.020,391.459 375.200,391.776 375.200 C 392.093 375.200,392.464 375.020,392.600 374.800 C 392.736 374.580,392.477 374.400,392.024 374.400 C 391.571 374.400,391.200 374.580,391.200 374.800 " stroke="none" fill="#3499fc" fill-rule="evenodd"></path></g></svg>