<svg id="svg" version="1.1" xmlns="http://www.w3.org/2000/svg" xmlns:xlink="http://www.w3.org/1999/xlink" width="400" height="400" viewBox="0, 0, 400,400"><g id="svgg"><path id="path0" d="M273.714 81.400 C 273.717 82.500,273.795 82.903,273.887 82.295 C 273.979 81.686,273.977 80.786,273.882 80.295 C 273.787 79.803,273.711 80.300,273.714 81.400 M273.709 85.600 C 273.709 86.590,273.787 86.995,273.882 86.500 C 273.978 86.005,273.978 85.195,273.882 84.700 C 273.787 84.205,273.709 84.610,273.709 85.600 M273.701 89.400 C 273.705 90.280,273.787 90.593,273.883 90.095 C 273.979 89.598,273.975 88.878,273.875 88.495 C 273.775 88.113,273.696 88.520,273.701 89.400 M273.200 91.800 C 273.200 92.130,273.380 92.400,273.600 92.400 C 273.820 92.400,274.000 92.130,274.000 91.800 C 274.000 91.470,273.820 91.200,273.600 91.200 C 273.380 91.200,273.200 91.470,273.200 91.800 M272.834 94.500 C 272.647 94.995,272.647 95.691,272.833 96.047 C 273.019 96.403,273.058 96.808,272.919 96.947 C 272.780 97.086,272.856 97.200,273.087 97.200 C 273.627 97.200,274.009 95.253,273.527 94.955 C 273.318 94.826,273.362 94.487,273.630 94.164 C 273.981 93.742,273.982 93.600,273.636 93.600 C 273.382 93.600,273.021 94.005,272.834 94.500 M272.590 99.300 C 272.584 100.273,272.399 100.967,272.157 100.922 C 271.924 100.879,271.733 101.097,271.733 101.405 C 271.733 101.713,271.928 101.869,272.167 101.753 C 272.405 101.636,272.274 101.807,271.876 102.132 C 271.416 102.507,271.307 102.819,271.576 102.985 C 272.251 103.402,272.071 103.924,271.152 104.215 C 270.370 104.464,267.609 106.986,262.300 112.304 C 260.564 114.043,253.722 120.887,245.504 129.104 C 244.624 129.984,240.934 133.674,237.304 137.304 C 233.674 140.934,229.984 144.624,229.104 145.504 C 228.224 146.384,224.534 150.074,220.904 153.704 C 212.736 161.870,211.870 162.736,203.704 170.904 C 200.074 174.534,196.384 178.224,195.504 179.104 C 194.624 179.984,190.934 183.674,187.304 187.304 C 183.674 190.934,179.984 194.624,179.104 195.504 C 178.224 196.384,174.534 200.074,170.904 203.704 C 162.261 212.346,161.456 213.151,153.757 220.852 C 150.156 224.453,146.443 228.154,145.505 229.076 C 141.681 232.836,141.600 232.988,141.600 236.400 C 141.600 238.105,141.465 240.108,141.300 240.850 C 141.135 241.593,140.908 229.780,140.796 214.600 C 140.650 194.939,140.569 204.719,140.514 248.600 C 140.433 312.849,140.775 344.535,141.558 345.318 C 141.801 345.561,142.000 346.163,142.000 346.656 C 142.000 347.149,142.192 347.672,142.427 347.817 C 142.662 347.962,142.758 348.333,142.640 348.640 C 142.516 348.963,142.674 349.200,143.013 349.200 C 143.336 349.200,143.600 349.535,143.600 349.944 C 143.600 350.353,144.209 351.334,144.954 352.124 C 145.698 352.913,146.208 353.658,146.087 353.780 C 145.966 353.901,146.177 354.000,146.557 354.000 C 147.003 354.000,147.141 354.177,146.947 354.500 C 146.755 354.819,146.899 354.795,147.346 354.432 C 147.730 354.120,148.014 354.030,147.975 354.232 C 147.821 355.043,148.021 355.634,148.375 355.415 C 148.582 355.288,148.897 355.412,149.075 355.692 C 149.664 356.615,151.496 357.313,152.603 357.035 C 153.252 356.872,153.574 356.919,153.428 357.155 C 153.296 357.368,153.596 357.601,154.094 357.671 C 154.592 357.742,155.000 358.010,155.000 358.267 C 155.000 358.523,155.164 358.883,155.364 359.067 C 155.569 359.254,155.624 359.216,155.491 358.981 C 155.360 358.750,155.418 358.300,155.620 357.981 C 155.910 357.522,155.989 357.581,155.994 358.257 C 155.997 358.729,156.290 359.226,156.645 359.362 C 157.106 359.539,157.223 359.437,157.057 359.005 C 156.792 358.315,158.186 358.130,158.600 358.800 C 159.001 359.449,159.527 359.260,159.811 358.365 C 159.957 357.905,163.231 354.417,167.086 350.612 C 170.941 346.808,174.816 342.976,175.696 342.096 C 177.771 340.020,190.020 327.771,192.096 325.696 C 192.976 324.816,196.845 320.945,200.695 317.095 C 209.239 308.548,208.548 309.239,217.095 300.695 C 224.890 292.901,224.574 293.218,233.896 283.896 C 243.146 274.646,242.768 275.024,250.589 267.200 C 259.132 258.656,258.420 259.368,267.094 250.696 C 274.999 242.793,274.699 243.092,283.896 233.896 C 293.099 224.692,292.807 224.984,300.589 217.200 C 309.140 208.647,308.529 209.258,317.147 200.642 C 325.021 192.770,324.664 193.128,333.791 184.000 C 337.421 180.370,341.135 176.657,342.045 175.749 C 347.162 170.638,348.750 168.801,348.694 168.058 C 348.661 167.616,348.528 167.321,348.398 167.401 C 348.268 167.482,347.906 167.389,347.594 167.196 C 347.259 166.989,346.834 167.006,346.556 167.237 C 346.012 167.688,345.148 167.579,344.670 167.000 C 344.455 166.741,344.268 166.776,344.136 167.100 C 343.843 167.822,342.000 167.736,342.000 167.000 C 342.000 166.477,339.785 166.393,324.700 166.342 C 315.185 166.310,294.859 166.175,279.531 166.042 L 251.661 165.800 252.672 163.600 C 253.227 162.390,253.799 161.310,253.941 161.200 C 254.083 161.090,254.261 160.640,254.335 160.200 C 254.410 159.760,254.905 158.530,255.435 157.467 C 255.966 156.404,256.400 155.315,256.400 155.047 C 256.400 154.779,256.603 154.357,256.852 154.108 C 257.385 153.575,258.768 149.709,258.787 148.700 C 258.794 148.315,258.980 148.000,259.200 148.000 C 259.420 148.000,259.600 147.640,259.600 147.200 C 259.600 146.760,259.780 146.400,260.000 146.400 C 260.220 146.400,260.400 145.860,260.400 145.200 C 260.400 144.540,260.547 144.000,260.728 144.000 C 260.908 144.000,261.300 143.100,261.600 142.000 C 261.900 140.900,262.292 140.000,262.472 140.000 C 262.653 140.000,262.800 139.460,262.800 138.800 C 262.800 138.140,262.980 137.600,263.200 137.600 C 263.420 137.600,263.600 137.161,263.600 136.624 C 263.600 136.087,263.780 135.536,264.000 135.400 C 264.220 135.264,264.400 134.724,264.400 134.200 C 264.400 133.676,264.580 133.136,264.800 133.000 C 265.020 132.864,265.200 132.324,265.200 131.800 C 265.200 131.276,265.380 130.736,265.600 130.600 C 265.820 130.464,266.000 129.913,266.000 129.376 C 266.000 128.839,266.180 128.400,266.400 128.400 C 266.620 128.400,266.800 127.948,266.800 127.395 C 266.800 126.842,266.958 126.077,267.151 125.695 C 267.724 124.560,268.400 122.202,268.400 121.338 C 268.400 120.896,268.527 120.407,268.682 120.252 C 268.837 120.097,269.028 119.486,269.108 118.895 C 269.187 118.304,269.400 117.635,269.582 117.410 C 269.763 117.184,269.909 116.468,269.906 115.817 C 269.903 115.166,270.103 114.566,270.350 114.483 C 270.598 114.401,270.800 113.574,270.800 112.647 C 270.800 111.719,270.962 110.789,271.159 110.580 C 271.490 110.230,271.622 109.547,272.235 105.000 C 272.354 104.120,272.552 103.130,272.677 102.800 C 273.072 101.751,273.274 97.600,272.930 97.600 C 272.749 97.600,272.596 98.365,272.590 99.300 M163.643 154.023 C 163.117 154.461,162.771 154.905,162.875 155.008 C 162.979 155.112,163.486 154.748,164.001 154.198 C 165.124 153.004,164.962 152.925,163.643 154.023 M151.669 166.039 C 150.910 167.254,151.366 167.416,152.155 166.212 C 152.520 165.656,152.678 165.200,152.505 165.200 C 152.333 165.200,151.957 165.578,151.669 166.039 M121.661 251.600 C 121.605 252.664,121.495 252.856,121.200 252.400 C 120.901 251.937,120.805 252.073,120.780 253.000 C 120.753 253.962,120.116 254.795,117.567 257.200 C 115.818 258.850,113.445 261.147,112.294 262.304 C 110.538 264.068,106.159 268.450,95.504 279.104 C 94.624 279.984,90.934 283.674,87.304 287.304 C 83.674 290.934,79.984 294.624,79.104 295.504 C 78.224 296.384,74.534 300.074,70.904 303.704 C 62.736 311.870,61.870 312.736,53.704 320.904 C 50.074 324.534,46.384 328.224,45.504 329.104 C 44.624 329.984,40.955 333.696,37.349 337.352 C 32.274 342.500,30.564 344.000,29.773 344.000 C 29.200 344.000,28.860 343.826,28.998 343.603 C 29.133 343.385,29.059 342.890,28.834 342.503 C 28.464 341.868,28.423 341.883,28.412 342.667 C 28.396 343.788,28.805 344.844,29.167 344.620 C 29.323 344.524,29.401 345.071,29.341 345.836 C 29.277 346.649,29.391 347.129,29.616 346.990 C 29.829 346.858,30.000 347.296,30.000 347.976 C 30.000 348.649,30.158 349.200,30.351 349.200 C 30.545 349.200,30.927 349.742,31.202 350.404 C 31.756 351.742,36.009 356.038,37.223 356.487 C 37.651 356.645,38.000 356.971,38.000 357.211 C 38.000 357.451,38.180 357.536,38.400 357.400 C 38.620 357.264,38.800 357.343,38.800 357.576 C 38.800 357.809,38.935 357.971,39.100 357.935 C 39.655 357.816,43.211 358.895,43.430 359.249 C 43.743 359.755,106.687 359.707,107.000 359.200 C 107.136 358.980,107.642 358.800,108.124 358.801 C 109.036 358.802,112.501 357.223,112.733 356.700 C 112.807 356.535,113.142 356.400,113.477 356.400 C 115.139 356.400,119.902 350.208,121.386 346.119 L 122.360 343.438 122.343 302.819 C 122.329 269.347,122.006 245.053,121.661 251.600 M28.772 338.600 C 28.581 340.170,28.521 341.600,28.646 341.600 C 29.151 341.600,29.509 339.941,29.216 338.961 C 28.944 338.051,28.848 337.973,28.772 338.600 " stroke="none" fill="#2b84da" fill-rule="evenodd"></path><path id="path1" d="M232.200 38.400 C 232.346 38.637,231.895 38.800,231.096 38.800 C 229.794 38.800,227.652 40.489,227.910 41.311 C 227.963 41.482,227.737 41.726,227.406 41.853 C 227.075 41.980,226.917 42.265,227.054 42.487 C 227.190 42.708,227.085 43.024,226.819 43.188 C 226.553 43.353,226.259 44.278,226.166 45.244 C 226.073 46.210,225.851 47.049,225.672 47.109 C 225.493 47.169,225.403 47.934,225.473 48.809 C 225.542 49.684,225.451 50.400,225.271 50.400 C 224.980 50.400,224.864 51.387,224.639 55.800 C 224.605 56.460,224.467 57.180,224.331 57.400 C 224.195 57.620,224.080 59.997,224.075 62.683 C 224.069 65.369,223.948 67.934,223.805 68.383 C 223.620 68.968,223.724 69.200,224.173 69.200 C 224.914 69.200,224.982 69.658,224.337 70.303 C 223.986 70.654,223.991 70.908,224.358 71.349 C 224.753 71.825,224.681 71.984,223.968 72.210 C 223.292 72.425,223.218 72.564,223.644 72.827 C 224.254 73.204,224.384 74.355,223.896 75.053 C 223.056 76.257,224.910 75.859,226.101 74.580 C 227.173 73.429,232.698 67.874,242.099 58.496 C 242.924 57.673,246.114 54.435,249.189 51.300 C 252.264 48.165,255.016 45.600,255.304 45.600 C 256.112 45.600,255.930 44.165,255.114 44.104 C 254.721 44.074,254.400 44.231,254.400 44.453 C 254.400 44.675,254.130 44.587,253.800 44.257 C 252.976 43.434,253.046 43.246,254.100 43.446 C 254.929 43.603,254.936 43.588,254.200 43.258 C 253.760 43.062,253.130 43.035,252.800 43.200 C 252.031 43.584,251.037 43.172,250.870 42.400 C 250.798 42.070,250.570 41.739,250.363 41.664 C 250.155 41.590,249.761 41.304,249.486 41.029 C 249.212 40.754,248.302 40.552,247.466 40.580 C 246.629 40.608,245.822 40.411,245.672 40.143 C 245.522 39.875,245.129 39.671,244.800 39.691 C 243.465 39.769,242.766 39.578,243.000 39.200 C 243.136 38.980,243.067 38.800,242.847 38.800 C 242.627 38.800,242.324 38.999,242.174 39.243 C 241.977 39.560,241.824 39.562,241.631 39.250 C 241.472 38.994,239.849 38.794,237.679 38.765 C 235.653 38.738,233.896 38.555,233.774 38.358 C 233.652 38.161,233.193 38.000,232.753 38.000 C 232.313 38.000,232.064 38.180,232.200 38.400 M251.473 41.881 C 251.328 42.117,251.461 42.518,251.769 42.774 C 252.343 43.251,253.159 42.626,252.640 42.107 C 252.508 41.975,252.387 42.122,252.372 42.433 C 252.355 42.769,252.220 42.684,252.041 42.227 C 251.858 41.758,251.634 41.622,251.473 41.881 M43.600 167.201 C 43.600 167.421,43.004 167.600,42.275 167.600 C 41.547 167.600,40.602 167.925,40.175 168.322 C 39.351 169.090,39.113 169.200,38.266 169.200 C 37.690 169.200,31.600 174.886,31.600 175.423 C 31.600 175.602,31.195 176.194,30.700 176.739 C 30.205 177.283,30.070 177.579,30.400 177.396 C 30.783 177.183,30.724 177.377,30.238 177.931 C 29.819 178.409,29.591 178.800,29.731 178.800 C 29.872 178.800,29.625 179.443,29.183 180.230 C 28.730 181.036,28.603 181.534,28.890 181.371 C 29.299 181.140,29.301 181.190,28.900 181.621 C 28.505 182.047,28.418 192.261,28.486 230.380 C 28.534 256.901,28.675 275.270,28.800 271.200 C 28.925 267.130,29.066 265.375,29.114 267.300 C 29.161 269.225,29.292 270.800,29.404 270.800 C 29.577 270.800,36.651 263.941,42.148 258.444 C 43.057 257.535,46.747 253.845,50.348 250.243 C 53.949 246.642,57.616 242.976,58.496 242.096 C 59.376 241.216,63.066 237.526,66.696 233.896 C 74.864 225.730,75.730 224.864,83.896 216.696 C 87.526 213.066,91.239 209.352,92.148 208.443 C 93.057 207.535,96.723 203.868,100.296 200.296 C 103.868 196.723,107.515 193.080,108.399 192.200 C 114.407 186.220,119.999 180.275,119.994 179.874 C 119.990 179.592,119.830 179.643,119.600 180.000 C 119.286 180.485,119.211 180.428,119.206 179.700 C 119.203 179.205,119.380 178.800,119.600 178.800 C 119.820 178.800,120.000 178.530,120.000 178.200 C 120.000 177.870,119.663 177.600,119.250 177.600 C 118.557 177.600,117.750 175.616,118.135 174.859 C 118.208 174.717,117.633 173.970,116.858 173.200 C 116.082 172.430,115.596 172.070,115.777 172.400 C 115.957 172.730,115.655 172.550,115.104 172.000 C 114.554 171.450,114.183 170.861,114.281 170.690 C 114.379 170.520,114.311 170.406,114.130 170.437 C 113.288 170.584,112.800 170.349,112.800 169.800 C 112.800 169.470,112.530 169.178,112.200 169.150 C 111.870 169.123,111.465 169.063,111.300 169.017 C 109.251 168.453,108.800 168.258,108.800 167.933 C 108.800 167.724,108.647 167.648,108.459 167.764 C 108.271 167.880,107.776 167.716,107.359 167.400 C 106.416 166.686,105.854 166.636,106.253 167.300 C 106.491 167.695,106.428 167.698,105.952 167.313 C 105.174 166.684,43.600 166.574,43.600 167.201 M140.682 187.900 C 141.006 189.999,141.262 190.103,141.143 188.088 C 141.088 187.160,140.910 186.400,140.747 186.400 C 140.584 186.400,140.554 187.075,140.682 187.900 " stroke="none" fill="#3c9dee" fill-rule="evenodd"></path><path id="path2" d="M365.006 176.112 C 365.392 176.724,365.809 177.124,365.932 177.001 C 366.055 176.878,365.739 176.378,365.230 175.889 L 364.304 175.000 365.006 176.112 M366.493 178.400 C 366.962 179.151,367.600 179.480,367.600 178.971 C 367.600 178.673,366.525 177.600,366.225 177.600 C 366.098 177.600,366.218 177.960,366.493 178.400 M370.828 190.276 C 370.887 191.793,371.541 192.714,371.572 191.324 C 371.587 190.622,371.420 189.936,371.200 189.800 C 370.980 189.664,370.813 189.878,370.828 190.276 M371.137 194.600 C 371.059 195.590,371.131 196.400,371.297 196.400 C 371.464 196.400,371.600 195.590,371.600 194.600 C 371.600 193.610,371.528 192.800,371.440 192.800 C 371.352 192.800,371.216 193.610,371.137 194.600 M370.302 201.000 C 370.197 201.550,370.266 202.000,370.455 202.000 C 370.645 202.000,370.800 201.550,370.800 201.000 C 370.800 200.450,370.731 200.000,370.647 200.000 C 370.562 200.000,370.407 200.450,370.302 201.000 M359.776 216.187 C 359.289 216.556,359.197 216.779,359.529 216.787 C 359.819 216.794,360.327 216.530,360.657 216.200 C 361.428 215.429,360.791 215.420,359.776 216.187 M357.544 217.587 C 357.025 218.019,356.825 218.379,357.100 218.387 C 357.375 218.394,357.600 218.220,357.600 218.000 C 357.600 217.780,357.870 217.600,358.200 217.600 C 358.530 217.600,358.800 217.420,358.800 217.200 C 358.800 216.637,358.617 216.693,357.544 217.587 M352.000 220.200 C 352.000 220.530,352.180 220.800,352.400 220.800 C 352.620 220.800,352.800 220.530,352.800 220.200 C 352.800 219.870,352.620 219.600,352.400 219.600 C 352.180 219.600,352.000 219.870,352.000 220.200 M353.038 221.139 C 352.923 221.325,353.362 221.989,354.014 222.614 C 354.666 223.238,355.194 223.581,355.187 223.375 C 355.166 222.762,354.149 221.600,353.632 221.600 C 353.369 221.600,353.264 221.420,353.400 221.200 C 353.536 220.980,353.557 220.800,353.447 220.800 C 353.337 220.800,353.153 220.952,353.038 221.139 M355.600 224.161 C 355.600 224.722,357.563 227.788,358.020 227.940 C 358.303 228.034,358.145 227.693,357.668 227.180 C 357.190 226.668,356.800 226.000,356.800 225.696 C 356.800 225.392,356.530 224.873,356.200 224.543 C 355.870 224.213,355.600 224.041,355.600 224.161 M358.000 229.000 C 358.000 229.330,358.180 229.600,358.400 229.600 C 358.620 229.600,358.800 229.330,358.800 229.000 C 358.800 228.670,358.620 228.400,358.400 228.400 C 358.180 228.400,358.000 228.670,358.000 229.000 M359.600 233.800 C 359.600 234.130,359.780 234.400,360.000 234.400 C 360.220 234.400,360.400 234.130,360.400 233.800 C 360.400 233.470,360.220 233.200,360.000 233.200 C 359.780 233.200,359.600 233.470,359.600 233.800 M360.561 238.201 C 360.722 239.712,361.200 239.911,361.200 238.467 C 361.200 237.770,361.032 237.200,360.827 237.200 C 360.622 237.200,360.503 237.650,360.561 238.201 M360.400 240.800 C 360.400 241.240,360.580 241.600,360.800 241.600 C 361.020 241.600,361.200 241.240,361.200 240.800 C 361.200 240.360,361.020 240.000,360.800 240.000 C 360.580 240.000,360.400 240.360,360.400 240.800 M360.400 243.000 C 360.400 243.550,360.580 244.000,360.800 244.000 C 361.020 244.000,361.200 243.550,361.200 243.000 C 361.200 242.450,361.020 242.000,360.800 242.000 C 360.580 242.000,360.400 242.450,360.400 243.000 M359.735 246.500 C 359.563 246.775,359.384 247.252,359.338 247.560 C 359.291 247.868,359.038 248.253,358.775 248.415 C 358.513 248.578,358.422 248.912,358.574 249.158 C 358.726 249.404,358.569 249.714,358.225 249.846 C 357.881 249.978,357.600 250.336,357.600 250.643 C 357.600 250.949,357.420 251.200,357.200 251.200 C 356.980 251.200,356.800 251.560,356.800 252.000 C 356.800 252.440,356.620 252.800,356.400 252.800 C 356.180 252.800,356.000 253.120,356.000 253.512 C 356.000 253.903,355.640 254.483,355.200 254.800 C 354.760 255.117,354.400 255.817,354.400 256.355 C 354.400 256.893,354.293 257.226,354.161 257.095 C 354.030 256.964,353.125 257.654,352.151 258.628 C 351.176 259.603,350.184 260.400,349.946 260.400 C 349.680 260.400,349.609 260.824,349.762 261.500 C 349.964 262.391,349.930 262.467,349.586 261.900 C 348.831 260.658,347.961 261.034,348.201 262.500 C 348.350 263.405,348.299 263.624,348.034 263.219 C 347.824 262.900,347.742 262.495,347.850 262.319 C 347.958 262.144,347.857 262.000,347.624 262.000 C 347.391 262.000,347.200 262.180,347.200 262.400 C 347.200 262.620,346.840 262.800,346.400 262.800 C 345.515 262.800,345.315 263.420,346.100 263.732 C 346.375 263.841,346.015 263.869,345.300 263.794 C 344.585 263.719,344.000 263.825,344.000 264.029 C 344.000 264.233,343.730 264.400,343.400 264.400 C 343.070 264.400,342.785 264.535,342.767 264.700 C 342.748 264.865,342.688 265.405,342.634 265.900 C 342.516 266.960,342.649 267.008,343.461 266.196 C 343.793 265.864,344.230 265.695,344.432 265.820 C 344.635 265.945,344.803 265.812,344.806 265.524 C 344.811 265.143,344.918 265.164,345.200 265.600 C 345.595 266.211,345.825 265.686,345.625 264.632 C 345.586 264.430,345.864 264.520,346.242 264.832 C 346.774 265.271,346.968 265.286,347.098 264.900 C 347.191 264.625,347.477 264.400,347.733 264.399 C 347.990 264.399,348.830 263.859,349.600 263.200 C 350.370 262.541,351.236 262.001,351.524 262.001 C 351.812 262.000,351.936 261.820,351.800 261.600 C 351.664 261.380,351.764 261.200,352.022 261.200 C 352.559 261.200,355.176 258.459,355.247 257.822 C 355.273 257.590,355.273 257.265,355.247 257.100 C 355.221 256.935,355.394 256.845,355.632 256.900 C 355.870 256.955,356.363 256.550,356.727 256.000 C 357.312 255.118,357.315 255.059,356.750 255.503 C 356.191 255.943,356.135 255.874,356.308 254.967 C 356.456 254.197,356.599 254.066,356.861 254.463 C 357.143 254.891,357.339 254.838,357.825 254.200 C 358.716 253.032,358.997 251.569,358.401 251.201 C 358.036 250.975,358.133 250.812,358.747 250.617 C 359.362 250.422,359.600 250.019,359.600 249.173 C 359.600 248.528,359.757 248.000,359.950 248.000 C 360.143 248.000,360.300 247.550,360.300 247.000 C 360.300 245.876,360.187 245.776,359.735 246.500 M341.384 265.918 C 341.480 266.414,341.258 266.655,340.666 266.700 C 339.986 266.751,339.932 266.687,340.405 266.388 C 340.908 266.071,340.890 266.011,340.294 266.006 C 339.758 266.001,339.609 266.283,339.677 267.172 C 339.726 267.817,339.909 268.256,340.083 268.149 C 340.257 268.041,340.400 268.233,340.400 268.576 C 340.400 268.919,340.683 269.200,341.029 269.200 C 341.374 269.200,341.927 269.470,342.257 269.800 C 342.587 270.130,342.664 270.400,342.429 270.400 C 342.193 270.400,341.988 270.625,341.973 270.900 C 341.959 271.175,340.515 272.750,338.765 274.400 C 337.015 276.050,333.742 279.245,331.492 281.500 C 329.241 283.756,325.555 287.446,323.299 289.700 C 321.044 291.955,317.174 295.825,314.699 298.300 C 312.225 300.775,308.535 304.465,306.499 306.500 C 304.464 308.535,300.774 312.225,298.299 314.700 C 295.825 317.175,291.955 321.045,289.700 323.300 C 287.444 325.555,283.754 329.245,281.500 331.500 C 273.928 339.073,269.228 343.771,264.700 348.293 C 262.225 350.764,258.670 354.397,256.800 356.366 L 253.400 359.945 251.076 359.973 C 249.635 359.990,248.847 360.152,249.000 360.400 C 249.136 360.620,249.057 360.800,248.824 360.800 C 248.591 360.800,248.400 360.620,248.400 360.400 C 248.400 360.180,247.725 360.029,246.900 360.064 C 245.412 360.128,245.411 360.129,246.708 360.290 C 247.427 360.379,247.924 360.599,247.813 360.780 C 247.701 360.960,259.983 361.135,275.105 361.168 C 292.339 361.206,302.650 361.373,302.733 361.614 C 302.916 362.142,314.400 362.128,314.400 361.600 C 314.400 361.378,315.467 361.200,316.800 361.200 C 318.133 361.200,319.200 361.022,319.200 360.800 C 319.200 360.580,319.819 360.400,320.576 360.400 C 321.333 360.400,322.064 360.220,322.200 360.000 C 322.336 359.780,322.797 359.600,323.224 359.600 C 323.651 359.600,324.000 359.434,324.000 359.232 C 324.000 359.029,324.516 358.750,325.146 358.612 C 325.776 358.473,326.669 358.009,327.129 357.580 C 327.590 357.151,328.133 356.800,328.337 356.800 C 328.916 356.800,333.735 351.926,334.368 350.700 C 334.680 350.095,335.085 349.600,335.268 349.600 C 335.450 349.600,335.600 349.364,335.600 349.075 C 335.600 348.787,335.960 348.164,336.400 347.692 C 336.840 347.220,337.200 346.567,337.200 346.240 C 337.200 345.914,337.380 345.536,337.600 345.400 C 337.820 345.264,338.000 344.713,338.000 344.176 C 338.000 343.639,338.142 343.200,338.315 343.200 C 338.488 343.200,338.674 342.618,338.728 341.907 C 338.783 341.195,339.001 340.439,339.213 340.227 C 339.710 339.730,339.721 328.614,339.227 327.695 C 339.021 327.313,338.622 326.145,338.339 325.100 C 338.057 324.055,337.685 323.200,337.513 323.200 C 337.341 323.200,337.200 322.840,337.200 322.400 C 337.200 321.960,337.020 321.600,336.800 321.600 C 336.580 321.600,336.400 321.240,336.400 320.800 C 336.400 320.360,336.220 320.000,336.000 320.000 C 335.780 320.000,335.600 319.724,335.600 319.387 C 335.600 319.049,334.987 318.133,334.237 317.350 C 330.361 313.303,330.574 313.600,331.533 313.600 C 332.010 313.600,332.400 313.420,332.400 313.200 C 332.400 312.980,332.805 312.794,333.300 312.787 C 333.795 312.780,334.542 312.516,334.959 312.200 C 335.376 311.884,335.871 311.720,336.059 311.836 C 336.247 311.952,336.400 311.857,336.400 311.624 C 336.400 311.391,336.670 311.200,337.000 311.200 C 337.330 311.200,337.600 311.020,337.600 310.800 C 337.600 310.580,337.870 310.400,338.200 310.400 C 338.530 310.400,338.800 310.220,338.800 310.000 C 338.800 309.780,339.070 309.600,339.400 309.600 C 339.730 309.600,340.000 309.432,340.000 309.227 C 340.000 309.022,340.360 308.740,340.800 308.600 C 341.240 308.460,341.600 308.078,341.600 307.749 C 341.600 307.421,341.780 307.264,342.000 307.400 C 342.220 307.536,342.400 307.337,342.400 306.957 C 342.400 306.577,342.509 306.376,342.642 306.509 C 342.995 306.862,344.800 304.946,344.800 304.218 C 344.800 303.878,344.950 303.600,345.132 303.600 C 345.315 303.600,345.719 303.105,346.030 302.500 C 346.340 301.895,346.911 301.109,347.297 300.753 C 347.684 300.397,348.000 299.733,348.000 299.277 C 348.000 298.820,348.180 298.336,348.400 298.200 C 348.620 298.064,348.800 297.603,348.800 297.176 C 348.800 296.749,348.980 296.400,349.200 296.400 C 349.420 296.400,349.600 295.680,349.600 294.800 C 349.600 293.920,349.780 293.200,350.000 293.200 C 350.248 293.200,350.400 291.008,350.400 287.424 C 350.400 284.004,350.237 281.546,350.000 281.400 C 349.780 281.264,349.600 280.533,349.600 279.776 C 349.600 279.019,349.420 278.400,349.200 278.400 C 348.980 278.400,348.800 277.950,348.800 277.400 C 348.800 276.850,348.620 276.400,348.400 276.400 C 348.180 276.400,348.000 276.040,348.000 275.600 C 348.000 275.160,347.820 274.800,347.600 274.800 C 347.380 274.800,347.200 274.480,347.200 274.088 C 347.200 273.697,346.840 273.117,346.400 272.800 C 345.960 272.483,345.600 271.980,345.600 271.683 C 345.600 271.007,344.620 270.000,343.962 270.000 C 343.690 270.000,343.580 269.886,343.719 269.747 C 343.858 269.608,343.428 268.986,342.762 268.365 C 341.776 267.444,341.629 267.094,341.962 266.470 C 342.360 265.728,342.191 265.200,341.556 265.200 C 341.386 265.200,341.308 265.523,341.384 265.918 M142.856 350.145 C 143.139 350.775,143.442 351.073,143.531 350.806 C 143.620 350.540,143.389 350.024,143.018 349.661 C 142.386 349.042,142.376 349.073,142.856 350.145 M144.025 351.800 C 144.025 352.020,144.290 352.549,144.613 352.976 C 144.936 353.404,145.200 353.573,145.200 353.353 C 145.200 353.133,144.936 352.604,144.613 352.176 C 144.290 351.749,144.025 351.580,144.025 351.800 M145.600 353.853 C 145.600 354.141,147.213 355.600,147.531 355.600 C 147.646 355.600,147.317 355.150,146.800 354.600 C 145.827 353.564,145.600 353.423,145.600 353.853 M239.479 360.254 C 239.319 360.414,237.049 360.500,234.436 360.443 C 231.357 360.377,229.589 360.493,229.416 360.773 C 229.229 361.077,231.240 361.192,236.194 361.162 C 241.299 361.130,243.198 360.992,243.089 360.659 C 242.918 360.141,239.928 359.805,239.479 360.254 M252.100 360.682 C 251.605 360.778,250.795 360.778,250.300 360.682 C 249.805 360.587,250.210 360.509,251.200 360.509 C 252.190 360.509,252.595 360.587,252.100 360.682 " stroke="none" fill="#1a6bc3" fill-rule="evenodd"></path><path id="path3" d="M321.500 166.300 C 339.352 166.393,342.000 166.484,342.000 167.004 C 342.000 167.736,343.844 167.819,344.136 167.100 C 344.268 166.776,344.455 166.741,344.670 167.000 C 345.148 167.579,346.012 167.688,346.556 167.237 C 346.834 167.006,347.259 166.989,347.594 167.196 C 347.906 167.389,348.268 167.482,348.398 167.401 C 348.528 167.321,348.661 167.616,348.694 168.058 C 348.750 168.801,347.162 170.638,342.045 175.749 C 341.135 176.657,337.445 180.347,333.843 183.948 C 324.703 193.088,324.986 192.805,317.147 200.642 C 308.536 209.251,309.228 208.559,300.747 217.042 C 293.111 224.680,293.208 224.584,283.843 233.948 C 274.700 243.092,274.979 242.813,267.200 250.589 C 258.646 259.141,259.248 258.540,250.695 267.095 C 242.973 274.818,243.132 274.660,233.843 283.948 C 224.627 293.164,224.846 292.946,217.095 300.695 C 208.548 309.239,209.239 308.548,200.695 317.095 C 196.845 320.945,192.976 324.816,192.096 325.696 C 190.020 327.771,177.786 340.005,175.643 342.148 C 174.735 343.057,170.860 346.889,167.034 350.665 C 163.207 354.440,159.957 357.905,159.811 358.365 C 159.527 359.260,159.001 359.449,158.600 358.800 C 158.177 358.116,156.793 358.317,157.064 359.023 C 157.196 359.366,157.533 359.558,157.813 359.450 C 158.093 359.343,158.655 359.507,159.061 359.815 C 159.681 360.284,165.367 360.377,194.300 360.387 C 220.860 360.397,228.800 360.510,228.800 360.880 C 228.800 361.253,228.907 361.253,229.280 360.880 C 229.800 360.360,237.648 360.182,238.145 360.678 C 238.625 361.158,239.579 361.147,239.488 360.663 C 239.355 359.962,242.753 359.812,243.019 360.506 C 243.153 360.855,243.966 361.092,245.221 361.149 C 247.687 361.262,248.785 360.710,246.800 360.355 L 245.400 360.105 246.900 360.053 C 247.725 360.024,248.400 360.180,248.400 360.400 C 248.400 360.620,248.591 360.800,248.824 360.800 C 249.057 360.800,249.136 360.620,249.000 360.400 C 248.847 360.152,249.635 359.990,251.076 359.973 L 253.400 359.945 256.800 356.366 C 258.670 354.397,262.225 350.764,264.700 348.293 C 267.175 345.822,271.045 341.955,273.300 339.700 C 275.555 337.444,279.245 333.754,281.500 331.500 C 283.756 329.245,287.446 325.555,289.700 323.299 C 291.955 321.044,295.825 317.174,298.300 314.699 C 300.775 312.225,304.465 308.535,306.500 306.499 C 310.678 302.321,317.227 295.772,323.300 289.700 C 325.555 287.446,329.241 283.756,331.492 281.500 C 333.742 279.245,337.015 276.050,338.765 274.400 C 340.515 272.750,341.959 271.175,341.973 270.900 C 341.988 270.625,342.193 270.400,342.429 270.400 C 342.664 270.400,342.587 270.130,342.257 269.800 C 341.927 269.470,341.374 269.200,341.029 269.200 C 340.683 269.200,340.400 268.919,340.400 268.576 C 340.400 268.233,340.257 268.041,340.083 268.149 C 339.909 268.256,339.726 267.817,339.677 267.172 C 339.609 266.283,339.758 266.001,340.294 266.006 C 340.890 266.011,340.908 266.071,340.405 266.388 C 339.932 266.687,339.986 266.751,340.666 266.700 C 341.271 266.655,341.480 266.417,341.379 265.890 C 341.292 265.439,341.426 265.212,341.718 265.314 C 341.983 265.407,342.143 265.797,342.073 266.182 C 341.996 266.606,342.118 266.774,342.384 266.610 C 342.624 266.461,342.795 266.128,342.763 265.870 C 342.636 264.841,342.828 264.400,343.400 264.400 C 343.730 264.400,344.000 264.233,344.000 264.029 C 344.000 263.825,344.585 263.719,345.300 263.794 C 346.015 263.869,346.375 263.841,346.100 263.732 C 345.315 263.420,345.515 262.800,346.400 262.800 C 346.840 262.800,347.200 262.620,347.200 262.400 C 347.200 262.180,347.391 262.000,347.624 262.000 C 347.857 262.000,347.958 262.144,347.850 262.319 C 347.742 262.495,347.824 262.900,348.034 263.219 C 348.299 263.624,348.350 263.405,348.201 262.500 C 347.961 261.034,348.831 260.658,349.586 261.900 C 349.930 262.467,349.964 262.391,349.762 261.500 C 349.609 260.824,349.680 260.400,349.946 260.400 C 350.184 260.400,351.176 259.603,352.151 258.628 C 353.125 257.654,354.030 256.964,354.161 257.095 C 354.293 257.226,354.400 256.893,354.400 256.355 C 354.400 255.817,354.760 255.117,355.200 254.800 C 355.640 254.483,356.000 253.903,356.000 253.512 C 356.000 253.120,356.180 252.800,356.400 252.800 C 356.620 252.800,356.800 252.440,356.800 252.000 C 356.800 251.560,356.980 251.200,357.200 251.200 C 357.420 251.200,357.600 250.949,357.600 250.643 C 357.600 250.336,357.881 249.978,358.225 249.846 C 358.569 249.714,358.726 249.404,358.574 249.158 C 358.422 248.912,358.513 248.578,358.775 248.415 C 359.038 248.253,359.294 247.841,359.344 247.500 C 359.394 247.160,359.623 246.638,359.852 246.340 C 360.081 246.043,360.308 244.995,360.356 244.010 C 360.404 243.026,360.658 242.084,360.921 241.916 C 361.286 241.684,361.281 241.611,360.900 241.606 C 360.625 241.603,360.400 241.240,360.400 240.800 C 360.400 240.360,360.591 240.000,360.824 240.000 C 361.057 240.000,361.111 239.779,360.943 239.507 C 360.600 238.952,360.462 238.085,360.369 235.900 C 360.334 235.075,360.147 234.400,359.953 234.400 C 359.759 234.400,359.600 233.759,359.600 232.976 C 359.600 232.129,359.438 231.653,359.200 231.800 C 358.967 231.944,358.800 231.537,358.800 230.824 C 358.800 230.151,358.599 229.600,358.353 229.600 C 358.108 229.600,357.998 229.252,358.109 228.826 C 358.220 228.400,358.090 227.967,357.819 227.863 C 357.548 227.759,357.006 227.000,356.616 226.176 C 356.225 225.353,355.161 223.864,354.253 222.867 C 353.344 221.870,352.853 221.205,353.162 221.389 C 353.542 221.615,353.631 221.574,353.438 221.262 C 353.281 221.008,352.893 220.800,352.576 220.800 C 352.259 220.800,352.000 220.518,352.000 220.173 C 352.000 219.716,352.230 219.619,352.850 219.816 C 353.422 219.997,353.611 219.941,353.426 219.643 C 353.258 219.370,353.508 219.189,354.076 219.171 C 354.584 219.155,355.476 218.840,356.057 218.471 C 356.638 218.102,358.127 217.200,359.365 216.466 C 361.877 214.978,366.133 210.938,365.784 210.374 C 365.660 210.173,365.867 210.128,366.245 210.273 C 366.709 210.451,366.838 210.385,366.643 210.070 C 366.485 209.814,366.794 209.019,367.330 208.302 C 367.865 207.586,368.541 206.325,368.832 205.500 C 369.123 204.675,369.469 204.000,369.600 204.000 C 369.732 204.000,369.868 203.595,369.902 203.100 C 369.987 201.871,371.048 197.369,371.379 196.834 C 371.526 196.595,371.489 196.400,371.295 196.400 C 371.102 196.400,371.056 195.522,371.194 194.448 C 371.332 193.375,371.312 192.160,371.150 191.748 C 370.989 191.337,370.844 190.091,370.828 188.980 C 370.813 187.869,370.626 186.786,370.413 186.573 C 370.201 186.361,369.983 185.613,369.930 184.911 C 369.876 184.209,369.752 183.715,369.653 183.814 C 369.554 183.913,369.013 182.960,368.450 181.697 C 367.887 180.434,367.319 179.310,367.187 179.200 C 367.055 179.090,366.339 178.100,365.595 177.000 C 364.105 174.795,360.927 171.600,360.225 171.600 C 359.978 171.600,359.517 171.240,359.200 170.800 C 358.883 170.360,358.303 170.000,357.912 170.000 C 357.520 170.000,357.200 169.820,357.200 169.600 C 357.200 169.380,356.829 169.200,356.376 169.200 C 355.923 169.200,355.664 169.020,355.800 168.800 C 355.940 168.573,355.604 168.400,355.024 168.400 C 354.461 168.400,354.000 168.220,354.000 168.000 C 354.000 167.780,353.550 167.600,353.000 167.600 C 352.450 167.600,352.000 167.420,352.000 167.200 C 352.000 166.980,351.010 166.800,349.800 166.800 C 348.590 166.800,347.600 166.620,347.600 166.400 C 347.600 166.137,339.631 166.033,324.300 166.096 L 301.000 166.193 321.500 166.300 M356.301 255.003 C 356.150 255.794,356.220 255.915,356.631 255.574 C 356.918 255.336,357.054 254.885,356.933 254.571 C 356.629 253.777,356.522 253.850,356.301 255.003 M140.488 328.489 C 140.463 335.469,140.568 341.257,140.721 341.352 C 140.983 341.514,140.930 321.519,140.659 317.600 C 140.590 316.610,140.513 321.510,140.488 328.489 M144.806 352.300 C 144.818 352.882,145.512 353.696,145.870 353.549 C 146.070 353.467,145.911 353.085,145.517 352.700 C 145.123 352.315,144.803 352.135,144.806 352.300 M146.996 354.653 C 147.328 354.985,147.600 355.382,147.600 355.534 C 147.600 355.687,148.320 356.123,149.200 356.504 C 150.080 356.886,150.800 357.408,150.800 357.665 C 150.800 357.923,150.913 358.021,151.051 357.883 C 151.189 357.745,151.824 357.902,152.462 358.232 C 153.101 358.563,153.778 358.737,153.966 358.621 C 154.155 358.504,154.532 358.677,154.804 359.004 C 155.076 359.332,155.681 359.586,156.149 359.568 C 156.617 359.551,156.775 359.446,156.500 359.335 C 156.225 359.224,155.997 358.743,155.994 358.267 C 155.989 357.584,155.910 357.524,155.620 357.981 C 155.418 358.300,155.360 358.750,155.491 358.981 C 155.624 359.216,155.569 359.254,155.364 359.067 C 155.164 358.883,155.000 358.523,155.000 358.267 C 155.000 358.010,154.592 357.742,154.094 357.671 C 153.596 357.601,153.296 357.368,153.428 357.155 C 153.574 356.919,153.252 356.872,152.603 357.035 C 151.496 357.313,149.664 356.615,149.075 355.692 C 148.897 355.412,148.582 355.288,148.375 355.415 C 148.054 355.614,147.855 355.157,147.925 354.383 C 147.936 354.264,147.595 354.140,147.168 354.108 C 146.476 354.055,146.457 354.114,146.996 354.653 M250.300 360.682 C 250.795 360.778,251.605 360.778,252.100 360.682 C 252.595 360.587,252.190 360.509,251.200 360.509 C 250.210 360.509,249.805 360.587,250.300 360.682 M255.300 361.087 C 255.905 361.178,256.895 361.178,257.500 361.087 C 258.105 360.995,257.610 360.920,256.400 360.920 C 255.190 360.920,254.695 360.995,255.300 361.087 " stroke="none" fill="#1c74cc" fill-rule="evenodd"></path><path id="path4" d="M250.575 41.832 C 250.923 42.180,251.105 42.630,250.980 42.832 C 250.776 43.163,251.662 43.391,252.541 43.234 C 252.729 43.200,253.224 43.566,253.641 44.047 C 254.059 44.529,254.400 44.726,254.400 44.486 C 254.400 44.246,254.721 44.074,255.114 44.104 C 255.930 44.165,256.112 45.600,255.304 45.600 C 255.016 45.600,252.264 48.165,249.189 51.300 C 246.114 54.435,242.900 57.697,242.047 58.548 C 232.540 68.033,227.177 73.425,226.101 74.580 C 224.910 75.859,223.056 76.257,223.896 75.053 C 224.372 74.371,224.262 73.087,223.711 72.904 C 223.341 72.780,223.228 74.447,223.240 79.862 C 223.250 84.572,223.110 87.030,222.828 87.124 C 222.592 87.203,222.400 87.622,222.400 88.057 C 222.400 88.573,222.573 88.749,222.900 88.565 C 223.300 88.339,223.300 88.390,222.900 88.821 C 222.610 89.134,222.400 90.418,222.400 91.880 C 222.400 93.293,222.224 94.400,222.000 94.400 C 221.780 94.400,221.600 94.929,221.600 95.576 C 221.600 96.223,221.420 96.864,221.200 97.000 C 220.980 97.136,220.800 97.519,220.800 97.852 C 220.800 98.184,220.299 99.208,219.688 100.128 C 219.076 101.048,218.340 102.268,218.053 102.839 C 217.765 103.411,217.075 104.401,216.520 105.039 C 215.965 105.678,215.036 106.829,214.455 107.597 C 211.989 110.863,201.345 121.465,194.976 127.000 C 193.710 128.100,192.478 129.180,192.237 129.400 C 191.996 129.620,190.989 130.454,189.999 131.254 C 189.010 132.053,187.466 133.403,186.568 134.254 C 185.671 135.104,183.799 136.790,182.409 138.000 C 181.019 139.210,179.503 140.565,179.041 141.012 C 178.578 141.458,177.821 142.088,177.357 142.412 C 176.894 142.735,175.383 143.990,174.000 145.200 C 172.617 146.410,171.115 147.723,170.662 148.117 C 165.890 152.270,154.237 163.606,151.609 166.651 C 148.099 170.718,144.653 175.338,144.613 176.029 C 144.606 176.154,144.293 176.564,143.917 176.940 C 143.541 177.316,143.338 177.895,143.466 178.228 C 143.610 178.602,143.496 178.788,143.168 178.716 C 142.876 178.652,142.619 178.870,142.596 179.200 C 142.545 179.935,142.097 181.134,141.475 182.200 C 141.132 182.787,140.986 190.894,140.924 212.600 C 140.878 229.210,140.990 241.761,141.181 241.200 C 141.367 240.650,141.538 238.648,141.560 236.750 C 141.604 232.945,141.638 232.878,145.505 229.076 C 146.443 228.154,150.156 224.453,153.757 220.852 C 161.456 213.150,162.247 212.359,170.956 203.652 C 174.615 199.993,178.305 196.303,179.157 195.452 C 180.633 193.976,193.562 181.047,195.504 179.104 C 196.327 178.282,199.993 174.615,203.652 170.956 C 211.882 162.724,212.737 161.869,220.904 153.704 C 224.534 150.074,228.248 146.361,229.157 145.452 C 230.065 144.543,233.755 140.853,237.357 137.252 C 240.958 133.651,244.624 129.984,245.504 129.104 C 253.722 120.887,260.564 114.043,262.300 112.304 C 267.609 106.986,270.370 104.464,271.152 104.215 C 272.071 103.924,272.251 103.402,271.576 102.985 C 271.307 102.819,271.416 102.507,271.876 102.132 C 272.274 101.807,272.405 101.636,272.167 101.753 C 271.928 101.869,271.733 101.719,271.733 101.418 C 271.733 101.101,272.045 100.932,272.477 101.015 C 272.975 101.111,273.123 100.999,272.924 100.679 C 272.546 100.071,272.508 97.600,272.877 97.600 C 273.152 97.600,273.007 96.272,272.670 95.698 C 272.573 95.534,272.679 94.950,272.905 94.400 C 273.637 92.619,273.934 75.798,273.256 74.477 C 273.066 74.105,272.913 73.170,272.918 72.400 C 272.922 71.630,272.770 70.550,272.580 70.000 C 272.389 69.450,272.207 68.640,272.175 68.200 C 272.144 67.760,272.015 67.130,271.889 66.800 C 271.476 65.714,270.643 63.008,270.597 62.600 C 270.513 61.867,267.662 55.644,267.205 55.200 C 267.092 55.090,266.381 54.100,265.625 53.000 C 264.869 51.900,263.744 50.503,263.125 49.897 C 262.506 49.290,262.000 48.713,262.000 48.615 C 262.000 48.097,260.009 46.552,259.449 46.634 C 259.090 46.687,258.899 46.564,259.024 46.362 C 259.149 46.159,258.835 45.826,258.326 45.622 C 257.817 45.418,257.580 45.239,257.800 45.224 C 258.682 45.165,255.505 43.600,254.490 43.594 C 253.606 43.589,253.513 43.506,254.000 43.156 C 254.506 42.792,254.491 42.760,253.900 42.950 C 253.515 43.074,253.200 42.990,253.200 42.764 C 253.200 42.538,253.020 42.464,252.800 42.600 C 252.580 42.736,252.397 42.612,252.394 42.324 C 252.389 41.942,252.281 41.963,251.994 42.400 C 251.665 42.901,251.559 42.851,251.353 42.100 C 251.218 41.605,250.845 41.200,250.525 41.200 C 250.037 41.200,250.045 41.302,250.575 41.832 M224.000 56.557 C 224.000 57.157,224.164 57.546,224.364 57.422 C 224.766 57.174,224.715 56.182,224.278 55.745 C 224.125 55.592,224.000 55.957,224.000 56.557 M223.200 69.600 C 223.200 70.930,223.367 71.602,223.700 71.606 C 224.040 71.610,224.008 71.750,223.600 72.044 C 223.101 72.403,223.123 72.435,223.733 72.238 C 224.136 72.107,224.563 72.000,224.682 72.000 C 224.801 72.000,224.668 71.722,224.386 71.383 C 223.998 70.916,223.986 70.654,224.337 70.303 C 224.982 69.658,224.914 69.200,224.173 69.200 C 223.728 69.200,223.620 68.968,223.800 68.400 C 223.946 67.941,223.872 67.600,223.627 67.600 C 223.381 67.600,223.200 68.449,223.200 69.600 M114.875 171.800 C 115.353 172.350,115.798 172.800,115.864 172.800 C 115.929 172.800,115.778 172.350,115.527 171.800 C 115.277 171.250,114.832 170.800,114.538 170.800 C 114.184 170.800,114.297 171.135,114.875 171.800 M118.140 175.600 C 118.277 176.150,118.392 176.825,118.395 177.100 C 118.398 177.375,118.805 177.594,119.300 177.587 C 120.070 177.576,120.113 177.504,119.600 177.086 C 119.270 176.817,118.942 176.328,118.871 175.999 C 118.801 175.669,118.551 175.220,118.317 175.000 C 118.020 174.721,117.966 174.902,118.140 175.600 M119.700 178.624 C 119.425 178.922,119.203 179.489,119.206 179.883 C 119.211 180.492,119.271 180.510,119.600 180.000 C 119.830 179.643,119.990 179.592,119.994 179.874 C 119.999 180.274,114.399 186.229,108.451 192.148 C 107.595 192.999,103.926 196.666,100.296 200.296 C 96.666 203.926,92.976 207.616,92.096 208.496 C 91.216 209.376,87.526 213.066,83.896 216.696 C 75.730 224.864,74.864 225.730,66.696 233.896 C 63.066 237.526,59.376 241.216,58.496 242.096 C 57.616 242.976,53.926 246.666,50.296 250.296 C 46.666 253.926,42.976 257.616,42.096 258.496 C 36.647 263.946,29.577 270.800,29.404 270.800 C 29.292 270.800,29.167 269.225,29.126 267.300 C 29.085 265.375,28.930 267.490,28.781 272.000 C 28.417 283.017,28.404 340.063,28.766 338.800 L 29.052 337.800 29.285 338.975 C 29.546 340.291,29.291 341.303,28.779 340.987 C 28.594 340.872,28.541 341.188,28.663 341.689 C 28.784 342.190,28.903 342.915,28.928 343.300 C 29.048 345.218,30.853 343.940,37.401 337.300 C 41.035 333.615,44.705 329.903,45.557 329.052 C 46.408 328.201,50.051 324.557,53.652 320.955 C 61.761 312.846,62.730 311.876,70.904 303.704 C 74.534 300.074,78.224 296.384,79.104 295.504 C 79.984 294.624,83.674 290.934,87.304 287.304 C 90.934 283.674,94.624 279.984,95.504 279.104 C 106.159 268.450,110.538 264.068,112.294 262.304 C 113.445 261.147,115.818 258.850,117.567 257.200 C 120.116 254.795,120.753 253.962,120.780 253.000 C 120.805 252.073,120.901 251.937,121.200 252.400 C 121.496 252.857,121.609 252.667,121.676 251.600 C 121.724 250.830,121.871 252.540,122.004 255.400 C 122.136 258.260,122.272 243.267,122.307 222.082 C 122.358 191.042,122.271 183.525,121.857 183.366 C 121.545 183.247,121.409 182.722,121.510 182.032 C 121.602 181.407,121.480 180.773,121.238 180.624 C 120.997 180.475,120.800 180.543,120.800 180.776 C 120.800 181.009,120.592 181.200,120.338 181.200 C 120.053 181.200,120.118 180.932,120.507 180.500 C 121.016 179.936,121.047 179.634,120.669 178.941 C 120.279 178.226,120.116 178.173,119.700 178.624 " stroke="none" fill="#3c94ec" fill-rule="evenodd"></path></g></svg>