<svg id="svg" version="1.1" xmlns="http://www.w3.org/2000/svg" xmlns:xlink="http://www.w3.org/1999/xlink" width="400" height="400" viewBox="0, 0, 400,400"><g id="svgg"><path id="path0" d="M299.800 0.444 C 298.480 0.650,296.635 0.922,295.700 1.049 C 294.765 1.176,294.000 1.442,294.000 1.640 C 294.000 1.838,293.370 2.000,292.600 2.000 C 291.830 2.000,291.200 2.180,291.200 2.400 C 291.200 2.620,290.480 2.800,289.600 2.800 C 288.720 2.800,288.000 2.980,288.000 3.200 C 288.000 3.420,287.460 3.600,286.800 3.600 C 286.140 3.600,285.600 3.780,285.600 4.000 C 285.600 4.220,285.161 4.400,284.624 4.400 C 284.087 4.400,283.536 4.580,283.400 4.800 C 283.264 5.020,282.803 5.200,282.376 5.200 C 281.949 5.200,281.600 5.341,281.600 5.513 C 281.600 5.685,280.790 6.065,279.800 6.357 C 278.810 6.649,278.000 7.048,278.000 7.244 C 278.000 7.440,277.774 7.600,277.499 7.600 C 276.949 7.600,271.122 10.345,270.800 10.756 C 270.690 10.896,269.745 11.442,268.700 11.968 C 267.655 12.495,266.800 13.077,266.800 13.263 C 266.800 13.448,266.480 13.600,266.088 13.600 C 265.697 13.600,265.117 13.960,264.800 14.400 C 264.483 14.840,263.993 15.200,263.712 15.200 C 263.430 15.200,263.200 15.380,263.200 15.600 C 263.200 15.820,263.012 16.000,262.782 16.000 C 262.552 16.000,261.934 16.405,261.409 16.900 C 260.884 17.395,258.975 19.150,257.166 20.800 C 252.429 25.123,246.400 31.202,246.400 31.655 C 246.400 31.869,245.861 32.619,245.202 33.322 C 244.543 34.025,244.003 34.797,244.002 35.038 C 244.001 35.279,243.644 35.798,243.209 36.191 C 242.775 36.585,242.515 37.063,242.633 37.253 C 242.751 37.444,242.657 37.600,242.424 37.600 C 242.191 37.600,242.000 37.870,242.000 38.200 C 242.000 38.530,241.820 38.800,241.600 38.800 C 241.380 38.800,241.200 39.094,241.200 39.453 C 241.200 39.812,240.871 40.397,240.470 40.753 C 240.068 41.109,239.484 41.985,239.172 42.700 C 238.860 43.415,238.469 44.000,238.302 44.000 C 238.136 44.000,238.000 44.360,238.000 44.800 C 238.000 45.240,237.820 45.600,237.600 45.600 C 237.380 45.600,237.200 45.960,237.200 46.400 C 237.200 46.840,237.020 47.200,236.800 47.200 C 236.580 47.200,236.400 47.560,236.400 48.000 C 236.400 48.440,236.220 48.800,236.000 48.800 C 235.780 48.800,235.600 49.160,235.600 49.600 C 235.600 50.040,235.420 50.400,235.200 50.400 C 234.980 50.400,234.800 50.745,234.800 51.167 C 234.800 51.588,234.575 52.025,234.300 52.136 C 233.912 52.294,233.923 52.425,234.346 52.722 C 234.794 53.036,234.636 53.850,233.468 57.252 C 229.121 69.907,227.590 84.849,229.374 97.200 C 229.910 100.909,230.015 101.476,230.848 105.200 C 231.623 108.667,233.168 113.868,233.995 115.800 C 234.184 116.240,234.664 117.410,235.063 118.400 C 245.182 143.505,268.383 163.171,295.000 169.203 C 296.100 169.452,297.720 169.815,298.600 170.009 C 307.291 171.923,322.777 171.754,332.200 169.641 C 333.080 169.444,334.430 169.159,335.200 169.009 C 335.970 168.858,336.960 168.593,337.400 168.420 C 337.840 168.247,339.460 167.712,341.000 167.232 C 342.540 166.752,344.205 166.188,344.700 165.979 C 345.195 165.771,346.005 165.437,346.500 165.238 C 346.995 165.039,349.311 163.969,351.647 162.862 C 354.563 161.479,356.181 160.922,356.810 161.087 C 357.444 161.253,357.637 161.184,357.439 160.863 C 357.262 160.576,357.433 160.400,357.888 160.400 C 358.293 160.400,358.883 160.040,359.200 159.600 C 359.517 159.160,360.084 158.800,360.460 158.800 C 360.835 158.800,361.385 158.575,361.681 158.300 C 361.977 158.025,362.452 157.751,362.737 157.691 C 363.022 157.631,363.700 157.136,364.245 156.591 C 364.790 156.046,365.400 155.600,365.600 155.600 C 365.800 155.600,366.391 155.173,366.912 154.651 C 367.434 154.129,368.244 153.498,368.712 153.247 C 369.775 152.678,376.800 145.945,376.800 145.495 C 376.800 145.313,377.925 144.033,379.300 142.650 C 382.473 139.459,384.800 136.728,384.800 136.193 C 384.800 135.964,385.160 135.517,385.600 135.200 C 386.040 134.883,386.400 134.386,386.400 134.095 C 386.400 133.804,386.760 133.180,387.200 132.708 C 387.640 132.236,388.000 131.613,388.000 131.325 C 388.000 131.036,388.180 130.800,388.400 130.800 C 388.620 130.800,388.800 130.440,388.800 130.000 C 388.800 129.560,388.942 129.200,389.116 129.200 C 389.480 129.200,391.600 125.153,391.600 124.460 C 391.600 124.207,391.780 124.000,392.000 124.000 C 392.220 124.000,392.400 123.640,392.400 123.200 C 392.400 122.760,392.580 122.400,392.800 122.400 C 393.020 122.400,393.200 122.051,393.200 121.624 C 393.200 121.197,393.380 120.736,393.600 120.600 C 393.820 120.464,394.000 119.913,394.000 119.376 C 394.000 118.839,394.180 118.400,394.400 118.400 C 394.620 118.400,394.800 118.040,394.800 117.600 C 394.800 117.160,394.980 116.800,395.200 116.800 C 395.420 116.800,395.600 116.260,395.600 115.600 C 395.600 114.940,395.780 114.400,396.000 114.400 C 396.220 114.400,396.400 113.860,396.400 113.200 C 396.400 112.540,396.580 112.000,396.800 112.000 C 397.020 112.000,397.200 111.280,397.200 110.400 C 397.200 109.520,397.380 108.800,397.600 108.800 C 397.820 108.800,398.000 108.170,398.000 107.400 C 398.000 106.630,398.180 106.000,398.400 106.000 C 398.620 106.000,398.800 105.316,398.800 104.480 C 398.800 103.644,399.025 102.735,399.300 102.460 C 399.684 102.076,399.800 98.177,399.800 85.713 C 399.800 73.071,399.689 69.430,399.300 69.300 C 398.990 69.197,398.800 68.384,398.800 67.167 C 398.800 66.085,398.620 65.200,398.400 65.200 C 398.180 65.200,398.000 64.480,398.000 63.600 C 398.000 62.720,397.820 62.000,397.600 62.000 C 397.380 62.000,397.200 61.471,397.200 60.824 C 397.200 60.177,397.020 59.536,396.800 59.400 C 396.580 59.264,396.400 58.803,396.400 58.376 C 396.400 57.949,396.220 57.600,396.000 57.600 C 395.780 57.600,395.600 57.060,395.600 56.400 C 395.600 55.740,395.420 55.200,395.200 55.200 C 394.980 55.200,394.800 54.660,394.800 54.000 C 394.800 53.340,394.620 52.800,394.400 52.800 C 394.180 52.800,394.000 52.440,394.000 52.000 C 394.000 51.560,393.820 51.200,393.600 51.200 C 393.380 51.200,393.200 50.840,393.200 50.400 C 393.200 49.960,393.020 49.600,392.800 49.600 C 392.580 49.600,392.400 49.240,392.400 48.800 C 392.400 48.360,392.209 48.000,391.976 48.000 C 391.743 48.000,391.650 47.842,391.769 47.650 C 392.006 47.267,389.751 42.509,388.949 41.698 C 388.676 41.421,388.338 40.836,388.199 40.398 C 388.060 39.959,387.778 39.600,387.573 39.600 C 387.368 39.600,387.200 39.306,387.200 38.947 C 387.200 38.588,386.884 38.003,386.497 37.647 C 386.111 37.291,385.540 36.505,385.230 35.900 C 384.919 35.295,384.515 34.800,384.332 34.800 C 384.150 34.800,384.000 34.552,384.000 34.248 C 384.000 33.945,383.280 32.955,382.400 32.048 C 381.520 31.141,380.800 30.227,380.800 30.017 C 380.800 29.808,379.698 28.593,378.351 27.318 C 377.004 26.043,375.699 24.761,375.451 24.468 C 374.349 23.168,370.171 19.204,369.900 19.202 C 369.736 19.201,368.859 18.480,367.952 17.600 C 367.045 16.720,366.095 16.000,365.840 16.000 C 365.585 16.000,365.117 15.640,364.800 15.200 C 364.483 14.760,363.943 14.400,363.600 14.400 C 363.257 14.400,362.717 14.040,362.400 13.600 C 362.083 13.160,361.569 12.800,361.259 12.800 C 360.948 12.800,360.403 12.481,360.047 12.092 C 359.296 11.271,353.785 8.400,352.959 8.400 C 352.652 8.400,352.400 8.220,352.400 8.000 C 352.400 7.780,351.950 7.600,351.400 7.600 C 350.850 7.600,350.400 7.420,350.400 7.200 C 350.400 6.980,350.040 6.800,349.600 6.800 C 349.160 6.800,348.800 6.620,348.800 6.400 C 348.800 6.180,348.440 6.000,348.000 6.000 C 347.560 6.000,347.200 5.820,347.200 5.600 C 347.200 5.380,346.660 5.200,346.000 5.200 C 345.340 5.200,344.800 5.020,344.800 4.800 C 344.800 4.580,344.451 4.400,344.024 4.400 C 343.597 4.400,343.136 4.220,343.000 4.000 C 342.864 3.780,342.324 3.600,341.800 3.600 C 341.276 3.600,340.736 3.420,340.600 3.200 C 340.464 2.980,339.834 2.800,339.200 2.800 C 338.566 2.800,337.936 2.620,337.800 2.400 C 337.664 2.180,336.933 2.000,336.176 2.000 C 335.419 2.000,334.800 1.820,334.800 1.600 C 334.800 1.380,333.915 1.200,332.833 1.200 C 331.643 1.200,330.803 1.008,330.704 0.713 C 330.501 0.104,303.494 -0.130,299.800 0.444 M350.896 63.496 C 355.243 67.839,358.800 71.620,358.800 71.899 C 358.800 72.451,307.087 124.400,306.539 124.400 C 306.055 124.400,269.600 87.882,269.600 87.398 C 269.600 87.175,273.288 83.307,277.797 78.803 L 285.993 70.614 296.128 80.721 C 302.806 87.380,306.457 90.747,306.832 90.591 C 307.144 90.462,315.230 82.539,324.800 72.985 C 334.370 63.431,342.378 55.611,342.596 55.607 C 342.814 55.603,346.549 59.153,350.896 63.496 " stroke="none" fill="#43cc6c" fill-rule="evenodd"></path><path id="path1" d="M0.000 12.000 L 0.000 24.000 27.200 24.000 L 54.400 24.000 54.400 26.600 C 54.400 28.067,54.574 29.200,54.800 29.200 C 55.040 29.200,55.200 30.800,55.200 33.200 C 55.200 35.600,55.360 37.200,55.600 37.200 C 55.839 37.200,56.000 38.733,56.000 41.000 C 56.000 43.267,56.161 44.800,56.400 44.800 C 56.640 44.800,56.800 46.400,56.800 48.800 C 56.800 51.200,56.960 52.800,57.200 52.800 C 57.439 52.800,57.600 54.333,57.600 56.600 C 57.600 58.690,57.752 60.400,57.939 60.400 C 58.125 60.400,58.404 63.235,58.559 66.700 C 58.714 70.165,58.938 73.630,59.056 74.400 C 59.174 75.170,59.357 77.510,59.462 79.600 C 59.567 81.690,59.821 83.571,60.027 83.780 C 60.232 83.989,60.400 85.834,60.400 87.880 C 60.400 89.926,60.568 91.600,60.773 91.600 C 60.977 91.600,61.249 93.355,61.376 95.500 C 61.503 97.645,61.707 101.155,61.830 103.300 C 61.953 105.445,62.221 107.200,62.427 107.200 C 62.633 107.200,62.800 108.990,62.800 111.200 C 62.800 113.600,62.960 115.200,63.200 115.200 C 63.438 115.200,63.600 116.725,63.600 118.976 C 63.600 121.063,63.779 122.863,64.000 123.000 C 64.221 123.137,64.400 124.937,64.400 127.024 C 64.400 129.275,64.562 130.800,64.800 130.800 C 65.038 130.800,65.200 132.325,65.200 134.576 C 65.200 136.663,65.379 138.463,65.600 138.600 C 65.821 138.737,66.000 140.537,66.000 142.624 C 66.000 144.875,66.162 146.400,66.400 146.400 C 66.640 146.400,66.800 148.000,66.800 150.400 C 66.800 152.800,66.960 154.400,67.200 154.400 C 67.439 154.400,67.600 155.933,67.600 158.200 C 67.600 160.467,67.761 162.000,68.000 162.000 C 68.240 162.000,68.400 163.600,68.400 166.000 C 68.400 168.400,68.560 170.000,68.800 170.000 C 69.039 170.000,69.200 171.533,69.200 173.800 C 69.200 176.067,69.361 177.600,69.600 177.600 C 69.840 177.600,70.000 179.200,70.000 181.600 C 70.000 184.000,70.160 185.600,70.400 185.600 C 70.639 185.600,70.800 187.133,70.800 189.400 C 70.800 191.667,70.961 193.200,71.200 193.200 C 71.440 193.200,71.600 194.800,71.600 197.200 C 71.600 199.600,71.760 201.200,72.000 201.200 C 72.239 201.200,72.400 202.733,72.400 205.000 C 72.400 207.267,72.561 208.800,72.800 208.800 C 73.040 208.800,73.200 210.400,73.200 212.800 C 73.200 215.200,73.360 216.800,73.600 216.800 C 73.839 216.800,74.000 218.333,74.000 220.600 C 74.000 222.690,74.152 224.400,74.339 224.400 C 74.613 224.400,75.296 233.456,75.259 236.600 C 75.254 237.040,75.416 238.300,75.621 239.400 C 76.003 241.458,76.312 245.108,76.637 251.400 C 76.739 253.380,76.992 255.360,77.199 255.800 C 77.553 256.555,77.704 258.196,78.234 267.100 C 78.424 270.288,78.368 270.800,77.827 270.800 C 77.482 270.800,77.200 270.980,77.200 271.200 C 77.200 271.420,76.840 271.600,76.400 271.600 C 75.960 271.600,75.600 271.780,75.600 272.000 C 75.600 272.220,75.240 272.400,74.800 272.400 C 74.360 272.400,74.000 272.580,74.000 272.800 C 74.000 273.020,73.640 273.200,73.200 273.200 C 72.760 273.200,72.400 273.380,72.400 273.600 C 72.400 273.820,72.216 274.000,71.990 274.000 C 70.599 274.000,63.213 280.301,61.207 283.200 C 60.675 283.970,60.120 284.690,59.975 284.800 C 59.581 285.099,58.400 287.496,58.400 287.997 C 58.400 288.237,58.040 288.820,57.600 289.292 C 57.160 289.764,56.800 290.567,56.800 291.075 C 56.800 291.584,56.665 292.001,56.500 292.003 C 56.094 292.007,55.200 293.986,55.200 294.880 C 55.200 295.276,55.020 295.600,54.800 295.600 C 54.580 295.600,54.400 296.320,54.400 297.200 C 54.400 298.080,54.220 298.800,54.000 298.800 C 53.771 298.800,53.600 300.000,53.600 301.600 C 53.600 303.200,53.429 304.400,53.200 304.400 C 52.675 304.400,52.675 309.875,53.200 310.200 C 53.420 310.336,53.600 311.686,53.600 313.200 C 53.600 314.714,53.780 316.064,54.000 316.200 C 54.220 316.336,54.400 317.067,54.400 317.824 C 54.400 318.581,54.580 319.200,54.800 319.200 C 55.020 319.200,55.200 319.740,55.200 320.400 C 55.200 321.060,55.380 321.600,55.600 321.600 C 55.820 321.600,56.000 322.050,56.000 322.600 C 56.000 323.150,56.180 323.600,56.400 323.600 C 56.620 323.600,56.800 323.960,56.800 324.400 C 56.800 324.840,56.980 325.200,57.200 325.200 C 57.420 325.200,57.600 325.560,57.600 326.000 C 57.600 326.440,57.753 326.800,57.939 326.800 C 58.126 326.800,58.603 327.520,59.000 328.400 C 59.397 329.280,59.862 330.000,60.034 330.000 C 60.206 330.000,60.465 330.374,60.610 330.832 C 60.898 331.738,68.180 339.200,68.777 339.200 C 68.978 339.200,69.390 339.447,69.691 339.748 C 70.447 340.505,72.630 341.600,73.380 341.600 C 73.721 341.600,74.001 341.735,74.003 341.900 C 74.007 342.265,75.949 343.200,76.703 343.200 C 77.002 343.200,77.136 343.380,77.000 343.600 C 76.860 343.827,77.196 344.000,77.776 344.000 C 78.339 344.000,78.800 344.180,78.800 344.400 C 78.800 344.620,79.340 344.800,80.000 344.800 C 80.660 344.800,81.200 344.980,81.200 345.200 C 81.200 345.420,81.830 345.600,82.600 345.600 C 83.370 345.600,84.000 345.780,84.000 346.000 C 84.000 346.237,85.467 346.400,87.600 346.400 C 89.733 346.400,91.200 346.563,91.200 346.800 C 91.200 347.060,97.125 347.200,108.176 347.200 L 125.152 347.200 128.076 346.154 C 129.684 345.578,131.180 344.981,131.400 344.826 C 135.377 342.027,146.806 342.312,153.800 345.385 C 158.188 347.313,154.453 347.200,213.634 347.200 L 268.852 347.200 273.064 345.613 C 280.355 342.865,287.824 342.395,293.400 344.333 C 294.720 344.792,297.240 345.670,299.000 346.284 L 302.200 347.400 323.900 347.293 L 345.600 347.186 345.600 334.793 L 345.600 322.400 218.424 322.400 C 134.071 322.400,91.164 322.265,91.000 322.000 C 90.864 321.780,90.133 321.600,89.376 321.600 C 88.619 321.600,88.000 321.420,88.000 321.200 C 88.000 320.980,87.640 320.800,87.200 320.800 C 86.760 320.800,86.400 320.620,86.400 320.400 C 86.400 320.180,86.113 320.000,85.763 320.000 C 84.933 320.000,80.000 315.067,80.000 314.237 C 80.000 313.887,79.820 313.600,79.600 313.600 C 79.380 313.600,79.200 313.240,79.200 312.800 C 79.200 312.360,79.020 312.000,78.800 312.000 C 78.580 312.000,78.400 311.370,78.400 310.600 C 78.400 309.830,78.220 309.200,78.000 309.200 C 77.479 309.200,77.479 306.522,78.000 306.200 C 78.220 306.064,78.400 305.344,78.400 304.600 C 78.400 303.856,78.580 303.136,78.800 303.000 C 79.020 302.864,79.200 302.443,79.200 302.065 C 79.200 301.686,79.560 301.117,80.000 300.800 C 80.440 300.483,80.800 299.987,80.800 299.698 C 80.800 299.079,83.388 296.400,83.987 296.400 C 84.214 296.400,84.400 296.220,84.400 296.000 C 84.400 295.780,84.670 295.600,85.000 295.600 C 85.330 295.600,85.600 295.420,85.600 295.200 C 85.600 294.980,85.960 294.800,86.400 294.800 C 86.840 294.800,87.200 294.620,87.200 294.400 C 87.200 294.180,87.639 294.000,88.176 294.000 C 88.713 294.000,89.264 293.820,89.400 293.600 C 89.564 293.335,132.737 293.200,217.624 293.200 L 345.600 293.200 345.600 281.001 L 345.600 268.801 224.309 268.701 L 103.019 268.600 102.754 266.800 C 102.608 265.810,102.279 262.660,102.023 259.800 C 101.766 256.940,101.394 253.070,101.196 251.200 C 100.666 246.209,100.077 240.389,99.596 235.400 C 99.363 232.980,99.007 229.470,98.806 227.600 C 98.604 225.730,98.244 222.130,98.006 219.600 C 97.595 215.228,97.380 213.072,96.430 203.800 C 96.204 201.600,95.828 197.820,95.593 195.400 C 95.181 191.144,94.827 187.676,94.012 179.900 C 93.799 177.865,93.433 174.130,93.198 171.600 C 92.963 169.070,92.595 165.380,92.379 163.400 C 92.163 161.420,91.359 153.320,90.593 145.400 C 89.827 137.480,89.028 129.380,88.817 127.400 C 88.607 125.420,88.243 121.820,88.008 119.400 C 87.773 116.980,87.397 113.200,87.171 111.000 C 86.462 104.089,86.046 99.943,85.606 95.400 C 85.098 90.145,84.500 84.254,84.002 79.600 C 83.801 77.730,83.439 74.040,83.196 71.400 C 82.954 68.760,82.594 65.250,82.396 63.600 C 81.679 57.597,81.482 52.800,81.952 52.800 C 82.508 52.800,82.546 51.338,82.000 51.000 C 81.779 50.864,81.600 49.070,81.600 47.000 C 81.600 44.930,81.421 43.136,81.200 43.000 C 80.979 42.864,80.800 41.070,80.800 39.000 C 80.800 36.930,80.621 35.136,80.400 35.000 C 80.180 34.864,80.000 33.154,80.000 31.200 C 80.000 29.246,79.820 27.536,79.600 27.400 C 79.379 27.264,79.200 25.470,79.200 23.400 C 79.200 21.330,79.021 19.536,78.800 19.400 C 78.580 19.264,78.400 17.554,78.400 15.600 C 78.400 13.646,78.220 11.936,78.000 11.800 C 77.779 11.664,77.600 9.870,77.600 7.800 C 77.600 5.730,77.421 3.936,77.200 3.800 C 76.980 3.664,76.800 2.753,76.800 1.776 L 76.800 0.000 38.400 0.000 L 0.000 0.000 0.000 12.000 M208.400 215.183 L 202.600 215.400 202.494 226.854 L 202.388 238.308 213.839 238.604 C 223.361 238.851,225.349 238.808,225.639 238.350 C 226.029 237.735,226.138 216.426,225.757 215.433 C 225.496 214.752,221.487 214.694,208.400 215.183 M256.414 215.574 C 255.970 216.404,255.813 237.048,256.243 238.167 C 256.456 238.724,257.873 238.800,268.043 238.800 L 279.600 238.800 279.600 227.047 L 279.600 215.293 278.700 215.052 C 276.052 214.342,256.832 214.792,256.414 215.574 M148.673 215.461 C 148.523 215.611,148.400 220.833,148.400 227.067 L 148.400 238.400 160.006 238.400 L 171.612 238.400 171.506 226.900 L 171.400 215.400 160.173 215.294 C 153.998 215.236,148.823 215.311,148.673 215.461 " stroke="none" fill="#345f8f" fill-rule="evenodd"></path><path id="path2" d="M81.771 56.700 C 81.918 58.845,82.199 61.950,82.396 63.600 C 82.594 65.250,82.954 68.760,83.196 71.400 C 83.439 74.040,83.801 77.730,84.002 79.600 C 84.500 84.254,85.098 90.145,85.606 95.400 C 86.046 99.943,86.462 104.089,87.171 111.000 C 87.397 113.200,87.773 116.980,88.008 119.400 C 88.243 121.820,88.607 125.420,88.817 127.400 C 89.028 129.380,89.827 137.480,90.593 145.400 C 91.359 153.320,92.163 161.420,92.379 163.400 C 92.595 165.380,92.963 169.070,93.198 171.600 C 93.433 174.130,93.799 177.865,94.012 179.900 C 94.827 187.676,95.181 191.144,95.593 195.400 C 95.828 197.820,96.204 201.600,96.430 203.800 C 97.380 213.072,97.595 215.228,98.006 219.600 C 98.244 222.130,98.604 225.730,98.806 227.600 C 99.007 229.470,99.363 232.980,99.596 235.400 C 100.077 240.389,100.666 246.209,101.196 251.200 C 101.394 253.070,101.766 256.940,102.023 259.800 C 102.279 262.660,102.608 265.810,102.754 266.800 L 103.019 268.600 158.514 268.701 L 214.010 268.803 213.905 253.701 L 213.800 238.600 208.094 238.489 L 202.388 238.378 202.494 226.889 L 202.600 215.400 208.200 215.200 L 213.800 215.000 213.901 133.900 L 214.002 52.800 147.753 52.800 L 81.505 52.800 81.771 56.700 M340.175 57.700 L 339.000 59.000 340.300 57.825 C 341.015 57.179,341.600 56.594,341.600 56.525 C 341.600 56.216,341.270 56.488,340.175 57.700 M335.586 62.300 L 333.400 64.600 335.700 62.414 C 336.965 61.211,338.000 60.176,338.000 60.114 C 338.000 59.817,337.618 60.163,335.586 62.300 M330.189 67.700 L 327.400 70.600 330.300 67.811 C 331.895 66.277,333.200 64.972,333.200 64.911 C 333.200 64.617,332.780 65.006,330.189 67.700 M317.789 80.100 L 315.000 83.000 317.900 80.211 C 319.495 78.677,320.800 77.372,320.800 77.311 C 320.800 77.017,320.380 77.406,317.789 80.100 M228.553 85.800 C 228.553 88.440,228.618 89.468,228.697 88.084 C 228.775 86.701,228.774 84.541,228.695 83.284 C 228.616 82.028,228.552 83.160,228.553 85.800 M332.175 98.900 L 331.000 100.200 332.300 99.025 C 333.015 98.379,333.600 97.794,333.600 97.725 C 333.600 97.416,333.270 97.688,332.175 98.900 M253.400 146.400 C 254.483 147.500,255.460 148.400,255.570 148.400 C 255.680 148.400,254.883 147.500,253.800 146.400 C 252.717 145.300,251.740 144.400,251.630 144.400 C 251.520 144.400,252.317 145.300,253.400 146.400 M297.400 170.000 C 297.840 170.189,298.470 170.344,298.800 170.344 C 299.178 170.344,299.104 170.217,298.600 170.000 C 298.160 169.811,297.530 169.656,297.200 169.656 C 296.822 169.656,296.896 169.783,297.400 170.000 M310.307 171.490 C 311.026 171.579,312.106 171.577,312.707 171.486 C 313.308 171.395,312.720 171.322,311.400 171.324 C 310.080 171.326,309.588 171.401,310.307 171.490 M171.506 226.900 L 171.612 238.400 160.006 238.400 L 148.400 238.400 148.400 227.067 C 148.400 220.833,148.523 215.611,148.673 215.461 C 148.823 215.311,153.998 215.236,160.173 215.294 L 171.400 215.400 171.506 226.900 M136.800 343.250 C 134.463 343.723,131.906 344.469,131.400 344.826 C 131.180 344.981,129.669 345.584,128.042 346.166 C 126.415 346.748,124.349 347.804,123.452 348.512 C 121.704 349.891,118.800 352.840,118.800 353.236 C 118.800 353.368,118.350 353.999,117.800 354.638 C 117.251 355.277,116.801 356.010,116.800 356.267 C 116.800 356.523,116.665 356.793,116.500 356.867 C 115.994 357.092,114.400 360.427,114.400 361.261 C 114.400 361.696,114.217 361.934,113.990 361.794 C 113.765 361.655,113.606 361.689,113.637 361.870 C 113.821 362.925,113.544 364.813,113.234 364.621 C 112.803 364.355,112.935 377.050,113.386 379.300 C 113.552 380.125,113.858 380.800,114.067 380.800 C 114.276 380.800,114.355 380.949,114.242 381.132 C 114.009 381.508,116.225 386.069,117.533 387.907 C 118.010 388.576,118.400 389.331,118.400 389.585 C 118.400 389.839,118.580 389.936,118.800 389.800 C 119.020 389.664,119.200 389.761,119.200 390.016 C 119.200 390.544,122.741 394.000,123.282 394.000 C 123.477 394.000,124.056 394.405,124.568 394.900 C 126.249 396.524,127.200 397.200,127.805 397.200 C 128.132 397.200,128.400 397.380,128.400 397.600 C 128.400 397.820,128.760 398.000,129.200 398.000 C 129.640 398.000,130.000 398.180,130.000 398.400 C 130.000 398.620,130.525 398.800,131.167 398.800 C 131.808 398.800,132.408 399.025,132.500 399.300 C 132.845 400.335,150.701 399.978,152.512 398.900 C 153.344 398.405,154.289 398.000,154.612 398.000 C 154.935 398.000,155.200 397.820,155.200 397.600 C 155.200 397.380,155.478 397.200,155.817 397.200 C 156.460 397.200,156.656 397.072,158.558 395.411 C 159.196 394.855,159.867 394.400,160.050 394.400 C 160.676 394.400,166.800 387.807,166.800 387.133 C 166.800 386.931,167.160 386.380,167.600 385.908 C 168.040 385.436,168.400 384.757,168.400 384.400 C 168.400 384.043,168.760 383.005,169.200 382.094 C 169.640 381.184,170.000 379.980,170.000 379.419 C 170.000 378.859,170.165 378.400,170.367 378.400 C 170.681 378.400,171.099 375.097,171.229 371.600 C 171.306 369.527,170.687 364.978,170.252 364.423 C 169.900 363.974,169.917 363.917,170.330 364.165 C 170.751 364.419,170.771 364.311,170.430 363.642 C 170.193 363.179,169.820 362.442,169.600 362.005 C 169.380 361.568,169.200 360.758,169.200 360.205 C 169.200 359.652,169.020 359.200,168.800 359.200 C 168.580 359.200,168.400 358.930,168.400 358.600 C 168.400 358.270,168.220 358.000,168.000 358.000 C 167.780 358.000,167.600 357.730,167.600 357.400 C 167.600 357.070,167.409 356.800,167.176 356.800 C 166.943 356.800,166.855 356.635,166.980 356.432 C 167.105 356.230,166.936 355.793,166.604 355.461 C 166.272 355.129,166.000 354.690,166.000 354.486 C 166.000 353.850,160.019 348.000,159.369 348.000 C 159.030 348.000,158.843 347.854,158.954 347.675 C 159.064 347.496,158.130 347.013,156.877 346.602 C 155.625 346.190,154.420 345.729,154.200 345.577 C 151.193 343.500,141.782 342.241,136.800 343.250 " stroke="none" fill="#4bbbeb" fill-rule="evenodd"></path><path id="path3" d="M328.714 69.300 C 313.698 84.188,307.637 90.082,306.841 90.575 C 306.490 90.792,303.113 87.686,296.161 80.753 L 285.993 70.614 277.797 78.803 C 273.288 83.307,269.600 87.175,269.600 87.398 C 269.600 87.848,306.037 124.400,306.485 124.400 C 306.812 124.400,358.538 72.508,358.726 71.992 C 358.845 71.663,343.181 55.600,342.741 55.600 C 342.626 55.600,336.314 61.765,328.714 69.300 " stroke="none" fill="#e3f7f6" fill-rule="evenodd"></path><path id="path4" d="M213.902 133.900 L 213.800 215.000 219.563 214.879 C 223.969 214.786,225.404 214.880,225.657 215.279 C 226.034 215.874,226.128 237.202,225.757 238.167 C 225.551 238.704,224.638 238.800,219.757 238.800 L 214.000 238.800 214.000 253.800 L 214.000 268.800 279.800 268.800 C 344.666 268.800,345.600 268.789,345.600 268.024 C 345.600 267.597,345.780 267.136,346.000 267.000 C 346.221 266.864,346.400 265.070,346.400 263.000 C 346.400 260.930,346.579 259.136,346.800 259.000 C 347.020 258.864,347.200 257.154,347.200 255.200 C 347.200 253.246,347.380 251.536,347.600 251.400 C 347.821 251.264,348.000 249.470,348.000 247.400 C 348.000 245.330,348.179 243.536,348.400 243.400 C 348.620 243.264,348.800 241.554,348.800 239.600 C 348.800 237.646,348.980 235.936,349.200 235.800 C 349.421 235.664,349.600 233.870,349.600 231.800 C 349.600 229.730,349.779 227.936,350.000 227.800 C 350.220 227.664,350.400 225.954,350.400 224.000 C 350.400 222.046,350.580 220.336,350.800 220.200 C 351.021 220.064,351.200 218.270,351.200 216.200 C 351.200 214.130,351.379 212.336,351.600 212.200 C 351.821 212.064,352.000 210.270,352.000 208.200 C 352.000 206.130,352.179 204.336,352.400 204.200 C 352.620 204.064,352.800 202.354,352.800 200.400 C 352.800 198.446,352.980 196.736,353.200 196.600 C 353.421 196.464,353.600 194.670,353.600 192.600 C 353.600 190.530,353.779 188.736,354.000 188.600 C 354.220 188.464,354.400 186.754,354.400 184.800 C 354.400 182.846,354.580 181.136,354.800 181.000 C 355.020 180.864,355.200 179.089,355.200 177.056 C 355.200 175.023,355.368 173.189,355.573 172.980 C 355.778 172.771,356.036 170.980,356.148 169.000 C 356.259 167.020,356.471 164.528,356.618 163.463 C 357.024 160.535,356.653 160.485,351.752 162.810 C 349.359 163.946,346.995 165.039,346.500 165.238 C 346.005 165.437,345.195 165.771,344.700 165.979 C 344.205 166.188,342.540 166.752,341.000 167.232 C 339.460 167.712,337.840 168.239,337.400 168.403 C 336.960 168.568,335.610 168.913,334.400 169.171 C 333.190 169.428,331.480 169.801,330.600 169.998 C 324.215 171.431,309.154 171.891,302.400 170.859 C 273.600 166.459,249.546 148.862,236.982 123.000 C 233.739 116.325,231.999 111.133,230.008 102.200 C 228.065 93.479,228.084 77.549,230.047 68.800 C 231.141 63.924,231.941 61.074,233.254 57.371 C 235.042 52.333,235.966 52.800,224.202 52.800 L 214.004 52.800 213.902 133.900 M278.700 215.052 L 279.600 215.293 279.600 227.047 L 279.600 238.800 268.043 238.800 C 257.873 238.800,256.456 238.724,256.243 238.167 C 255.813 237.048,255.970 216.404,256.414 215.574 C 256.832 214.792,276.052 214.342,278.700 215.052 M278.000 343.954 C 272.094 345.663,267.830 347.423,266.258 348.800 C 263.293 351.397,261.633 353.232,260.772 354.866 C 260.502 355.380,260.158 355.890,260.009 356.000 C 259.519 356.361,258.400 358.907,258.400 359.661 C 258.400 360.068,258.220 360.400,258.000 360.400 C 257.780 360.400,257.600 360.749,257.600 361.176 C 257.600 361.603,257.420 362.064,257.200 362.200 C 256.980 362.336,256.800 363.056,256.800 363.800 C 256.800 364.544,256.620 365.264,256.400 365.400 C 256.163 365.546,256.000 367.996,256.000 371.400 C 256.000 374.804,256.163 377.254,256.400 377.400 C 256.620 377.536,256.800 378.256,256.800 379.000 C 256.800 379.744,256.980 380.464,257.200 380.600 C 257.420 380.736,257.600 381.197,257.600 381.624 C 257.600 382.051,257.780 382.400,258.000 382.400 C 258.220 382.400,258.400 382.817,258.400 383.327 C 258.400 384.563,260.988 388.737,263.082 390.879 C 266.012 393.877,267.997 395.600,268.518 395.600 C 268.796 395.600,269.283 395.960,269.600 396.400 C 269.917 396.840,270.371 397.200,270.609 397.200 C 271.275 397.200,273.193 398.163,273.197 398.500 C 273.199 398.665,273.725 398.800,274.367 398.800 C 275.008 398.800,275.608 399.025,275.700 399.300 C 275.923 399.968,293.013 400.017,294.439 399.353 C 298.969 397.246,301.020 396.194,301.133 395.921 C 301.207 395.745,301.522 395.600,301.833 395.600 C 302.145 395.600,302.400 395.420,302.400 395.200 C 302.400 394.980,302.596 394.800,302.836 394.800 C 303.364 394.800,308.800 389.283,308.800 388.747 C 308.800 388.538,309.160 387.980,309.600 387.508 C 310.040 387.036,310.400 386.413,310.400 386.125 C 310.400 385.836,310.580 385.600,310.800 385.600 C 311.020 385.600,311.200 385.240,311.200 384.800 C 311.200 384.360,311.380 384.000,311.600 384.000 C 311.820 384.000,312.000 383.651,312.000 383.224 C 312.000 382.797,312.180 382.336,312.400 382.200 C 312.620 382.064,312.800 381.434,312.800 380.800 C 312.800 380.166,312.980 379.536,313.200 379.400 C 313.420 379.264,313.600 378.443,313.600 377.576 C 313.600 376.709,313.780 376.000,314.000 376.000 C 314.242 376.000,314.400 374.275,314.400 371.624 C 314.400 369.137,314.227 367.140,314.000 367.000 C 313.780 366.864,313.600 365.953,313.600 364.976 C 313.600 363.999,313.420 363.200,313.200 363.200 C 312.980 363.200,312.800 362.660,312.800 362.000 C 312.800 361.340,312.620 360.800,312.400 360.800 C 312.180 360.800,312.000 360.440,312.000 360.000 C 312.000 359.560,311.820 359.200,311.600 359.200 C 311.380 359.200,311.200 358.840,311.200 358.400 C 311.200 357.960,311.020 357.600,310.800 357.600 C 310.580 357.600,310.400 357.240,310.400 356.800 C 310.400 356.360,310.264 356.000,310.098 356.000 C 309.931 356.000,309.557 355.462,309.266 354.805 C 307.994 351.932,302.841 347.599,299.200 346.341 C 297.330 345.696,294.720 344.789,293.400 344.326 C 289.907 343.102,281.634 342.902,278.000 343.954 " stroke="none" fill="#049ce3" fill-rule="evenodd"></path></g></svg>