<svg id="svg" version="1.1" xmlns="http://www.w3.org/2000/svg" xmlns:xlink="http://www.w3.org/1999/xlink" width="400" height="400" viewBox="0, 0, 400,400"><g id="svgg"><path id="path0" d="M0.000 12.000 L 0.000 24.000 27.200 24.000 L 54.400 24.000 54.400 26.600 C 54.400 28.067,54.574 29.200,54.800 29.200 C 55.040 29.200,55.200 30.800,55.200 33.200 C 55.200 35.600,55.360 37.200,55.600 37.200 C 55.839 37.200,56.000 38.733,56.000 41.000 C 56.000 43.267,56.161 44.800,56.400 44.800 C 56.640 44.800,56.800 46.400,56.800 48.800 C 56.800 51.200,56.960 52.800,57.200 52.800 C 57.439 52.800,57.600 54.333,57.600 56.600 C 57.600 58.690,57.755 60.400,57.945 60.400 C 58.134 60.400,58.421 63.683,58.582 67.696 C 58.743 71.708,59.038 75.297,59.237 75.669 C 59.437 76.042,59.600 77.969,59.600 79.950 C 59.600 81.932,59.780 83.664,60.000 83.800 C 60.221 83.937,60.400 85.737,60.400 87.824 C 60.400 90.075,60.562 91.600,60.800 91.600 C 61.038 91.600,61.200 93.125,61.200 95.376 C 61.200 97.463,61.379 99.263,61.600 99.400 C 61.821 99.537,62.000 101.337,62.000 103.424 C 62.000 105.675,62.162 107.200,62.400 107.200 C 62.640 107.200,62.800 108.800,62.800 111.200 C 62.800 113.600,62.960 115.200,63.200 115.200 C 63.438 115.200,63.600 116.725,63.600 118.976 C 63.600 121.063,63.779 122.863,64.000 123.000 C 64.221 123.137,64.400 124.937,64.400 127.024 C 64.400 129.275,64.562 130.800,64.800 130.800 C 65.038 130.800,65.200 132.325,65.200 134.576 C 65.200 136.663,65.379 138.463,65.600 138.600 C 65.821 138.737,66.000 140.537,66.000 142.624 C 66.000 144.875,66.162 146.400,66.400 146.400 C 66.640 146.400,66.800 148.000,66.800 150.400 C 66.800 152.800,66.960 154.400,67.200 154.400 C 67.439 154.400,67.600 155.933,67.600 158.200 C 67.600 160.467,67.761 162.000,68.000 162.000 C 68.240 162.000,68.400 163.600,68.400 166.000 C 68.400 168.400,68.560 170.000,68.800 170.000 C 69.039 170.000,69.200 171.533,69.200 173.800 C 69.200 176.067,69.361 177.600,69.600 177.600 C 69.840 177.600,70.000 179.200,70.000 181.600 C 70.000 184.000,70.160 185.600,70.400 185.600 C 70.639 185.600,70.800 187.133,70.800 189.400 C 70.800 191.667,70.961 193.200,71.200 193.200 C 71.440 193.200,71.600 194.800,71.600 197.200 C 71.600 199.600,71.760 201.200,72.000 201.200 C 72.239 201.200,72.400 202.733,72.400 205.000 C 72.400 207.267,72.561 208.800,72.800 208.800 C 73.040 208.800,73.200 210.400,73.200 212.800 C 73.200 215.200,73.360 216.800,73.600 216.800 C 73.839 216.800,74.000 218.333,74.000 220.600 C 74.000 222.867,74.161 224.400,74.400 224.400 C 74.632 224.400,74.811 225.784,74.825 227.700 C 74.849 230.784,75.083 233.886,76.040 243.800 C 76.253 246.000,76.523 249.510,76.640 251.600 C 76.757 253.690,77.021 255.571,77.227 255.780 C 77.432 255.989,77.600 257.834,77.600 259.880 C 77.600 262.093,77.762 263.600,78.000 263.600 C 78.237 263.600,78.400 265.067,78.400 267.200 C 78.400 270.133,78.289 270.800,77.800 270.800 C 77.470 270.800,77.200 270.980,77.200 271.200 C 77.200 271.420,76.840 271.600,76.400 271.600 C 75.960 271.600,75.600 271.780,75.600 272.000 C 75.600 272.220,75.240 272.400,74.800 272.400 C 74.360 272.400,74.000 272.580,74.000 272.800 C 74.000 273.020,73.640 273.200,73.200 273.200 C 72.760 273.200,72.400 273.380,72.400 273.600 C 72.400 273.820,72.218 274.000,71.996 274.000 C 70.629 274.000,60.800 282.442,60.800 283.616 C 60.800 283.796,60.553 284.190,60.252 284.491 C 59.535 285.208,58.400 287.415,58.400 288.092 C 58.400 288.384,58.040 288.883,57.600 289.200 C 57.130 289.539,56.800 290.235,56.800 290.888 C 56.800 291.500,56.665 292.001,56.500 292.003 C 56.094 292.007,55.200 293.986,55.200 294.880 C 55.200 295.276,55.020 295.600,54.800 295.600 C 54.580 295.600,54.400 296.320,54.400 297.200 C 54.400 298.080,54.220 298.800,54.000 298.800 C 53.771 298.800,53.600 300.000,53.600 301.600 C 53.600 303.200,53.429 304.400,53.200 304.400 C 52.675 304.400,52.675 309.875,53.200 310.200 C 53.420 310.336,53.600 311.787,53.600 313.424 C 53.600 315.141,53.769 316.400,54.000 316.400 C 54.220 316.400,54.400 317.030,54.400 317.800 C 54.400 318.570,54.580 319.200,54.800 319.200 C 55.020 319.200,55.200 319.740,55.200 320.400 C 55.200 321.060,55.380 321.600,55.600 321.600 C 55.820 321.600,56.000 322.050,56.000 322.600 C 56.000 323.150,56.180 323.600,56.400 323.600 C 56.620 323.600,56.800 323.960,56.800 324.400 C 56.800 324.840,56.980 325.200,57.200 325.200 C 57.420 325.200,57.600 325.545,57.600 325.967 C 57.600 326.388,57.735 326.793,57.900 326.867 C 58.065 326.940,58.716 327.964,59.347 329.142 C 61.118 332.452,67.348 338.956,69.830 340.086 C 70.363 340.330,70.800 340.680,70.800 340.864 C 70.800 341.049,71.147 341.200,71.571 341.200 C 71.996 341.200,72.613 341.470,72.943 341.800 C 73.273 342.130,73.826 342.400,74.171 342.400 C 74.517 342.400,74.800 342.580,74.800 342.800 C 74.800 343.020,75.160 343.200,75.600 343.200 C 76.040 343.200,76.400 343.380,76.400 343.600 C 76.400 343.820,76.850 344.000,77.400 344.000 C 77.950 344.000,78.400 344.180,78.400 344.400 C 78.400 344.620,78.940 344.800,79.600 344.800 C 80.260 344.800,80.800 344.980,80.800 345.200 C 80.800 345.420,81.419 345.600,82.176 345.600 C 82.933 345.600,83.664 345.780,83.800 346.000 C 83.936 346.220,85.477 346.400,87.224 346.400 C 89.075 346.400,90.400 346.567,90.400 346.800 C 90.400 347.055,93.742 347.200,99.625 347.200 L 108.849 347.200 108.578 349.100 C 108.429 350.145,108.148 351.171,107.953 351.380 C 107.759 351.589,107.600 352.714,107.600 353.880 C 107.600 355.046,107.420 356.000,107.200 356.000 C 106.953 356.000,106.800 358.067,106.800 361.400 C 106.800 364.733,106.953 366.800,107.200 366.800 C 107.420 366.800,107.600 367.779,107.600 368.976 C 107.600 370.173,107.780 371.264,108.000 371.400 C 108.220 371.536,108.399 372.042,108.398 372.524 C 108.396 373.576,109.676 377.345,110.100 377.533 C 110.265 377.607,110.400 378.012,110.400 378.433 C 110.400 378.855,110.580 379.200,110.800 379.200 C 111.020 379.200,111.200 379.560,111.200 380.000 C 111.200 380.440,111.380 380.800,111.600 380.800 C 111.820 380.800,112.000 381.160,112.000 381.600 C 112.000 382.040,112.180 382.400,112.400 382.400 C 112.620 382.400,112.800 382.643,112.800 382.941 C 112.800 383.238,113.295 384.013,113.900 384.663 C 114.505 385.312,115.622 386.644,116.383 387.622 C 117.144 388.600,118.080 389.629,118.464 389.909 C 118.847 390.189,119.427 390.684,119.752 391.009 C 120.077 391.334,120.553 391.600,120.811 391.600 C 121.068 391.600,121.783 392.140,122.400 392.800 C 123.017 393.460,123.743 394.000,124.014 394.000 C 124.284 394.000,124.797 394.329,125.153 394.730 C 125.509 395.132,126.385 395.716,127.100 396.028 C 127.815 396.340,128.400 396.731,128.400 396.898 C 128.400 397.064,128.760 397.200,129.200 397.200 C 129.640 397.200,130.000 397.380,130.000 397.600 C 130.000 397.820,130.540 398.000,131.200 398.000 C 131.860 398.000,132.400 398.180,132.400 398.400 C 132.400 398.620,132.925 398.800,133.567 398.800 C 134.208 398.800,134.808 399.025,134.900 399.300 C 135.028 399.684,137.609 399.800,146.000 399.800 C 154.391 399.800,156.972 399.684,157.100 399.300 C 157.192 399.025,157.792 398.800,158.433 398.800 C 159.075 398.800,159.600 398.620,159.600 398.400 C 159.600 398.180,160.140 398.000,160.800 398.000 C 161.460 398.000,162.000 397.820,162.000 397.600 C 162.000 397.380,162.360 397.200,162.800 397.200 C 163.240 397.200,163.600 397.020,163.600 396.800 C 163.600 396.580,163.960 396.400,164.400 396.400 C 164.840 396.400,165.200 396.220,165.200 396.000 C 165.200 395.780,165.470 395.600,165.800 395.600 C 166.130 395.600,166.400 395.420,166.400 395.200 C 166.400 394.980,166.670 394.800,167.000 394.800 C 167.330 394.800,167.600 394.620,167.600 394.400 C 167.600 394.180,167.875 394.000,168.211 394.000 C 168.548 394.000,169.403 393.474,170.111 392.831 C 174.125 389.191,175.989 387.362,175.994 387.060 C 175.997 386.874,176.540 386.217,177.200 385.600 C 177.860 384.983,178.400 384.231,178.400 383.928 C 178.400 383.625,178.760 383.117,179.200 382.800 C 179.640 382.483,180.000 381.903,180.000 381.512 C 180.000 381.120,180.180 380.800,180.400 380.800 C 180.620 380.800,180.800 380.440,180.800 380.000 C 180.800 379.560,180.980 379.200,181.200 379.200 C 181.420 379.200,181.600 378.840,181.600 378.400 C 181.600 377.960,181.780 377.600,182.000 377.600 C 182.220 377.600,182.400 377.240,182.400 376.800 C 182.400 376.360,182.580 376.000,182.800 376.000 C 183.020 376.000,183.200 375.460,183.200 374.800 C 183.200 374.140,183.380 373.600,183.600 373.600 C 183.820 373.600,184.000 372.970,184.000 372.200 C 184.000 371.430,184.180 370.800,184.400 370.800 C 184.620 370.800,184.800 369.821,184.800 368.624 C 184.800 367.427,184.980 366.336,185.200 366.200 C 185.429 366.059,185.600 364.004,185.600 361.400 C 185.600 358.796,185.429 356.741,185.200 356.600 C 184.980 356.464,184.800 355.373,184.800 354.176 C 184.800 352.979,184.620 352.000,184.400 352.000 C 184.180 352.000,184.000 351.280,184.000 350.400 C 184.000 349.520,183.820 348.800,183.600 348.800 C 183.380 348.800,183.200 348.440,183.200 348.000 C 183.200 347.207,183.467 347.200,213.600 347.200 C 233.600 347.200,244.000 347.337,244.000 347.600 C 244.000 347.820,243.820 348.000,243.600 348.000 C 243.380 348.000,243.200 348.504,243.200 349.120 C 243.200 349.736,243.045 350.411,242.856 350.620 C 241.340 352.296,241.294 368.640,242.796 372.200 C 242.981 372.640,243.367 373.855,243.654 374.900 C 243.940 375.945,244.315 376.800,244.487 376.800 C 244.659 376.800,244.800 377.160,244.800 377.600 C 244.800 378.040,244.980 378.400,245.200 378.400 C 245.420 378.400,245.600 378.760,245.600 379.200 C 245.600 379.640,245.780 380.000,246.000 380.000 C 246.220 380.000,246.400 380.360,246.400 380.800 C 246.400 381.240,246.580 381.600,246.800 381.600 C 247.020 381.600,247.200 381.825,247.201 382.100 C 247.201 382.375,247.741 383.230,248.400 384.000 C 249.059 384.770,249.599 385.544,249.599 385.719 C 249.600 385.895,250.905 387.291,252.500 388.822 C 256.687 392.840,257.114 393.200,257.697 393.200 C 257.987 393.200,258.483 393.560,258.800 394.000 C 259.117 394.440,259.607 394.800,259.888 394.800 C 260.170 394.800,260.400 394.980,260.400 395.200 C 260.400 395.420,260.760 395.600,261.200 395.600 C 261.640 395.600,262.000 395.780,262.000 396.000 C 262.000 396.220,262.360 396.400,262.800 396.400 C 263.240 396.400,263.600 396.580,263.600 396.800 C 263.600 397.020,263.960 397.200,264.400 397.200 C 264.840 397.200,265.200 397.380,265.200 397.600 C 265.200 397.820,265.472 398.000,265.805 398.000 C 266.138 398.000,266.723 398.162,267.105 398.361 C 269.460 399.585,271.654 399.800,281.767 399.800 C 289.705 399.800,292.173 399.683,292.300 399.300 C 292.392 399.025,292.891 398.800,293.410 398.800 C 293.928 398.800,294.464 398.620,294.600 398.400 C 294.736 398.180,295.197 398.000,295.624 398.000 C 296.051 398.000,296.400 397.820,296.400 397.600 C 296.400 397.380,296.760 397.200,297.200 397.200 C 297.640 397.200,298.000 397.020,298.000 396.800 C 298.000 396.580,298.360 396.400,298.800 396.400 C 299.240 396.400,299.600 396.220,299.600 396.000 C 299.600 395.780,299.960 395.600,300.400 395.600 C 300.840 395.600,301.200 395.420,301.200 395.200 C 301.200 394.980,301.520 394.800,301.912 394.800 C 302.303 394.800,302.883 394.440,303.200 394.000 C 303.517 393.560,304.007 393.200,304.288 393.200 C 304.570 393.200,304.800 393.020,304.800 392.800 C 304.800 392.580,305.011 392.400,305.268 392.400 C 305.834 392.400,312.000 386.176,312.000 385.604 C 312.000 385.382,312.180 385.200,312.400 385.200 C 312.620 385.200,312.800 384.970,312.800 384.688 C 312.800 384.407,313.160 383.917,313.600 383.600 C 314.040 383.283,314.400 382.703,314.400 382.312 C 314.400 381.920,314.580 381.600,314.800 381.600 C 315.020 381.600,315.200 381.240,315.200 380.800 C 315.200 380.360,315.380 380.000,315.600 380.000 C 315.820 380.000,316.000 379.640,316.000 379.200 C 316.000 378.760,316.180 378.400,316.400 378.400 C 316.620 378.400,316.800 378.040,316.800 377.600 C 316.800 377.160,316.980 376.800,317.200 376.800 C 317.420 376.800,317.600 376.350,317.600 375.800 C 317.600 375.250,317.780 374.800,318.000 374.800 C 318.220 374.800,318.400 374.260,318.400 373.600 C 318.400 372.940,318.580 372.400,318.800 372.400 C 319.020 372.400,319.200 371.691,319.200 370.824 C 319.200 369.957,319.380 369.136,319.600 369.000 C 319.844 368.849,320.000 365.796,320.000 361.176 C 320.000 356.392,319.853 353.600,319.600 353.600 C 319.380 353.600,319.200 352.880,319.200 352.000 C 319.200 351.120,319.020 350.400,318.800 350.400 C 318.580 350.400,318.400 349.860,318.400 349.200 C 318.400 348.540,318.220 348.000,318.000 348.000 C 317.780 348.000,317.600 347.820,317.600 347.600 C 317.600 347.341,322.533 347.200,331.600 347.200 L 345.600 347.200 345.600 334.800 L 345.600 322.400 218.424 322.400 C 134.071 322.400,91.164 322.265,91.000 322.000 C 90.864 321.780,90.133 321.600,89.376 321.600 C 88.619 321.600,88.000 321.420,88.000 321.200 C 88.000 320.980,87.640 320.800,87.200 320.800 C 86.760 320.800,86.400 320.620,86.400 320.400 C 86.400 320.180,86.113 320.000,85.763 320.000 C 84.933 320.000,80.000 315.067,80.000 314.237 C 80.000 313.887,79.820 313.600,79.600 313.600 C 79.380 313.600,79.200 313.240,79.200 312.800 C 79.200 312.360,79.020 312.000,78.800 312.000 C 78.580 312.000,78.400 311.370,78.400 310.600 C 78.400 309.830,78.220 309.200,78.000 309.200 C 77.780 309.200,77.600 308.570,77.600 307.800 C 77.600 307.030,77.780 306.400,78.000 306.400 C 78.220 306.400,78.400 305.691,78.400 304.824 C 78.400 303.957,78.580 303.136,78.800 303.000 C 79.020 302.864,79.200 302.403,79.200 301.976 C 79.200 301.549,79.380 301.200,79.600 301.200 C 79.820 301.200,80.000 300.930,80.000 300.600 C 80.000 300.270,80.180 300.000,80.400 300.000 C 80.620 300.000,80.800 299.815,80.800 299.589 C 80.800 298.943,84.311 295.600,84.989 295.600 C 85.325 295.600,85.601 295.465,85.603 295.300 C 85.607 294.941,87.544 294.000,88.280 294.000 C 88.566 294.000,88.800 293.820,88.800 293.600 C 88.800 293.334,131.867 293.200,217.200 293.200 L 345.600 293.200 345.600 292.000 C 345.600 291.340,345.780 290.800,346.000 290.800 C 346.238 290.800,346.400 289.275,346.400 287.024 C 346.400 284.937,346.579 283.137,346.800 283.000 C 347.021 282.864,347.200 281.070,347.200 279.000 C 347.200 276.930,347.379 275.136,347.600 275.000 C 347.820 274.864,348.000 273.154,348.000 271.200 C 348.000 269.246,348.180 267.536,348.400 267.400 C 348.621 267.264,348.800 265.470,348.800 263.400 C 348.800 261.330,348.979 259.536,349.200 259.400 C 349.421 259.263,349.600 257.463,349.600 255.376 C 349.600 253.125,349.762 251.600,350.000 251.600 C 350.238 251.600,350.400 250.075,350.400 247.824 C 350.400 245.737,350.579 243.937,350.800 243.800 C 351.020 243.664,351.200 241.889,351.200 239.856 C 351.200 237.823,351.368 235.989,351.573 235.780 C 351.778 235.571,352.046 233.780,352.169 231.800 C 352.291 229.820,352.489 226.580,352.608 224.600 C 352.727 222.620,352.993 220.640,353.200 220.200 C 353.407 219.760,353.671 217.825,353.788 215.900 C 353.905 213.975,354.095 210.825,354.212 208.900 C 354.329 206.975,354.593 205.040,354.800 204.600 C 355.007 204.160,355.267 202.270,355.377 200.400 C 355.564 197.243,355.728 195.453,356.794 184.900 C 357.011 182.755,357.337 179.290,357.518 177.200 C 357.700 175.110,357.957 173.130,358.091 172.800 C 358.224 172.470,358.436 171.728,358.562 171.151 C 358.708 170.477,359.221 169.923,359.995 169.602 C 360.658 169.328,361.200 168.957,361.200 168.778 C 361.200 168.600,361.569 168.337,362.020 168.194 C 362.471 168.051,363.455 167.318,364.207 166.567 C 364.958 165.815,365.763 165.200,365.994 165.200 C 366.225 165.200,367.553 164.075,368.944 162.700 C 370.336 161.325,372.357 159.355,373.437 158.323 C 376.532 155.363,380.000 151.622,380.000 151.243 C 380.000 151.052,380.720 150.155,381.600 149.248 C 382.480 148.341,383.200 147.369,383.200 147.088 C 383.200 146.807,383.560 146.317,384.000 146.000 C 384.440 145.683,384.800 145.143,384.800 144.800 C 384.800 144.457,385.160 143.917,385.600 143.600 C 386.040 143.283,386.400 142.786,386.400 142.495 C 386.400 142.204,386.739 141.603,387.153 141.159 C 387.567 140.714,388.508 139.147,389.245 137.675 C 389.981 136.204,390.706 134.910,390.855 134.799 C 391.004 134.689,391.253 133.924,391.408 133.099 C 391.562 132.275,391.849 131.600,392.045 131.600 C 392.240 131.600,392.400 131.240,392.400 130.800 C 392.400 130.360,392.580 130.000,392.800 130.000 C 393.020 130.000,393.200 129.640,393.200 129.200 C 393.200 128.760,393.380 128.400,393.600 128.400 C 393.820 128.400,394.000 127.860,394.000 127.200 C 394.000 126.540,394.180 126.000,394.400 126.000 C 394.620 126.000,394.800 125.728,394.800 125.395 C 394.800 125.062,394.980 124.432,395.200 123.995 C 395.420 123.558,395.780 122.842,396.000 122.405 C 396.220 121.968,396.400 121.169,396.400 120.629 C 396.400 120.089,396.580 119.536,396.800 119.400 C 397.020 119.264,397.200 118.623,397.200 117.976 C 397.200 117.329,397.380 116.800,397.600 116.800 C 397.820 116.800,398.000 116.080,398.000 115.200 C 398.000 114.320,398.180 113.600,398.400 113.600 C 398.620 113.600,398.800 112.715,398.800 111.633 C 398.800 110.416,398.990 109.603,399.300 109.500 C 400.028 109.257,400.028 76.268,399.300 75.540 C 399.025 75.265,398.800 74.266,398.800 73.320 C 398.800 72.374,398.620 71.600,398.400 71.600 C 398.180 71.600,398.000 70.891,398.000 70.024 C 398.000 69.157,397.820 68.336,397.600 68.200 C 397.380 68.064,397.200 67.333,397.200 66.576 C 397.200 65.819,397.020 65.200,396.800 65.200 C 396.580 65.200,396.400 64.660,396.400 64.000 C 396.400 63.340,396.220 62.800,396.000 62.800 C 395.780 62.800,395.600 62.260,395.600 61.600 C 395.600 60.940,395.420 60.400,395.200 60.400 C 394.980 60.400,394.800 59.950,394.800 59.400 C 394.800 58.850,394.620 58.400,394.400 58.400 C 394.180 58.400,394.000 58.040,394.000 57.600 C 394.000 57.160,393.820 56.800,393.600 56.800 C 393.380 56.800,393.200 56.260,393.200 55.600 C 393.200 54.940,393.020 54.400,392.800 54.400 C 392.580 54.400,392.400 54.040,392.400 53.600 C 392.400 53.160,392.220 52.800,392.000 52.800 C 391.780 52.800,391.600 52.526,391.600 52.190 C 391.600 51.581,388.921 45.978,388.448 45.600 C 388.311 45.490,387.930 44.860,387.602 44.200 C 387.274 43.540,386.689 42.709,386.303 42.353 C 385.916 41.997,385.600 41.452,385.600 41.141 C 385.600 40.831,385.240 40.317,384.800 40.000 C 384.360 39.683,384.000 39.175,384.000 38.872 C 384.000 38.569,383.460 37.817,382.800 37.200 C 382.140 36.583,381.600 35.867,381.600 35.608 C 381.600 35.349,380.880 34.446,380.000 33.600 C 379.120 32.754,378.400 31.869,378.400 31.631 C 378.400 31.394,378.220 31.200,378.000 31.200 C 377.780 31.200,377.600 30.996,377.600 30.747 C 377.600 30.184,368.919 21.600,368.350 21.600 C 368.123 21.600,367.246 20.880,366.400 20.000 C 365.554 19.120,364.651 18.400,364.392 18.400 C 364.133 18.400,363.417 17.860,362.800 17.200 C 362.183 16.540,361.431 16.000,361.128 16.000 C 360.825 16.000,360.317 15.640,360.000 15.200 C 359.683 14.760,359.227 14.400,358.987 14.400 C 358.747 14.400,358.202 14.085,357.775 13.700 C 357.349 13.315,356.460 12.730,355.800 12.401 C 355.140 12.071,354.510 11.689,354.400 11.552 C 354.022 11.079,348.419 8.400,347.810 8.400 C 347.474 8.400,347.200 8.220,347.200 8.000 C 347.200 7.780,346.840 7.600,346.400 7.600 C 345.960 7.600,345.600 7.420,345.600 7.200 C 345.600 6.980,345.060 6.800,344.400 6.800 C 343.740 6.800,343.200 6.620,343.200 6.400 C 343.200 6.180,342.840 6.000,342.400 6.000 C 341.960 6.000,341.600 5.820,341.600 5.600 C 341.600 5.380,341.150 5.200,340.600 5.200 C 340.050 5.200,339.600 5.020,339.600 4.800 C 339.600 4.580,339.060 4.400,338.400 4.400 C 337.740 4.400,337.200 4.220,337.200 4.000 C 337.200 3.780,336.660 3.600,336.000 3.600 C 335.340 3.600,334.800 3.420,334.800 3.200 C 334.800 2.980,334.181 2.800,333.424 2.800 C 332.667 2.800,331.936 2.620,331.800 2.400 C 331.664 2.180,330.843 2.000,329.976 2.000 C 329.109 2.000,328.400 1.820,328.400 1.600 C 328.400 1.380,327.626 1.200,326.680 1.200 C 325.734 1.200,324.735 0.975,324.460 0.700 C 323.732 -0.028,290.743 -0.028,290.500 0.700 C 290.397 1.010,289.584 1.200,288.367 1.200 C 287.285 1.200,286.400 1.380,286.400 1.600 C 286.400 1.820,285.680 2.000,284.800 2.000 C 283.920 2.000,283.200 2.180,283.200 2.400 C 283.200 2.620,282.570 2.800,281.800 2.800 C 281.030 2.800,280.400 2.980,280.400 3.200 C 280.400 3.420,279.871 3.600,279.224 3.600 C 278.577 3.600,277.936 3.780,277.800 4.000 C 277.664 4.220,277.113 4.400,276.576 4.400 C 276.039 4.400,275.600 4.580,275.600 4.800 C 275.600 5.020,275.240 5.200,274.800 5.200 C 274.360 5.200,274.000 5.380,274.000 5.600 C 274.000 5.820,273.460 6.000,272.800 6.000 C 272.140 6.000,271.600 6.180,271.600 6.400 C 271.600 6.620,271.240 6.800,270.800 6.800 C 270.360 6.800,270.000 6.980,270.000 7.200 C 270.000 7.420,269.640 7.600,269.200 7.600 C 268.760 7.600,268.400 7.780,268.400 8.000 C 268.400 8.220,268.085 8.398,267.700 8.395 C 266.790 8.389,259.939 11.825,258.863 12.827 C 258.407 13.252,257.796 13.600,257.505 13.600 C 257.214 13.600,256.717 13.960,256.400 14.400 C 256.083 14.840,255.543 15.200,255.200 15.200 C 254.857 15.200,254.317 15.560,254.000 16.000 C 253.683 16.440,253.231 16.800,252.996 16.800 C 252.760 16.800,251.772 17.520,250.800 18.400 C 249.828 19.280,248.886 20.000,248.709 20.000 C 248.531 20.000,247.242 21.125,245.844 22.500 C 244.447 23.875,242.654 25.540,241.860 26.200 C 241.067 26.860,240.413 27.534,240.409 27.697 C 240.404 27.861,239.140 29.269,237.600 30.828 C 236.060 32.386,234.800 33.845,234.800 34.070 C 234.800 34.295,234.260 34.983,233.600 35.600 C 232.940 36.217,232.400 36.927,232.400 37.179 C 232.400 37.430,231.950 38.086,231.400 38.636 C 230.850 39.186,230.400 39.780,230.400 39.956 C 230.400 40.132,229.974 40.772,229.453 41.378 C 228.932 41.984,228.095 43.227,227.594 44.140 C 227.092 45.053,226.258 46.575,225.741 47.521 C 225.223 48.468,224.800 49.503,224.800 49.821 C 224.800 50.140,224.620 50.400,224.400 50.400 C 224.180 50.400,224.000 50.683,224.000 51.029 C 224.000 52.885,227.409 52.800,152.629 52.800 C 83.378 52.800,82.400 52.789,82.400 52.024 C 82.400 51.597,82.220 51.136,82.000 51.000 C 81.779 50.863,81.600 49.063,81.600 46.976 C 81.600 44.725,81.438 43.200,81.200 43.200 C 80.962 43.200,80.800 41.675,80.800 39.424 C 80.800 37.337,80.621 35.537,80.400 35.400 C 80.179 35.263,80.000 33.463,80.000 31.376 C 80.000 29.125,79.838 27.600,79.600 27.600 C 79.360 27.600,79.200 26.008,79.200 23.624 C 79.200 21.404,79.023 19.538,78.800 19.400 C 78.580 19.264,78.400 17.554,78.400 15.600 C 78.400 13.646,78.220 11.936,78.000 11.800 C 77.780 11.664,77.600 9.954,77.600 8.000 C 77.600 6.046,77.420 4.336,77.200 4.200 C 76.980 4.064,76.800 3.063,76.800 1.976 L 76.800 0.000 38.400 0.000 L 0.000 0.000 0.000 12.000 M315.200 24.851 C 318.632 25.046,321.460 25.381,321.533 25.602 C 321.607 25.821,322.372 26.000,323.233 26.000 C 324.095 26.000,324.800 26.180,324.800 26.400 C 324.800 26.620,325.430 26.800,326.200 26.800 C 326.970 26.800,327.600 26.980,327.600 27.200 C 327.600 27.420,328.140 27.600,328.800 27.600 C 329.460 27.600,330.000 27.780,330.000 28.000 C 330.000 28.220,330.349 28.400,330.776 28.400 C 331.203 28.400,331.664 28.580,331.800 28.800 C 331.936 29.020,332.487 29.200,333.024 29.200 C 333.561 29.200,334.000 29.380,334.000 29.600 C 334.000 29.820,334.360 30.000,334.800 30.000 C 335.240 30.000,335.600 30.180,335.600 30.400 C 335.600 30.620,335.960 30.800,336.400 30.800 C 336.840 30.800,337.200 30.980,337.200 31.200 C 337.200 31.420,337.560 31.600,338.000 31.600 C 338.440 31.600,338.800 31.780,338.800 32.000 C 338.800 32.220,339.160 32.400,339.600 32.400 C 340.040 32.400,340.400 32.580,340.400 32.800 C 340.400 33.020,340.678 33.200,341.017 33.200 C 341.356 33.200,341.989 33.531,342.423 33.936 C 342.858 34.341,343.702 34.926,344.300 35.236 C 344.897 35.546,345.911 36.295,346.552 36.900 C 347.194 37.505,347.874 38.000,348.063 38.000 C 348.252 38.000,348.991 38.558,349.704 39.240 C 350.417 39.923,351.511 40.746,352.137 41.070 C 353.607 41.831,358.169 46.393,358.930 47.863 C 359.254 48.489,360.077 49.583,360.760 50.296 C 361.442 51.009,362.000 51.748,362.000 51.937 C 362.000 52.126,362.540 52.846,363.200 53.537 C 363.860 54.228,364.400 54.982,364.400 55.213 C 364.400 55.444,364.760 56.020,365.200 56.492 C 365.640 56.964,366.224 57.856,366.497 58.475 C 366.771 59.094,367.131 59.600,367.298 59.600 C 367.464 59.600,367.600 59.960,367.600 60.400 C 367.600 60.840,367.780 61.200,368.000 61.200 C 368.220 61.200,368.400 61.560,368.400 62.000 C 368.400 62.440,368.580 62.800,368.800 62.800 C 369.020 62.800,369.200 63.160,369.200 63.600 C 369.200 64.040,369.380 64.400,369.600 64.400 C 369.820 64.400,370.000 64.760,370.000 65.200 C 370.000 65.640,370.180 66.000,370.400 66.000 C 370.620 66.000,370.800 66.439,370.800 66.976 C 370.800 67.513,370.980 68.064,371.200 68.200 C 371.420 68.336,371.600 68.797,371.600 69.224 C 371.600 69.651,371.780 70.000,372.000 70.000 C 372.220 70.000,372.400 70.540,372.400 71.200 C 372.400 71.860,372.580 72.400,372.800 72.400 C 373.020 72.400,373.200 73.030,373.200 73.800 C 373.200 74.570,373.380 75.200,373.600 75.200 C 373.820 75.200,374.000 75.905,374.000 76.767 C 374.000 77.628,374.163 78.393,374.362 78.467 C 375.652 78.941,375.632 106.800,374.342 106.800 C 374.154 106.800,374.000 107.430,374.000 108.200 C 374.000 108.970,373.820 109.600,373.600 109.600 C 373.380 109.600,373.200 110.129,373.200 110.776 C 373.200 111.423,373.020 112.064,372.800 112.200 C 372.580 112.336,372.400 112.887,372.400 113.424 C 372.400 113.961,372.220 114.400,372.000 114.400 C 371.780 114.400,371.600 114.940,371.600 115.600 C 371.600 116.260,371.420 116.800,371.200 116.800 C 370.980 116.800,370.800 117.160,370.800 117.600 C 370.800 118.040,370.620 118.400,370.400 118.400 C 370.180 118.400,370.000 118.940,370.000 119.600 C 370.000 120.260,369.820 120.800,369.600 120.800 C 369.380 120.800,369.200 121.160,369.200 121.600 C 369.200 122.040,369.020 122.400,368.800 122.400 C 368.580 122.400,368.400 122.760,368.400 123.200 C 368.400 123.640,368.220 124.000,368.000 124.000 C 367.780 124.000,367.600 124.270,367.600 124.600 C 367.600 124.930,367.420 125.200,367.200 125.200 C 366.980 125.200,366.800 125.470,366.800 125.800 C 366.800 126.130,366.620 126.400,366.400 126.400 C 366.180 126.400,366.000 126.670,366.000 127.000 C 366.000 127.330,365.820 127.600,365.600 127.600 C 365.380 127.600,365.200 127.920,365.200 128.312 C 365.200 128.703,364.840 129.283,364.400 129.600 C 363.960 129.917,363.600 130.362,363.599 130.588 C 363.599 130.815,363.059 131.630,362.400 132.400 C 361.741 133.170,361.201 133.929,361.201 134.087 C 361.200 134.490,359.089 136.819,355.706 140.150 C 351.371 144.418,350.205 145.463,349.155 146.019 C 348.630 146.298,347.930 146.814,347.600 147.166 C 347.270 147.517,346.505 148.060,345.900 148.370 C 345.295 148.681,344.800 149.085,344.800 149.268 C 344.800 149.450,344.530 149.600,344.200 149.600 C 343.870 149.600,343.600 149.780,343.600 150.000 C 343.600 150.220,343.330 150.400,343.000 150.400 C 342.670 150.400,342.400 150.580,342.400 150.800 C 342.400 151.020,342.130 151.200,341.800 151.200 C 341.470 151.200,341.200 151.380,341.200 151.600 C 341.200 151.820,340.840 152.000,340.400 152.000 C 339.960 152.000,339.600 152.180,339.600 152.400 C 339.600 152.620,339.240 152.800,338.800 152.800 C 338.360 152.800,338.000 152.980,338.000 153.200 C 338.000 153.420,337.640 153.600,337.200 153.600 C 336.760 153.600,336.400 153.780,336.400 154.000 C 336.400 154.220,336.040 154.400,335.600 154.400 C 335.160 154.400,334.800 154.580,334.800 154.800 C 334.800 155.020,334.440 155.200,334.000 155.200 C 333.560 155.200,333.200 155.380,333.200 155.600 C 333.200 155.820,332.660 156.000,332.000 156.000 C 331.340 156.000,330.800 156.180,330.800 156.400 C 330.800 156.620,330.361 156.800,329.824 156.800 C 329.287 156.800,328.736 156.980,328.600 157.200 C 328.464 157.420,327.913 157.600,327.376 157.600 C 326.839 157.600,326.400 157.759,326.400 157.953 C 326.400 158.147,325.005 158.515,323.300 158.770 C 321.595 159.026,319.030 159.429,317.600 159.667 C 312.876 160.452,295.721 160.105,294.600 159.201 C 294.380 159.024,292.985 158.750,291.500 158.593 C 290.015 158.435,288.800 158.148,288.800 157.953 C 288.800 157.759,288.260 157.600,287.600 157.600 C 286.940 157.600,286.400 157.420,286.400 157.200 C 286.400 156.980,285.860 156.800,285.200 156.800 C 284.540 156.800,284.000 156.620,284.000 156.400 C 284.000 156.180,283.640 156.000,283.200 156.000 C 282.760 156.000,282.400 155.820,282.400 155.600 C 282.400 155.380,281.860 155.200,281.200 155.200 C 280.540 155.200,280.000 155.020,280.000 154.800 C 280.000 154.580,279.640 154.400,279.200 154.400 C 278.760 154.400,278.400 154.220,278.400 154.000 C 278.400 153.780,278.040 153.600,277.600 153.600 C 277.160 153.600,276.800 153.420,276.800 153.200 C 276.800 152.980,276.522 152.800,276.183 152.800 C 275.844 152.800,275.180 152.440,274.708 152.000 C 274.236 151.560,273.613 151.200,273.325 151.200 C 273.036 151.200,272.800 151.020,272.800 150.800 C 272.800 150.580,272.530 150.400,272.200 150.400 C 271.870 150.400,271.600 150.220,271.600 150.000 C 271.600 149.780,271.330 149.600,271.000 149.600 C 270.670 149.600,270.400 149.420,270.400 149.200 C 270.400 148.980,270.130 148.800,269.800 148.800 C 269.470 148.800,269.200 148.650,269.200 148.468 C 269.200 148.285,268.705 147.880,268.100 147.568 C 267.495 147.255,266.583 146.591,266.074 146.092 C 265.565 145.593,264.665 144.873,264.074 144.492 C 261.751 142.995,257.137 138.365,255.212 135.600 C 254.676 134.830,253.958 133.930,253.616 133.600 C 253.274 133.270,252.740 132.505,252.430 131.900 C 252.119 131.295,251.715 130.800,251.532 130.800 C 251.350 130.800,251.200 130.530,251.200 130.200 C 251.200 129.870,251.020 129.600,250.800 129.600 C 250.580 129.600,250.400 129.330,250.400 129.000 C 250.400 128.670,250.220 128.400,250.000 128.400 C 249.780 128.400,249.600 128.164,249.600 127.875 C 249.600 127.587,249.240 126.964,248.800 126.492 C 248.360 126.020,248.000 125.446,248.000 125.217 C 248.000 124.988,247.820 124.800,247.600 124.800 C 247.380 124.800,247.200 124.440,247.200 124.000 C 247.200 123.560,247.020 123.200,246.800 123.200 C 246.580 123.200,246.400 122.840,246.400 122.400 C 246.400 121.960,246.220 121.600,246.000 121.600 C 245.780 121.600,245.600 121.240,245.600 120.800 C 245.600 120.360,245.420 120.000,245.200 120.000 C 244.980 120.000,244.800 119.460,244.800 118.800 C 244.800 118.140,244.620 117.600,244.400 117.600 C 244.180 117.600,244.000 117.240,244.000 116.800 C 244.000 116.360,243.820 116.000,243.600 116.000 C 243.380 116.000,243.200 115.460,243.200 114.800 C 243.200 114.140,243.020 113.600,242.800 113.600 C 242.580 113.600,242.400 113.060,242.400 112.400 C 242.400 111.740,242.241 111.200,242.047 111.200 C 241.852 111.200,241.565 109.985,241.407 108.500 C 241.250 107.015,240.976 105.620,240.799 105.400 C 239.895 104.279,239.548 87.124,240.333 82.400 C 240.571 80.970,240.974 78.405,241.230 76.700 C 241.485 74.995,241.853 73.600,242.047 73.600 C 242.241 73.600,242.400 73.060,242.400 72.400 C 242.400 71.740,242.580 71.200,242.800 71.200 C 243.020 71.200,243.200 70.750,243.200 70.200 C 243.200 69.650,243.380 69.200,243.600 69.200 C 243.820 69.200,244.000 68.660,244.000 68.000 C 244.000 67.340,244.180 66.800,244.400 66.800 C 244.620 66.800,244.800 66.440,244.800 66.000 C 244.800 65.560,244.980 65.200,245.200 65.200 C 245.420 65.200,245.600 64.840,245.600 64.400 C 245.600 63.960,245.780 63.600,246.000 63.600 C 246.220 63.600,246.400 63.240,246.400 62.800 C 246.400 62.360,246.580 62.000,246.800 62.000 C 247.020 62.000,247.200 61.640,247.200 61.200 C 247.200 60.760,247.380 60.400,247.600 60.400 C 247.820 60.400,248.000 60.040,248.000 59.600 C 248.000 59.160,248.180 58.800,248.400 58.800 C 248.620 58.800,248.800 58.530,248.800 58.200 C 248.800 57.870,248.980 57.600,249.200 57.600 C 249.420 57.600,249.600 57.330,249.600 57.000 C 249.600 56.670,249.780 56.400,250.000 56.400 C 250.220 56.400,250.400 56.130,250.400 55.800 C 250.400 55.470,250.550 55.200,250.732 55.200 C 250.915 55.200,251.319 54.705,251.630 54.100 C 251.940 53.495,252.483 52.730,252.834 52.400 C 253.186 52.070,253.702 51.370,253.981 50.845 C 254.916 49.080,265.077 38.802,265.889 38.799 C 266.060 38.799,266.830 38.259,267.600 37.600 C 268.370 36.941,269.185 36.401,269.412 36.401 C 269.638 36.400,270.083 36.040,270.400 35.600 C 270.717 35.160,271.297 34.800,271.688 34.800 C 272.080 34.800,272.400 34.620,272.400 34.400 C 272.400 34.180,272.670 34.000,273.000 34.000 C 273.330 34.000,273.600 33.820,273.600 33.600 C 273.600 33.380,273.870 33.200,274.200 33.200 C 274.530 33.200,274.800 33.020,274.800 32.800 C 274.800 32.580,275.070 32.400,275.400 32.400 C 275.730 32.400,276.000 32.220,276.000 32.000 C 276.000 31.780,276.360 31.600,276.800 31.600 C 277.240 31.600,277.600 31.420,277.600 31.200 C 277.600 30.980,277.960 30.800,278.400 30.800 C 278.840 30.800,279.200 30.620,279.200 30.400 C 279.200 30.180,279.639 30.000,280.176 30.000 C 280.713 30.000,281.264 29.820,281.400 29.600 C 281.536 29.380,281.997 29.200,282.424 29.200 C 282.851 29.200,283.200 29.020,283.200 28.800 C 283.200 28.580,283.740 28.400,284.400 28.400 C 285.060 28.400,285.600 28.220,285.600 28.000 C 285.600 27.780,286.039 27.600,286.576 27.600 C 287.113 27.600,287.664 27.420,287.800 27.200 C 287.936 26.980,288.577 26.800,289.224 26.800 C 289.871 26.800,290.400 26.620,290.400 26.400 C 290.400 26.180,291.015 26.000,291.767 26.000 C 292.518 26.000,293.193 25.821,293.267 25.601 C 293.342 25.375,296.078 25.090,299.600 24.943 C 303.010 24.799,306.160 24.536,306.600 24.357 C 307.040 24.178,307.760 24.137,308.200 24.265 C 308.640 24.394,311.790 24.657,315.200 24.851 M330.000 66.453 C 327.250 69.314,324.039 72.588,322.865 73.728 C 321.691 74.868,318.001 78.543,314.665 81.896 C 305.146 91.464,304.537 92.071,302.162 94.347 L 299.922 96.493 297.894 94.547 C 295.858 92.593,294.601 91.329,285.314 81.900 C 281.795 78.327,280.018 76.800,279.379 76.800 C 278.251 76.800,262.000 92.774,262.000 93.883 C 262.000 95.007,298.782 131.600,299.912 131.600 C 300.662 131.600,350.289 82.648,353.135 79.101 C 353.608 78.511,352.962 77.724,347.535 72.282 C 344.161 68.898,340.410 65.027,339.200 63.679 C 336.060 60.181,336.013 60.195,330.000 66.453 M215.200 80.400 C 215.200 82.000,215.029 83.200,214.800 83.200 C 214.545 83.200,214.400 86.525,214.400 92.376 C 214.400 98.063,214.552 101.647,214.800 101.800 C 215.020 101.936,215.200 103.286,215.200 104.800 C 215.200 106.314,215.380 107.664,215.600 107.800 C 215.820 107.936,216.000 108.937,216.000 110.024 C 216.000 111.111,216.180 112.000,216.400 112.000 C 216.620 112.000,216.800 112.720,216.800 113.600 C 216.800 114.480,216.980 115.200,217.200 115.200 C 217.420 115.200,217.600 115.920,217.600 116.800 C 217.600 117.680,217.780 118.400,218.000 118.400 C 218.220 118.400,218.400 118.940,218.400 119.600 C 218.400 120.260,218.580 120.800,218.800 120.800 C 219.020 120.800,219.200 121.340,219.200 122.000 C 219.200 122.660,219.380 123.200,219.600 123.200 C 219.820 123.200,220.000 123.650,220.000 124.200 C 220.000 124.750,220.180 125.200,220.400 125.200 C 220.620 125.200,220.800 125.740,220.800 126.400 C 220.800 127.060,220.980 127.600,221.200 127.600 C 221.420 127.600,221.600 127.960,221.600 128.400 C 221.600 128.840,221.780 129.200,222.000 129.200 C 222.220 129.200,222.400 129.560,222.400 130.000 C 222.400 130.440,222.580 130.800,222.800 130.800 C 223.020 130.800,223.198 131.115,223.195 131.500 C 223.189 132.408,227.432 140.869,228.433 141.943 C 228.855 142.396,229.200 143.004,229.200 143.295 C 229.200 143.586,229.560 144.083,230.000 144.400 C 230.440 144.717,230.800 145.180,230.800 145.429 C 230.800 145.678,231.340 146.446,232.000 147.137 C 232.660 147.828,233.200 148.592,233.200 148.836 C 233.200 149.080,233.702 149.756,234.315 150.340 C 234.929 150.923,235.873 152.029,236.413 152.798 C 237.681 154.605,245.401 162.323,247.209 163.593 C 247.974 164.130,249.077 165.071,249.660 165.685 C 250.244 166.298,250.920 166.800,251.164 166.800 C 251.408 166.800,252.172 167.340,252.863 168.000 C 253.554 168.660,254.322 169.200,254.571 169.200 C 254.820 169.200,255.283 169.560,255.600 170.000 C 255.917 170.440,256.497 170.800,256.888 170.800 C 257.280 170.800,257.600 170.950,257.600 171.132 C 257.600 171.315,258.095 171.720,258.700 172.032 C 259.305 172.344,259.890 172.696,260.000 172.815 C 260.490 173.344,267.872 176.809,268.500 176.805 C 268.885 176.802,269.200 176.980,269.200 177.200 C 269.200 177.420,269.560 177.600,270.000 177.600 C 270.440 177.600,270.800 177.780,270.800 178.000 C 270.800 178.220,271.160 178.400,271.600 178.400 C 272.040 178.400,272.400 178.580,272.400 178.800 C 272.400 179.020,272.940 179.200,273.600 179.200 C 274.260 179.200,274.800 179.380,274.800 179.600 C 274.800 179.820,275.250 180.000,275.800 180.000 C 276.350 180.000,276.800 180.180,276.800 180.400 C 276.800 180.620,277.239 180.800,277.776 180.800 C 278.313 180.800,278.864 180.980,279.000 181.200 C 279.136 181.420,279.777 181.600,280.424 181.600 C 281.071 181.600,281.600 181.780,281.600 182.000 C 281.600 182.220,282.320 182.400,283.200 182.400 C 284.080 182.400,284.800 182.580,284.800 182.800 C 284.800 183.020,285.520 183.200,286.400 183.200 C 287.280 183.200,288.000 183.380,288.000 183.600 C 288.000 183.820,288.889 184.000,289.976 184.000 C 291.063 184.000,292.064 184.180,292.200 184.400 C 292.336 184.620,293.686 184.800,295.200 184.800 C 296.714 184.800,298.064 184.980,298.200 185.200 C 298.353 185.447,301.863 185.600,307.400 185.600 C 312.937 185.600,316.447 185.447,316.600 185.200 C 316.736 184.980,318.187 184.800,319.824 184.800 C 321.461 184.800,322.800 184.637,322.800 184.437 C 322.800 184.237,323.745 183.975,324.900 183.855 C 328.604 183.469,330.399 183.125,330.626 182.758 C 331.211 181.811,331.600 182.625,331.600 184.800 C 331.600 186.133,331.422 187.200,331.200 187.200 C 330.962 187.200,330.800 188.725,330.800 190.976 C 330.800 193.063,330.621 194.863,330.400 195.000 C 330.179 195.137,330.000 196.937,330.000 199.024 C 330.000 201.275,329.838 202.800,329.600 202.800 C 329.362 202.800,329.200 204.325,329.200 206.576 C 329.200 208.663,329.021 210.463,328.800 210.600 C 328.579 210.736,328.400 212.530,328.400 214.600 C 328.400 216.670,328.221 218.464,328.000 218.600 C 327.780 218.736,327.600 220.511,327.600 222.544 C 327.600 224.577,327.432 226.411,327.227 226.620 C 327.022 226.829,326.760 228.620,326.643 230.600 C 326.527 232.580,326.253 236.090,326.033 238.400 C 325.814 240.710,325.457 244.490,325.240 246.800 C 325.023 249.110,324.835 252.485,324.822 254.300 C 324.809 256.218,324.633 257.600,324.400 257.600 C 324.161 257.600,324.000 259.133,324.000 261.400 C 324.000 263.667,323.839 265.200,323.600 265.200 C 323.380 265.200,323.200 265.920,323.200 266.800 L 323.200 268.400 213.400 268.400 L 103.600 268.400 103.600 265.424 C 103.600 263.787,103.420 262.336,103.200 262.200 C 102.979 262.064,102.800 260.270,102.800 258.200 C 102.800 256.130,102.621 254.336,102.400 254.200 C 102.179 254.063,102.000 252.263,102.000 250.176 C 102.000 247.925,101.838 246.400,101.600 246.400 C 101.362 246.400,101.200 244.875,101.200 242.624 C 101.200 240.537,101.021 238.737,100.800 238.600 C 100.579 238.464,100.400 236.670,100.400 234.600 C 100.400 232.530,100.221 230.736,100.000 230.600 C 99.780 230.464,99.600 228.754,99.600 226.800 C 99.600 224.846,99.420 223.136,99.200 223.000 C 98.979 222.864,98.800 221.070,98.800 219.000 C 98.800 216.930,98.621 215.136,98.400 215.000 C 98.180 214.864,98.000 213.154,98.000 211.200 C 98.000 209.246,97.820 207.536,97.600 207.400 C 97.379 207.264,97.200 205.470,97.200 203.400 C 97.200 201.330,97.021 199.536,96.800 199.400 C 96.580 199.264,96.400 197.554,96.400 195.600 C 96.400 193.646,96.220 191.936,96.000 191.800 C 95.779 191.664,95.600 189.870,95.600 187.800 C 95.600 185.730,95.421 183.936,95.200 183.800 C 94.979 183.663,94.800 181.863,94.800 179.776 C 94.800 177.525,94.638 176.000,94.400 176.000 C 94.162 176.000,94.000 174.475,94.000 172.224 C 94.000 170.137,93.821 168.337,93.600 168.200 C 93.379 168.064,93.200 166.270,93.200 164.200 C 93.200 162.130,93.021 160.336,92.800 160.200 C 92.580 160.064,92.400 158.354,92.400 156.400 C 92.400 154.446,92.242 152.750,92.049 152.630 C 91.856 152.511,91.566 149.079,91.405 145.003 C 91.245 140.928,90.953 137.494,90.757 137.373 C 90.560 137.252,90.400 135.464,90.400 133.400 C 90.400 131.330,90.221 129.536,90.000 129.400 C 89.779 129.264,89.600 127.470,89.600 125.400 C 89.600 123.330,89.421 121.536,89.200 121.400 C 88.980 121.264,88.800 119.554,88.800 117.600 C 88.800 115.646,88.620 113.936,88.400 113.800 C 88.179 113.664,88.000 111.870,88.000 109.800 C 88.000 107.730,87.821 105.936,87.600 105.800 C 87.379 105.663,87.200 103.863,87.200 101.776 C 87.200 99.525,87.038 98.000,86.800 98.000 C 86.562 98.000,86.400 96.475,86.400 94.224 C 86.400 92.137,86.221 90.337,86.000 90.200 C 85.779 90.063,85.600 88.263,85.600 86.176 C 85.600 83.925,85.438 82.400,85.200 82.400 C 84.978 82.400,84.800 81.333,84.800 80.000 L 84.800 77.600 150.000 77.600 L 215.200 77.600 215.200 80.400 M147.200 227.000 L 147.200 239.611 159.700 239.506 L 172.200 239.400 172.200 227.000 L 172.200 214.600 159.700 214.494 L 147.200 214.389 147.200 227.000 M201.200 227.000 L 201.200 239.600 213.600 239.600 L 226.000 239.600 226.000 227.000 L 226.000 214.400 213.600 214.400 L 201.200 214.400 201.200 227.000 M255.200 227.000 L 255.200 239.600 267.600 239.600 L 280.000 239.600 280.000 227.000 L 280.000 214.400 267.600 214.400 L 255.200 214.400 255.200 227.000 M149.800 347.600 C 149.936 347.820,150.487 348.000,151.024 348.000 C 151.561 348.000,152.000 348.180,152.000 348.400 C 152.000 348.620,152.277 348.800,152.616 348.800 C 154.285 348.800,159.600 355.490,159.600 357.590 C 159.600 358.010,159.780 358.464,160.000 358.600 C 160.950 359.187,160.387 363.670,158.939 367.060 C 158.642 367.754,158.400 368.453,158.400 368.614 C 158.400 368.774,158.085 369.200,157.700 369.559 C 157.315 369.918,156.808 370.557,156.573 370.979 C 156.339 371.401,155.801 371.939,155.379 372.173 C 154.957 372.408,154.318 372.915,153.959 373.300 C 153.600 373.685,153.012 374.000,152.653 374.000 C 152.294 374.000,152.000 374.164,152.000 374.364 C 152.000 375.654,140.509 375.678,140.067 374.389 C 139.993 374.175,139.678 374.000,139.367 374.000 C 139.055 374.000,138.800 373.820,138.800 373.600 C 138.800 373.380,138.530 373.200,138.200 373.200 C 137.870 373.200,137.600 373.020,137.600 372.800 C 137.600 372.580,137.412 372.400,137.182 372.400 C 136.582 372.400,134.800 370.535,134.800 369.906 C 134.800 369.615,134.440 369.117,134.000 368.800 C 133.560 368.483,133.200 367.903,133.200 367.512 C 133.200 367.120,133.020 366.800,132.800 366.800 C 132.580 366.800,132.400 366.271,132.400 365.624 C 132.400 364.977,132.220 364.336,132.000 364.200 C 131.780 364.064,131.600 362.804,131.600 361.400 C 131.600 359.996,131.780 358.736,132.000 358.600 C 132.220 358.464,132.400 357.823,132.400 357.176 C 132.400 356.529,132.580 356.000,132.800 356.000 C 133.020 356.000,133.200 355.680,133.200 355.288 C 133.200 354.897,133.560 354.317,134.000 354.000 C 134.440 353.683,134.800 353.238,134.800 353.012 C 134.801 352.461,136.593 350.400,137.071 350.400 C 137.279 350.400,137.798 350.085,138.225 349.700 C 138.651 349.315,139.540 348.754,140.200 348.454 C 140.860 348.153,141.670 347.759,142.000 347.577 C 142.861 347.103,149.505 347.123,149.800 347.600 M284.800 347.600 C 284.800 347.820,285.034 348.000,285.320 348.000 C 286.056 348.000,287.993 348.941,287.997 349.300 C 287.999 349.465,288.276 349.600,288.613 349.600 C 289.913 349.600,294.000 354.950,294.000 356.650 C 294.000 356.953,294.180 357.200,294.400 357.200 C 294.640 357.200,294.800 358.792,294.800 361.176 C 294.800 363.396,294.623 365.262,294.400 365.400 C 294.180 365.536,294.000 366.087,294.000 366.624 C 294.000 367.161,293.842 367.600,293.649 367.600 C 293.455 367.600,293.068 368.154,292.787 368.831 C 292.198 370.253,289.494 373.200,288.778 373.200 C 288.512 373.200,288.003 373.527,287.647 373.927 C 286.189 375.564,274.800 375.940,274.800 374.351 C 274.800 374.158,274.546 374.000,274.235 374.000 C 273.488 374.000,268.955 369.519,268.613 368.442 C 268.466 367.979,268.178 367.600,267.973 367.600 C 267.768 367.600,267.600 367.060,267.600 366.400 C 267.600 365.740,267.420 365.200,267.200 365.200 C 266.960 365.200,266.800 363.600,266.800 361.200 C 266.800 358.800,266.960 357.200,267.200 357.200 C 267.420 357.200,267.604 356.885,267.609 356.500 C 267.614 356.115,267.970 355.350,268.400 354.800 C 268.830 354.250,269.186 353.660,269.191 353.489 C 269.205 353.019,272.719 349.600,273.189 349.600 C 273.415 349.600,273.601 349.465,273.603 349.300 C 273.607 348.941,275.544 348.000,276.280 348.000 C 276.566 348.000,276.800 347.820,276.800 347.600 C 276.800 347.360,278.400 347.200,280.800 347.200 C 283.200 347.200,284.800 347.360,284.800 347.600 " stroke="none" fill="#040404" fill-rule="evenodd"></path><path id="path1" d="" stroke="none" fill="#080404" fill-rule="evenodd"></path><path id="path2" d="" stroke="none" fill="#080404" fill-rule="evenodd"></path><path id="path3" d="" stroke="none" fill="#080404" fill-rule="evenodd"></path><path id="path4" d="" stroke="none" fill="#080404" fill-rule="evenodd"></path></g></svg>