<svg id="svg" version="1.1" xmlns="http://www.w3.org/2000/svg" xmlns:xlink="http://www.w3.org/1999/xlink" width="400" height="400" viewBox="0, 0, 400,400"><g id="svgg"><path id="path0" d="M177.900 0.281 C 177.075 0.373,176.400 0.617,176.400 0.824 C 176.400 1.031,175.860 1.200,175.200 1.200 C 174.540 1.200,174.000 1.380,174.000 1.600 C 174.000 1.820,173.640 2.000,173.200 2.000 C 172.760 2.000,172.400 2.180,172.400 2.400 C 172.400 2.620,172.040 2.800,171.600 2.800 C 171.160 2.800,170.800 2.980,170.800 3.200 C 170.800 3.420,170.440 3.600,170.000 3.600 C 169.560 3.600,169.200 3.780,169.200 4.000 C 169.200 4.220,168.840 4.400,168.400 4.400 C 167.960 4.400,167.600 4.580,167.600 4.800 C 167.600 5.020,167.357 5.200,167.059 5.200 C 166.762 5.200,165.954 5.740,165.263 6.400 C 164.572 7.060,163.812 7.600,163.574 7.600 C 163.021 7.600,158.400 12.132,158.400 12.675 C 158.400 12.898,157.860 13.646,157.200 14.337 C 156.540 15.028,156.000 15.782,156.000 16.013 C 156.000 16.244,155.640 16.820,155.200 17.292 C 154.760 17.764,154.400 18.387,154.400 18.675 C 154.400 18.964,154.220 19.200,154.000 19.200 C 153.780 19.200,153.600 19.549,153.600 19.976 C 153.600 20.403,153.420 20.864,153.200 21.000 C 152.980 21.136,152.800 21.687,152.800 22.224 C 152.800 22.761,152.620 23.200,152.400 23.200 C 152.180 23.200,152.000 23.740,152.000 24.400 C 152.000 25.060,151.820 25.600,151.600 25.600 C 151.380 25.600,151.200 26.129,151.200 26.776 C 151.200 27.423,151.020 28.064,150.800 28.200 C 150.580 28.336,150.400 29.506,150.400 30.800 C 150.400 32.094,150.220 33.264,150.000 33.400 C 149.764 33.546,149.600 35.937,149.600 39.224 C 149.600 44.533,149.562 44.800,148.800 44.800 C 148.360 44.800,148.000 44.980,148.000 45.200 C 148.000 45.420,147.460 45.600,146.800 45.600 C 146.140 45.600,145.600 45.780,145.600 46.000 C 145.600 46.220,145.161 46.400,144.624 46.400 C 144.087 46.400,143.536 46.580,143.400 46.800 C 143.264 47.020,142.713 47.200,142.176 47.200 C 141.639 47.200,141.200 47.380,141.200 47.600 C 141.200 47.820,140.840 48.000,140.400 48.000 C 139.960 48.000,139.600 48.180,139.600 48.400 C 139.600 48.620,139.060 48.800,138.400 48.800 C 137.740 48.800,137.200 48.980,137.200 49.200 C 137.200 49.420,136.840 49.600,136.400 49.600 C 135.960 49.600,135.600 49.780,135.600 50.000 C 135.600 50.220,135.240 50.400,134.800 50.400 C 134.360 50.400,134.000 50.580,134.000 50.800 C 134.000 51.020,133.561 51.200,133.024 51.200 C 132.487 51.200,131.936 51.380,131.800 51.600 C 131.664 51.820,131.203 52.000,130.776 52.000 C 130.349 52.000,130.000 52.180,130.000 52.400 C 130.000 52.620,129.640 52.800,129.200 52.800 C 128.760 52.800,128.399 52.935,128.397 53.100 C 128.394 53.414,126.494 54.400,125.892 54.400 C 125.700 54.400,124.701 53.465,123.672 52.323 C 121.256 49.641,118.690 47.200,118.289 47.200 C 118.115 47.200,117.358 46.585,116.607 45.833 C 115.855 45.082,114.871 44.349,114.420 44.206 C 113.969 44.063,113.600 43.778,113.600 43.573 C 113.600 43.368,113.240 43.200,112.800 43.200 C 112.360 43.200,112.000 43.037,112.000 42.837 C 112.000 42.638,111.004 42.161,109.787 41.778 C 108.570 41.396,107.480 40.929,107.364 40.741 C 107.248 40.554,106.713 40.400,106.176 40.400 C 105.639 40.400,105.200 40.220,105.200 40.000 C 105.200 39.780,104.480 39.600,103.600 39.600 C 102.720 39.600,102.000 39.420,102.000 39.200 C 102.000 38.978,100.941 38.800,99.624 38.800 C 98.317 38.800,97.136 38.620,97.000 38.400 C 96.674 37.873,90.400 37.873,90.400 38.400 C 90.400 38.629,89.200 38.800,87.600 38.800 C 86.000 38.800,84.800 38.971,84.800 39.200 C 84.800 39.420,84.080 39.600,83.200 39.600 C 82.320 39.600,81.600 39.780,81.600 40.000 C 81.600 40.220,81.150 40.400,80.600 40.400 C 80.050 40.400,79.600 40.580,79.600 40.800 C 79.600 41.020,79.150 41.200,78.600 41.200 C 78.050 41.200,77.600 41.380,77.600 41.600 C 77.600 41.820,77.317 42.000,76.971 42.000 C 76.297 42.000,72.945 43.838,72.071 44.686 C 71.781 44.969,71.377 45.200,71.175 45.200 C 70.972 45.200,68.033 48.008,64.644 51.441 C 57.245 58.934,58.934 57.245,51.441 64.644 C 48.008 68.033,45.200 70.972,45.200 71.175 C 45.200 71.377,44.969 71.781,44.686 72.071 C 43.838 72.945,42.000 76.297,42.000 76.971 C 42.000 77.317,41.820 77.600,41.600 77.600 C 41.380 77.600,41.200 78.050,41.200 78.600 C 41.200 79.150,41.020 79.600,40.800 79.600 C 40.580 79.600,40.400 80.050,40.400 80.600 C 40.400 81.150,40.220 81.600,40.000 81.600 C 39.780 81.600,39.600 82.320,39.600 83.200 C 39.600 84.080,39.420 84.800,39.200 84.800 C 38.971 84.800,38.800 86.000,38.800 87.600 C 38.800 89.200,38.629 90.400,38.400 90.400 C 38.165 90.400,38.000 91.800,38.000 93.800 C 38.000 95.800,38.165 97.200,38.400 97.200 C 38.622 97.200,38.800 98.267,38.800 99.600 C 38.800 100.933,38.978 102.000,39.200 102.000 C 39.420 102.000,39.600 102.720,39.600 103.600 C 39.600 104.480,39.780 105.200,40.000 105.200 C 40.220 105.200,40.400 105.526,40.400 105.925 C 40.400 106.324,40.748 107.371,41.174 108.252 C 41.600 109.133,42.069 110.337,42.217 110.927 C 42.366 111.517,42.647 112.000,42.843 112.000 C 43.040 112.000,43.200 112.360,43.200 112.800 C 43.200 113.240,43.350 113.600,43.532 113.600 C 43.715 113.600,44.120 114.095,44.432 114.700 C 44.745 115.305,45.495 116.277,46.100 116.860 C 46.705 117.444,47.200 118.091,47.200 118.300 C 47.200 118.646,49.850 121.355,53.100 124.331 C 53.815 124.985,54.400 125.683,54.400 125.881 C 54.400 126.491,53.417 128.394,53.100 128.397 C 52.935 128.399,52.800 128.760,52.800 129.200 C 52.800 129.640,52.620 130.000,52.400 130.000 C 52.180 130.000,52.000 130.272,52.000 130.605 C 52.000 130.938,51.792 131.613,51.538 132.105 C 50.567 133.982,50.400 134.407,50.400 134.995 C 50.400 135.328,50.220 135.600,50.000 135.600 C 49.780 135.600,49.600 135.960,49.600 136.400 C 49.600 136.840,49.420 137.200,49.200 137.200 C 48.980 137.200,48.800 137.740,48.800 138.400 C 48.800 139.060,48.620 139.600,48.400 139.600 C 48.180 139.600,48.000 139.960,48.000 140.400 C 48.000 140.840,47.820 141.200,47.600 141.200 C 47.380 141.200,47.200 141.639,47.200 142.176 C 47.200 142.713,47.020 143.264,46.800 143.400 C 46.580 143.536,46.400 144.087,46.400 144.624 C 46.400 145.161,46.220 145.600,46.000 145.600 C 45.780 145.600,45.600 146.140,45.600 146.800 C 45.600 147.460,45.420 148.000,45.200 148.000 C 44.980 148.000,44.800 148.360,44.800 148.800 C 44.800 149.562,44.533 149.600,39.224 149.600 C 35.937 149.600,33.546 149.764,33.400 150.000 C 33.264 150.220,32.094 150.400,30.800 150.400 C 29.506 150.400,28.336 150.580,28.200 150.800 C 28.064 151.020,27.423 151.200,26.776 151.200 C 26.129 151.200,25.600 151.380,25.600 151.600 C 25.600 151.820,25.060 152.000,24.400 152.000 C 23.740 152.000,23.200 152.180,23.200 152.400 C 23.200 152.620,22.761 152.800,22.224 152.800 C 21.687 152.800,21.136 152.980,21.000 153.200 C 20.864 153.420,20.403 153.600,19.976 153.600 C 19.549 153.600,19.200 153.780,19.200 154.000 C 19.200 154.220,18.964 154.400,18.675 154.400 C 18.387 154.400,17.764 154.760,17.292 155.200 C 16.820 155.640,16.228 156.000,15.977 156.000 C 15.726 156.000,15.017 156.540,14.400 157.200 C 13.783 157.860,13.052 158.400,12.773 158.400 C 12.140 158.400,7.600 162.972,7.600 163.610 C 7.600 163.868,7.060 164.583,6.400 165.200 C 5.740 165.817,5.200 166.609,5.200 166.960 C 5.200 167.312,5.020 167.600,4.800 167.600 C 4.580 167.600,4.400 167.960,4.400 168.400 C 4.400 168.840,4.220 169.200,4.000 169.200 C 3.780 169.200,3.600 169.560,3.600 170.000 C 3.600 170.440,3.420 170.800,3.200 170.800 C 2.980 170.800,2.800 171.160,2.800 171.600 C 2.800 172.040,2.620 172.400,2.400 172.400 C 2.180 172.400,2.000 172.760,2.000 173.200 C 2.000 173.640,1.820 174.000,1.600 174.000 C 1.380 174.000,1.200 174.525,1.200 175.167 C 1.200 175.808,0.975 176.408,0.700 176.500 C -0.032 176.744,-0.032 223.256,0.700 223.500 C 0.975 223.592,1.200 224.192,1.200 224.833 C 1.200 225.475,1.380 226.000,1.600 226.000 C 1.820 226.000,2.000 226.360,2.000 226.800 C 2.000 227.240,2.180 227.600,2.400 227.600 C 2.620 227.600,2.800 227.960,2.800 228.400 C 2.800 228.840,2.980 229.200,3.200 229.200 C 3.420 229.200,3.600 229.560,3.600 230.000 C 3.600 230.440,3.780 230.800,4.000 230.800 C 4.220 230.800,4.400 231.160,4.400 231.600 C 4.400 232.040,4.580 232.400,4.800 232.400 C 5.020 232.400,5.200 232.688,5.200 233.040 C 5.200 233.391,5.740 234.183,6.400 234.800 C 7.060 235.417,7.600 236.132,7.600 236.390 C 7.600 237.028,12.140 241.600,12.773 241.600 C 13.052 241.600,13.783 242.140,14.400 242.800 C 15.017 243.460,15.809 244.000,16.160 244.000 C 16.512 244.000,16.800 244.180,16.800 244.400 C 16.800 244.620,17.036 244.800,17.325 244.800 C 17.613 244.800,18.236 245.160,18.708 245.600 C 19.180 246.040,19.833 246.400,20.160 246.400 C 20.486 246.400,20.864 246.580,21.000 246.800 C 21.136 247.020,21.687 247.200,22.224 247.200 C 22.761 247.200,23.200 247.380,23.200 247.600 C 23.200 247.820,23.740 248.000,24.400 248.000 C 25.060 248.000,25.600 248.180,25.600 248.400 C 25.600 248.620,26.129 248.800,26.776 248.800 C 27.423 248.800,28.064 248.980,28.200 249.200 C 28.336 249.420,29.596 249.600,31.000 249.600 C 32.404 249.600,33.664 249.780,33.800 250.000 C 33.945 250.235,36.271 250.400,39.424 250.400 C 44.533 250.400,44.800 250.440,44.800 251.200 C 44.800 251.640,44.980 252.000,45.200 252.000 C 45.420 252.000,45.600 252.540,45.600 253.200 C 45.600 253.860,45.780 254.400,46.000 254.400 C 46.220 254.400,46.400 254.839,46.400 255.376 C 46.400 255.913,46.580 256.464,46.800 256.600 C 47.020 256.736,47.200 257.287,47.200 257.824 C 47.200 258.361,47.380 258.800,47.600 258.800 C 47.820 258.800,48.000 259.160,48.000 259.600 C 48.000 260.040,48.180 260.400,48.400 260.400 C 48.620 260.400,48.800 260.940,48.800 261.600 C 48.800 262.260,48.980 262.800,49.200 262.800 C 49.420 262.800,49.600 263.160,49.600 263.600 C 49.600 264.040,49.780 264.400,50.000 264.400 C 50.220 264.400,50.400 264.672,50.400 265.005 C 50.400 265.338,50.580 265.968,50.800 266.405 C 51.020 266.842,51.380 267.558,51.600 267.995 C 51.820 268.432,52.000 269.062,52.000 269.395 C 52.000 269.728,52.180 270.000,52.400 270.000 C 52.620 270.000,52.800 270.360,52.800 270.800 C 52.800 271.240,52.935 271.601,53.100 271.603 C 53.417 271.606,54.400 273.509,54.400 274.119 C 54.400 274.317,53.815 275.015,53.100 275.669 C 49.850 278.645,47.200 281.354,47.200 281.700 C 47.200 281.909,46.705 282.556,46.100 283.140 C 45.495 283.723,44.745 284.695,44.432 285.300 C 44.120 285.905,43.715 286.400,43.532 286.400 C 43.350 286.400,43.200 286.760,43.200 287.200 C 43.200 287.640,43.040 288.000,42.843 288.000 C 42.647 288.000,42.366 288.483,42.217 289.073 C 42.069 289.663,41.600 290.867,41.174 291.748 C 40.748 292.629,40.400 293.676,40.400 294.075 C 40.400 294.474,40.220 294.800,40.000 294.800 C 39.780 294.800,39.600 295.520,39.600 296.400 C 39.600 297.280,39.420 298.000,39.200 298.000 C 38.978 298.000,38.800 299.067,38.800 300.400 C 38.800 301.733,38.622 302.800,38.400 302.800 C 38.165 302.800,38.000 304.200,38.000 306.200 C 38.000 308.200,38.165 309.600,38.400 309.600 C 38.629 309.600,38.800 310.800,38.800 312.400 C 38.800 314.000,38.971 315.200,39.200 315.200 C 39.420 315.200,39.600 315.920,39.600 316.800 C 39.600 317.680,39.780 318.400,40.000 318.400 C 40.220 318.400,40.400 318.850,40.400 319.400 C 40.400 319.950,40.580 320.400,40.800 320.400 C 41.020 320.400,41.200 320.850,41.200 321.400 C 41.200 321.950,41.380 322.400,41.600 322.400 C 41.820 322.400,42.000 322.683,42.000 323.029 C 42.000 323.703,43.838 327.055,44.686 327.929 C 44.969 328.219,45.200 328.623,45.200 328.825 C 45.200 329.028,48.008 331.967,51.441 335.356 C 58.934 342.755,57.245 341.066,64.644 348.559 C 68.033 351.992,70.972 354.800,71.175 354.800 C 71.377 354.800,71.781 355.025,72.071 355.300 C 73.246 356.411,77.063 358.493,78.291 358.692 C 79.011 358.809,79.600 359.061,79.600 359.252 C 79.600 359.444,80.050 359.600,80.600 359.600 C 81.150 359.600,81.600 359.780,81.600 360.000 C 81.600 360.220,82.320 360.400,83.200 360.400 C 84.080 360.400,84.800 360.580,84.800 360.800 C 84.800 361.029,86.000 361.200,87.600 361.200 C 89.200 361.200,90.400 361.371,90.400 361.600 C 90.400 361.831,91.667 362.000,93.400 362.000 C 95.133 362.000,96.400 361.831,96.400 361.600 C 96.400 361.371,97.600 361.200,99.200 361.200 C 100.800 361.200,102.000 361.029,102.000 360.800 C 102.000 360.580,102.720 360.400,103.600 360.400 C 104.480 360.400,105.200 360.220,105.200 360.000 C 105.200 359.780,105.639 359.600,106.176 359.600 C 106.713 359.600,107.250 359.442,107.370 359.249 C 107.489 359.056,108.386 358.697,109.363 358.451 C 110.340 358.205,111.410 357.733,111.741 357.402 C 112.072 357.071,112.626 356.800,112.971 356.800 C 113.317 356.800,113.600 356.632,113.600 356.427 C 113.600 356.222,113.969 355.937,114.420 355.794 C 114.871 355.651,115.855 354.918,116.607 354.167 C 117.358 353.415,118.115 352.800,118.289 352.800 C 118.669 352.800,121.099 350.504,123.716 347.673 C 124.770 346.533,125.769 345.600,125.936 345.600 C 126.504 345.600,128.394 346.598,128.397 346.900 C 128.399 347.065,128.760 347.200,129.200 347.200 C 129.640 347.200,130.000 347.380,130.000 347.600 C 130.000 347.820,130.349 348.000,130.776 348.000 C 131.203 348.000,131.664 348.180,131.800 348.400 C 131.936 348.620,132.487 348.800,133.024 348.800 C 133.561 348.800,134.000 348.980,134.000 349.200 C 134.000 349.420,134.360 349.600,134.800 349.600 C 135.240 349.600,135.600 349.780,135.600 350.000 C 135.600 350.220,135.960 350.400,136.400 350.400 C 136.840 350.400,137.200 350.580,137.200 350.800 C 137.200 351.020,137.740 351.200,138.400 351.200 C 139.060 351.200,139.600 351.380,139.600 351.600 C 139.600 351.820,139.960 352.000,140.400 352.000 C 140.840 352.000,141.200 352.180,141.200 352.400 C 141.200 352.620,141.639 352.800,142.176 352.800 C 142.713 352.800,143.264 352.980,143.400 353.200 C 143.536 353.420,144.087 353.600,144.624 353.600 C 145.161 353.600,145.600 353.780,145.600 354.000 C 145.600 354.220,146.140 354.400,146.800 354.400 C 147.460 354.400,148.000 354.580,148.000 354.800 C 148.000 355.020,148.360 355.200,148.800 355.200 C 149.562 355.200,149.600 355.467,149.600 360.776 C 149.600 364.063,149.764 366.454,150.000 366.600 C 150.220 366.736,150.400 367.906,150.400 369.200 C 150.400 370.494,150.580 371.664,150.800 371.800 C 151.020 371.936,151.200 372.566,151.200 373.200 C 151.200 373.834,151.380 374.464,151.600 374.600 C 151.820 374.736,152.000 375.287,152.000 375.824 C 152.000 376.361,152.180 376.800,152.400 376.800 C 152.620 376.800,152.800 377.239,152.800 377.776 C 152.800 378.313,152.980 378.864,153.200 379.000 C 153.420 379.136,153.600 379.597,153.600 380.024 C 153.600 380.451,153.780 380.800,154.000 380.800 C 154.220 380.800,154.400 381.036,154.400 381.325 C 154.400 381.613,154.760 382.236,155.200 382.708 C 155.640 383.180,156.000 383.772,156.000 384.023 C 156.000 384.274,156.540 384.983,157.200 385.600 C 157.860 386.217,158.400 386.948,158.400 387.227 C 158.400 387.838,162.962 392.400,163.574 392.400 C 163.812 392.400,164.572 392.940,165.263 393.600 C 165.954 394.260,166.762 394.800,167.059 394.800 C 167.357 394.800,167.600 394.980,167.600 395.200 C 167.600 395.420,167.960 395.600,168.400 395.600 C 168.840 395.600,169.200 395.780,169.200 396.000 C 169.200 396.220,169.560 396.400,170.000 396.400 C 170.440 396.400,170.800 396.580,170.800 396.800 C 170.800 397.020,171.160 397.200,171.600 397.200 C 172.040 397.200,172.400 397.380,172.400 397.600 C 172.400 397.820,172.760 398.000,173.200 398.000 C 173.640 398.000,174.000 398.180,174.000 398.400 C 174.000 398.620,174.525 398.800,175.167 398.800 C 175.808 398.800,176.408 399.025,176.500 399.300 C 176.744 400.032,223.256 400.032,223.500 399.300 C 223.592 399.025,224.192 398.800,224.833 398.800 C 225.475 398.800,226.000 398.620,226.000 398.400 C 226.000 398.180,226.360 398.000,226.800 398.000 C 227.240 398.000,227.600 397.820,227.600 397.600 C 227.600 397.380,227.960 397.200,228.400 397.200 C 228.840 397.200,229.200 397.020,229.200 396.800 C 229.200 396.580,229.560 396.400,230.000 396.400 C 230.440 396.400,230.800 396.220,230.800 396.000 C 230.800 395.780,231.160 395.600,231.600 395.600 C 232.040 395.600,232.400 395.420,232.400 395.200 C 232.400 394.980,232.688 394.800,233.040 394.800 C 233.391 394.800,234.183 394.260,234.800 393.600 C 235.417 392.940,236.164 392.396,236.460 392.392 C 237.139 392.381,241.600 387.892,241.600 387.219 C 241.600 386.945,242.140 386.217,242.800 385.600 C 243.460 384.983,244.000 384.191,244.000 383.840 C 244.000 383.488,244.159 383.200,244.353 383.200 C 244.548 383.200,244.810 382.885,244.936 382.500 C 245.062 382.115,245.623 381.030,246.182 380.089 C 246.742 379.148,247.200 378.023,247.200 377.589 C 247.200 377.155,247.380 376.800,247.600 376.800 C 247.820 376.800,248.000 376.361,248.000 375.824 C 248.000 375.287,248.180 374.736,248.400 374.600 C 248.620 374.464,248.800 373.834,248.800 373.200 C 248.800 372.566,248.980 371.936,249.200 371.800 C 249.420 371.664,249.600 370.494,249.600 369.200 C 249.600 367.906,249.780 366.736,250.000 366.600 C 250.236 366.454,250.400 364.063,250.400 360.776 C 250.400 355.467,250.438 355.200,251.200 355.200 C 251.640 355.200,252.000 355.020,252.000 354.800 C 252.000 354.580,252.540 354.400,253.200 354.400 C 253.860 354.400,254.400 354.220,254.400 354.000 C 254.400 353.780,254.839 353.600,255.376 353.600 C 255.913 353.600,256.464 353.420,256.600 353.200 C 256.736 352.980,257.287 352.800,257.824 352.800 C 258.361 352.800,258.800 352.620,258.800 352.400 C 258.800 352.180,259.160 352.000,259.600 352.000 C 260.040 352.000,260.400 351.820,260.400 351.600 C 260.400 351.380,260.940 351.200,261.600 351.200 C 262.260 351.200,262.800 351.020,262.800 350.800 C 262.800 350.580,263.160 350.400,263.600 350.400 C 264.040 350.400,264.400 350.220,264.400 350.000 C 264.400 349.780,264.749 349.600,265.176 349.600 C 265.603 349.600,266.064 349.420,266.200 349.200 C 266.336 348.980,266.887 348.800,267.424 348.800 C 267.961 348.800,268.400 348.620,268.400 348.400 C 268.400 348.180,268.760 348.000,269.200 348.000 C 269.640 348.000,270.000 347.820,270.000 347.600 C 270.000 347.380,270.360 347.200,270.800 347.200 C 271.240 347.200,271.601 347.065,271.603 346.900 C 271.606 346.579,273.512 345.600,274.133 345.600 C 274.338 345.600,274.828 345.971,275.221 346.424 C 277.364 348.895,279.699 351.214,280.872 352.037 C 281.602 352.550,282.650 353.437,283.200 354.009 C 283.750 354.581,285.010 355.488,286.000 356.025 C 286.990 356.561,287.860 357.135,287.933 357.300 C 288.007 357.465,288.412 357.600,288.833 357.600 C 289.255 357.600,289.600 357.764,289.600 357.965 C 289.600 358.166,290.320 358.451,291.200 358.600 C 292.080 358.749,292.800 359.034,292.800 359.235 C 292.800 359.436,293.250 359.600,293.800 359.600 C 294.350 359.600,294.800 359.780,294.800 360.000 C 294.800 360.220,295.520 360.400,296.400 360.400 C 297.280 360.400,298.000 360.580,298.000 360.800 C 298.000 361.029,299.200 361.200,300.800 361.200 C 302.400 361.200,303.600 361.371,303.600 361.600 C 303.600 361.831,304.867 362.000,306.600 362.000 C 308.333 362.000,309.600 361.831,309.600 361.600 C 309.600 361.371,310.800 361.200,312.400 361.200 C 314.000 361.200,315.200 361.029,315.200 360.800 C 315.200 360.580,315.920 360.400,316.800 360.400 C 317.680 360.400,318.400 360.220,318.400 360.000 C 318.400 359.780,318.839 359.600,319.376 359.600 C 319.913 359.600,320.450 359.443,320.568 359.252 C 320.686 359.060,321.299 358.800,321.929 358.674 C 323.046 358.451,326.873 356.299,327.929 355.300 C 328.219 355.025,328.623 354.800,328.825 354.800 C 329.028 354.800,331.967 351.992,335.356 348.559 C 342.755 341.066,341.066 342.755,348.559 335.356 C 351.992 331.967,354.800 329.028,354.800 328.825 C 354.800 328.623,355.025 328.219,355.300 327.929 C 356.411 326.754,358.493 322.937,358.692 321.709 C 358.809 320.989,359.061 320.400,359.252 320.400 C 359.444 320.400,359.600 319.950,359.600 319.400 C 359.600 318.850,359.780 318.400,360.000 318.400 C 360.220 318.400,360.400 317.680,360.400 316.800 C 360.400 315.920,360.580 315.200,360.800 315.200 C 361.029 315.200,361.200 314.000,361.200 312.400 C 361.200 310.800,361.371 309.600,361.600 309.600 C 361.833 309.600,362.000 308.275,362.000 306.424 C 362.000 304.677,361.820 303.136,361.600 303.000 C 361.380 302.864,361.200 301.683,361.200 300.376 C 361.200 299.059,361.022 298.000,360.800 298.000 C 360.580 298.000,360.400 297.280,360.400 296.400 C 360.400 295.520,360.220 294.800,360.000 294.800 C 359.780 294.800,359.600 294.361,359.600 293.824 C 359.600 293.287,359.440 292.748,359.244 292.627 C 359.049 292.506,358.769 291.911,358.622 291.304 C 358.235 289.702,357.452 288.000,357.102 288.000 C 356.936 288.000,356.800 287.640,356.800 287.200 C 356.800 286.760,356.632 286.400,356.427 286.400 C 356.222 286.400,355.938 286.034,355.796 285.587 C 355.654 285.140,355.147 284.374,354.669 283.884 C 354.191 283.395,353.293 282.317,352.673 281.488 C 351.417 279.810,350.681 279.051,347.670 276.328 C 346.531 275.299,345.600 274.300,345.600 274.108 C 345.600 273.506,346.586 271.606,346.900 271.603 C 347.065 271.601,347.200 271.240,347.200 270.800 C 347.200 270.360,347.380 270.000,347.600 270.000 C 347.820 270.000,348.000 269.651,348.000 269.224 C 348.000 268.797,348.180 268.336,348.400 268.200 C 348.620 268.064,348.800 267.513,348.800 266.976 C 348.800 266.439,348.980 266.000,349.200 266.000 C 349.420 266.000,349.600 265.640,349.600 265.200 C 349.600 264.760,349.780 264.400,350.000 264.400 C 350.220 264.400,350.400 264.040,350.400 263.600 C 350.400 263.160,350.580 262.800,350.800 262.800 C 351.020 262.800,351.200 262.260,351.200 261.600 C 351.200 260.940,351.380 260.400,351.600 260.400 C 351.820 260.400,352.000 260.040,352.000 259.600 C 352.000 259.160,352.180 258.800,352.400 258.800 C 352.620 258.800,352.800 258.361,352.800 257.824 C 352.800 257.287,352.980 256.736,353.200 256.600 C 353.420 256.464,353.600 255.913,353.600 255.376 C 353.600 254.839,353.780 254.400,354.000 254.400 C 354.220 254.400,354.400 253.860,354.400 253.200 C 354.400 252.540,354.580 252.000,354.800 252.000 C 355.020 252.000,355.200 251.640,355.200 251.200 C 355.200 250.440,355.467 250.400,360.576 250.400 C 363.729 250.400,366.055 250.235,366.200 250.000 C 366.336 249.780,367.596 249.600,369.000 249.600 C 370.404 249.600,371.664 249.420,371.800 249.200 C 371.936 248.980,372.566 248.800,373.200 248.800 C 373.834 248.800,374.464 248.620,374.600 248.400 C 374.736 248.180,375.287 248.000,375.824 248.000 C 376.361 248.000,376.800 247.820,376.800 247.600 C 376.800 247.380,377.155 247.200,377.589 247.200 C 378.023 247.200,379.148 246.742,380.089 246.182 C 381.030 245.623,382.115 245.062,382.500 244.936 C 382.885 244.810,383.200 244.548,383.200 244.353 C 383.200 244.159,383.488 244.000,383.840 244.000 C 384.191 244.000,384.983 243.460,385.600 242.800 C 386.217 242.140,386.948 241.600,387.227 241.600 C 387.860 241.600,392.400 237.028,392.400 236.390 C 392.400 236.132,392.940 235.417,393.600 234.800 C 394.260 234.183,394.800 233.391,394.800 233.040 C 394.800 232.688,394.980 232.400,395.200 232.400 C 395.420 232.400,395.600 232.040,395.600 231.600 C 395.600 231.160,395.780 230.800,396.000 230.800 C 396.220 230.800,396.400 230.440,396.400 230.000 C 396.400 229.560,396.580 229.200,396.800 229.200 C 397.020 229.200,397.200 228.840,397.200 228.400 C 397.200 227.960,397.380 227.600,397.600 227.600 C 397.820 227.600,398.000 227.240,398.000 226.800 C 398.000 226.360,398.180 226.000,398.400 226.000 C 398.620 226.000,398.800 225.475,398.800 224.833 C 398.800 224.192,399.025 223.592,399.300 223.500 C 399.692 223.369,399.800 218.311,399.800 200.000 C 399.800 181.689,399.692 176.631,399.300 176.500 C 399.025 176.408,398.800 175.808,398.800 175.167 C 398.800 174.525,398.620 174.000,398.400 174.000 C 398.180 174.000,398.000 173.640,398.000 173.200 C 398.000 172.760,397.820 172.400,397.600 172.400 C 397.380 172.400,397.200 172.040,397.200 171.600 C 397.200 171.160,397.020 170.800,396.800 170.800 C 396.580 170.800,396.400 170.440,396.400 170.000 C 396.400 169.560,396.220 169.200,396.000 169.200 C 395.780 169.200,395.600 168.840,395.600 168.400 C 395.600 167.960,395.420 167.600,395.200 167.600 C 394.980 167.600,394.800 167.312,394.800 166.960 C 394.800 166.609,394.260 165.817,393.600 165.200 C 392.940 164.583,392.400 163.855,392.400 163.581 C 392.400 162.908,387.939 158.419,387.260 158.408 C 386.964 158.404,386.217 157.860,385.600 157.200 C 384.983 156.540,384.274 156.000,384.023 156.000 C 383.772 156.000,383.180 155.640,382.708 155.200 C 382.236 154.760,381.613 154.400,381.325 154.400 C 381.036 154.400,380.800 154.220,380.800 154.000 C 380.800 153.780,380.451 153.600,380.024 153.600 C 379.597 153.600,379.136 153.420,379.000 153.200 C 378.864 152.980,378.313 152.800,377.776 152.800 C 377.239 152.800,376.800 152.620,376.800 152.400 C 376.800 152.180,376.361 152.000,375.824 152.000 C 375.287 152.000,374.736 151.820,374.600 151.600 C 374.464 151.380,373.834 151.200,373.200 151.200 C 372.566 151.200,371.936 151.020,371.800 150.800 C 371.664 150.580,370.494 150.400,369.200 150.400 C 367.906 150.400,366.736 150.220,366.600 150.000 C 366.454 149.764,364.063 149.600,360.776 149.600 C 355.467 149.600,355.200 149.562,355.200 148.800 C 355.200 148.360,355.020 148.000,354.800 148.000 C 354.580 148.000,354.400 147.460,354.400 146.800 C 354.400 146.140,354.220 145.600,354.000 145.600 C 353.780 145.600,353.600 145.161,353.600 144.624 C 353.600 144.087,353.420 143.536,353.200 143.400 C 352.980 143.264,352.800 142.713,352.800 142.176 C 352.800 141.639,352.620 141.200,352.400 141.200 C 352.180 141.200,352.000 140.840,352.000 140.400 C 352.000 139.960,351.820 139.600,351.600 139.600 C 351.380 139.600,351.200 139.060,351.200 138.400 C 351.200 137.740,351.020 137.200,350.800 137.200 C 350.580 137.200,350.400 136.840,350.400 136.400 C 350.400 135.960,350.220 135.600,350.000 135.600 C 349.780 135.600,349.600 135.240,349.600 134.800 C 349.600 134.360,349.420 134.000,349.200 134.000 C 348.980 134.000,348.800 133.561,348.800 133.024 C 348.800 132.487,348.620 131.936,348.400 131.800 C 348.180 131.664,348.000 131.203,348.000 130.776 C 348.000 130.349,347.820 130.000,347.600 130.000 C 347.380 130.000,347.200 129.640,347.200 129.200 C 347.200 128.760,347.065 128.399,346.900 128.397 C 346.586 128.394,345.600 126.494,345.600 125.892 C 345.600 125.594,346.570 124.641,350.374 121.200 C 350.739 120.870,351.476 119.970,352.012 119.200 C 352.548 118.430,353.560 117.224,354.260 116.520 C 354.960 115.816,355.651 114.871,355.794 114.420 C 355.937 113.969,356.222 113.600,356.427 113.600 C 356.632 113.600,356.800 113.240,356.800 112.800 C 356.800 112.360,356.980 112.000,357.200 112.000 C 357.420 112.000,357.600 111.640,357.600 111.200 C 357.600 110.760,357.780 110.400,358.000 110.400 C 358.220 110.400,358.401 110.085,358.402 109.700 C 358.404 109.315,358.674 108.484,359.002 107.854 C 359.331 107.224,359.600 106.369,359.600 105.954 C 359.600 105.539,359.780 105.200,360.000 105.200 C 360.220 105.200,360.400 104.480,360.400 103.600 C 360.400 102.720,360.580 102.000,360.800 102.000 C 361.022 102.000,361.200 100.941,361.200 99.624 C 361.200 98.317,361.380 97.136,361.600 97.000 C 361.820 96.864,362.000 95.323,362.000 93.576 C 362.000 91.725,361.833 90.400,361.600 90.400 C 361.371 90.400,361.200 89.200,361.200 87.600 C 361.200 86.000,361.029 84.800,360.800 84.800 C 360.580 84.800,360.400 84.080,360.400 83.200 C 360.400 82.320,360.220 81.600,360.000 81.600 C 359.780 81.600,359.600 81.150,359.600 80.600 C 359.600 80.050,359.444 79.600,359.252 79.600 C 359.061 79.600,358.809 79.011,358.692 78.291 C 358.493 77.063,356.411 73.246,355.300 72.071 C 355.025 71.781,354.800 71.377,354.800 71.175 C 354.800 70.972,351.992 68.033,348.559 64.644 C 341.066 57.245,342.755 58.934,335.356 51.441 C 331.967 48.008,329.028 45.200,328.825 45.200 C 328.623 45.200,328.219 44.969,327.929 44.686 C 327.055 43.838,323.703 42.000,323.029 42.000 C 322.683 42.000,322.400 41.820,322.400 41.600 C 322.400 41.380,322.051 41.200,321.624 41.200 C 321.197 41.200,320.736 41.020,320.600 40.800 C 320.464 40.580,319.913 40.400,319.376 40.400 C 318.839 40.400,318.400 40.220,318.400 40.000 C 318.400 39.780,317.680 39.600,316.800 39.600 C 315.920 39.600,315.200 39.420,315.200 39.200 C 315.200 38.971,314.000 38.800,312.400 38.800 C 310.800 38.800,309.600 38.629,309.600 38.400 C 309.600 37.873,303.326 37.873,303.000 38.400 C 302.864 38.620,301.683 38.800,300.376 38.800 C 299.059 38.800,298.000 38.978,298.000 39.200 C 298.000 39.420,297.280 39.600,296.400 39.600 C 295.520 39.600,294.800 39.780,294.800 40.000 C 294.800 40.220,294.386 40.400,293.880 40.400 C 293.374 40.400,292.789 40.556,292.580 40.747 C 292.371 40.938,291.300 41.424,290.200 41.827 C 289.100 42.230,288.110 42.658,288.000 42.779 C 287.890 42.901,286.990 43.439,286.000 43.975 C 285.010 44.512,283.750 45.419,283.200 45.991 C 282.650 46.563,281.602 47.450,280.872 47.963 C 279.699 48.786,277.364 51.105,275.221 53.576 C 274.828 54.029,274.338 54.400,274.133 54.400 C 273.512 54.400,271.606 53.421,271.603 53.100 C 271.601 52.935,271.240 52.800,270.800 52.800 C 270.360 52.800,270.000 52.620,270.000 52.400 C 270.000 52.180,269.640 52.000,269.200 52.000 C 268.760 52.000,268.400 51.820,268.400 51.600 C 268.400 51.380,267.961 51.200,267.424 51.200 C 266.887 51.200,266.336 51.020,266.200 50.800 C 266.064 50.580,265.603 50.400,265.176 50.400 C 264.749 50.400,264.400 50.220,264.400 50.000 C 264.400 49.780,264.040 49.600,263.600 49.600 C 263.160 49.600,262.800 49.420,262.800 49.200 C 262.800 48.980,262.260 48.800,261.600 48.800 C 260.940 48.800,260.400 48.620,260.400 48.400 C 260.400 48.180,260.040 48.000,259.600 48.000 C 259.160 48.000,258.800 47.820,258.800 47.600 C 258.800 47.380,258.361 47.200,257.824 47.200 C 257.287 47.200,256.736 47.020,256.600 46.800 C 256.464 46.580,255.913 46.400,255.376 46.400 C 254.839 46.400,254.400 46.220,254.400 46.000 C 254.400 45.780,253.860 45.600,253.200 45.600 C 252.540 45.600,252.000 45.420,252.000 45.200 C 252.000 44.980,251.640 44.800,251.200 44.800 C 250.438 44.800,250.400 44.533,250.400 39.224 C 250.400 35.937,250.236 33.546,250.000 33.400 C 249.780 33.264,249.600 32.094,249.600 30.800 C 249.600 29.506,249.420 28.336,249.200 28.200 C 248.980 28.064,248.800 27.423,248.800 26.776 C 248.800 26.129,248.620 25.600,248.400 25.600 C 248.180 25.600,248.000 25.060,248.000 24.400 C 248.000 23.740,247.820 23.200,247.600 23.200 C 247.380 23.200,247.200 22.761,247.200 22.224 C 247.200 21.687,247.020 21.136,246.800 21.000 C 246.580 20.864,246.400 20.403,246.400 19.976 C 246.400 19.549,246.220 19.200,246.000 19.200 C 245.780 19.200,245.600 18.964,245.600 18.675 C 245.600 18.387,245.240 17.764,244.800 17.292 C 244.360 16.820,244.000 16.228,244.000 15.977 C 244.000 15.726,243.460 15.017,242.800 14.400 C 242.140 13.783,241.600 13.052,241.600 12.773 C 241.600 12.140,237.028 7.600,236.390 7.600 C 236.132 7.600,235.417 7.060,234.800 6.400 C 234.183 5.740,233.391 5.200,233.040 5.200 C 232.688 5.200,232.400 5.020,232.400 4.800 C 232.400 4.580,232.040 4.400,231.600 4.400 C 231.160 4.400,230.799 4.265,230.797 4.100 C 230.793 3.741,228.856 2.800,228.120 2.800 C 227.834 2.800,227.600 2.620,227.600 2.400 C 227.600 2.180,227.240 2.000,226.800 2.000 C 226.360 2.000,226.000 1.820,226.000 1.600 C 226.000 1.380,225.475 1.200,224.833 1.200 C 224.192 1.200,223.592 0.975,223.500 0.700 C 223.338 0.214,181.907 -0.167,177.900 0.281 M215.393 24.761 C 217.114 25.088,218.436 25.581,218.840 26.046 C 219.199 26.461,219.706 26.800,219.965 26.800 C 220.606 26.800,222.400 28.637,222.400 29.294 C 222.400 29.585,222.760 30.083,223.200 30.400 C 223.640 30.717,224.000 31.282,224.000 31.655 C 224.000 32.028,224.224 32.408,224.498 32.499 C 224.876 32.625,225.047 35.709,225.206 45.233 C 225.444 59.544,225.464 59.651,228.630 62.938 C 230.006 64.367,231.175 65.200,231.805 65.200 C 232.132 65.200,232.400 65.380,232.400 65.600 C 232.400 65.820,232.940 66.000,233.600 66.000 C 234.260 66.000,234.800 66.160,234.800 66.356 C 234.800 66.552,235.430 66.822,236.200 66.956 C 236.970 67.090,238.230 67.310,239.000 67.444 C 239.770 67.578,240.400 67.848,240.400 68.044 C 240.400 68.240,240.940 68.400,241.600 68.400 C 242.260 68.400,242.800 68.580,242.800 68.800 C 242.800 69.020,243.239 69.200,243.776 69.200 C 244.313 69.200,244.864 69.380,245.000 69.600 C 245.136 69.820,245.687 70.000,246.224 70.000 C 246.761 70.000,247.200 70.180,247.200 70.400 C 247.200 70.620,247.639 70.800,248.176 70.800 C 248.713 70.800,249.264 70.980,249.400 71.200 C 249.536 71.420,249.997 71.600,250.424 71.600 C 250.851 71.600,251.200 71.780,251.200 72.000 C 251.200 72.220,251.639 72.400,252.176 72.400 C 252.713 72.400,253.264 72.580,253.400 72.800 C 253.536 73.020,253.997 73.200,254.424 73.200 C 254.851 73.200,255.200 73.380,255.200 73.600 C 255.200 73.820,255.472 74.000,255.805 74.000 C 256.138 74.000,256.723 74.169,257.105 74.374 C 257.487 74.580,258.880 75.249,260.200 75.860 C 261.520 76.471,262.660 77.112,262.733 77.285 C 262.807 77.458,263.212 77.600,263.633 77.600 C 264.055 77.600,264.400 77.780,264.400 78.000 C 264.400 78.220,264.760 78.400,265.200 78.400 C 265.640 78.400,266.000 78.580,266.000 78.800 C 266.000 79.020,266.278 79.200,266.617 79.200 C 266.956 79.200,267.620 79.560,268.092 80.000 C 268.564 80.440,269.187 80.800,269.475 80.800 C 269.764 80.800,270.000 80.980,270.000 81.200 C 270.000 81.420,270.439 81.600,270.976 81.600 C 271.513 81.600,272.064 81.780,272.200 82.000 C 272.339 82.225,274.271 82.400,276.624 82.400 C 279.141 82.400,280.800 82.241,280.800 82.000 C 280.800 81.780,281.072 81.600,281.405 81.600 C 282.574 81.600,283.812 80.540,291.098 73.300 C 295.139 69.285,298.666 66.000,298.935 66.000 C 299.203 66.000,299.683 65.640,300.000 65.200 C 300.317 64.760,300.897 64.400,301.288 64.400 C 301.680 64.400,302.000 64.220,302.000 64.000 C 302.000 63.780,302.619 63.600,303.376 63.600 C 304.133 63.600,304.864 63.420,305.000 63.200 C 305.321 62.680,307.879 62.680,308.200 63.200 C 308.336 63.420,308.977 63.600,309.624 63.600 C 310.271 63.600,310.800 63.736,310.800 63.902 C 310.800 64.069,311.348 64.447,312.017 64.743 C 313.154 65.247,320.713 72.284,325.349 77.155 C 326.477 78.340,329.020 80.956,331.000 82.967 C 334.633 86.658,336.400 89.291,336.400 91.014 C 336.400 91.530,336.580 92.064,336.800 92.200 C 337.020 92.336,337.200 92.977,337.200 93.624 C 337.200 94.271,337.020 94.800,336.800 94.800 C 336.580 94.800,336.400 95.520,336.400 96.400 C 336.400 97.280,336.220 98.000,336.000 98.000 C 335.780 98.000,335.600 98.320,335.600 98.712 C 335.600 99.103,335.240 99.683,334.800 100.000 C 334.360 100.317,334.000 100.797,334.000 101.065 C 334.000 101.334,330.715 104.861,326.700 108.902 C 319.460 116.188,318.400 117.426,318.400 118.595 C 318.400 118.928,318.220 119.200,318.000 119.200 C 317.758 119.200,317.600 120.925,317.600 123.576 C 317.600 126.063,317.773 128.060,318.000 128.200 C 318.220 128.336,318.400 128.797,318.400 129.224 C 318.400 129.651,318.580 130.000,318.800 130.000 C 319.020 130.000,319.200 130.236,319.200 130.525 C 319.200 130.813,319.560 131.436,320.000 131.908 C 320.440 132.380,320.800 133.044,320.800 133.383 C 320.800 133.722,320.980 134.000,321.200 134.000 C 321.420 134.000,321.600 134.360,321.600 134.800 C 321.600 135.240,321.780 135.600,322.000 135.600 C 322.220 135.600,322.400 135.945,322.400 136.367 C 322.400 136.788,322.544 137.193,322.721 137.267 C 323.162 137.450,326.000 143.447,326.000 144.195 C 326.000 144.528,326.147 144.800,326.328 144.800 C 326.508 144.800,326.900 145.700,327.200 146.800 C 327.500 147.900,327.860 148.800,328.000 148.800 C 328.140 148.800,328.500 149.700,328.800 150.800 C 329.100 151.900,329.492 152.800,329.672 152.800 C 329.853 152.800,330.000 153.239,330.000 153.776 C 330.000 154.313,330.180 154.864,330.400 155.000 C 330.620 155.136,330.800 155.687,330.800 156.224 C 330.800 156.761,330.980 157.200,331.200 157.200 C 331.420 157.200,331.600 157.740,331.600 158.400 C 331.600 159.060,331.760 159.600,331.956 159.600 C 332.152 159.600,332.422 160.230,332.556 161.000 C 332.690 161.770,332.910 163.030,333.044 163.800 C 333.178 164.570,333.448 165.200,333.644 165.200 C 333.840 165.200,334.000 165.740,334.000 166.400 C 334.000 167.060,334.180 167.600,334.400 167.600 C 334.620 167.600,334.800 167.868,334.800 168.195 C 334.800 169.680,338.855 173.455,340.900 173.874 C 341.505 173.998,342.000 174.240,342.000 174.412 C 342.000 174.583,347.700 174.786,354.667 174.862 C 364.345 174.967,367.373 175.118,367.500 175.500 C 367.592 175.775,367.972 176.000,368.345 176.000 C 368.718 176.000,369.283 176.360,369.600 176.800 C 369.917 177.240,370.415 177.600,370.706 177.600 C 371.363 177.600,373.200 179.394,373.200 180.035 C 373.200 180.294,373.529 180.797,373.932 181.153 C 376.868 183.749,376.868 216.251,373.932 218.847 C 373.529 219.203,373.200 219.706,373.200 219.965 C 373.200 220.606,371.363 222.400,370.706 222.400 C 370.415 222.400,369.917 222.760,369.600 223.200 C 369.283 223.640,368.718 224.000,368.345 224.000 C 367.972 224.000,367.592 224.225,367.500 224.500 C 367.373 224.881,364.545 225.026,355.567 225.111 C 341.526 225.243,340.230 225.489,337.042 228.630 C 335.602 230.049,334.800 231.185,334.800 231.805 C 334.800 232.132,334.620 232.400,334.400 232.400 C 334.180 232.400,334.000 232.940,334.000 233.600 C 334.000 234.260,333.840 234.800,333.644 234.800 C 333.448 234.800,333.178 235.430,333.044 236.200 C 332.910 236.970,332.690 238.230,332.556 239.000 C 332.422 239.770,332.152 240.400,331.956 240.400 C 331.760 240.400,331.600 240.940,331.600 241.600 C 331.600 242.260,331.420 242.800,331.200 242.800 C 330.980 242.800,330.800 243.239,330.800 243.776 C 330.800 244.313,330.620 244.864,330.400 245.000 C 330.180 245.136,330.000 245.687,330.000 246.224 C 330.000 246.761,329.853 247.200,329.672 247.200 C 329.492 247.200,329.100 248.100,328.800 249.200 C 328.500 250.300,328.140 251.200,328.000 251.200 C 327.860 251.200,327.500 252.100,327.200 253.200 C 326.900 254.300,326.508 255.200,326.328 255.200 C 326.147 255.200,326.000 255.472,326.000 255.805 C 326.000 256.553,323.162 262.550,322.721 262.733 C 322.544 262.807,322.400 263.212,322.400 263.633 C 322.400 264.055,322.220 264.400,322.000 264.400 C 321.780 264.400,321.600 264.760,321.600 265.200 C 321.600 265.640,321.420 266.000,321.200 266.000 C 320.980 266.000,320.800 266.278,320.800 266.617 C 320.800 266.956,320.440 267.620,320.000 268.092 C 319.560 268.564,319.200 269.187,319.200 269.475 C 319.200 269.764,319.020 270.000,318.800 270.000 C 318.580 270.000,318.400 270.349,318.400 270.776 C 318.400 271.203,318.220 271.664,318.000 271.800 C 317.773 271.940,317.600 273.937,317.600 276.424 C 317.600 279.075,317.758 280.800,318.000 280.800 C 318.220 280.800,318.400 281.072,318.400 281.405 C 318.400 282.574,319.460 283.812,326.700 291.098 C 330.715 295.139,334.000 298.666,334.000 298.935 C 334.000 299.203,334.360 299.683,334.800 300.000 C 335.240 300.317,335.600 300.897,335.600 301.288 C 335.600 301.680,335.780 302.000,336.000 302.000 C 336.220 302.000,336.400 302.720,336.400 303.600 C 336.400 304.480,336.580 305.200,336.800 305.200 C 337.020 305.200,337.200 305.740,337.200 306.400 C 337.200 307.060,337.020 307.600,336.800 307.600 C 336.580 307.600,336.400 308.123,336.400 308.762 C 336.400 310.707,334.776 313.197,331.000 317.039 C 329.020 319.054,326.294 321.849,324.942 323.251 C 316.113 332.407,311.268 336.400,308.986 336.400 C 308.470 336.400,307.936 336.580,307.800 336.800 C 307.478 337.321,305.200 337.321,305.200 336.800 C 305.200 336.580,304.480 336.400,303.600 336.400 C 302.720 336.400,302.000 336.220,302.000 336.000 C 302.000 335.780,301.680 335.600,301.288 335.600 C 300.897 335.600,300.317 335.240,300.000 334.800 C 299.683 334.360,299.203 334.000,298.935 334.000 C 298.666 334.000,295.139 330.715,291.098 326.700 C 283.812 319.460,282.574 318.400,281.405 318.400 C 281.072 318.400,280.800 318.220,280.800 318.000 C 280.800 317.467,272.129 317.467,271.800 318.000 C 271.664 318.220,271.203 318.400,270.776 318.400 C 270.349 318.400,270.000 318.580,270.000 318.800 C 270.000 319.020,269.764 319.200,269.475 319.200 C 269.187 319.200,268.564 319.560,268.092 320.000 C 267.620 320.440,266.956 320.800,266.617 320.800 C 266.278 320.800,266.000 320.980,266.000 321.200 C 266.000 321.420,265.640 321.600,265.200 321.600 C 264.760 321.600,264.400 321.780,264.400 322.000 C 264.400 322.220,264.055 322.400,263.633 322.400 C 263.212 322.400,262.807 322.544,262.733 322.721 C 262.550 323.162,256.553 326.000,255.805 326.000 C 255.472 326.000,255.200 326.180,255.200 326.400 C 255.200 326.620,254.851 326.800,254.424 326.800 C 253.997 326.800,253.536 326.980,253.400 327.200 C 253.264 327.420,252.713 327.600,252.176 327.600 C 251.639 327.600,251.200 327.780,251.200 328.000 C 251.200 328.220,250.851 328.400,250.424 328.400 C 249.997 328.400,249.536 328.580,249.400 328.800 C 249.264 329.020,248.713 329.200,248.176 329.200 C 247.639 329.200,247.200 329.380,247.200 329.600 C 247.200 329.820,246.761 330.000,246.224 330.000 C 245.687 330.000,245.136 330.180,245.000 330.400 C 244.864 330.620,244.313 330.800,243.776 330.800 C 243.239 330.800,242.800 330.980,242.800 331.200 C 242.800 331.420,242.260 331.600,241.600 331.600 C 240.940 331.600,240.400 331.760,240.400 331.956 C 240.400 332.152,239.770 332.422,239.000 332.556 C 238.230 332.690,236.970 332.910,236.200 333.044 C 235.430 333.178,234.800 333.448,234.800 333.644 C 234.800 333.840,234.260 334.000,233.600 334.000 C 232.940 334.000,232.400 334.180,232.400 334.400 C 232.400 334.620,232.132 334.800,231.805 334.800 C 230.520 334.800,227.219 338.118,226.348 340.285 C 226.102 340.898,225.750 341.760,225.567 342.200 C 225.383 342.640,225.181 348.475,225.117 355.167 C 225.028 364.460,224.882 367.373,224.500 367.500 C 224.225 367.592,224.000 367.972,224.000 368.345 C 224.000 368.718,223.640 369.283,223.200 369.600 C 222.760 369.917,222.400 370.415,222.400 370.706 C 222.400 371.363,220.606 373.200,219.965 373.200 C 219.706 373.200,219.203 373.529,218.847 373.932 C 216.251 376.868,183.749 376.868,181.153 373.932 C 180.797 373.529,180.294 373.200,180.035 373.200 C 179.394 373.200,177.600 371.363,177.600 370.706 C 177.600 370.415,177.240 369.917,176.800 369.600 C 176.360 369.283,176.000 368.718,176.000 368.345 C 176.000 367.972,175.775 367.592,175.500 367.500 C 175.118 367.373,174.967 364.345,174.862 354.667 C 174.786 347.700,174.583 342.000,174.412 342.000 C 174.240 342.000,173.998 341.505,173.874 340.900 C 173.455 338.855,169.680 334.800,168.195 334.800 C 167.868 334.800,167.600 334.620,167.600 334.400 C 167.600 334.180,167.060 334.000,166.400 334.000 C 165.740 334.000,165.200 333.840,165.200 333.644 C 165.200 333.448,164.570 333.178,163.800 333.044 C 163.030 332.910,161.770 332.690,161.000 332.556 C 160.230 332.422,159.600 332.152,159.600 331.956 C 159.600 331.760,159.060 331.600,158.400 331.600 C 157.740 331.600,157.200 331.420,157.200 331.200 C 157.200 330.980,156.750 330.800,156.200 330.800 C 155.650 330.800,155.200 330.620,155.200 330.400 C 155.200 330.180,154.660 330.000,154.000 330.000 C 153.340 330.000,152.800 329.853,152.800 329.672 C 152.800 329.492,151.900 329.100,150.800 328.800 C 149.700 328.500,148.800 328.140,148.800 328.000 C 148.800 327.860,147.900 327.500,146.800 327.200 C 145.700 326.900,144.800 326.508,144.800 326.328 C 144.800 326.147,144.528 326.000,144.195 326.000 C 143.447 326.000,137.450 323.162,137.267 322.721 C 137.193 322.544,136.788 322.400,136.367 322.400 C 135.945 322.400,135.600 322.220,135.600 322.000 C 135.600 321.780,135.240 321.600,134.800 321.600 C 134.360 321.600,134.000 321.420,134.000 321.200 C 134.000 320.980,133.722 320.800,133.383 320.800 C 133.044 320.800,132.380 320.440,131.908 320.000 C 131.436 319.560,130.813 319.200,130.525 319.200 C 130.236 319.200,130.000 319.020,130.000 318.800 C 130.000 318.580,129.651 318.400,129.224 318.400 C 128.797 318.400,128.336 318.220,128.200 318.000 C 127.871 317.467,119.200 317.467,119.200 318.000 C 119.200 318.220,118.928 318.400,118.595 318.400 C 117.423 318.400,116.175 319.462,109.314 326.300 C 105.506 330.095,102.239 333.200,102.055 333.200 C 101.870 333.200,101.154 333.740,100.463 334.400 C 99.772 335.060,98.936 335.600,98.604 335.600 C 98.272 335.600,98.000 335.780,98.000 336.000 C 98.000 336.220,97.280 336.400,96.400 336.400 C 95.520 336.400,94.800 336.580,94.800 336.800 C 94.800 337.020,94.271 337.200,93.624 337.200 C 92.977 337.200,92.336 337.020,92.200 336.800 C 92.064 336.580,91.333 336.400,90.576 336.400 C 89.819 336.400,89.200 336.264,89.200 336.098 C 89.200 335.931,88.629 335.542,87.931 335.233 C 87.233 334.924,85.007 333.035,82.986 331.036 C 80.964 329.036,78.340 326.477,77.155 325.349 C 72.284 320.713,65.247 313.154,64.743 312.017 C 64.447 311.348,64.069 310.800,63.902 310.800 C 63.736 310.800,63.600 310.271,63.600 309.624 C 63.600 308.977,63.420 308.336,63.200 308.200 C 62.680 307.879,62.680 305.321,63.200 305.000 C 63.420 304.864,63.600 304.133,63.600 303.376 C 63.600 302.619,63.780 302.000,64.000 302.000 C 64.220 302.000,64.400 301.680,64.400 301.288 C 64.400 300.897,64.760 300.317,65.200 300.000 C 65.640 299.683,66.000 299.203,66.000 298.935 C 66.000 298.666,69.285 295.139,73.300 291.098 C 80.540 283.812,81.600 282.574,81.600 281.405 C 81.600 281.072,81.780 280.800,82.000 280.800 C 82.532 280.800,82.532 272.529,82.000 272.200 C 81.780 272.064,81.600 271.513,81.600 270.976 C 81.600 270.439,81.420 270.000,81.200 270.000 C 80.980 270.000,80.800 269.764,80.800 269.475 C 80.800 269.187,80.440 268.564,80.000 268.092 C 79.560 267.620,79.200 266.956,79.200 266.617 C 79.200 266.278,79.020 266.000,78.800 266.000 C 78.580 266.000,78.400 265.640,78.400 265.200 C 78.400 264.760,78.220 264.400,78.000 264.400 C 77.780 264.400,77.600 264.055,77.600 263.633 C 77.600 263.212,77.458 262.807,77.285 262.733 C 77.112 262.660,76.471 261.520,75.860 260.200 C 75.249 258.880,74.580 257.487,74.374 257.105 C 74.169 256.723,74.000 256.138,74.000 255.805 C 74.000 255.472,73.853 255.200,73.672 255.200 C 73.492 255.200,73.100 254.300,72.800 253.200 C 72.500 252.100,72.108 251.200,71.928 251.200 C 71.747 251.200,71.600 250.851,71.600 250.424 C 71.600 249.997,71.420 249.536,71.200 249.400 C 70.980 249.264,70.800 248.713,70.800 248.176 C 70.800 247.639,70.620 247.200,70.400 247.200 C 70.180 247.200,70.000 246.761,70.000 246.224 C 70.000 245.687,69.820 245.136,69.600 245.000 C 69.380 244.864,69.200 244.313,69.200 243.776 C 69.200 243.239,69.020 242.800,68.800 242.800 C 68.580 242.800,68.400 242.260,68.400 241.600 C 68.400 240.940,68.240 240.400,68.044 240.400 C 67.848 240.400,67.578 239.770,67.444 239.000 C 67.310 238.230,67.090 236.970,66.956 236.200 C 66.822 235.430,66.552 234.800,66.356 234.800 C 66.160 234.800,66.000 234.260,66.000 233.600 C 66.000 232.940,65.820 232.400,65.600 232.400 C 65.380 232.400,65.200 232.132,65.200 231.805 C 65.200 231.175,64.367 230.006,62.938 228.630 C 59.651 225.464,59.544 225.444,45.233 225.206 C 35.709 225.047,32.625 224.876,32.499 224.498 C 32.408 224.224,32.028 224.000,31.655 224.000 C 31.282 224.000,30.717 223.640,30.400 223.200 C 30.083 222.760,29.585 222.400,29.294 222.400 C 28.637 222.400,26.800 220.606,26.800 219.965 C 26.800 219.706,26.461 219.199,26.046 218.840 C 23.391 216.537,23.391 183.463,26.046 181.160 C 26.461 180.801,26.800 180.294,26.800 180.035 C 26.800 179.414,28.321 177.944,29.700 177.232 C 30.305 176.920,30.800 176.515,30.800 176.332 C 30.800 176.150,31.145 176.000,31.567 176.000 C 31.988 176.000,32.408 175.775,32.500 175.500 C 32.627 175.118,35.584 174.971,45.033 174.877 C 59.170 174.736,59.513 174.668,62.938 171.370 C 64.367 169.994,65.200 168.825,65.200 168.195 C 65.200 167.868,65.380 167.600,65.600 167.600 C 65.820 167.600,66.000 167.060,66.000 166.400 C 66.000 165.740,66.160 165.200,66.356 165.200 C 66.552 165.200,66.822 164.570,66.956 163.800 C 67.090 163.030,67.310 161.770,67.444 161.000 C 67.578 160.230,67.848 159.600,68.044 159.600 C 68.240 159.600,68.400 159.060,68.400 158.400 C 68.400 157.740,68.580 157.200,68.800 157.200 C 69.020 157.200,69.200 156.761,69.200 156.224 C 69.200 155.687,69.380 155.136,69.600 155.000 C 69.820 154.864,70.000 154.313,70.000 153.776 C 70.000 153.239,70.180 152.800,70.400 152.800 C 70.620 152.800,70.800 152.361,70.800 151.824 C 70.800 151.287,70.980 150.736,71.200 150.600 C 71.420 150.464,71.600 150.003,71.600 149.576 C 71.600 149.149,71.747 148.800,71.928 148.800 C 72.108 148.800,72.500 147.900,72.800 146.800 C 73.100 145.700,73.492 144.800,73.672 144.800 C 73.853 144.800,74.000 144.528,74.000 144.195 C 74.000 143.862,74.169 143.277,74.374 142.895 C 74.580 142.513,75.249 141.120,75.860 139.800 C 76.471 138.480,77.112 137.340,77.285 137.267 C 77.458 137.193,77.600 136.788,77.600 136.367 C 77.600 135.945,77.780 135.600,78.000 135.600 C 78.220 135.600,78.400 135.240,78.400 134.800 C 78.400 134.360,78.580 134.000,78.800 134.000 C 79.020 134.000,79.200 133.722,79.200 133.383 C 79.200 133.044,79.560 132.380,80.000 131.908 C 80.440 131.436,80.800 130.813,80.800 130.525 C 80.800 130.236,80.980 130.000,81.200 130.000 C 81.420 130.000,81.600 129.561,81.600 129.024 C 81.600 128.487,81.780 127.936,82.000 127.800 C 82.225 127.661,82.400 125.729,82.400 123.376 C 82.400 120.859,82.241 119.200,82.000 119.200 C 81.780 119.200,81.600 118.928,81.600 118.595 C 81.600 117.426,80.540 116.188,73.300 108.902 C 69.285 104.861,66.000 101.334,66.000 101.065 C 66.000 100.797,65.640 100.317,65.200 100.000 C 64.760 99.683,64.400 99.103,64.400 98.712 C 64.400 98.320,64.220 98.000,64.000 98.000 C 63.780 98.000,63.600 97.381,63.600 96.624 C 63.600 95.867,63.420 95.136,63.200 95.000 C 62.680 94.679,62.680 92.121,63.200 91.800 C 63.420 91.664,63.600 91.023,63.600 90.376 C 63.600 89.729,63.736 89.200,63.902 89.200 C 64.069 89.200,64.458 88.629,64.767 87.931 C 65.076 87.233,66.965 85.012,68.964 82.996 C 70.964 80.980,73.527 78.356,74.659 77.165 C 79.322 72.261,86.846 65.247,87.983 64.743 C 88.652 64.447,89.200 64.069,89.200 63.902 C 89.200 63.736,89.740 63.600,90.400 63.600 C 91.060 63.600,91.600 63.420,91.600 63.200 C 91.600 62.980,92.309 62.800,93.176 62.800 C 94.043 62.800,94.864 62.980,95.000 63.200 C 95.136 63.420,95.867 63.600,96.624 63.600 C 97.381 63.600,98.000 63.780,98.000 64.000 C 98.000 64.220,98.320 64.400,98.712 64.400 C 99.103 64.400,99.683 64.760,100.000 65.200 C 100.317 65.640,100.797 66.000,101.065 66.000 C 101.334 66.000,104.861 69.285,108.902 73.300 C 116.188 80.540,117.426 81.600,118.595 81.600 C 118.928 81.600,119.200 81.780,119.200 82.000 C 119.200 82.241,120.859 82.400,123.376 82.400 C 125.729 82.400,127.661 82.225,127.800 82.000 C 127.936 81.780,128.487 81.600,129.024 81.600 C 129.561 81.600,130.000 81.420,130.000 81.200 C 130.000 80.980,130.236 80.800,130.525 80.800 C 130.813 80.800,131.436 80.440,131.908 80.000 C 132.380 79.560,133.044 79.200,133.383 79.200 C 133.722 79.200,134.000 79.020,134.000 78.800 C 134.000 78.580,134.360 78.400,134.800 78.400 C 135.240 78.400,135.600 78.220,135.600 78.000 C 135.600 77.780,135.945 77.600,136.367 77.600 C 136.788 77.600,137.193 77.458,137.267 77.285 C 137.340 77.112,138.480 76.471,139.800 75.860 C 141.120 75.249,142.513 74.580,142.895 74.374 C 143.277 74.169,143.862 74.000,144.195 74.000 C 144.528 74.000,144.800 73.853,144.800 73.672 C 144.800 73.492,145.700 73.100,146.800 72.800 C 147.900 72.500,148.800 72.140,148.800 72.000 C 148.800 71.860,149.700 71.500,150.800 71.200 C 151.900 70.900,152.800 70.508,152.800 70.328 C 152.800 70.147,153.239 70.000,153.776 70.000 C 154.313 70.000,154.864 69.820,155.000 69.600 C 155.136 69.380,155.687 69.200,156.224 69.200 C 156.761 69.200,157.200 69.020,157.200 68.800 C 157.200 68.580,157.740 68.400,158.400 68.400 C 159.060 68.400,159.600 68.220,159.600 68.000 C 159.600 67.780,160.129 67.600,160.776 67.600 C 161.423 67.600,162.064 67.420,162.200 67.200 C 162.336 66.980,163.067 66.800,163.824 66.800 C 164.581 66.800,165.200 66.620,165.200 66.400 C 165.200 66.180,165.740 66.000,166.400 66.000 C 167.060 66.000,167.600 65.820,167.600 65.600 C 167.600 65.380,167.868 65.200,168.195 65.200 C 168.825 65.200,169.994 64.367,171.370 62.938 C 174.668 59.513,174.736 59.170,174.877 45.033 C 174.971 35.584,175.118 32.627,175.500 32.500 C 175.775 32.408,176.000 31.988,176.000 31.567 C 176.000 31.145,176.150 30.800,176.332 30.800 C 176.515 30.800,176.920 30.305,177.232 29.700 C 177.970 28.271,179.421 26.800,180.094 26.800 C 180.385 26.800,180.877 26.449,181.186 26.020 C 181.572 25.484,182.447 25.153,183.974 24.965 C 185.198 24.814,186.560 24.544,187.000 24.365 C 188.327 23.825,212.214 24.158,215.393 24.761 M192.800 112.400 C 192.800 112.635,191.408 112.800,189.424 112.800 C 187.567 112.800,185.936 112.980,185.800 113.200 C 185.664 113.420,184.663 113.600,183.576 113.600 C 182.489 113.600,181.600 113.780,181.600 114.000 C 181.600 114.220,180.891 114.400,180.024 114.400 C 179.157 114.400,178.336 114.580,178.200 114.800 C 178.064 115.020,177.423 115.200,176.776 115.200 C 176.129 115.200,175.600 115.380,175.600 115.600 C 175.600 115.820,174.981 116.000,174.224 116.000 C 173.467 116.000,172.758 116.144,172.649 116.321 C 172.540 116.497,171.539 116.890,170.425 117.193 C 169.311 117.496,168.400 117.892,168.400 118.072 C 168.400 118.253,167.860 118.400,167.200 118.400 C 166.540 118.400,166.000 118.580,166.000 118.800 C 166.000 119.020,165.640 119.200,165.200 119.200 C 164.760 119.200,164.400 119.380,164.400 119.600 C 164.400 119.820,164.040 120.000,163.600 120.000 C 163.160 120.000,162.800 120.180,162.800 120.400 C 162.800 120.620,162.440 120.800,162.000 120.800 C 161.560 120.800,161.200 120.980,161.200 121.200 C 161.200 121.420,160.840 121.600,160.400 121.600 C 159.960 121.600,159.600 121.780,159.600 122.000 C 159.600 122.220,159.330 122.400,159.000 122.400 C 158.670 122.400,158.400 122.580,158.400 122.800 C 158.400 123.020,158.040 123.200,157.600 123.200 C 157.160 123.200,156.800 123.380,156.800 123.600 C 156.800 123.820,156.440 124.000,156.000 124.000 C 155.560 124.000,155.200 124.149,155.200 124.332 C 155.200 124.514,154.265 125.099,153.122 125.632 C 151.979 126.164,150.637 127.005,150.140 127.500 C 149.643 127.995,149.024 128.400,148.765 128.400 C 148.506 128.400,148.003 128.724,147.647 129.119 C 147.291 129.514,146.370 130.272,145.600 130.804 C 144.830 131.335,143.723 132.271,143.140 132.885 C 142.556 133.498,141.969 134.000,141.834 134.000 C 141.515 134.000,134.000 141.515,134.000 141.834 C 134.000 141.969,133.498 142.556,132.885 143.140 C 132.271 143.723,131.335 144.830,130.804 145.600 C 130.272 146.370,129.558 147.270,129.216 147.600 C 128.874 147.930,128.340 148.695,128.030 149.300 C 127.719 149.905,127.348 150.400,127.206 150.400 C 127.064 150.400,126.431 151.480,125.800 152.800 C 125.169 154.120,124.506 155.200,124.326 155.200 C 124.147 155.200,124.000 155.560,124.000 156.000 C 124.000 156.440,123.820 156.800,123.600 156.800 C 123.380 156.800,123.200 157.160,123.200 157.600 C 123.200 158.040,123.020 158.400,122.800 158.400 C 122.580 158.400,122.400 158.670,122.400 159.000 C 122.400 159.330,122.220 159.600,122.000 159.600 C 121.780 159.600,121.600 159.960,121.600 160.400 C 121.600 160.840,121.420 161.200,121.200 161.200 C 120.980 161.200,120.800 161.560,120.800 162.000 C 120.800 162.440,120.620 162.800,120.400 162.800 C 120.180 162.800,120.000 163.160,120.000 163.600 C 120.000 164.040,119.820 164.400,119.600 164.400 C 119.380 164.400,119.200 164.760,119.200 165.200 C 119.200 165.640,119.020 166.000,118.800 166.000 C 118.580 166.000,118.400 166.525,118.400 167.167 C 118.400 167.808,118.265 168.393,118.099 168.467 C 117.688 168.649,116.000 173.703,116.000 174.753 C 116.000 175.219,115.820 175.600,115.600 175.600 C 115.380 175.600,115.200 176.129,115.200 176.776 C 115.200 177.423,115.020 178.064,114.800 178.200 C 114.580 178.336,114.400 179.157,114.400 180.024 C 114.400 180.891,114.220 181.600,114.000 181.600 C 113.780 181.600,113.600 182.489,113.600 183.576 C 113.600 184.663,113.420 185.664,113.200 185.800 C 112.980 185.936,112.800 187.567,112.800 189.424 C 112.800 191.408,112.635 192.800,112.400 192.800 C 112.148 192.800,112.000 195.467,112.000 200.000 C 112.000 204.533,112.148 207.200,112.400 207.200 C 112.635 207.200,112.800 208.592,112.800 210.576 C 112.800 212.433,112.980 214.064,113.200 214.200 C 113.420 214.336,113.600 215.337,113.600 216.424 C 113.600 217.511,113.780 218.400,114.000 218.400 C 114.220 218.400,114.400 219.109,114.400 219.976 C 114.400 220.843,114.580 221.664,114.800 221.800 C 115.020 221.936,115.200 222.489,115.200 223.029 C 115.200 223.569,115.362 224.323,115.561 224.705 C 115.760 225.087,116.151 226.210,116.431 227.200 C 116.710 228.190,117.088 229.171,117.270 229.380 C 117.451 229.589,117.600 230.174,117.600 230.680 C 117.600 231.186,117.780 231.600,118.000 231.600 C 118.220 231.600,118.400 232.140,118.400 232.800 C 118.400 233.460,118.580 234.000,118.800 234.000 C 119.020 234.000,119.200 234.360,119.200 234.800 C 119.200 235.240,119.380 235.600,119.600 235.600 C 119.820 235.600,120.000 235.960,120.000 236.400 C 120.000 236.840,120.180 237.200,120.400 237.200 C 120.620 237.200,120.800 237.560,120.800 238.000 C 120.800 238.440,120.980 238.800,121.200 238.800 C 121.420 238.800,121.600 239.160,121.600 239.600 C 121.600 240.040,121.780 240.400,122.000 240.400 C 122.220 240.400,122.400 240.670,122.400 241.000 C 122.400 241.330,122.580 241.600,122.800 241.600 C 123.020 241.600,123.200 241.960,123.200 242.400 C 123.200 242.840,123.380 243.200,123.600 243.200 C 123.820 243.200,124.000 243.560,124.000 244.000 C 124.000 244.440,124.147 244.800,124.326 244.800 C 124.506 244.800,125.169 245.880,125.800 247.200 C 126.431 248.520,127.064 249.600,127.206 249.600 C 127.348 249.600,127.719 250.095,128.030 250.700 C 128.340 251.305,128.874 252.070,129.216 252.400 C 129.558 252.730,130.272 253.630,130.804 254.400 C 131.335 255.170,132.271 256.277,132.885 256.860 C 133.498 257.444,134.000 258.036,134.000 258.176 C 134.000 258.705,143.444 267.670,145.616 269.202 C 146.377 269.739,147.349 270.498,147.775 270.889 C 148.202 271.280,148.721 271.600,148.929 271.600 C 149.136 271.600,149.597 271.935,149.953 272.345 C 150.309 272.754,151.590 273.602,152.800 274.228 C 154.010 274.855,155.060 275.510,155.133 275.684 C 155.207 275.858,155.612 276.000,156.033 276.000 C 156.455 276.000,156.800 276.180,156.800 276.400 C 156.800 276.620,157.160 276.800,157.600 276.800 C 158.040 276.800,158.400 276.980,158.400 277.200 C 158.400 277.420,158.670 277.600,159.000 277.600 C 159.330 277.600,159.600 277.780,159.600 278.000 C 159.600 278.220,159.960 278.400,160.400 278.400 C 160.840 278.400,161.200 278.580,161.200 278.800 C 161.200 279.020,161.560 279.200,162.000 279.200 C 162.440 279.200,162.800 279.380,162.800 279.600 C 162.800 279.820,163.160 280.000,163.600 280.000 C 164.040 280.000,164.400 280.180,164.400 280.400 C 164.400 280.620,164.749 280.800,165.176 280.800 C 165.603 280.800,166.064 280.980,166.200 281.200 C 166.336 281.420,166.887 281.600,167.424 281.600 C 167.961 281.600,168.400 281.780,168.400 282.000 C 168.400 282.220,168.940 282.400,169.600 282.400 C 170.260 282.400,170.800 282.536,170.800 282.703 C 170.800 283.069,173.667 284.000,174.794 284.000 C 175.237 284.000,175.600 284.180,175.600 284.400 C 175.600 284.620,176.230 284.800,177.000 284.800 C 177.770 284.800,178.400 284.980,178.400 285.200 C 178.400 285.420,179.120 285.600,180.000 285.600 C 180.880 285.600,181.600 285.780,181.600 286.000 C 181.600 286.220,182.489 286.400,183.576 286.400 C 184.663 286.400,185.664 286.580,185.800 286.800 C 185.936 287.020,187.567 287.200,189.424 287.200 C 191.408 287.200,192.800 287.365,192.800 287.600 C 192.800 287.852,195.467 288.000,200.000 288.000 C 204.533 288.000,207.200 287.852,207.200 287.600 C 207.200 287.365,208.592 287.200,210.576 287.200 C 212.433 287.200,214.064 287.020,214.200 286.800 C 214.336 286.580,215.337 286.400,216.424 286.400 C 217.511 286.400,218.400 286.220,218.400 286.000 C 218.400 285.780,219.109 285.600,219.976 285.600 C 220.843 285.600,221.664 285.420,221.800 285.200 C 221.936 284.980,222.566 284.800,223.200 284.800 C 223.834 284.800,224.464 284.620,224.600 284.400 C 224.736 284.180,225.276 284.000,225.800 284.000 C 226.324 284.000,226.864 283.820,227.000 283.600 C 227.136 283.380,227.676 283.200,228.200 283.200 C 228.724 283.200,229.264 283.020,229.400 282.800 C 229.536 282.580,230.087 282.400,230.624 282.400 C 231.161 282.400,231.600 282.220,231.600 282.000 C 231.600 281.780,232.140 281.600,232.800 281.600 C 233.460 281.600,234.000 281.420,234.000 281.200 C 234.000 280.980,234.360 280.800,234.800 280.800 C 235.240 280.800,235.600 280.620,235.600 280.400 C 235.600 280.180,235.960 280.000,236.400 280.000 C 236.840 280.000,237.200 279.820,237.200 279.600 C 237.200 279.380,237.560 279.200,238.000 279.200 C 238.440 279.200,238.800 279.020,238.800 278.800 C 238.800 278.580,239.160 278.400,239.600 278.400 C 240.040 278.400,240.400 278.220,240.400 278.000 C 240.400 277.780,240.670 277.600,241.000 277.600 C 241.330 277.600,241.600 277.420,241.600 277.200 C 241.600 276.980,241.960 276.800,242.400 276.800 C 242.840 276.800,243.200 276.620,243.200 276.400 C 243.200 276.180,243.560 276.000,244.000 276.000 C 244.440 276.000,244.800 275.838,244.800 275.639 C 244.800 275.441,245.295 275.089,245.900 274.858 C 247.257 274.340,249.106 273.229,250.158 272.300 C 250.594 271.915,251.121 271.600,251.329 271.600 C 251.536 271.600,251.997 271.276,252.353 270.881 C 252.709 270.486,253.630 269.728,254.400 269.196 C 255.170 268.665,256.277 267.729,256.860 267.115 C 257.444 266.502,258.031 266.000,258.166 266.000 C 258.485 266.000,266.000 258.485,266.000 258.166 C 266.000 258.031,266.502 257.444,267.115 256.860 C 267.729 256.277,268.665 255.170,269.196 254.400 C 269.728 253.630,270.486 252.709,270.881 252.353 C 271.276 251.997,271.600 251.478,271.600 251.200 C 271.600 250.922,271.935 250.403,272.345 250.047 C 272.754 249.691,273.602 248.410,274.228 247.200 C 274.855 245.990,275.510 244.940,275.684 244.867 C 275.858 244.793,276.000 244.388,276.000 243.967 C 276.000 243.545,276.180 243.200,276.400 243.200 C 276.620 243.200,276.800 242.840,276.800 242.400 C 276.800 241.960,276.980 241.600,277.200 241.600 C 277.420 241.600,277.600 241.330,277.600 241.000 C 277.600 240.670,277.780 240.400,278.000 240.400 C 278.220 240.400,278.400 240.040,278.400 239.600 C 278.400 239.160,278.580 238.800,278.800 238.800 C 279.020 238.800,279.200 238.440,279.200 238.000 C 279.200 237.560,279.380 237.200,279.600 237.200 C 279.820 237.200,280.000 236.840,280.000 236.400 C 280.000 235.960,280.180 235.600,280.400 235.600 C 280.620 235.600,280.800 235.251,280.800 234.824 C 280.800 234.397,280.980 233.936,281.200 233.800 C 281.420 233.664,281.600 233.113,281.600 232.576 C 281.600 232.039,281.780 231.600,282.000 231.600 C 282.220 231.600,282.400 231.161,282.400 230.624 C 282.400 230.087,282.580 229.536,282.800 229.400 C 283.020 229.264,283.200 228.724,283.200 228.200 C 283.200 227.676,283.380 227.136,283.600 227.000 C 283.820 226.864,284.000 226.324,284.000 225.800 C 284.000 225.276,284.180 224.736,284.400 224.600 C 284.620 224.464,284.800 223.834,284.800 223.200 C 284.800 222.566,284.980 221.936,285.200 221.800 C 285.420 221.664,285.600 220.843,285.600 219.976 C 285.600 219.109,285.780 218.400,286.000 218.400 C 286.220 218.400,286.400 217.511,286.400 216.424 C 286.400 215.337,286.580 214.336,286.800 214.200 C 287.020 214.064,287.200 212.433,287.200 210.576 C 287.200 208.592,287.365 207.200,287.600 207.200 C 287.852 207.200,288.000 204.533,288.000 200.000 C 288.000 195.467,287.852 192.800,287.600 192.800 C 287.365 192.800,287.200 191.408,287.200 189.424 C 287.200 187.567,287.020 185.936,286.800 185.800 C 286.580 185.664,286.400 184.663,286.400 183.576 C 286.400 182.489,286.220 181.600,286.000 181.600 C 285.780 181.600,285.600 180.891,285.600 180.024 C 285.600 179.157,285.420 178.336,285.200 178.200 C 284.980 178.064,284.800 177.423,284.800 176.776 C 284.800 176.129,284.620 175.600,284.400 175.600 C 284.180 175.600,283.997 175.195,283.994 174.700 C 283.987 173.724,283.118 170.985,282.674 170.541 C 282.523 170.390,282.400 169.847,282.400 169.333 C 282.400 168.820,282.220 168.400,282.000 168.400 C 281.780 168.400,281.600 167.860,281.600 167.200 C 281.600 166.540,281.420 166.000,281.200 166.000 C 280.980 166.000,280.800 165.640,280.800 165.200 C 280.800 164.760,280.620 164.400,280.400 164.400 C 280.180 164.400,280.000 164.040,280.000 163.600 C 280.000 163.160,279.820 162.800,279.600 162.800 C 279.380 162.800,279.200 162.440,279.200 162.000 C 279.200 161.560,279.020 161.200,278.800 161.200 C 278.580 161.200,278.400 160.840,278.400 160.400 C 278.400 159.960,278.220 159.600,278.000 159.600 C 277.780 159.600,277.600 159.330,277.600 159.000 C 277.600 158.670,277.420 158.400,277.200 158.400 C 276.980 158.400,276.800 158.040,276.800 157.600 C 276.800 157.160,276.620 156.800,276.400 156.800 C 276.180 156.800,276.000 156.455,276.000 156.033 C 276.000 155.612,275.858 155.207,275.684 155.133 C 275.510 155.060,274.867 154.034,274.255 152.852 C 273.643 151.671,272.796 150.332,272.371 149.877 C 271.947 149.422,271.600 148.879,271.600 148.671 C 271.600 148.464,271.276 148.003,270.881 147.647 C 270.486 147.291,269.728 146.370,269.196 145.600 C 268.665 144.830,267.729 143.723,267.115 143.140 C 266.502 142.556,266.000 141.969,266.000 141.834 C 266.000 141.515,258.485 134.000,258.166 134.000 C 258.031 134.000,257.444 133.498,256.860 132.885 C 256.277 132.271,255.170 131.335,254.400 130.804 C 253.630 130.272,252.730 129.558,252.400 129.216 C 252.070 128.874,251.305 128.340,250.700 128.030 C 250.095 127.719,249.600 127.348,249.600 127.206 C 249.600 127.064,248.520 126.431,247.200 125.800 C 245.880 125.169,244.800 124.506,244.800 124.326 C 244.800 124.147,244.440 124.000,244.000 124.000 C 243.560 124.000,243.200 123.820,243.200 123.600 C 243.200 123.380,242.840 123.200,242.400 123.200 C 241.960 123.200,241.600 123.020,241.600 122.800 C 241.600 122.580,241.330 122.400,241.000 122.400 C 240.670 122.400,240.400 122.220,240.400 122.000 C 240.400 121.780,240.040 121.600,239.600 121.600 C 239.160 121.600,238.800 121.420,238.800 121.200 C 238.800 120.980,238.440 120.800,238.000 120.800 C 237.560 120.800,237.200 120.620,237.200 120.400 C 237.200 120.180,236.840 120.000,236.400 120.000 C 235.960 120.000,235.600 119.820,235.600 119.600 C 235.600 119.380,235.240 119.200,234.800 119.200 C 234.360 119.200,234.000 119.020,234.000 118.800 C 234.000 118.580,233.460 118.400,232.800 118.400 C 232.140 118.400,231.600 118.220,231.600 118.000 C 231.600 117.780,231.186 117.600,230.680 117.600 C 230.174 117.600,229.589 117.451,229.380 117.270 C 229.171 117.088,228.190 116.710,227.200 116.431 C 226.210 116.151,225.087 115.760,224.705 115.561 C 224.323 115.362,223.558 115.200,223.005 115.200 C 222.452 115.200,222.000 115.020,222.000 114.800 C 222.000 114.580,221.190 114.400,220.200 114.400 C 219.210 114.400,218.400 114.220,218.400 114.000 C 218.400 113.780,217.511 113.600,216.424 113.600 C 215.337 113.600,214.336 113.420,214.200 113.200 C 214.064 112.980,212.433 112.800,210.576 112.800 C 208.592 112.800,207.200 112.635,207.200 112.400 C 207.200 112.148,204.533 112.000,200.000 112.000 C 195.467 112.000,192.800 112.148,192.800 112.400 M206.000 137.600 C 206.000 137.825,207.125 138.000,208.576 138.000 C 209.993 138.000,211.264 138.180,211.400 138.400 C 211.536 138.620,212.346 138.800,213.200 138.800 C 214.054 138.800,214.864 138.980,215.000 139.200 C 215.136 139.420,215.689 139.600,216.229 139.600 C 216.769 139.600,217.523 139.763,217.905 139.963 C 218.822 140.442,222.741 141.600,223.446 141.600 C 223.751 141.600,224.000 141.780,224.000 142.000 C 224.000 142.220,224.349 142.400,224.776 142.400 C 225.203 142.400,225.664 142.580,225.800 142.800 C 225.936 143.020,226.397 143.200,226.824 143.200 C 227.251 143.200,227.600 143.380,227.600 143.600 C 227.600 143.820,227.878 144.000,228.217 144.000 C 228.556 144.000,229.220 144.360,229.692 144.800 C 230.164 145.240,230.787 145.600,231.075 145.600 C 231.364 145.600,231.600 145.780,231.600 146.000 C 231.600 146.220,231.920 146.400,232.312 146.400 C 232.703 146.400,233.283 146.760,233.600 147.200 C 233.917 147.640,234.457 148.000,234.800 148.000 C 235.143 148.000,235.683 148.360,236.000 148.800 C 236.317 149.240,236.804 149.600,237.082 149.600 C 238.214 149.600,250.400 161.852,250.400 162.990 C 250.400 163.228,250.760 163.683,251.200 164.000 C 251.640 164.317,252.000 164.857,252.000 165.200 C 252.000 165.543,252.360 166.083,252.800 166.400 C 253.240 166.717,253.600 167.297,253.600 167.688 C 253.600 168.080,253.780 168.400,254.000 168.400 C 254.220 168.400,254.400 168.636,254.400 168.925 C 254.400 169.213,254.760 169.836,255.200 170.308 C 255.640 170.780,256.000 171.444,256.000 171.783 C 256.000 172.122,256.180 172.400,256.400 172.400 C 256.620 172.400,256.800 172.749,256.800 173.176 C 256.800 173.603,256.980 174.064,257.200 174.200 C 257.420 174.336,257.600 174.797,257.600 175.224 C 257.600 175.651,257.780 176.000,258.000 176.000 C 258.220 176.000,258.400 176.249,258.400 176.554 C 258.400 177.137,259.457 180.836,260.013 182.200 C 260.405 183.161,260.789 184.863,261.074 186.903 C 261.190 187.729,261.445 188.505,261.642 188.626 C 261.839 188.748,262.000 190.007,262.000 191.424 C 262.000 192.875,262.175 194.000,262.400 194.000 C 262.649 194.000,262.800 196.267,262.800 200.000 C 262.800 203.733,262.649 206.000,262.400 206.000 C 262.175 206.000,262.000 207.125,262.000 208.576 C 262.000 209.993,261.839 211.252,261.642 211.374 C 261.445 211.495,261.190 212.271,261.074 213.097 C 260.789 215.137,260.405 216.839,260.013 217.800 C 259.457 219.164,258.400 222.863,258.400 223.446 C 258.400 223.751,258.220 224.000,258.000 224.000 C 257.780 224.000,257.600 224.349,257.600 224.776 C 257.600 225.203,257.420 225.664,257.200 225.800 C 256.980 225.936,256.800 226.397,256.800 226.824 C 256.800 227.251,256.620 227.600,256.400 227.600 C 256.180 227.600,256.000 227.878,256.000 228.217 C 256.000 228.556,255.640 229.220,255.200 229.692 C 254.760 230.164,254.400 230.787,254.400 231.075 C 254.400 231.364,254.220 231.600,254.000 231.600 C 253.780 231.600,253.600 231.920,253.600 232.312 C 253.600 232.703,253.240 233.283,252.800 233.600 C 252.360 233.917,252.000 234.457,252.000 234.800 C 252.000 235.143,251.640 235.683,251.200 236.000 C 250.760 236.317,250.400 236.772,250.400 237.010 C 250.400 238.153,238.153 250.400,237.010 250.400 C 236.772 250.400,236.317 250.760,236.000 251.200 C 235.683 251.640,235.143 252.000,234.800 252.000 C 234.457 252.000,233.917 252.360,233.600 252.800 C 233.283 253.240,232.718 253.600,232.345 253.600 C 231.972 253.600,231.607 253.735,231.533 253.900 C 231.366 254.276,229.236 255.575,228.300 255.871 C 227.915 255.993,227.600 256.252,227.600 256.447 C 227.600 256.641,227.251 256.800,226.824 256.800 C 226.397 256.800,225.936 256.980,225.800 257.200 C 225.664 257.420,225.203 257.600,224.776 257.600 C 224.349 257.600,224.000 257.780,224.000 258.000 C 224.000 258.220,223.751 258.400,223.446 258.400 C 222.863 258.400,219.164 259.457,217.800 260.013 C 216.839 260.405,215.137 260.789,213.097 261.074 C 212.271 261.190,211.495 261.445,211.374 261.642 C 211.252 261.839,209.993 262.000,208.576 262.000 C 207.125 262.000,206.000 262.175,206.000 262.400 C 206.000 262.649,203.733 262.800,200.000 262.800 C 196.267 262.800,194.000 262.649,194.000 262.400 C 194.000 262.175,192.875 262.000,191.424 262.000 C 190.007 262.000,188.748 261.839,188.626 261.642 C 188.505 261.445,187.729 261.190,186.903 261.074 C 184.863 260.789,183.161 260.405,182.200 260.013 C 180.836 259.457,177.137 258.400,176.554 258.400 C 176.249 258.400,176.000 258.220,176.000 258.000 C 176.000 257.780,175.651 257.600,175.224 257.600 C 174.797 257.600,174.336 257.420,174.200 257.200 C 174.064 256.980,173.603 256.800,173.176 256.800 C 172.749 256.800,172.400 256.641,172.400 256.447 C 172.400 256.252,172.085 255.993,171.700 255.871 C 170.764 255.575,168.634 254.276,168.467 253.900 C 168.393 253.735,168.028 253.600,167.655 253.600 C 167.282 253.600,166.717 253.240,166.400 252.800 C 166.083 252.360,165.543 252.000,165.200 252.000 C 164.857 252.000,164.317 251.640,164.000 251.200 C 163.683 250.760,163.228 250.400,162.990 250.400 C 161.869 250.400,149.600 238.197,149.600 237.082 C 149.600 236.804,149.240 236.317,148.800 236.000 C 148.360 235.683,148.000 235.143,148.000 234.800 C 148.000 234.457,147.640 233.917,147.200 233.600 C 146.760 233.283,146.400 232.703,146.400 232.312 C 146.400 231.920,146.241 231.600,146.047 231.600 C 145.852 231.600,145.593 231.285,145.471 230.900 C 145.175 229.964,143.876 227.834,143.500 227.667 C 143.335 227.593,143.200 227.199,143.200 226.790 C 143.200 226.382,143.020 225.936,142.800 225.800 C 142.580 225.664,142.400 225.203,142.400 224.776 C 142.400 224.349,142.220 224.000,142.000 224.000 C 141.780 224.000,141.600 223.751,141.600 223.446 C 141.600 222.863,140.543 219.164,139.987 217.800 C 139.595 216.839,139.211 215.137,138.926 213.097 C 138.810 212.271,138.555 211.495,138.358 211.374 C 138.161 211.252,138.000 209.993,138.000 208.576 C 138.000 207.125,137.825 206.000,137.600 206.000 C 137.351 206.000,137.200 203.733,137.200 200.000 C 137.200 196.267,137.351 194.000,137.600 194.000 C 137.825 194.000,138.000 192.875,138.000 191.424 C 138.000 190.007,138.180 188.736,138.400 188.600 C 138.620 188.464,138.800 187.654,138.800 186.800 C 138.800 185.946,138.980 185.136,139.200 185.000 C 139.420 184.864,139.600 184.311,139.600 183.771 C 139.600 183.231,139.763 182.477,139.963 182.095 C 140.442 181.178,141.600 177.259,141.600 176.554 C 141.600 176.249,141.780 176.000,142.000 176.000 C 142.220 176.000,142.400 175.651,142.400 175.224 C 142.400 174.797,142.580 174.336,142.800 174.200 C 143.020 174.064,143.200 173.603,143.200 173.176 C 143.200 172.749,143.380 172.400,143.600 172.400 C 143.820 172.400,144.000 172.122,144.000 171.783 C 144.000 171.444,144.360 170.780,144.800 170.308 C 145.240 169.836,145.600 169.213,145.600 168.925 C 145.600 168.636,145.780 168.400,146.000 168.400 C 146.220 168.400,146.400 168.080,146.400 167.688 C 146.400 167.297,146.760 166.717,147.200 166.400 C 147.640 166.083,148.000 165.543,148.000 165.200 C 148.000 164.857,148.360 164.317,148.800 164.000 C 149.240 163.683,149.600 163.196,149.600 162.918 C 149.600 161.857,161.857 149.600,162.918 149.600 C 163.196 149.600,163.683 149.240,164.000 148.800 C 164.317 148.360,164.857 148.000,165.200 148.000 C 165.543 148.000,166.083 147.640,166.400 147.200 C 166.717 146.760,167.297 146.400,167.688 146.400 C 168.080 146.400,168.400 146.220,168.400 146.000 C 168.400 145.780,168.636 145.600,168.925 145.600 C 169.213 145.600,169.836 145.240,170.308 144.800 C 170.780 144.360,171.444 144.000,171.783 144.000 C 172.122 144.000,172.400 143.820,172.400 143.600 C 172.400 143.380,172.749 143.200,173.176 143.200 C 173.603 143.200,174.064 143.020,174.200 142.800 C 174.336 142.580,174.797 142.400,175.224 142.400 C 175.651 142.400,176.000 142.220,176.000 142.000 C 176.000 141.780,176.249 141.600,176.554 141.600 C 177.259 141.600,181.178 140.442,182.095 139.963 C 182.477 139.763,183.231 139.600,183.771 139.600 C 184.311 139.600,184.864 139.420,185.000 139.200 C 185.136 138.980,185.946 138.800,186.800 138.800 C 187.654 138.800,188.464 138.620,188.600 138.400 C 188.736 138.180,190.007 138.000,191.424 138.000 C 192.875 138.000,194.000 137.825,194.000 137.600 C 194.000 137.351,196.267 137.200,200.000 137.200 C 203.733 137.200,206.000 137.351,206.000 137.600 " stroke="none" fill="#040404" fill-rule="evenodd"></path><path id="path1" d="" stroke="none" fill="#080404" fill-rule="evenodd"></path><path id="path2" d="" stroke="none" fill="#080404" fill-rule="evenodd"></path><path id="path3" d="" stroke="none" fill="#080404" fill-rule="evenodd"></path><path id="path4" d="" stroke="none" fill="#080404" fill-rule="evenodd"></path></g></svg>